<?xml version="1.0" encoding="utf-8"?>
<!-- Generator: Adobe Illustrator 16.0.4, SVG Export Plug-In . SVG Version: 6.00 Build 0)  -->
<!DOCTYPE svg PUBLIC "-//W3C//DTD SVG 1.1//EN" "http://www.w3.org/Graphics/SVG/1.1/DTD/svg11.dtd">
<svg version="1.1" id="Layer_1" xmlns="http://www.w3.org/2000/svg" xmlns:xlink="http://www.w3.org/1999/xlink" x="0px" y="0px"
	 width="24px" height="24px" viewBox="0 0 24 24" enable-background="new 0 0 24 24" xml:space="preserve">
<g>
	<path fill-rule="evenodd" clip-rule="evenodd" fill="#222222" d="M12.023,0c2.433,0,4.867,0,7.3,0c2.732,0,4.674,1.926,4.675,4.645
		c0.003,4.9,0.003,9.8,0,14.7c-0.002,2.715-1.945,4.647-4.673,4.648c-4.883,0.001-9.766,0.001-14.649,0
		c-2.751-0.001-4.674-1.934-4.675-4.696C0,14.447,0,9.597,0,4.748C0.001,1.91,1.9,0.001,4.723,0C7.156,0,9.59,0,12.023,0z
		 M10.043,12.996c-0.167-0.158-0.265-0.247-0.358-0.341c-0.931-0.93-1.856-1.866-2.794-2.789C6.254,9.24,5.761,9.25,5.129,9.873
		c-0.427,0.421-0.852,0.845-1.271,1.272c-0.609,0.62-0.609,1.088,0.013,1.713c1.752,1.757,3.507,3.513,5.265,5.265
		c0.626,0.624,1.118,0.624,1.76-0.004c0.631-0.617,1.25-1.247,1.875-1.871c2.427-2.427,4.854-4.852,7.278-7.28
		c0.726-0.727,0.722-1.221-0.005-1.954c-0.364-0.367-0.729-0.732-1.096-1.095c-0.704-0.693-1.171-0.693-1.867,0.002
		c-1.851,1.848-3.7,3.697-5.547,5.548C11.041,11.964,10.559,12.467,10.043,12.996z"/>
</g>
</svg>
