<?xml version="1.0" encoding="utf-8"?>
<!-- Generator: Adobe Illustrator 16.0.4, SVG Export Plug-In . SVG Version: 6.00 Build 0)  -->
<!DOCTYPE svg PUBLIC "-//W3C//DTD SVG 1.1//EN" "http://www.w3.org/Graphics/SVG/1.1/DTD/svg11.dtd">
<svg version="1.1" id="Layer_1" xmlns="http://www.w3.org/2000/svg" xmlns:xlink="http://www.w3.org/1999/xlink" x="0px" y="0px"
	 width="24px" height="24px" viewBox="0 0 24 24" enable-background="new 0 0 24 24" xml:space="preserve">
<rect x="13" y="13" fill="#222222" width="10" height="10"/>
<rect x="14" y="14" fill="#222222" width="8" height="8"/>
<rect x="15" y="15" fill="#FFFFFF" width="6" height="6"/>
<rect x="12" y="13" fill="#222222" width="12" height="4"/>
<rect x="13" y="14" fill="#FFFFFF" width="10" height="2"/>
<polygon fill="#222222" points="17,13 17,14.7 17,18 17,19.4 18,19.5 19,19.4 19,18 19,14.7 19,13 "/>
<rect x="1" y="13" fill="#222222" width="10" height="10"/>
<rect x="2" y="14" fill="#222222" width="8" height="8"/>
<rect x="3" y="15" fill="#FFFFFF" width="6" height="6"/>
<rect y="13" fill="#222222" width="12" height="4"/>
<rect x="1" y="14" fill="#FFFFFF" width="10" height="2"/>
<polygon fill="#222222" points="5,13 5,14.7 5,18 5,19.4 6,19.5 7,19.4 7,18 7,14.7 7,13 "/>
<rect x="7" y="1" fill="#222222" width="10" height="10"/>
<rect x="8" y="2" fill="#222222" width="8" height="8"/>
<rect x="9" y="3" fill="#FFFFFF" width="6" height="6"/>
<rect x="6" y="1" fill="#222222" width="12" height="4"/>
<rect x="7" y="2" fill="#FFFFFF" width="10" height="2"/>
<polygon fill="#222222" points="11,1 11,2.7 11,6 11,7.4 12,7.5 13,7.4 13,6 13,2.7 13,1 "/>
</svg>
