<?xml version="1.0" encoding="utf-8"?>
<!-- Generator: Adobe Illustrator 16.0.4, SVG Export Plug-In . SVG Version: 6.00 Build 0)  -->
<!DOCTYPE svg PUBLIC "-//W3C//DTD SVG 1.1//EN" "http://www.w3.org/Graphics/SVG/1.1/DTD/svg11.dtd">
<svg version="1.1" id="Layer_1" xmlns="http://www.w3.org/2000/svg" xmlns:xlink="http://www.w3.org/1999/xlink" x="0px" y="0px"
	 width="24px" height="24px" viewBox="0 0 24 24" enable-background="new 0 0 24 24" xml:space="preserve">
<rect x="18" y="16.614" fill="#222222" width="5" height="5.386"/>
<rect x="19" y="17.328" fill="#FFFFFF" width="3" height="3.958"/>
<rect x="20" y="18.41" fill="#222222" width="1" height="1.795"/>
<rect x="18" y="9.474" fill="#222222" width="5.5" height="6.531"/>
<rect x="19.1" y="10.562" fill="#FFFFFF" width="3.301" height="4.354"/>
<rect x="20.199" y="11.651" fill="#222222" width="1.102" height="2.176"/>
<rect fill="#222222" width="20.4" height="24"/>
<rect x="1.2" y="1" fill="#FFFFFF" width="18" height="22"/>
<rect x="2.4" y="2" fill="#222222" width="15.6" height="20"/>
<rect x="18" y="2" fill="#222222" width="6" height="7.125"/>
<rect x="19.2" y="3.188" fill="#FFFFFF" width="3.6" height="4.75"/>
<rect x="20.4" y="4.375" fill="#222222" width="1.199" height="2.375"/>
<path fill="#FFFFFF" d="M15.24,18.05C14.4,18.644,13.8,19,13.2,19c-0.36,0-0.601-0.118-0.84-0.356C12.12,18.406,12,18.169,12,17.812
	c0-0.476,0.24-0.831,0.6-1.188c0.36-0.356,1.2-0.831,2.641-1.425v-0.594c0-0.476,0-0.713-0.121-0.831c0-0.119-0.12-0.238-0.24-0.356
	c-0.121-0.119-0.24-0.119-0.479-0.119c-0.241,0-0.48,0.119-0.721,0.237c-0.12,0.119-0.12,0.119-0.12,0.238
	c0,0.118,0,0.237,0.24,0.355c0.12,0.238,0.24,0.356,0.24,0.476c0,0.237-0.12,0.355-0.24,0.475s-0.36,0.238-0.6,0.238
	c-0.241,0-0.479-0.121-0.721-0.238c-0.24-0.119-0.24-0.356-0.24-0.594c0-0.356,0.12-0.594,0.36-0.831
	c0.24-0.237,0.601-0.475,1.08-0.594s0.841-0.237,1.32-0.237c0.6,0,1.078,0.118,1.32,0.356c0.361,0.237,0.6,0.475,0.6,0.831
	c0.121,0.237,0.121,0.594,0.121,1.188v2.256c0,0.238,0,0.475,0,0.475c0,0.119,0,0.119,0.12,0.119h0.12
	c0.12,0,0.239-0.119,0.359-0.237l0.241,0.118c-0.241,0.357-0.48,0.594-0.721,0.713c-0.241,0.119-0.479,0.238-0.841,0.238
	c-0.359,0-0.6-0.121-0.839-0.238C15.36,18.524,15.24,18.288,15.24,18.05z M15.24,17.575v-2.02c-0.48,0.357-0.961,0.594-1.2,0.951
	c-0.12,0.236-0.24,0.475-0.24,0.713c0,0.239,0.12,0.356,0.24,0.475c0.12,0.119,0.239,0.119,0.48,0.119
	C14.64,17.931,14.88,17.812,15.24,17.575z"/>
<path fill="#FFFFFF" d="M8.4,16.149H5.28l-0.36,0.832c-0.12,0.237-0.24,0.475-0.24,0.713c0,0.236,0.12,0.475,0.24,0.594
	c0.121,0.118,0.36,0.118,0.84,0.118v0.237H3v-0.237c0.36,0,0.6-0.118,0.72-0.356c0.24-0.237,0.48-0.594,0.721-1.307L7.56,9.856H7.68
	l3.12,7.125c0.241,0.713,0.6,1.068,0.72,1.307c0.12,0.118,0.36,0.236,0.6,0.236v0.236h-4.08v-0.236H8.16c0.36,0,0.6,0,0.72-0.119
	C9,18.285,9,18.285,9,18.167s0-0.118,0-0.236c0,0-0.12-0.236-0.24-0.475L8.4,16.149z M8.16,15.675L6.84,12.706l-1.32,2.969H8.16z"/>
</svg>
