<?xml version="1.0" encoding="utf-8"?>
<!-- Generator: Adobe Illustrator 16.0.4, SVG Export Plug-In . SVG Version: 6.00 Build 0)  -->
<!DOCTYPE svg PUBLIC "-//W3C//DTD SVG 1.1//EN" "http://www.w3.org/Graphics/SVG/1.1/DTD/svg11.dtd">
<svg version="1.1" id="Layer_1" xmlns="http://www.w3.org/2000/svg" xmlns:xlink="http://www.w3.org/1999/xlink" x="0px" y="0px"
	 width="24px" height="24px" viewBox="0 0 24 24" enable-background="new 0 0 24 24" xml:space="preserve">
<path fill="#222222" d="M2.203,20.476L0,21.649V24h11.75v-0.294c0-0.367-0.367-0.881-0.734-1.102l-4.406-2.276
	c-0.367-0.22-0.441-0.587-0.22-0.882c0,0,1.175-1.469,1.175-3.084c0.073-2.276-1.396-4.112-3.158-4.112s-3.231,1.909-3.231,4.187
	c0,1.541,1.175,3.084,1.175,3.084C2.644,19.813,2.57,20.255,2.203,20.476z"/>
<path fill="#222222" d="M0.734,23.266v-1.249l1.836-0.954c0.367-0.22,0.587-0.515,0.734-0.882c0.074-0.367,0-0.807-0.293-1.102
	c0,0-1.028-1.321-1.028-2.643c-0.073-1.91,1.102-3.452,2.423-3.452s2.497,1.542,2.497,3.452c0,1.248-1.028,2.57-1.028,2.643
	c-0.22,0.295-0.367,0.734-0.293,1.102c0.073,0.367,0.367,0.734,0.734,0.882l4.333,2.203H0.734z"/>
<path fill="#222222" d="M1.469,22.531L1.469,22.531l1.395-0.808c0.588-0.294,0.955-0.809,1.102-1.396
	c0.147-0.587,0-1.249-0.44-1.688c-0.22-0.295-0.881-1.322-0.881-2.203c0-1.469,0.808-2.718,1.762-2.718s1.762,1.249,1.762,2.718
	c0,0.807-0.661,1.836-0.881,2.203c-0.367,0.514-0.514,1.102-0.367,1.688c0.146,0.587,0.514,1.102,1.102,1.396l1.615,0.808H1.469z"/>
<path fill="#222222" d="M24,24v-3.4l-3-1.5c-0.5-0.3-0.6-0.8-0.3-1.199c0,0,1.6-2,1.6-4.199C22.3,10.5,20.4,8,17.9,8
	c-2.4,0-4.4,2.6-4.4,5.7c0,2.1,1.6,4.2,1.6,4.2c0.301,0.398,0.2,1-0.3,1.3l-6,3.2c-0.5,0.3-1,0.898-1,1.5V24H24z"/>
<path fill="#222222" d="M9.8,23l5.7-3c0.5-0.3,0.8-0.7,1-1.2c0.1-0.5,0-1.1-0.4-1.5c0,0-1.398-1.8-1.398-3.6
	c0-2.6,1.5-4.7,3.398-4.7c1.9,0,3.4,2.1,3.4,4.7c0,1.8-1.4,3.6-1.4,3.6c-0.3,0.4-0.5,1-0.398,1.5c0.1,0.5,0.5,1,1,1.2l2.398,1.2V23
	H9.8z"/>
<path fill="#222222" d="M13.9,22l2.1-1.1c0.8-0.4,1.3-1.102,1.5-1.9s0-1.7-0.6-2.3c-0.301-0.4-1.2-1.8-1.2-3c0-2,1.1-3.7,2.399-3.7
	c1.301,0,2.399,1.7,2.399,3.7c0,1.2-0.899,2.5-1.2,3c-0.5,0.7-0.699,1.5-0.6,2.3c0.199,0.8,0.699,1.5,1.5,1.9l1.898,1V22H13.9z"/>
<path fill="#222222" d="M12.5,10.4c1.4-1.1,2.4-2.6,2.4-4.3c0.1-3.3-3.2-6-7.3-6.1C3.4-0.1,0.1,2.5,0,5.8c-0.1,3.3,3.2,6,7.3,6.1
	c1,0,2-0.1,2.9-0.4c0.8,1,2.8,1.4,2.8,1.4S12.2,11.7,12.5,10.4z"/>
<path fill="#222222" d="M7.4,9.9C4.4,9.9,2,8,2,5.9S4.5,2,7.4,2h0.1c1.5,0,2.9,0.5,4,1.4c0.9,0.8,1.4,1.7,1.4,2.7S12.3,8.1,11.3,8.8
	l-0.6,0.4v0.1L9.6,9.6C9,9.8,8.2,9.9,7.5,9.9H7.4z"/>
<path fill="#FFFFFF" d="M4.55,3.666h2.781v2.195c0,0.732-0.146,1.463-0.439,1.902C6.599,8.203,6.014,8.641,5.135,8.934L4.55,7.763
	c0.585-0.146,0.878-0.439,1.025-0.585C5.721,6.886,5.867,6.739,5.867,6.3H4.55V3.666z M7.77,3.666h2.78v2.195
	c0,0.732-0.146,1.463-0.439,1.902C9.818,8.203,9.233,8.641,8.501,8.934L7.77,7.763c0.585-0.146,0.878-0.439,1.024-0.585
	C8.94,6.886,9.086,6.739,9.086,6.3H7.77V3.666z"/>
</svg>
