<?xml version="1.0" encoding="utf-8"?>
<!-- Generator: Adobe Illustrator 16.0.4, SVG Export Plug-In . SVG Version: 6.00 Build 0)  -->
<!DOCTYPE svg PUBLIC "-//W3C//DTD SVG 1.1//EN" "http://www.w3.org/Graphics/SVG/1.1/DTD/svg11.dtd">
<svg version="1.1" id="Layer_1" xmlns="http://www.w3.org/2000/svg" xmlns:xlink="http://www.w3.org/1999/xlink" x="0px" y="0px"
	 width="24px" height="24px" viewBox="0 0 24 24" enable-background="new 0 0 24 24" xml:space="preserve">
<path fill-rule="evenodd" clip-rule="evenodd" d="M22.287,8.272c1.09,0.195,1.705,0.832,1.713,1.723
	c0.007,0.898-0.609,1.546-1.712,1.754c0,0.144,0,0.296,0,0.449c-0.001,1.529,0.005,3.057-0.003,4.587
	c-0.005,0.855-0.495,1.494-1.271,1.729c-0.273,0.081-0.479,0.046-0.705-0.139c-1.942-1.591-4.029-2.95-6.378-3.869
	c-1.268-0.497-2.576-0.841-3.934-0.977c-0.19-0.019-0.406,0.008-0.58,0.081c-1.201,0.514-1.804,2.101-0.978,3.18
	c0.071,0.092,0.076,0.291,0.029,0.406c-0.3,0.742-0.245,1.428,0.273,2.05c0.447,0.535,0.91,1.059,1.433,1.666
	c-0.196,0.155-0.497,0.503-0.877,0.673c-1.345,0.604-2.71,0.598-4.055-0.043c-0.309-0.147-0.518-0.369-0.611-0.72
	c-0.372-1.388-0.818-2.758-1.129-4.159c-0.235-1.058,0-2.128,0.264-3.229c-0.503,0-0.982,0.003-1.461,0
	c-1.408-0.009-2.298-0.9-2.305-2.307c-0.003-0.729-0.002-1.458,0-2.186C0.005,7.465,0.872,6.59,2.34,6.585
	c2.172-0.006,4.344,0.018,6.515-0.02c2.673-0.046,5.154-0.842,7.435-2.188c1.396-0.824,2.688-1.828,4.039-2.729
	c0.174-0.116,0.452-0.179,0.653-0.134c0.805,0.181,1.298,0.855,1.303,1.733c0.007,1.515,0.002,3.029,0.002,4.543
	C22.287,7.947,22.287,8.102,22.287,8.272z M20.553,16.376c0-4.28,0-8.479,0-12.758c-3.105,2.329-6.395,4.11-10.248,4.576
	c0,1.24,0,2.421,0,3.635C14.162,12.297,17.444,14.047,20.553,16.376z"/>
</svg>
