<?xml version="1.0" encoding="utf-8"?>
<!-- Generator: Adobe Illustrator 16.0.4, SVG Export Plug-In . SVG Version: 6.00 Build 0)  -->
<!DOCTYPE svg PUBLIC "-//W3C//DTD SVG 1.1//EN" "http://www.w3.org/Graphics/SVG/1.1/DTD/svg11.dtd">
<svg version="1.1" id="Layer_1" xmlns="http://www.w3.org/2000/svg" xmlns:xlink="http://www.w3.org/1999/xlink" x="0px" y="0px"
	 width="24px" height="24px" viewBox="0 0 24 24" enable-background="new 0 0 24 24" xml:space="preserve">
<g>
	<path fill-rule="evenodd" clip-rule="evenodd" fill="#222222" d="M3.559,15.049c-0.661-0.555-1.307-1.012-1.852-1.566
		c-1.845-1.881-2.22-4.387-0.997-6.518c0.739-1.288,1.822-2.237,3.135-2.896c3.296-1.655,6.694-1.779,10.123-0.479
		c1.995,0.757,3.654,1.984,4.492,4.033c0.822,2.014,0.416,3.879-0.97,5.513c-1.583,1.866-3.698,2.754-6.062,3.137
		c-1.307,0.213-2.613,0.206-3.924,0.02c-0.253-0.036-0.571,0.042-0.79,0.179c-1.334,0.84-2.767,1.413-4.326,1.644
		c-0.184,0.029-0.486-0.071-0.57-0.212c-0.081-0.138-0.017-0.444,0.094-0.598c0.3-0.415,0.683-0.77,0.989-1.18
		C3.162,15.774,3.36,15.379,3.559,15.049z"/>
	<path fill-rule="evenodd" clip-rule="evenodd" fill="#222222" d="M20.343,7.648c2.287,1.147,4.28,3.75,3.475,6.7
		c-0.43,1.576-1.45,2.725-2.765,3.636c-0.658,0.455-0.695,0.466-0.246,1.127c0.367,0.539,0.815,1.024,1.231,1.53
		c0.164,0.201,0.348,0.392,0.182,0.684c-0.172,0.303-0.423,0.258-0.707,0.21c-1.483-0.245-2.861-0.771-4.115-1.595
		c-0.34-0.225-0.655-0.274-1.04-0.217c-2.026,0.308-4.015,0.141-5.944-0.555c-0.671-0.241-1.305-0.59-1.914-0.979
		c0.832-0.037,1.669-0.031,2.495-0.123c2.815-0.311,5.36-1.271,7.368-3.342c1.877-1.937,2.643-4.225,1.983-6.907
		C20.332,7.766,20.343,7.708,20.343,7.648z"/>
</g>
</svg>
