<?xml version="1.0" encoding="utf-8"?>
<!-- Generator: Adobe Illustrator 16.0.4, SVG Export Plug-In . SVG Version: 6.00 Build 0)  -->
<!DOCTYPE svg PUBLIC "-//W3C//DTD SVG 1.1//EN" "http://www.w3.org/Graphics/SVG/1.1/DTD/svg11.dtd">
<svg version="1.1" id="Layer_1" xmlns="http://www.w3.org/2000/svg" xmlns:xlink="http://www.w3.org/1999/xlink" x="0px" y="0px"
	 width="24px" height="24px" viewBox="0 0 24 24" enable-background="new 0 0 24 24" xml:space="preserve">
<rect x="11" y="13" fill="#222222" width="13" height="7"/>
<rect x="12" y="14" fill="#FFFFFF" width="11" height="5"/>
<rect x="13" y="15" fill="#222222" width="9" height="3"/>
<rect x="13" y="0" fill="#222222" width="7" height="24"/>
<rect x="14" y="1" fill="#FFFFFF" width="5" height="22"/>
<rect x="15" y="2" fill="#222222" width="3" height="20"/>
<rect x="11.5" y="4" fill="#222222" width="12.5" height="7"/>
<rect x="12" y="5" fill="#FFFFFF" width="11" height="5"/>
<rect y="4" fill="#222222" width="12" height="7"/>
<rect x="1" y="5" fill="#FFFFFF" width="11" height="5"/>
<rect x="2" y="6" fill="#222222" width="20" height="3"/>
<rect x="4" y="0" fill="#222222" width="7" height="24"/>
<rect x="5" y="1" fill="#FFFFFF" width="5" height="22"/>
<rect x="6" y="2" fill="#222222" width="3" height="20"/>
<rect y="13" fill="#222222" width="12" height="7"/>
<rect x="1" y="14" fill="#FFFFFF" width="11" height="5"/>
<rect x="2" y="15" fill="#222222" width="11" height="3"/>
</svg>
