<?xml version="1.0" encoding="utf-8"?>
<!-- Generator: Adobe Illustrator 16.0.4, SVG Export Plug-In . SVG Version: 6.00 Build 0)  -->
<!DOCTYPE svg PUBLIC "-//W3C//DTD SVG 1.1//EN" "http://www.w3.org/Graphics/SVG/1.1/DTD/svg11.dtd">
<svg version="1.1" id="Layer_1" xmlns="http://www.w3.org/2000/svg" xmlns:xlink="http://www.w3.org/1999/xlink" x="0px" y="0px"
	 width="24px" height="24px" viewBox="0 0 24 24" enable-background="new 0 0 24 24" xml:space="preserve">
<path fill="#222222" d="M14.4,0L0.6,13.9c-0.8,0.8-0.8,2.1,0,2.8l6.7,6.7c0.8,0.8,2,0.8,2.8,0L24,9.6V0H14.4z"/>
<path fill="#222222" d="M8.7,23c-0.3,0-0.5-0.1-0.7-0.3L1.3,16C1.1,15.8,1,15.6,1,15.3s0.1-0.5,0.3-0.7L14.9,1H23v8.2L9.4,22.7
	C9.2,22.9,9,23,8.7,23L8.7,23z"/>
<polygon fill="#FFFFFF" points="2,15.3 15.3,2 22,2 22,8.8 8.7,22 "/>
<polygon fill="#222222" points="3.4,15.3 8.7,10 14.1,15.3 8.7,20.6 "/>
<path fill="#222222" d="M19.6,8.4l-5.5,5.5L13.4,13.2l5.5-5.5L19.6,8.4z M17.5,6.3L12,11.8l0.7,0.7L18.2,7L17.5,6.3z M16.1,4.9
	l-5.5,5.5l0.7,0.7l5.5-5.5L16.1,4.9z"/>
<ellipse fill="#222222" cx="19.7" cy="4.3" rx="1.3" ry="1.3"/>
</svg>
