<?xml version="1.0" encoding="utf-8"?>
<!-- Generator: Adobe Illustrator 16.0.4, SVG Export Plug-In . SVG Version: 6.00 Build 0)  -->
<!DOCTYPE svg PUBLIC "-//W3C//DTD SVG 1.1//EN" "http://www.w3.org/Graphics/SVG/1.1/DTD/svg11.dtd">
<svg version="1.1" id="Layer_1" xmlns="http://www.w3.org/2000/svg" xmlns:xlink="http://www.w3.org/1999/xlink" x="0px" y="0px"
	 width="24px" height="24px" viewBox="0 0 24 24" enable-background="new 0 0 24 24" xml:space="preserve">
<path fill-rule="evenodd" clip-rule="evenodd" fill="#222222" d="M4.425,3.466c0-0.41,0-0.794,0.001-1.179
	C4.428,1.004,5.328,0.1,6.607,0.102c0.378,0,0.761-0.014,1.133,0.04c0.966,0.139,1.71,1.006,1.733,1.985
	c0.009,0.434,0.001,0.869,0.001,1.321c1.68,0,3.351,0,5.05,0c0-0.077,0-0.158,0-0.239c0.004-0.421-0.029-0.846,0.021-1.261
	c0.137-1.099,1.012-1.847,2.122-1.847c0.393,0,0.789-0.015,1.175,0.041c0.956,0.137,1.701,1,1.728,1.967
	c0.013,0.441,0.002,0.882,0.002,1.356c0.078,0,0.146,0,0.212,0c0.471,0,0.94-0.002,1.409,0.001c1.007,0.006,1.744,0.732,1.745,1.738
	c0.004,5.567,0.004,11.135,0,16.702c0,1.019-0.735,1.753-1.752,1.753c-6.121,0.003-12.243,0.003-18.364,0
	c-1.028,0-1.762-0.735-1.762-1.764c-0.002-5.554-0.002-11.107,0-16.661c0-1.041,0.732-1.765,1.778-1.769
	C3.357,3.464,3.875,3.466,4.425,3.466z M11.565,17.345c0-1.41,0-2.801,0-4.187c-1.404,0-2.795,0-4.176,0c0,1.405,0,2.795,0,4.187
	C8.787,17.345,10.167,17.345,11.565,17.345z M16.615,17.345c0-1.41,0-2.801,0-4.187c-1.404,0-2.795,0-4.176,0
	c0,1.405,0,2.795,0,4.187C13.837,17.345,15.217,17.345,16.615,17.345z M16.619,18.206c-1.406,0-2.797,0-4.182,0
	c0,1.266,0,2.514,0,3.762c1.403,0,2.788,0,4.182,0C16.619,20.711,16.619,19.466,16.619,18.206z M7.38,21.964
	c1.408,0,2.797,0,4.189,0c0-1.261,0-2.506,0-3.762c-1.399,0-2.79,0-4.189,0C7.38,19.458,7.38,20.703,7.38,21.964z M11.565,12.296
	c0-1.271,0-2.52,0-3.768c-1.404,0-2.795,0-4.176,0c0,1.266,0,2.517,0,3.768C8.787,12.296,10.167,12.296,11.565,12.296z M16.62,8.529
	c-1.408,0-2.799,0-4.182,0c0,1.265,0,2.515,0,3.761c1.403,0,2.788,0,4.182,0C16.62,11.033,16.62,9.787,16.62,8.529z M6.52,13.156
	c-1.266,0-2.516,0-3.76,0c0,1.405,0,2.796,0,4.184c1.261,0,2.506,0,3.76,0C6.52,15.941,6.52,14.557,6.52,13.156z M17.485,13.151
	c0,1.407,0,2.798,0,4.189c1.261,0,2.505,0,3.76,0c0-1.4,0-2.791,0-4.189C19.99,13.151,18.744,13.151,17.485,13.151z M21.244,21.975
	c0-1.271,0-2.521,0-3.769c-1.264,0-2.514,0-3.756,0c0,1.267,0,2.516,0,3.769C18.745,21.975,19.984,21.975,21.244,21.975z
	 M2.759,18.2c0,1.269,0,2.519,0,3.769c1.26,0,2.505,0,3.759,0c0-1.261,0-2.511,0-3.769C5.262,18.2,4.016,18.2,2.759,18.2z
	 M21.248,8.528c-1.268,0-2.518,0-3.761,0c0,1.266,0,2.515,0,3.762c1.262,0,2.507,0,3.761,0C21.248,11.033,21.248,9.789,21.248,8.528
	z M2.759,8.522c0,1.269,0,2.519,0,3.768c1.261,0,2.505,0,3.758,0c0-1.261,0-2.511,0-3.768C5.261,8.522,4.016,8.522,2.759,8.522z
	 M16.208,4.071c0,0.617-0.002,1.234,0.002,1.852c0.002,0.315,0.167,0.48,0.479,0.487c0.238,0.005,0.478,0.005,0.716,0
	c0.314-0.006,0.483-0.169,0.483-0.483c0.004-1.227,0.004-2.454,0.001-3.681c-0.001-0.285-0.174-0.456-0.459-0.464
	c-0.231-0.006-0.463-0.002-0.694,0c-0.371,0.002-0.526,0.156-0.527,0.523C16.208,2.893,16.208,3.482,16.208,4.071z M7.792,4.108
	c0-0.617,0.003-1.234,0-1.851c-0.002-0.301-0.17-0.469-0.469-0.475c-0.245-0.005-0.491-0.004-0.736,0
	C6.284,1.788,6.112,1.954,6.111,2.251c-0.003,1.228-0.003,2.454,0,3.682c0.001,0.311,0.173,0.473,0.49,0.478
	c0.217,0.004,0.435,0.002,0.652,0c0.382-0.002,0.538-0.155,0.539-0.536C7.793,5.286,7.792,4.697,7.792,4.108z"/>
</svg>
