<?xml version="1.0" encoding="utf-8"?>
<!-- Generator: Adobe Illustrator 16.0.4, SVG Export Plug-In . SVG Version: 6.00 Build 0)  -->
<!DOCTYPE svg PUBLIC "-//W3C//DTD SVG 1.1//EN" "http://www.w3.org/Graphics/SVG/1.1/DTD/svg11.dtd">
<svg version="1.1" id="Layer_1" xmlns="http://www.w3.org/2000/svg" xmlns:xlink="http://www.w3.org/1999/xlink" x="0px" y="0px"
	 width="24px" height="24px" viewBox="0 0 24 24" enable-background="new 0 0 24 24" xml:space="preserve">
<g>
	<path fill-rule="evenodd" clip-rule="evenodd" fill="#222222" d="M11.99,23.097c-1.786,0-3.574,0.006-5.36-0.002
		c-1.096-0.004-2.116-0.255-2.781-1.201c-0.282-0.399-0.525-0.899-0.574-1.375c-0.204-1.979,0.029-3.913,0.926-5.719
		c0.575-1.157,1.493-1.884,2.804-2.069c0.377-0.053,0.696,0.012,1.022,0.216c0.596,0.373,1.185,0.785,1.832,1.047
		c1.857,0.753,3.648,0.529,5.337-0.54c0.102-0.063,0.193-0.145,0.3-0.196c0.387-0.189,0.769-0.491,1.17-0.525
		c0.702-0.06,1.359,0.222,1.938,0.636c0.67,0.482,1.108,1.152,1.408,1.902c0.654,1.637,0.887,3.348,0.727,5.096
		c-0.134,1.478-1.16,2.497-2.633,2.665c-0.605,0.07-1.224,0.061-1.835,0.064C14.843,23.103,13.417,23.097,11.99,23.097z"/>
	<path fill-rule="evenodd" clip-rule="evenodd" fill="#222222" d="M16.792,8.697c0,2.651-2.146,4.796-4.799,4.797
		c-2.653,0-4.8-2.145-4.799-4.796C7.194,6.039,9.333,3.9,11.992,3.9C14.65,3.899,16.791,6.04,16.792,8.697z"/>
	<path fill-rule="evenodd" clip-rule="evenodd" fill="#222222" d="M16.597,11.884c0.802-1.229,1.116-2.534,0.958-3.93
		c0.585,0.068,1.146,0.18,1.709,0.188c1.016,0.013,1.916-0.402,2.794-0.863c0.504-0.265,0.904-0.17,1.233,0.306
		c0.418,0.602,0.521,1.307,0.604,2.008c0.061,0.528,0.067,1.063,0.099,1.595c0.099,1.609-0.944,2.185-2.14,2.286
		c-0.582,0.051-1.172,0.021-1.759,0.017c-0.096-0.001-0.225-0.033-0.284-0.1C18.971,12.444,17.907,11.968,16.597,11.884z"/>
	<path fill-rule="evenodd" clip-rule="evenodd" fill="#222222" d="M6.43,7.903c-0.149,1.433,0.144,2.744,0.958,3.972
		c-0.897,0.086-1.702,0.283-2.395,0.794c-0.183,0.133-0.396,0.252-0.52,0.432c-0.269,0.388-0.634,0.424-1.048,0.396
		c-0.583-0.038-1.178-0.001-1.751-0.099c-1.122-0.192-1.707-0.9-1.672-2.036c0.026-0.875,0.125-1.751,0.242-2.621
		c0.046-0.347,0.19-0.697,0.36-1.007c0.352-0.642,0.768-0.743,1.414-0.407c1.067,0.555,2.17,0.966,3.405,0.781
		C5.748,8.061,6.069,7.978,6.43,7.903z"/>
	<path fill-rule="evenodd" clip-rule="evenodd" fill="#222222" d="M4.781,0.7c1.753-0.006,3.206,1.44,3.207,3.196
		c0.001,1.75-1.46,3.206-3.208,3.195c-1.741-0.01-3.172-1.437-3.187-3.177C1.579,2.164,3.023,0.707,4.781,0.7z"/>
	<path fill-rule="evenodd" clip-rule="evenodd" fill="#222222" d="M19.21,0.7c1.76,0.013,3.205,1.478,3.182,3.221
		c-0.024,1.746-1.456,3.166-3.193,3.17c-1.75,0.003-3.21-1.458-3.2-3.202C16.007,2.129,17.458,0.687,19.21,0.7z"/>
</g>
</svg>
