<?xml version="1.0" encoding="utf-8"?>
<!-- Generator: Adobe Illustrator 16.0.4, SVG Export Plug-In . SVG Version: 6.00 Build 0)  -->
<!DOCTYPE svg PUBLIC "-//W3C//DTD SVG 1.1//EN" "http://www.w3.org/Graphics/SVG/1.1/DTD/svg11.dtd">
<svg version="1.1" id="Layer_1" xmlns="http://www.w3.org/2000/svg" xmlns:xlink="http://www.w3.org/1999/xlink" x="0px" y="0px"
	 width="24px" height="24px" viewBox="0 0 24 24" enable-background="new 0 0 24 24" xml:space="preserve">
<g>
	<path fill-rule="evenodd" clip-rule="evenodd" fill="#222222" d="M22.828,5.324c0.848,0.27,1.359,1.144,1.107,2.087
		c-0.414,1.544-0.889,3.072-1.351,4.604c-0.856,2.841-1.724,5.68-2.585,8.521c-0.493,1.629-1.602,2.45-3.314,2.451
		c-4.269,0-8.538,0.003-12.807-0.002c-1.841-0.002-3.554-1.368-3.856-3.161c-0.096-0.569,0.142-1.188,0.101-1.775
		c-0.066-0.924,0.283-1.655,0.742-2.422c0.542-0.904,0.998-1.878,0.933-2.998c-0.01-0.161,0.134-0.331,0.207-0.497
		c0.391-0.88,0.79-1.757,1.166-2.644c0.069-0.163,0.097-0.376,0.056-0.545C3.091,8.387,3.395,8.051,3.701,7.636
		c0.71-0.96,1.241-2.015,1.102-3.282c-0.018-0.164,0.066-0.357,0.15-0.51c0.354-0.643,0.756-1.261,1.083-1.917
		C6.515,0.965,6.853,0.77,7.92,0.875c0.33,0.033,0.67-0.07,1.006-0.071c3.514-0.006,7.027-0.005,10.541-0.003
		c1.69,0.001,2.588,1.123,2.104,2.747c-1.359,4.57-2.746,9.131-4.157,13.685c-0.533,1.722-1.06,2.054-2.861,2.054
		c-4.007,0.001-8.014,0-12.021,0.002c-0.348,0-0.739-0.071-0.925,0.341c-0.135,0.299,0.084,0.922,0.498,1.1
		c0.508,0.218,1.081,0.393,1.627,0.399c2.989,0.037,5.979,0.018,8.969,0.018c1.371,0,2.743,0.002,4.114-0.001
		c1.009-0.002,1.393-0.28,1.682-1.23c1.384-4.549,2.768-9.098,4.144-13.65C22.734,5.96,22.768,5.638,22.828,5.324z M12.938,6.35
		c1.216,0,2.432,0,3.646,0c1.265,0,1.302-0.028,1.642-1.243c0.127-0.454,0.022-0.613-0.438-0.614
		c-2.831-0.004-5.662-0.001-8.493-0.003c-0.389,0-0.639,0.177-0.761,0.543C8.465,5.237,8.394,5.44,8.331,5.646
		C8.157,6.215,8.249,6.348,8.83,6.349C10.199,6.352,11.568,6.35,12.938,6.35z M11.763,10.049c1.384,0,2.77-0.011,4.155,0.006
		c0.492,0.006,0.786-0.193,0.917-0.659c0.046-0.163,0.104-0.322,0.154-0.483c0.185-0.6,0.101-0.721-0.516-0.722
		c-2.601-0.001-5.201,0-7.802,0c-1.17,0-1.17,0-1.531,1.132C7.136,9.337,7.129,9.352,7.125,9.366
		c-0.166,0.536-0.067,0.68,0.483,0.682C8.993,10.052,10.378,10.049,11.763,10.049z"/>
</g>
</svg>
