<?xml version="1.0" encoding="utf-8"?>
<!-- Generator: Adobe Illustrator 16.0.4, SVG Export Plug-In . SVG Version: 6.00 Build 0)  -->
<!DOCTYPE svg PUBLIC "-//W3C//DTD SVG 1.1//EN" "http://www.w3.org/Graphics/SVG/1.1/DTD/svg11.dtd">
<svg version="1.1" id="Layer_1" xmlns="http://www.w3.org/2000/svg" xmlns:xlink="http://www.w3.org/1999/xlink" x="0px" y="0px"
	 width="24px" height="24px" viewBox="0 0 24 24" enable-background="new 0 0 24 24" xml:space="preserve">
<g>
	<path fill="#222222" d="M11.678,13.614c-0.367-0.354-0.708-0.677-1.049-1.003c-0.079-0.074-0.159-0.148-0.135-0.127
		c-0.787,0.372-1.482,0.833-2.245,1.027c-1.384,0.354-2.701,0.065-3.763-0.942c-1.161-1.104-2.309-2.226-3.397-3.398
		c-1.522-1.645-1.468-4.105,0.079-5.72c0.749-0.783,1.52-1.546,2.305-2.292c1.678-1.595,4.209-1.587,5.868,0.021
		c1.015,0.984,2.004,1.995,2.998,3.001c1.71,1.733,1.786,4.117,0.2,5.985c-0.05,0.059-0.094,0.122-0.12,0.155
		c0.427,0.438,0.84,0.864,1.271,1.305c0.938-0.922,2.063-1.338,3.379-1.249c0.98,0.066,1.84,0.42,2.537,1.101
		c1.113,1.085,2.232,2.167,3.297,3.303c1.565,1.665,1.527,4.146-0.053,5.79c-0.729,0.758-1.479,1.498-2.238,2.227
		c-1.727,1.66-4.26,1.651-5.971-0.023c-0.996-0.979-1.979-1.975-2.959-2.971c-1.7-1.726-1.764-4.154-0.168-5.984
		C11.552,13.771,11.59,13.723,11.678,13.614z M13.67,15.701c-0.615,0.568-0.686,1.38-0.1,1.992c1.008,1.059,2.039,2.091,3.088,3.106
		c0.539,0.525,1.381,0.538,1.93,0.025c0.782-0.728,1.537-1.483,2.271-2.259c0.479-0.508,0.498-1.308,0.021-1.803
		c-1.063-1.109-2.149-2.203-3.265-3.262c-0.563-0.535-1.44-0.414-1.893,0.176c1.117,1.23,1.275,1.916,0.594,2.608
		C15.652,16.969,15.04,16.831,13.67,15.701z M10.372,8.312c0.621-0.652,0.664-1.417,0.072-2.034c-1-1.042-2.02-2.065-3.057-3.07
		C6.824,2.66,6.001,2.651,5.427,3.187C4.66,3.904,3.917,4.65,3.19,5.41C2.693,5.93,2.671,6.736,3.166,7.251
		C4.22,8.35,5.294,9.431,6.397,10.48c0.557,0.53,1.413,0.428,1.915-0.144c-1.12-1.31-1.265-1.935-0.608-2.614
		C8.377,7.028,9.033,7.17,10.372,8.312z"/>
</g>
</svg>
