<?xml version="1.0" encoding="utf-8"?>
<!-- Generator: Adobe Illustrator 16.0.4, SVG Export Plug-In . SVG Version: 6.00 Build 0)  -->
<!DOCTYPE svg PUBLIC "-//W3C//DTD SVG 1.1//EN" "http://www.w3.org/Graphics/SVG/1.1/DTD/svg11.dtd">
<svg version="1.1" id="Layer_1" xmlns="http://www.w3.org/2000/svg" xmlns:xlink="http://www.w3.org/1999/xlink" x="0px" y="0px"
	 width="24px" height="24px" viewBox="0 0 24 24" enable-background="new 0 0 24 24" xml:space="preserve">
<polygon fill="#222222" points="14.4,0 13.4,0 3,0 2,0 2,24 3,24 21,24 22,24 22,7.9 "/>
<polygon fill="#FFFFFF" points="14,1 13,1 4,1 3,1 3,23 4,23 20,23 21,23 21,8.3 "/>
<polygon fill="#222222" points="13.6,2 12.6,2 5,2 4,2 4,22 5,22 19,22 20,22 20,8.7 "/>
<path fill="#222222" d="M13,9c0,0,5.2-1.5,9,0.4c0-0.1,0-1.5,0-1.5L14.4,0c0,0-1.801,0-2,0C15.1,3.7,13,9,13,9z"/>
<path fill="#FFFFFF" d="M20.4,7.8c-0.9-0.2-2-0.3-3.102-0.3c-1.1,0-2.1,0.1-3,0.3c0.4-1.6,0.7-4.1-0.199-6.4L20.4,7.8z"/>
<g>
	<polygon fill="#FFFFFF" stroke="#222222" stroke-miterlimit="10" points="8,16.9 3.2,11.9 0,15.1 8.8,23.9 23.7,1.9 	"/>
</g>
</svg>
