<?xml version="1.0" encoding="utf-8"?>
<!-- Generator: Adobe Illustrator 16.0.4, SVG Export Plug-In . SVG Version: 6.00 Build 0)  -->
<!DOCTYPE svg PUBLIC "-//W3C//DTD SVG 1.1//EN" "http://www.w3.org/Graphics/SVG/1.1/DTD/svg11.dtd">
<svg version="1.1" id="Layer_1" xmlns="http://www.w3.org/2000/svg" xmlns:xlink="http://www.w3.org/1999/xlink" x="0px" y="0px"
	 width="24px" height="24px" viewBox="0 0 24 24" enable-background="new 0 0 24 24" xml:space="preserve">
<rect x="5" y="10" fill="#222222" width="1" height="4"/>
<polygon fill="#222222" points="18,5 11,5 11,6 18,6 18,9 19,9 19,6 19,5 "/>
<path fill="#222222" d="M10,14H1c-0.6,0-1,0.4-1,1v1v7v1h1h9h1v-1v-7v-1C11,14.4,10.6,14,10,14z"/>
<rect x="1" y="17" fill="#FFFFFF" width="9" height="6"/>
<rect x="2" y="18" fill="#222222" width="7" height="4"/>
<rect x="1" y="15" fill="#FFFFFF" width="9" height="1"/>
<path fill="#222222" d="M23,9h-9c-0.6,0-1,0.4-1,1v1v7v1h1h9h1v-1v-7v-1C24,9.4,23.6,9,23,9z"/>
<rect x="14" y="12" fill="#FFFFFF" width="9" height="6"/>
<rect x="15" y="13" fill="#222222" width="7" height="4"/>
<rect x="14" y="10" fill="#FFFFFF" width="9" height="1"/>
<path fill="#222222" d="M10,0H1C0.4,0,0,0.4,0,1v1v7v1h1h9h1V9V2V1C11,0.4,10.6,0,10,0z"/>
<rect x="1" y="3" fill="#FFFFFF" width="9" height="6"/>
<rect x="2" y="4" fill="#222222" width="7" height="4"/>
<rect x="1" y="1" fill="#FFFFFF" width="9" height="1"/>
</svg>
