<?xml version="1.0" encoding="utf-8"?>
<!-- Generator: Adobe Illustrator 16.0.4, SVG Export Plug-In . SVG Version: 6.00 Build 0)  -->
<!DOCTYPE svg PUBLIC "-//W3C//DTD SVG 1.1//EN" "http://www.w3.org/Graphics/SVG/1.1/DTD/svg11.dtd">
<svg version="1.1" id="Layer_1" xmlns="http://www.w3.org/2000/svg" xmlns:xlink="http://www.w3.org/1999/xlink" x="0px" y="0px"
	 width="24px" height="24px" viewBox="0 0 24 24" enable-background="new 0 0 24 24" xml:space="preserve">
<polygon fill="#222222" points="16.3,0 15.4,0 6.7,0 6,0 6,20 6.7,20 21.7,20 22,20 22,6.6 "/>
<polygon fill="#222222" points="7,19 7,1 15.8,1 21,6.9 21,19 "/>
<polygon fill="#FFFFFF" points="8,19 8,2 15.4,2 20,7.631 20,19 "/>
<path fill="#222222" d="M14.8,7.5c0,0,5.2-1.3,7.2,0.3c0-0.1,0-1.2,0-1.2L16.2,0c0,0-1.5,0-1.601,0C16.8,3,14.8,7.5,14.8,7.5z"/>
<path fill="#222222" d="M16.3,6.2C16.6,5,16.8,3.3,16.4,1.8l4,4.4C20,6.1,19.4,6,18.8,6C17.9,6,17,6.1,16.3,6.2z"/>
<path fill="#222222" d="M10,18.9c-0.3-2.2,9.4,0.5,9.3-1.4c0-0.8-8.4-3.4-11.4-4.1c-0.9-0.2-6.5-1.2-6.5-1.2
	c-0.2,0.1-1.3,3.3-1.4,5.2c0.5,0.3,7.3,6.699,10,6.5c2.7-0.2,14.2-3.603,13.9-4.7C23.3,17.1,10.3,21.3,10,18.9z"/>
<path fill="#FFFFFF" stroke="#222222" stroke-width="0.2" stroke-miterlimit="10" d="M1.7,17.4C1.4,17.2,1.2,17,1,16.9
	C1.1,15.7,1.6,14.1,1.9,13.3c1.8,0.3,5.1,0.9,5.7,1c2.6,0.601,9.4,2.3,9.7,3C17.8,18.4,9,15.4,9.2,19c0.2,3.5,12.399-0.6,12.7,0.5
	C22.1,20.2,11.8,23.1,9.9,23C7.9,22.8,3.3,18.8,1.7,17.4z"/>
</svg>
