<?xml version="1.0" encoding="utf-8"?>
<!-- Generator: Adobe Illustrator 16.0.4, SVG Export Plug-In . SVG Version: 6.00 Build 0)  -->
<!DOCTYPE svg PUBLIC "-//W3C//DTD SVG 1.1//EN" "http://www.w3.org/Graphics/SVG/1.1/DTD/svg11.dtd">
<svg version="1.1" id="Layer_1" xmlns="http://www.w3.org/2000/svg" xmlns:xlink="http://www.w3.org/1999/xlink" x="0px" y="0px"
	 width="24px" height="24px" viewBox="0 0 24 24" enable-background="new 0 0 24 24" xml:space="preserve">
<g>
	<path fill-rule="evenodd" clip-rule="evenodd" fill="#222222" d="M0.001,18.383c0-0.203,0-0.332,0-0.463
		c0-3.937-0.001-7.873,0-11.809c0-1.917,1.193-3.109,3.108-3.11c1.171-0.001,2.343,0,3.515,0c1.977,0,3.12,1.105,3.183,3.08
		c0.001,0.041,0.009,0.081,0.02,0.19c0.136,0,0.278,0,0.42,0c2.098,0,4.195-0.001,6.293,0c1.863,0.002,3.065,1.202,3.074,3.064
		c0.002,0.596,0,1.192,0,1.832c-0.197,0-0.356,0-0.516,0c-3.297,0-6.593-0.011-9.89,0.004c-2.02,0.01-3.693,0.808-5.009,2.339
		c-1.303,1.519-2.594,3.048-3.892,4.571C0.232,18.168,0.143,18.244,0.001,18.383z"/>
	<path fill-rule="evenodd" clip-rule="evenodd" fill="#222222" d="M15.858,12.809c2.262,0,4.523-0.002,6.784,0.004
		c0.257,0.001,0.52,0.021,0.767,0.087c0.562,0.147,0.751,0.556,0.446,1.058c-0.252,0.415-0.583,0.784-0.898,1.158
		c-1.159,1.373-2.322,2.744-3.49,4.109c-0.996,1.166-2.269,1.746-3.799,1.748c-4.44,0.004-8.881,0.004-13.322,0
		c-0.256-0.002-0.521-0.014-0.769-0.074c-0.639-0.152-0.829-0.609-0.463-1.164c0.245-0.375,0.552-0.709,0.842-1.051
		c1.16-1.373,2.324-2.742,3.489-4.111c1.005-1.18,2.287-1.763,3.834-1.764C11.473,12.807,13.666,12.809,15.858,12.809z"/>
</g>
</svg>
