<?xml version="1.0" standalone="no"?>
<!DOCTYPE svg PUBLIC "-//W3C//DTD SVG 1.1//EN" "http://www.w3.org/Graphics/SVG/1.1/DTD/svg11.dtd" >
<svg xmlns="http://www.w3.org/2000/svg">
<metadata></metadata>
<defs>
<font id="supernett_cnbold_italic" horiz-adv-x="1046" >
<font-face units-per-em="2048" ascent="1597" descent="-451" />
<missing-glyph horiz-adv-x="399" />
<glyph unicode="fi" horiz-adv-x="1175" d="M1091 1085l1 -8v-2q0 -83 -28 -238.5t-28 -232.5q0 -59 -22 -149.5t-44 -162t-22 -85.5q0 -29 13 -29q7 0 31.5 3t31.5 3q61 0 61 -43q0 -52 -16 -94t-33 -47q-20 -5 -89.5 -9.5t-114.5 -4.5q-43 0 -81 46.5t-38 80.5q0 85 39 231q5 18 18.5 65t20 70t12.5 55.5t6 53.5 q0 46 4.5 103.5t14 145t11.5 114.5q-149 -6 -257 -21l-85 -15q-5 -147 -5 -215q0 -30 -43 -171.5t-46 -206.5q-3 -67 -36 -196t-37 -157q-3 -18 -8 -57.5t-8.5 -62.5t-12 -54.5t-20.5 -56.5q-31 -65 -79.5 -93t-144.5 -28q-56 0 -111 35.5t-55 79.5q0 27 52.5 76t79.5 49 q9 0 25.5 -15.5t25.5 -15.5q18 0 37 180q3 27 37 164t34 190q0 49 42 183.5t42 171.5q0 50 -2 152q-25 -9 -57 -26t-53 -29.5t-25 -12.5q-39 0 -39 180q0 44 109 84q15 5 75 17q5 41 13 71q41 172 81.5 241t100.5 83q5 1 30 8.5t46 12.5t60 10t81 5q94 0 94 -59 q0 -35 -18 -92t-41 -57q-4 0 -31.5 1t-44.5 1q-9 0 -37 -11.5t-47 -27.5q-40 -35 -54 -147l19 3q268 37 367 37q62 0 114 -15t73 -39q8 -6 11 -20zM1004 1503q27 0 60.5 -7.5t63 -27t29.5 -45.5q0 -49 -23 -105.5t-59 -56.5q-50 0 -101.5 22.5t-51.5 55.5q0 54 25 109t57 55 z" />
<glyph unicode="fl" horiz-adv-x="1218" d="M573 1284q-26 0 -61 -129q-5 -20 -8 -38l108 -9q50 -8 95 -29t45 -41q0 -33 -31 -92t-53 -59q-15 0 -61.5 14.5t-69.5 16.5l-47 3q-4 -124 -9 -153q-2 -11 -43.5 -158t-52.5 -229q-6 -43 -32 -212.5t-38 -262.5q-5 -40 -16.5 -79.5t-31.5 -80t-53.5 -65.5t-74.5 -25 q-49 0 -146 27.5t-97 60.5q0 34 35.5 92t62.5 58q14 0 42 -12.5t42 -12.5q9 0 24 117q9 81 32.5 239.5t25.5 171.5q8 71 50 236t44 180q3 18 11 120l-15 1q-48 0 -104 15.5t-56 37.5q0 33 29 96.5t57 63.5q32 0 110 -10q9 63 17 86q26 102 82 186q30 45 88.5 70.5 t124.5 25.5q57 0 127 -72t70 -112q0 -36 -43.5 -77.5t-79.5 -41.5q-19 0 -55 41t-44 41zM1024 477q-2 -9 -10.5 -40.5t-11 -41.5t-8 -35.5t-7.5 -40.5t-4 -37t-2 -44q0 -2 -0.5 -9t0 -11t2 -9t6 -7.5t12.5 -2.5q13 0 43.5 14t36.5 14q29 0 41.5 -59t12.5 -111 q0 -15 -31.5 -33t-97.5 -32.5t-146 -14.5q-104 0 -104 224q0 126 55 352q92 365 92 434q0 39 23 150q31 154 78 301q43 43 135 43q49 0 66.5 -12.5t17.5 -59.5q0 -7 -16 -62.5t-35 -125t-25 -101.5q-29 -157 -29 -202q0 -73 -94 -441z" />
<glyph unicode="TW" horiz-adv-x="2316" d="M739 1436q156 0 156 -39t-16.5 -111t-42.5 -72q-22 0 -65 5.5t-64 5.5q-37 0 -85 -6q-1 -7 -5 -38t-5 -44q-1 -29 3 -132.5t-5 -132.5q-11 -69 -38.5 -177.5t-46.5 -204.5t-19 -181q0 -69 -23 -178q-14 -62 -32 -104.5t-31 -42.5q-39 0 -109.5 25.5t-70.5 56.5 q0 15 4.5 39t11 52t8.5 40q19 114 19 178q0 54 43 233t51 232q11 66 9 192.5t6 192.5q-132 24 -228 53q-27 9 -27 57q0 27 14.5 82.5t30.5 55.5q44 0 75.5 -4t73.5 -12t75 -13q14 -2 47 -9t58.5 -10.5t47.5 -3.5q39 0 90 7.5t90 7.5zM2261 1458q45 0 94 -12.5t49 -42.5 q0 -19 -8 -55t-15.5 -62.5t-22 -75t-17.5 -57.5q-13 -43 -39.5 -142t-53 -182.5t-57.5 -150.5q-43 -94 -94.5 -245t-73.5 -193q-8 -14 -33 -54.5t-39.5 -69.5t-21.5 -59q-11 -44 -31.5 -55.5t-62.5 -11.5q-25 0 -53 2.5t-61 9t-54.5 19.5t-21.5 32q0 49 -5.5 147.5 t-5.5 147.5q0 28 -5 83t-5 83q0 315 -25 383q-29 -44 -67 -142t-43 -108q-19 -43 -71.5 -191t-92.5 -216q-8 -14 -33.5 -60t-45 -76.5t-40.5 -56.5q-20 -24 -80.5 -34.5t-111.5 -10.5q-101 0 -101 45q0 63 -6.5 179.5t-7.5 144.5q-5 47 -0.5 220.5t4.5 203.5q0 50 14.5 118 t34.5 135.5t23 79.5q8 36 36 118t42 157q8 37 127 37q27 0 44 -2t33.5 -14.5t14.5 -36.5q-3 -27 -40 -141.5t-48 -174.5q-3 -15 -19 -68t-28.5 -109t-12.5 -99q0 -53 -6.5 -165.5t-3.5 -203.5q1 -18 6 -54.5t6 -54.5q13 15 50.5 106t80.5 204.5t50 130.5q30 74 73.5 172.5 t105 205.5t89.5 107q18 0 64.5 -9t66.5 -9q87 0 117 -342q12 -106 12 -338q0 -63 8 -185q16 45 44.5 132t54 158.5t53.5 129.5q23 48 44 109t31.5 100.5t30 119t27.5 108.5q28 116 59 194q11 32 25.5 39.5t48.5 7.5z" />
<glyph unicode="rf" horiz-adv-x="1343" d="M1217 1274q-19 0 -34.5 -19.5t-24.5 -48t-13.5 -54t-5.5 -44.5l-4 -52q21 3 77 19.5t82 16.5q20 0 55 -59.5t35 -82.5q0 -29 -87 -61.5t-156 -32.5h-30q-15 -96 -21 -121q-61 -230 -70 -413q-4 -70 -30.5 -210t-26.5 -143q-3 -17 -8 -57.5t-8.5 -63t-12.5 -54t-21 -56.5 q-31 -65 -79 -93t-144 -28q-56 0 -111 35.5t-55 79.5q0 27 52 76t79 49q9 0 26 -15.5t26 -15.5q17 0 36 180q2 22 29 161t27 193q0 61 27 201t44 205q9 35 13 60q-92 -23 -95 -23q-38 0 -38 180q0 22 102 59q14 6 51 9q7 57 17 100q20 82 38 139t40.5 93.5t39 56.5t48.5 29 t53 10.5t67 1.5h13q69 0 150 -22t81 -56q0 -31 -28 -94.5t-52 -63.5q-27 0 -84 14.5t-69 14.5zM639 965q-8 -12 -30 -20.5t-57.5 -19t-57.5 -20.5l-65 -29q-4 -24 -13.5 -75t-16 -87t-6.5 -48q0 -41 -4.5 -83t-9 -68.5t-16 -82t-17.5 -88.5q-10 -52 -16.5 -83.5t-19 -79.5 t-25 -77t-29.5 -58.5t-38.5 -43.5t-47.5 -14t-77.5 33.5t-51.5 56.5q0 8 18.5 74t40.5 142.5t27 100.5q1 5 7 35.5t8.5 42.5t8 41.5t8 49t5.5 46t4.5 51t1.5 48.5q0 22 11.5 77.5t11.5 73.5q0 47 -68 66q-27 8 -27 47q0 32 23 93.5t43 61.5q110 0 188 -53q49 32 119.5 55 t122.5 23q56 0 67 -9t11 -61q0 -27 -10 -62.5t-23 -55.5z" />
<glyph unicode=" "  horiz-adv-x="399" />
<glyph unicode="&#x09;" horiz-adv-x="399" />
<glyph unicode="&#xa0;" horiz-adv-x="399" />
<glyph unicode="!" horiz-adv-x="497" d="M446 1475q28 0 38 -10.5t10 -43.5q0 -10 -2.5 -30.5t-2.5 -32.5t1.5 -34t1.5 -32q0 -73 -70 -399q-4 -17 -18 -76t-20 -88t-12.5 -72t-6.5 -73q0 -44 -23.5 -125.5t-44.5 -91.5q-39 -19 -117 -19q-21 0 -50.5 9.5t-29.5 27.5q0 21 14.5 93.5t14.5 96.5q0 46 35.5 184 t42.5 173q2 13 15.5 79.5t19.5 102.5t13 88t7 84q0 13 -1 41t-1 43q0 9 2 27t2 26q0 16 22 27.5t55.5 16.5t58.5 6.5t46 1.5zM207 227q45 0 68.5 -28t23.5 -72q0 -77 -48.5 -111t-127.5 -34q-44 0 -60 20t-16 68q0 85 38 121t122 36z" />
<glyph unicode="&#x22;" horiz-adv-x="808" d="M360 1528q150 0 150 -33q0 -40 -10.5 -87t-30 -109t-25.5 -87q-14 -51 -25 -116.5t-21 -145.5t-13 -102q-4 -25 -170 -25q-49 0 -49 54q0 70 18.5 193t40.5 200q2 9 17 69.5t26.5 101t18.5 52.5q21 35 73 35zM678 1522q34 0 102 -25.5t68 -52.5q0 -13 -2.5 -25.5 t-7.5 -27.5l-7 -21q-4 -21 -19.5 -88.5t-23.5 -112.5t-12 -88q-3 -35 -25 -114.5t-22 -98.5q0 -24 -28 -34.5t-64 -10.5q-25 0 -79 20t-54 38q0 41 26.5 137.5t28.5 114.5q15 148 37 233q25 91 41 123.5t41 32.5z" />
<glyph unicode="#" horiz-adv-x="1280" d="M1169 803q-98 0 -223 20q-4 -28 -19 -184q256 4 256 -39q0 -24 -3.5 -51.5t-12 -58.5t-25.5 -51.5t-40 -20.5q-34 0 -99.5 4t-94.5 4q-10 -100 -17 -146q-7 -49 -24 -119.5t-23 -103.5q-3 -13 -10 -23.5t-15.5 -17t-22.5 -11t-23.5 -7t-26.5 -3.5t-24.5 -1h-23.5h-18 q-64 0 -64 35q0 49 24 150.5t28 129.5l13 106q-39 -4 -117 -12.5t-117 -11.5l-9 -47q-8 -49 -19 -151.5t-22 -159.5q-9 -47 -59 -47q-14 0 -35.5 2t-51.5 7t-50.5 17t-20.5 29q0 97 37 321l4 22q-142 9 -142 60q0 43 10.5 106.5t31.5 63.5q22 0 66 -10t67 -10h15 q45 179 51 237q-171 0 -171 37q0 16 3.5 42.5t11.5 59t24.5 55t37.5 22.5l124 -2q29 147 29 186q0 11 -1.5 52t0 72.5t7.5 63.5q4 19 25 31t43 12q34 0 90.5 -17.5t56.5 -41.5v-180q0 -73 -17 -167q84 7 136 7l44 -2q39 130 44 164q2 10 6.5 59.5t11 90.5t13.5 48 q43 43 180 43q39 0 39 -18q0 -132 -25 -246q-6 -29 -43 -163q180 -24 228 -44q37 -15 37 -51q0 -12 -3.5 -32t-11.5 -46.5t-26.5 -44.5t-43.5 -18zM501 608l199 20q8 97 23 224l-55 2q-37 0 -123 -8l-2 -31q0 -48 -42 -207z" />
<glyph unicode="$" horiz-adv-x="946" d="M592 1278q-102 0 -145.5 -53.5t-43.5 -159.5q0 -30 17 -61t45.5 -58.5t55 -47.5t55.5 -38q50 -31 77 -49.5t64.5 -51t56.5 -62t33 -72.5t14 -93q0 -86 -17.5 -168t-55 -161t-106.5 -138t-162 -83q-4 -46 -14.5 -107t-21.5 -112t-12 -60q-4 -25 -57 -35t-111 -10 q-22 0 -38.5 12t-16.5 30q0 15 5.5 40t14 55t11.5 41q4 16 7.5 41.5t7.5 57.5t6 45q-99 26 -167.5 93.5t-68.5 159.5q0 31 12 98.5t24 84.5q21 28 146 28q74 0 74 -20t-15.5 -79t-15.5 -85q0 -30 27 -52t58 -30t58 -8q56 0 103.5 52t71.5 125.5t24 144.5q0 108 -146 194 q-115 68 -190.5 160t-75.5 203q0 175 78.5 286t230.5 141q7 138 25 235q4 19 55.5 33t81.5 14q68 0 68 -47q0 -105 -16 -233q110 -20 184 -84t74 -171q0 -31 -69.5 -55.5t-109.5 -24.5q-7 0 -11.5 10.5t-9 26t-9.5 22.5q-26 36 -69.5 56t-90.5 20z" />
<glyph unicode="%" horiz-adv-x="1925" d="M578 1475q142 0 209 -67t67 -208q0 -56 -4.5 -112t-16.5 -122t-31 -124t-50.5 -113t-72 -94.5t-98 -63.5t-126.5 -24q-275 0 -275 325q0 58 4.5 113.5t17 117t31.5 114t50 101t71.5 82.5t97.5 54.5t126 20.5zM1364 1475q57 0 57 -37q0 -29 -52.5 -176.5t-72.5 -180.5 q-100 -171 -370 -653q-9 -15 -33.5 -53t-40 -68t-21.5 -57q-9 -40 -59 -141t-76 -132q-19 -22 -34 -30t-41 -8t-75.5 33.5t-49.5 56.5q0 7 50.5 122t57.5 144q6 26 28 68.5t60.5 108t40.5 69.5q48 89 174.5 300.5t188.5 336.5q17 34 40 98.5t31 83.5q2 5 8.5 24.5t13 34 t11.5 21.5q23 35 164 35zM543 1290q-41 0 -74.5 -49t-52 -118t-28 -131.5t-9.5 -102.5q0 -27 4 -51.5t14.5 -49.5t33 -40t54.5 -15q39 0 71 54t50 127t27.5 134t9.5 89q0 84 -19.5 118.5t-80.5 34.5zM1559 860q33 0 76.5 -7.5t66.5 -21.5q32 -19 54.5 -77t30 -114t7.5 -103 q0 -77 -8.5 -153.5t-32.5 -162t-61.5 -150t-102 -107t-147.5 -42.5q-165 0 -243.5 91.5t-78.5 248.5q0 60 7 122.5t25 135t46 132.5t74.5 110.5t105.5 73.5q64 24 181 24zM1513 674q-49 0 -79 -15q-50 -24 -83.5 -177t-33.5 -228q0 -143 125 -143q68 0 109.5 131.5 t41.5 314.5q0 117 -80 117z" />
<glyph unicode="&#x26;" horiz-adv-x="1169" d="M989 219q19 0 30.5 -24t14 -46.5t2.5 -42.5q0 -29 -58 -76.5t-101 -47.5q-130 0 -186 108q-45 -37 -77 -59q-54 -35 -93 -44.5t-103 -9.5q-63 0 -126 15t-121 45.5t-94 84t-36 122.5q0 173 92 353.5t231 267.5q-71 156 -71 278q0 167 101 254.5t286 87.5q126 0 209.5 -67 t83.5 -173q0 -71 -16.5 -132t-43 -107t-68.5 -88t-85.5 -73t-100.5 -63q23 -38 43 -82q72 -157 95 -227q36 37 67 72q71 82 101 82q27 0 66.5 -54.5t39.5 -93.5q0 -15 -9 -29.5t-30 -36t-22 -22.5q-53 -59 -159 -158q14 -55 30 -55q29 0 65.5 20.5t42.5 20.5zM666 1278 q-34 0 -58.5 -4t-49 -16t-37.5 -38t-13 -65q0 -89 48 -192q202 115 202 243q0 38 -26.5 55t-65.5 17zM461 184q33 0 168 124q-43 148 -127 300l-36 64q-83 -71 -144.5 -193t-61.5 -190q0 -32 20.5 -54.5t54 -32.5t63.5 -14t63 -4z" />
<glyph unicode="'" horiz-adv-x="466" d="M360 1528q150 0 150 -33q0 -40 -10.5 -87t-30 -109t-25.5 -87q-14 -51 -25 -116.5t-21 -145.5t-13 -102q-4 -25 -170 -25q-49 0 -49 54q0 70 18.5 193t40.5 200q2 9 17 69.5t26.5 101t18.5 52.5q21 35 73 35z" />
<glyph unicode="(" horiz-adv-x="655" d="M666 1622q24 0 66 -52.5t42 -72.5q0 -26 -41 -72q-171 -195 -270 -493q-3 -9 -16 -49t-18 -56t-16.5 -52.5t-16.5 -59t-11.5 -54.5t-9 -60.5t-2.5 -55.5q0 -33 4 -96.5t4 -94.5q0 -24 -2 -69.5t-2 -67.5q0 -51 8 -90q7 -38 55.5 -165.5t48.5 -168.5q0 -31 -55 -70.5 t-94 -39.5q-34 0 -95.5 156t-70.5 216q-6 49 -6 103v71q0 47 -9 142.5t-9 142.5q0 212 120 530q44 116 109 240q39 72 85.5 143.5t105 133t96.5 61.5z" />
<glyph unicode=")" horiz-adv-x="657" d="M307 1616q23 0 79.5 -91t72.5 -132q33 -85 55.5 -281t22.5 -321q0 -142 -39.5 -314t-108.5 -305q0 -1 -70.5 -106t-80.5 -148q-12 -55 -100.5 -140t-135.5 -85q-25 0 -53.5 61.5t-28.5 93.5q0 17 20 43t44.5 49t48 52.5t28.5 52.5q9 40 70.5 138t71.5 118 q108 213 108 463q0 105 -18 286t-43 250q-5 15 -40.5 75.5t-35.5 88.5q0 35 50 93.5t83 58.5z" />
<glyph unicode="*" horiz-adv-x="774" d="M836 1333q0 -19 -55 -47t-131 -53q75 -148 75 -174q0 -23 -59 -53.5t-86 -30.5q-40 0 -89 112q-32 -54 -63 -87t-49 -33q-31 0 -85 30.5t-54 57.5q0 7 19 37.5t42.5 65t28.5 44.5l15 33q-4 1 -10.5 3.5t-10.5 4t-7 2.5q-34 16 -81.5 52t-47.5 55q0 24 37.5 77.5 t59.5 53.5q8 0 26 -8.5t47 -23.5t50 -24q12 57 32 117t37 60q42 0 107 -18.5t65 -35.5q0 -32 -22 -115q18 7 53 21t53 20.5t25 6.5q18 0 48 -60.5t30 -89.5z" />
<glyph unicode="+" horiz-adv-x="1001" d="M935 772q30 -16 30 -51q0 -12 -3 -32t-9.5 -46.5t-21.5 -44.5t-35 -18q-52 0 -103.5 7t-111.5 19.5t-91 16.5q-1 -13 -4.5 -69.5t-5.5 -80.5t-9.5 -68t-19.5 -81q-4 -12 -8.5 -19.5t-7 -11.5t-10 -6t-10.5 -2.5t-15 0t-17 0.5q-153 0 -153 32q0 21 11.5 82.5t12.5 67.5 q5 38 12 152q-95 -11 -123 -11q-108 0 -138 11q-24 9 -24 26q0 25 4.5 62t19.5 76.5t37 39.5t67 -1t68 -1q27 0 124 9q62 231 103 300q20 33 27 38q11 6 38 6q18 0 81 -21.5t63 -36.5q0 -11 -19 -90q-8 -33 -17.5 -64t-25.5 -75.5t-19 -54.5q90 -10 181.5 -27.5t121.5 -32.5 z" />
<glyph unicode="," horiz-adv-x="389" d="M150 182q53 0 67 -20.5t14 -91.5q0 -57 -31 -157t-78 -181.5t-83 -81.5q-33 0 -93.5 15t-60.5 36q0 18 29.5 74.5t59.5 124t30 112.5q0 12 -2 37t-2 37q0 27 58.5 61.5t91.5 34.5z" />
<glyph unicode="-" horiz-adv-x="849" d="M543 752q49 0 143 -16t94 -42q0 -37 -26.5 -106.5t-53.5 -69.5q-12 0 -92 11.5t-100 11.5q-81 0 -202.5 -13.5t-182.5 -13.5q-29 0 -29 47q0 37 17.5 103.5t42.5 66.5q81 0 194.5 10.5t194.5 10.5z" />
<glyph unicode="." horiz-adv-x="415" d="M137 248q61 0 98 -19t37 -73q0 -77 -41 -119.5t-116 -42.5q-54 0 -79.5 20.5t-25.5 73.5q0 69 30.5 114.5t96.5 45.5z" />
<glyph unicode="/" horiz-adv-x="745" d="M795 1567q49 0 49 -37q0 -92 -8 -123q-15 -65 -63 -167t-62 -140q-6 -19 -97 -196t-100 -210q-6 -24 -82 -229t-80 -232q-16 -92 -172 -368q-27 -48 -51.5 -108.5t-24.5 -61.5q-12 -21 -63 -21q-29 0 -73 49.5t-44 69.5q0 8 6 36t22.5 77t37.5 90q14 27 45 87t48 93.5 t38.5 78.5t32 75t12.5 49q1 21 63.5 193.5t89.5 234.5q12 29 87 163t94 185q4 12 46.5 115.5t61.5 159.5q7 20 13 44t9 40.5t3 17.5q5 17 59.5 26t102.5 9z" />
<glyph unicode="0" horiz-adv-x="1079" d="M723 1473q330 0 330 -431q0 -71 -10.5 -142t-31 -165.5t-28.5 -140.5q-16 -92 -70.5 -252t-97.5 -215q-59 -75 -174 -116.5t-211 -41.5q-39 0 -96 11q-59 12 -103.5 55t-69 98t-40 126.5t-20.5 129t-5 115.5q0 133 54.5 369.5t132.5 369.5q65 111 184.5 170.5t255.5 59.5 zM700 1268q-117 0 -206 -109q-51 -61 -110.5 -272.5t-59.5 -327.5q0 -179 18 -253q30 -122 113 -122q44 0 95.5 21t76.5 53q30 40 75 160.5t54 179.5q9 54 30 145t32 162t11 148q0 87 -35.5 151t-93.5 64z" />
<glyph unicode="1" horiz-adv-x="815" d="M702 1477q20 0 49 -56t29 -80q0 -17 -6.5 -53.5t-7.5 -40.5q-20 -112 -45 -239q-10 -46 -26.5 -133t-31.5 -155t-34 -130q-20 -66 -32.5 -197.5t-29.5 -193.5q32 0 66.5 -14.5t34.5 -28.5q0 -34 -15.5 -106.5t-38.5 -72.5q-28 0 -74 10.5t-73 10.5q-40 0 -143 -3t-142 -3 q-31 0 -41 11.5t-10 55.5q0 32 20 89t33 57l164 -2q12 56 22.5 193t30.5 210q50 184 91 393q27 151 34 201q-28 0 -89.5 -46t-116 -92t-66.5 -46q-34 0 -58 58t-24 122q0 22 56.5 72t86.5 67q60 36 94 54.5t86.5 42.5t102.5 34.5t104 10.5z" />
<glyph unicode="2" horiz-adv-x="915" d="M598 1460q64 0 122.5 -14.5t108.5 -43.5t79.5 -80t29.5 -118q0 -105 -28.5 -209.5t-80.5 -187.5q-9 -14 -40.5 -74t-55.5 -86q-39 -44 -165 -134.5t-152 -125.5q-3 -4 -26 -34t-31.5 -42t-25 -36t-27 -43t-17.5 -37q62 -11 93.5 -7t92 13.5t107.5 9.5q22 0 46.5 -1.5 t59.5 -6.5t57.5 -18t22.5 -31q0 -35 -24.5 -104.5t-49.5 -69.5q-28 0 -82 9t-82 9q-39 0 -155 -8t-148 -8q-219 0 -219 77q0 16 11 74t18 74q28 60 69.5 126.5t65 99t70.5 95.5q38 49 105 99t128.5 90.5t83.5 66.5q17 21 39 66t33 61q33 51 56.5 125.5t23.5 134.5 q0 80 -154 80q-52 0 -95.5 -34.5t-58.5 -77.5q-11 -33 -26.5 -55.5t-30.5 -22.5t-38.5 1.5t-60 6.5t-61 18t-24.5 31q0 32 24 92q48 117 163 183.5t249 66.5z" />
<glyph unicode="3" horiz-adv-x="942" d="M571 1473q137 0 240.5 -104.5t103.5 -238.5q0 -33 -9 -64t-19.5 -52.5t-33.5 -50t-37 -42.5t-45.5 -44.5t-43.5 -42.5q47 -63 71.5 -148.5t24.5 -171.5q0 -153 -53.5 -273t-163.5 -192t-262 -72q-84 0 -154 26t-117.5 86.5t-47.5 146.5q0 28 6 50t14 36t24 23.5 t28.5 14.5t36.5 7.5t38.5 3t42.5 0.5q20 0 40.5 -9.5t20.5 -23.5q0 -4 -12 -36t-12 -50q0 -32 27 -48t61 -16q58 0 103.5 18.5t73.5 47.5t46.5 68.5t25.5 77t7 77.5q0 193 -70 219q-9 -3 -24 -9t-27.5 -9.5t-25.5 -3.5q-34 0 -75.5 48t-41.5 83q0 16 56 51t124 71t124 84.5 t56 88.5q0 69 -47.5 115.5t-120.5 46.5q-28 0 -47.5 -7t-32 -22.5t-19 -28.5t-16 -38.5t-16.5 -39.5q-20 -43 -168 -43q-27 0 -42 9t-15 34q0 73 38 147.5t103 123.5q104 76 262 76z" />
<glyph unicode="4" horiz-adv-x="968" d="M883 670q19 0 36 -18t17 -38q0 -24 -31.5 -95t-50.5 -75q-82 -18 -143 -28q-11 -65 -25 -187t-29 -202q-6 -30 -14 -36.5t-37 -6.5q-45 0 -106.5 25t-61.5 48q0 55 45 345q-147 11 -291 42q-25 5 -78 45.5t-53 61.5q0 12 7.5 28t23.5 39t17 25q18 28 38.5 83t36.5 81 q24 41 70.5 112.5t80 124.5t38.5 68q11 33 106 254q49 115 96 115q26 0 87 -42t61 -67q0 -9 -47 -115q-12 -26 -48 -123.5t-53 -125.5q-4 -7 -54.5 -81.5t-96.5 -151.5t-70 -136q131 -24 181 -26q52 154 63 216q10 63 25.5 83t40.5 20q36 0 104 -18t68 -40q0 -25 -66 -234 q19 5 45.5 13.5t41.5 12.5t26 4z" />
<glyph unicode="5" horiz-adv-x="940" d="M391 1452q83 0 249 -13.5t249 -13.5q53 0 53 -45q0 -31 -35.5 -98.5t-60.5 -67.5q-58 0 -162 11.5t-162 11.5q-20 0 -44.5 -20.5t-24.5 -34.5q0 -27 -13 -122.5t-26 -131.5q46 6 94 6q155 0 237 -83t82 -239q0 -121 -39 -244t-112 -214q-66 -84 -156 -129t-194 -45 q-80 0 -138.5 43t-85 107.5t-26.5 139.5q0 70 12 99q9 23 69.5 35t106.5 12q37 0 37 -129q0 -94 59 -94q56 0 113.5 64t92 151t34.5 157q0 66 -30.5 114t-92.5 48q-108 0 -129 -16q-7 -6 -22 -26t-29.5 -35t-26.5 -15q-27 0 -77 44.5t-50 70.5q0 13 24.5 99.5t27.5 104.5 q4 24 15.5 113.5t23.5 164.5t24 101q14 32 59.5 75.5t73.5 43.5z" />
<glyph unicode="6" horiz-adv-x="1069" d="M709 1260q-96 0 -174 -114.5t-127 -290.5q99 97 249 97q97 0 167 -48t102 -123t32 -167q0 -119 -26.5 -216.5t-85.5 -204.5q-57 -104 -152.5 -158.5t-216.5 -54.5q-48 0 -78.5 2t-71.5 13.5t-69 33.5q-125 95 -125 430q0 122 14 239t42.5 232.5t77 212.5t112.5 171.5 t154.5 116.5t197.5 42q136 0 223 -46q47 -25 82 -98.5t35 -111.5q0 -35 -64.5 -75t-117.5 -40q-12 0 -19 25t-15 58t-19 46q-23 29 -127 29zM625 741q-31 0 -95.5 -53t-117.5 -114.5t-58 -86.5q0 -259 70 -292q14 -7 53 -7q52 0 82 11t45.5 29t42.5 63q45 76 66.5 142 t21.5 145q0 42 -8 76t-34 60.5t-68 26.5z" />
<glyph unicode="7" horiz-adv-x="944" d="M769 905q126 -2 126 -41q0 -38 -18.5 -106t-45.5 -68h-201q-62 -96 -77 -151q-32 -113 -117 -240q-9 -14 -85 -150.5t-93 -156.5q-41 -45 -63 -45q-19 0 -91.5 34.5t-72.5 51.5t48 102.5t109 185.5t70 117q70 125 88 197q9 35 36 82q-30 7 -76 18t-77 18t-49 9 q-10 1 -15 15t-5 26q0 30 28 89.5t52 59.5q41 0 86 -6t103 -17.5t86 -15.5q55 83 77 146q12 33 46 95t44 93q-94 13 -217 13q-38 0 -101 -20.5t-126 -20.5q-14 0 -20.5 9.5t-7.5 18.5t-1 27q0 36 25 97t47 61q36 0 106.5 19t106.5 19q68 0 204 -7t205 -7q25 0 49.5 -44.5 t24.5 -72.5q0 -19 -30 -79t-69.5 -134t-52.5 -108q-21 -53 -56 -113z" />
<glyph unicode="8" horiz-adv-x="1011" d="M653 1481q146 0 238 -88.5t92 -233.5q0 -107 -58.5 -204t-152.5 -148q53 -38 92 -115.5t39 -144.5q0 -102 -14.5 -184.5t-40 -143t-65 -106t-85.5 -74t-106 -46.5t-122 -25t-138 -7q-120 0 -198.5 94.5t-78.5 216.5q0 163 83 307t220 240q-48 31 -89.5 112.5t-41.5 160.5 q0 77 30.5 147.5t84.5 124t135 85.5t176 32zM618 1270q-67 0 -116 -52t-49 -131q0 -43 40 -89t87 -66q68 20 122 82.5t54 120.5q0 57 -40.5 96t-97.5 39zM557 696q-62 -42 -104 -78t-83 -84t-62 -105.5t-21 -123.5q0 -60 24.5 -98.5t81.5 -38.5q102 0 161.5 29t89.5 102.5 t30 202.5q0 18 -1 32.5t-5.5 28t-7 22.5t-11 21t-12.5 18t-17 17.5t-18 16.5t-22 19t-23 19z" />
<glyph unicode="9" horiz-adv-x="1005" d="M614 1475q177 0 253.5 -97t76.5 -280q0 -159 -29 -349t-79 -354q-19 -64 -46.5 -120.5t-70 -112t-94.5 -95t-124 -63.5t-155 -24q-105 0 -177.5 85.5t-72.5 192.5q0 24 21 71.5t35 47.5q33 0 98 -25t65 -49q0 -28 19.5 -71.5t44.5 -43.5q142 0 235 248q15 39 34 118 q-38 -21 -91 -35.5t-92 -14.5q-120 0 -214.5 98.5t-94.5 241.5q0 189 106 403q44 87 84.5 133.5t104 70.5t163.5 24zM516 715q36 0 91.5 34.5t91.5 78.5q18 136 18 221q0 34 -1.5 58.5t-9 56.5t-20.5 52.5t-37.5 35t-58.5 14.5q-43 0 -79.5 -36.5t-53.5 -82.5 q-1 -3 -10 -25.5t-11 -28t-10 -27t-11 -29.5t-9.5 -27.5t-9 -30t-7 -28t-6 -30t-3 -27.5t-1.5 -28q0 -71 34 -111t103 -40z" />
<glyph unicode=":" horiz-adv-x="419" d="M291 1155q50 0 83.5 -21.5t33.5 -70.5q0 -174 -156 -174q-96 0 -96 98q0 168 135 168zM172 242q49 -1 74.5 -28t25.5 -75q0 -83 -36 -121t-109 -38q-29 0 -47 2t-37.5 10t-29 25.5t-9.5 45.5q0 80 44 129.5t124 49.5z" />
<glyph unicode=";" horiz-adv-x="389" d="M227 1141q61 0 98 -19t37 -73q0 -77 -41 -119.5t-116 -42.5q-54 0 -79.5 20.5t-25.5 73.5q0 69 30.5 114.5t96.5 45.5zM150 182q53 0 67 -20.5t14 -91.5q0 -57 -31 -157t-78 -181.5t-83 -81.5q-33 0 -93.5 15t-60.5 36q0 18 29.5 74.5t59.5 124t30 112.5q0 12 -2 37 t-2 37q0 27 58.5 61.5t91.5 34.5z" />
<glyph unicode="&#x3c;" horiz-adv-x="933" d="M690 80q-28 0 -120.5 100.5t-108.5 136.5q-8 17 -51.5 55.5t-98.5 81.5t-67 54q-41 38 -65 63.5t-48.5 65.5t-24.5 72q0 16 21 38.5t61.5 56t53.5 46.5q49 47 171.5 156.5t170.5 146.5q59 45 134.5 81t123.5 36q35 0 78 -57t43 -95q0 -14 -51 -43t-116 -61t-77 -39 q-67 -41 -170 -144t-166 -145q20 -32 118 -108.5t117 -112.5q11 -22 105 -121.5t94 -124.5q0 -32 -48 -85.5t-79 -53.5z" />
<glyph unicode="=" horiz-adv-x="1009" d="M195 1075q29 0 84 -20t75 -23q211 -31 334 -31q47 0 109 8.5t129 8.5q21 0 34 -14t13 -29q0 -65 -10 -109q-4 -18 -20 -32t-45.5 -21.5t-55 -12.5t-66.5 -6.5t-61 -2t-56 -0.5q-48 0 -157.5 10t-179.5 20q-75 10 -129 36t-54 50q0 35 16 101.5t40 66.5zM516 674 q61 0 202 -23t181 -45q29 -15 29 -51q0 -12 -3 -32t-9.5 -46.5t-20.5 -44.5t-33 -18q-76 0 -199.5 25.5t-185.5 25.5q-37 0 -122 -11.5t-122 -11.5h-13q-30 0 -47 0.5t-43 3.5t-39 11.5t-13 21.5q0 47 14.5 112.5t44.5 65.5q22 0 65 -1t64 -1q38 0 125 9.5t125 9.5z" />
<glyph unicode="&#x3e;" horiz-adv-x="931" d="M291 1325q28 0 120.5 -101t108.5 -137q8 -17 51.5 -55t98.5 -81t67 -54q40 -37 64.5 -63t48.5 -66t24 -72q0 -16 -20.5 -38.5t-61 -56.5t-53.5 -46q-49 -47 -171.5 -156.5t-170.5 -146.5q-59 -45 -134.5 -81t-123.5 -36q-35 0 -78 57t-43 95q0 14 51 43t116 61t77 39 q67 41 170 144t166 145q-20 32 -118.5 108.5t-117.5 112.5q-11 21 -104.5 121t-93.5 125q0 32 48 85.5t79 53.5z" />
<glyph unicode="?" horiz-adv-x="780" d="M547 1489q112 0 188 -94.5t76 -210.5q0 -66 -38 -136t-83.5 -116.5t-94 -94.5t-60.5 -69q-8 -15 -15 -30t-14.5 -36t-10.5 -30t-12 -38.5t-10 -33.5q-36 -131 -59 -227q-9 -36 -67.5 -50t-117.5 -14q-20 0 -28 25.5t-8 52.5q0 74 63 266q52 155 94 224q14 23 55.5 64.5 t80 77.5t69.5 76.5t31 65.5q0 38 -26 77.5t-62 39.5q-78 0 -101 -21q-10 -9 -28.5 -44.5t-37 -64t-32.5 -28.5q-34 0 -88.5 44.5t-54.5 74.5q0 34 50 103.5t87 97.5q67 49 254 49zM305 221q88 0 88 -90q0 -66 -37.5 -103.5t-103.5 -37.5q-49 0 -73.5 18.5t-24.5 65.5 q0 83 36.5 115t114.5 32z" />
<glyph unicode="@" horiz-adv-x="1581" d="M977 1473q304 0 448 -146q115 -115 115 -366q0 -88 -12.5 -178.5t-39.5 -183.5t-76 -174.5t-114 -133.5q-109 -86 -278 -86q-42 0 -69 12.5t-37 24.5l-9 12q-3 0 -24.5 -9.5t-45 -21t-26.5 -12.5q-73 -25 -129 -25q-123 0 -177 68.5t-54 194.5q0 78 18 188q13 77 50 158 t91.5 151.5t131 116t157.5 45.5q21 0 40.5 -6t31 -11.5t12.5 -5.5q8 0 35 54q47 6 141 6q27 0 27 -41q0 -23 -16.5 -101.5t-43.5 -195.5t-39 -174q-24 -120 -24 -199q0 -24 26 -24q21 0 50 8t43 20q61 50 100 204t39 261q0 189 -51 260q-34 47 -120.5 73t-168.5 26 q-123 0 -246.5 -62.5t-222.5 -161.5q-199 -199 -199 -583q0 -104 15.5 -170.5t55.5 -111t106 -63t171 -18.5q53 0 93 7t58.5 15.5t37.5 15.5t35 7q23 0 45 -61t22 -88q0 -36 -69 -66q-82 -37 -258 -37q-265 0 -399 127t-134 406q0 528 293 796q126 116 280 187.5t314 71.5z M852 891q-41 0 -78.5 -49.5t-61 -119t-37 -135t-13.5 -104.5q0 -36 14 -66t47 -30q11 0 22.5 2t25.5 7t22.5 8.5t24.5 10.5t20 9l34 235q3 17 23 98t20 105q-10 29 -63 29z" />
<glyph unicode="A" horiz-adv-x="993" d="M856 487q0 -62 13.5 -240t13.5 -206q0 -22 -49 -39.5t-84 -17.5q-30 0 -66 16q-26 10 -45 311q-51 3 -105 8.5t-127.5 15.5t-110.5 14l-77 -210q-7 -20 -14.5 -45.5t-13 -42.5t-11.5 -28q-17 -25 -112 -25q-119 0 -119 41q0 11 7.5 36.5t20.5 62.5t17 50q23 72 91 241.5 t91 242.5q8 27 31.5 119t40.5 153q9 32 23.5 69.5t25.5 62.5t30.5 69t28.5 65q85 188 121 220q26 22 180 22q52 0 75 -8.5t28 -28.5q1 -7 28 -53t31 -82q22 -228 29 -377q8 -172 8 -416zM393 594l-15 -34q45 -5 139.5 -18t115.5 -16v367q0 88 -9.5 187t-21.5 134 q-26 -28 -72.5 -147.5t-68.5 -192.5q-8 -26 -32.5 -141t-35.5 -139z" />
<glyph unicode="B" horiz-adv-x="976" d="M975 1126q0 -145 -66.5 -247t-164.5 -160q124 -141 124 -260q0 -222 -125 -357q-71 -75 -174 -96.5t-272 -21.5q-25 0 -58 2t-84 7.5t-84.5 19.5t-33.5 34q0 34 13 147.5t26 188.5q8 43 32 133.5t31 138.5q11 70 25 229.5t29 239.5q8 45 48.5 162.5t59.5 130.5 q40 30 102 33q51 4 279 4q79 0 149 -58t107 -133t37 -137zM469 1235q-38 -70 -55 -151t-26 -190q100 -15 120 -15q92 0 129 16q113 50 113 203q0 45 -36 97t-83 52q-84 0 -162 -12zM578 254q21 30 31 47.5t20 54t10 80.5q0 36 -19.5 75.5t-49 72t-53 54.5t-43.5 36l-50 2 q-18 0 -56 6l-3 -25q-7 -46 -33 -136t-33 -136q-10 -58 -25 -176q36 -14 144 -14q65 0 99 10t61 49z" />
<glyph unicode="C" horiz-adv-x="929" d="M674 1473q116 0 203.5 -98t87.5 -226q0 -27 -2 -33q-7 -26 -70.5 -49t-97.5 -23q-17 0 -26.5 22.5t-16 54.5t-17 64t-37.5 54.5t-69 22.5q-61 0 -96 -20.5t-62 -76.5q-38 -81 -85.5 -259.5t-61.5 -254.5q-11 -58 -11 -209q0 -60 13 -129.5t41 -97.5q25 -25 116 -25 q23 0 41.5 5t31.5 11t24 19.5t17 24t13 31t10 33t9 38.5t10 41q4 17 48 25t77 8q80 0 80 -76q0 -96 -45 -192t-121 -138q-77 -43 -252 -43q-113 0 -180 33q-48 24 -82 78t-49 119.5t-21 116.5t-6 94q0 206 14 270q14 63 37.5 159.5t68.5 244.5t77 200q35 57 81.5 94.5 t100.5 55.5t101.5 24.5t105.5 6.5z" />
<glyph unicode="D" horiz-adv-x="974" d="M438 1475q126 0 225.5 -41t158.5 -108t89.5 -145.5t30.5 -160.5q0 -35 -14.5 -139t-14.5 -144q0 -76 -28 -224t-78 -263q-33 -77 -69.5 -127t-75.5 -81.5t-97 -47t-117 -20.5t-153 -5q-17 0 -32 0.5t-28.5 2.5t-23 3t-21 4.5t-17.5 5t-17 6t-14.5 6t-15 7t-13.5 6.5 q-34 16 -57 39t-23 47q0 13 7.5 62t12.5 69q6 27 27 112t30.5 126t23 108t22.5 123q10 61 20 182.5t17 174.5q52 353 102 385q36 23 65 30t78 7zM465 1262q-5 -24 -22 -94.5t-23 -110.5q-10 -59 -20 -177t-17 -169q-14 -95 -39 -215.5t-42 -201.5t-17 -112q0 -10 61 -10 q120 0 173 37.5t93 146.5q35 93 53.5 203.5t18.5 171.5q0 29 16.5 134t16.5 141q0 104 -70 180t-182 76z" />
<glyph unicode="E" horiz-adv-x="792" d="M809 1444q4 -1 9.5 -2.5t9 -2t8 -2t7 -2.5t6 -2.5t5.5 -3t4.5 -3.5t3.5 -4.5t1.5 -5.5t0.5 -7q0 -35 -21.5 -99.5t-45.5 -64.5h-93q-165 0 -253 -18q-31 -123 -37 -162q-5 -30 -4 -68.5t-5 -70.5l-7 -35q74 8 112 8q37 0 101.5 -4t101.5 -4q39 0 39 -168q0 -17 -21 -30 t-45 -13q-38 0 -104.5 5t-104.5 5q-70 0 -126 -8q-24 -107 -32 -166q-24 -187 -24 -321q0 -11 31 -11q46 0 131 22.5t131 22.5q23 0 45 -61.5t22 -95.5q0 -11 -20 -26.5t-45 -22.5q-67 -21 -174.5 -34.5t-145.5 -13.5q-107 0 -176 5q-28 2 -28 145q0 196 34 412 q1 7 33.5 155.5t48.5 245.5q6 34 6 81.5t7 84.5q64 321 98 328q18 5 102 10q163 14 254 14q107 0 160 -12z" />
<glyph unicode="F" horiz-adv-x="790" d="M555 1460q50 0 187 -28.5t137 -53.5q0 -38 -36.5 -104t-70.5 -66q-10 0 -89.5 20.5t-121.5 20.5q-77 0 -117 -12q-7 -51 -13 -155t-13 -154l-3 -18q24 1 76 -7t68 -8q9 0 56 4t82.5 3t45.5 -11q13 -11 21 -55t8 -86q0 -19 -16.5 -38.5t-38.5 -19.5q-12 0 -93.5 -3 t-97.5 -3q-9 0 -64.5 7.5t-86.5 7.5q-13 -60 -21 -113t-55 -255t-47 -237q0 -16 1.5 -32.5t2 -21.5t-1.5 -15q-9 -33 -59 -33q-142 0 -148 45q0 3 -3 17.5t-5 32.5t-2 42q0 15 17.5 86t40.5 171t34 167q6 36 28.5 168.5t32.5 204.5q4 33 11.5 134.5t13.5 141.5q0 2 4.5 36 t9 60t13 59t20.5 53t27 22q191 26 266 26z" />
<glyph unicode="G" horiz-adv-x="1038" d="M668 1473q94 0 175 -35.5t133 -106.5t52 -162q0 -55 -18 -82q-7 -10 -48.5 -25t-74.5 -15q-88 0 -88 22q0 10 7 32.5t7 41.5q0 119 -174 119q-44 0 -84.5 -27t-69 -69.5t-47.5 -81.5t-30 -74q-7 -25 -13.5 -78t-13.5 -80q-29 -116 -43.5 -176t-30.5 -159.5t-16 -170.5 q0 -84 53 -121t139 -37q60 0 118 57t93 138.5t35 153.5q-13 16 -33 16q-26 0 -95 -12.5t-95 -12.5q-17 0 -28 7t-11 18q0 53 11 119.5t36 66.5q38 0 169.5 18.5t170.5 18.5q23 0 65 -43.5t42 -58.5q0 -100 -16.5 -195t-56 -187.5t-98.5 -161.5t-151 -111t-207 -42 q-162 0 -265.5 100.5t-103.5 278.5q0 27 2 56.5t3.5 52.5t7 56.5t8 51.5t11 56.5t11.5 51.5t14 56.5t13.5 52t15.5 58t15 55.5q6 22 10 77t10 77q18 65 43.5 121t66.5 112t92 95t124 63.5t158 24.5z" />
<glyph unicode="H" horiz-adv-x="1062" d="M1034 1452q47 0 47 -92q0 -16 -21.5 -116t-50 -236.5t-40.5 -221.5q-8 -54 -19.5 -185.5t-13.5 -154.5q-5 -38 -16 -86.5t-15 -89.5q-20 -211 -24 -229q-8 -32 -19.5 -44.5t-38.5 -12.5q-6 0 -44.5 6t-43.5 6q-25 0 -57.5 9t-32.5 28q0 12 3.5 36t4.5 29q16 112 27 215 q4 35 14.5 75t14.5 75t11.5 127t11.5 133q-37 2 -129.5 13.5t-137.5 11.5q-21 0 -49.5 -6.5t-38.5 -7.5q-21 -147 -21 -232q0 -35 -5.5 -87t-12.5 -92t-14.5 -83.5t-8.5 -51.5q-4 -24 -28 -88.5t-27 -72.5q-11 -33 -129 -33q-102 0 -102 33q0 13 31.5 91t35.5 99 q35 188 35 285q0 142 47 434q7 47 22.5 196.5t28.5 217.5q5 32 39.5 81.5t61.5 49.5q35 0 98 -25.5t63 -52.5q0 -13 -16 -39t-20 -47q-14 -68 -28 -210t-17 -162q69 16 92 16q44 0 136.5 -13t131.5 -14q12 54 34.5 148.5t34 147.5t11.5 68q0 14 6.5 59.5t13.5 55.5 q8 13 71 26t93 13z" />
<glyph unicode="I" horiz-adv-x="499" d="M465 1466q39 0 39 -18q0 -132 -25 -246q-5 -27 -36 -140t-37 -151q-18 -113 -36.5 -323.5t-31.5 -306.5q-7 -49 -24 -120t-23 -104q-3 -13 -10 -23.5t-15.5 -17t-22.5 -11t-23.5 -7t-26.5 -3.5t-24.5 -1h-23.5h-18q-64 0 -64 35q0 49 24 150.5t28 129.5q14 100 32 316.5 t37 330.5q6 38 35 134.5t35 134.5q2 10 6.5 59.5t11 90.5t13.5 48q43 43 180 43z" />
<glyph unicode="J" horiz-adv-x="714" d="M270 1479q15 0 160 -29t197 -29q29 0 60.5 -50t31.5 -73q0 -25 -3 -59.5t-10 -84.5t-11 -79.5t-14.5 -94.5t-12.5 -79q-5 -31 -21.5 -75t-21.5 -76q-7 -39 -26.5 -190.5t-37.5 -221.5q-22 -84 -51 -146.5t-72 -111.5t-103.5 -74.5t-137.5 -25.5q-83 0 -148.5 69 t-75.5 144q-4 35 -4 112q0 13 81.5 38.5t105.5 25.5q37 0 37 -13q0 -3 -6.5 -23t-6.5 -42q0 -16 3.5 -34.5t15.5 -38t32 -19.5q35 0 65.5 56t45.5 128q14 66 32 198t25 171q3 20 22 80.5t30 117.5q26 132 26 244q0 10 -49 25t-114.5 30t-77.5 19q-15 4 -22.5 13t-9 19.5 t-1.5 28.5q0 42 19.5 96t47.5 54z" />
<glyph unicode="K" horiz-adv-x="1028" d="M862 203q29 0 43 -61.5t6 -88.5q-7 -22 -87 -57t-138 -35q-18 0 -37 8.5t-39.5 28t-37 60t-23.5 96.5q-5 39 -19 130.5t-24 160.5t-10 85t-11 38.5t-29.5 56t-29.5 59.5l-45 -33q-37 -83 -66 -225q-5 -26 -30.5 -178.5t-36.5 -212.5q-4 -25 -15 -33t-32 -8 q-44 0 -108 23.5t-64 50.5q0 34 37 229l36 195q2 12 48.5 181.5t46.5 190.5q0 76 18 234t18 159v117q0 28 74 55t111 27q13 0 21.5 -24.5t12 -62t4.5 -61t1 -42.5q0 -18 -14.5 -132.5t-16.5 -177.5q47 25 97.5 74t107.5 114.5t88 94.5q17 17 65.5 88.5t57.5 77.5 q21 14 102 14q35 0 79 -10t44 -33q0 -22 -77.5 -134.5t-106.5 -141.5q-19 -19 -112.5 -125t-149.5 -148l-12 -8q95 -200 100 -272q9 -114 24.5 -245.5t30.5 -131.5q9 0 49 16.5t49 16.5z" />
<glyph unicode="L" horiz-adv-x="724" d="M424 1458q43 0 43 -28q0 -63 -47 -197q-6 -18 -12 -82t-14 -150.5t-15 -136.5q-8 -53 -35 -156.5t-35 -156.5q-3 -22 -12 -78t-13.5 -86.5t-9 -75.5t-4.5 -82q0 -11 5 -16t8.5 -5.5l17.5 -2.5q37 -5 132.5 -14.5t141.5 -16.5q21 -4 31 -27t10 -49q0 -24 -4.5 -65.5 t-11.5 -50.5q-11 -17 -70 -17q-67 0 -288 23q-75 7 -126 19.5t-72 25.5t-21 26q0 53 19.5 219t39.5 273q10 56 40.5 170.5t39.5 175.5q9 58 14.5 194.5t13.5 157.5q9 22 23 77t27 85q20 47 184 47z" />
<glyph unicode="M" horiz-adv-x="1470" d="M498 1462q52 0 86 -106q8 -22 25 -65.5t28.5 -77.5t17.5 -68q12 -61 19 -180.5t14 -155.5q39 -201 37 -289l168 381q16 37 98.5 198.5t98.5 198.5q16 38 62 93t71 55q23 0 87 2t87 2q49 0 49 -217q0 -94 -28.5 -255.5t-62 -313.5t-38.5 -191t-11.5 -121.5t-14 -143.5 t-17.5 -97q-5 -19 -10 -43t-7.5 -35.5t-9 -23.5t-18 -16.5t-31.5 -4.5q-168 0 -168 35q0 23 33 141q12 42 21 176.5t20 185.5q104 470 104 512q-18 -14 -69 -108t-64 -129q-40 -113 -131 -303.5t-137 -229.5q-27 -25 -97.5 -38t-123.5 -13q-16 0 -22.5 0.5t-13 5t-8 13 t-1.5 24.5t3 45t3 43q0 75 -24 187.5t-29 164.5q-3 31 -8 90.5t-9 105t-9.5 94.5t-13 81.5t-16.5 42.5q-17 -54 -53 -274q-20 -119 -44 -352t-26 -246q-5 -39 -22.5 -98.5t-24.5 -92.5q-11 -49 -157 -49q-6 0 -16.5 -0.5t-15 -0.5t-11.5 1t-9.5 4t-6 8t-4.5 13t-1 20 q0 44 21.5 124.5t25.5 102.5q5 35 10.5 106.5t10.5 106.5q31 224 57 390q6 45 18.5 99.5t21.5 87.5t28.5 101t25.5 90q4 15 10.5 45t13 54t13.5 41q8 21 85.5 44t109.5 23z" />
<glyph unicode="N" horiz-adv-x="1155" d="M453 1458q29 0 66 -38t59 -89q10 -26 32 -114.5t31 -141.5q10 -62 31 -254q5 -35 34.5 -135t41.5 -170q2 -15 6.5 -43.5t6.5 -43t6 -34t8.5 -31.5t10.5 -20q5 12 10.5 38t11.5 69t10.5 73.5t11 85.5t8.5 72q6 47 25 205t32 243q1 8 14 80t13 101q0 15 -6.5 41t-6.5 39 q0 25 69 45t105 20q15 0 25 -21t14 -54t5 -54t1 -39q0 -70 -20 -203q-10 -70 -27.5 -222.5t-33.5 -246.5q-2 -8 -20.5 -117t-39.5 -224.5t-37 -182.5q-14 -60 -28 -75q-12 -11 -27 -11q-22 0 -78.5 10t-75.5 11q-49 1 -111.5 135t-88.5 295q-14 80 -43.5 200t-32.5 144 q-1 6 -3.5 36t-5 57t-6.5 59t-9 54.5t-11 30.5q-26 -85 -57 -268q-15 -91 -33 -298t-39 -316q-28 -125 -49 -146q-22 -22 -121 -22q-94 0 -94 32q0 7 21 73.5t24 84.5q20 107 40 315.5t38 309.5q29 164 57 278q3 16 19 116.5t32 175.5t29 77q52 8 156 8z" />
<glyph unicode="O" d="M688 1477q76 0 135 -25t96 -66t60.5 -98t33 -115.5t9.5 -123.5q0 -170 -47 -424q-43 -246 -104.5 -383.5t-182.5 -210.5q-95 -56 -301 -56q-172 0 -253 81.5t-81 252.5q0 71 13 143.5t34.5 160t30.5 139.5q4 28 11.5 112t17.5 129q27 111 68.5 196t104 151.5t152 101.5 t203.5 35zM670 1268q-57 0 -104 -21.5t-77.5 -54t-55 -81t-38 -93.5t-24.5 -100q-7 -34 -11.5 -99.5t-7.5 -87.5q-6 -42 -41 -172t-35 -211q0 -68 28 -115t91 -47h25.5h29t26.5 0.5t29 2t26 4t27.5 6.5t23.5 10q107 54 172 438q43 260 43 369q0 252 -127 252z" />
<glyph unicode="P" horiz-adv-x="899" d="M524 1475q87 0 156.5 -24t123 -73t82.5 -131.5t29 -193.5q0 -251 -115 -388t-321 -137q-9 0 -132 6q-21 -256 -66 -411q-26 -83 -31 -94q-5 -14 -56.5 -22.5t-93.5 -8.5q-73 0 -73 29q0 13 11.5 42t12.5 35q35 151 67.5 455.5t49.5 403.5q10 58 32.5 160.5t38 178 t15.5 101.5q0 8 5 16.5t22.5 19t45.5 18t79 13t118 5.5zM526 739q74 0 118 89.5t44 199.5q0 81 -7 125t-30.5 71t-59.5 34.5t-104 7.5q-33 0 -36 -27q-1 -8 -14 -66.5t-28.5 -132.5t-21.5 -112q-11 -61 -23 -185q68 -4 162 -4z" />
<glyph unicode="Q" horiz-adv-x="1081" d="M1010 680q-11 -82 -27 -150.5t-43.5 -149.5t-74 -151.5t-107.5 -121.5q8 -7 24 -20.5t25 -21.5t19 -17.5t15 -16.5t5 -11q0 -27 -51 -78t-78 -51q-52 0 -147 118q-87 -25 -189 -25q-81 0 -140.5 36t-93 99.5t-49.5 141.5t-16 171q0 124 29 309q6 45 39.5 159t42.5 204 q5 51 39.5 110.5t94.5 116.5t158.5 95t214.5 38q71 0 117.5 -10.5t91.5 -46.5q66 -53 97.5 -168t31.5 -223q0 -129 -28 -336zM303 465q0 -134 20 -191q29 -81 97 -81q24 0 47 3q-47 113 -47 140q0 24 58.5 50t109.5 26q11 0 56 -108q100 125 147 411q22 137 22 305 q0 175 -53 215q-22 16 -92 16q-74 0 -156.5 -57.5t-91.5 -128.5q-6 -54 -42 -169t-44 -161q-31 -195 -31 -270z" />
<glyph unicode="R" horiz-adv-x="929" d="M862 811q-85 -172 -279 -205q42 -92 81 -262q34 -165 57 -172q73 -22 88 -33q16 -11 16 -39q0 -46 -18 -100q-3 -9 -16.5 -16t-32.5 -7q-178 0 -221 62q-36 53 -80 254q-55 229 -112 325q-39 -219 -48 -284q-5 -37 -17 -109.5t-20 -123.5t-8 -64q0 -16 -19.5 -27.5 t-49.5 -16.5t-53.5 -7t-43.5 -2h-8q-15 0 -22.5 0.5t-16.5 3t-12.5 9t-3.5 17.5q0 17 7.5 71t21 139.5t18.5 117.5q12 76 43 222t43 220q8 50 19.5 174.5t19.5 174.5q5 38 36 148.5t45 127.5q12 15 53.5 33t65.5 18q283 0 414 -84.5t131 -255.5q0 -49 -25 -150t-53 -159z M684 924q11 23 23 100t12 115q0 33 -22.5 55.5t-61 33t-75.5 15t-79 4.5q-44 0 -71 -174q-8 -46 -16.5 -130.5t-11.5 -107.5q22 -12 54.5 -20t52.5 -8q76 0 119 26.5t76 90.5z" />
<glyph unicode="S" horiz-adv-x="849" d="M520 1473q89 0 183.5 -29.5t132.5 -85.5q61 -88 61 -121q0 -31 -61.5 -67.5t-94.5 -36.5q-5 0 -9.5 1.5t-8.5 3t-8 6t-6.5 7t-7 9t-6.5 9t-6.5 10.5t-6.5 11q-19 31 -62 53.5t-96 22.5q-42 0 -102 -81t-60 -124q0 -104 99 -162q156 -90 221.5 -189.5t65.5 -250.5 q0 -70 -13 -150q-27 -154 -144.5 -244t-275.5 -90q-153 0 -235 88q-80 84 -80 177q0 90 8 102q13 19 59 43.5t95 24.5q55 0 55 -19q0 -7 -13.5 -32t-13.5 -46q0 -38 33.5 -83.5t85.5 -45.5q96 0 140 24.5t63 88.5q12 43 12 111q0 70 -11.5 119t-39 85t-60 59.5t-87.5 51.5 q-79 41 -132 127t-53 199q0 98 53.5 197t142.5 163t183 64z" />
<glyph unicode="T" horiz-adv-x="833" d="M797 1423q155 0 155 -39t-16.5 -110.5t-42.5 -71.5q-21 0 -64 5t-65 5q-26 0 -51 -3t-53.5 -8t-44.5 -7q-6 -39 -7 -57q-1 -19 -2.5 -64t-3 -70.5t-4.5 -62.5t-8 -68q-10 -63 -34 -176t-39 -207t-15 -180q0 -69 -23 -178q-14 -62 -32 -104.5t-31 -42.5q-39 0 -109.5 25.5 t-70.5 56.5q0 15 4.5 39t11 52t8.5 40q19 114 19 178q0 43 13.5 123.5t34.5 186.5t29 155q11 65 16.5 190t12.5 180q-154 25 -225 47q-27 9 -27 58q0 26 14.5 81.5t30.5 55.5q35 0 71 -3t58.5 -6t68 -10t66.5 -10q11 -2 46.5 -8.5t60.5 -10t47 -3.5q39 0 100.5 11t100.5 11z " />
<glyph unicode="U" d="M961 1483h26q86 0 86 -33q0 -17 -11.5 -75.5t-28 -139t-23.5 -131.5q-5 -36 -6.5 -108.5t-6.5 -108.5q-11 -71 -19 -122.5t-23 -130.5t-29.5 -137.5t-36.5 -131.5t-45 -125t-55 -105.5t-66.5 -86.5t-78.5 -54t-93 -21q-45 0 -72 0.5t-71 3t-71.5 7.5t-65 14.5t-60.5 23.5 t-49 35t-40.5 48.5t-24 64.5t-9.5 82q0 28 11.5 94t11.5 94q0 180 24 316q15 91 76 354q3 15 15.5 60.5t19 79t6.5 61.5q0 12 -2 38t-2 40q0 20 73 48.5t109 28.5q53 0 53 -123q0 -30 -6.5 -65.5t-18.5 -80.5t-16 -67q-9 -41 -28.5 -128.5t-33.5 -155t-24 -129.5 q-18 -118 -18 -254q0 -40 -11.5 -91t-11.5 -71q0 -22 3 -39t11.5 -29t16 -20.5t24 -14t27 -8.5t34.5 -4.5t37.5 -1.5h43.5h6.5h5.5q48 0 101 130t87 275.5t56 284.5q5 35 7 117t7 117q7 52 18 111t23 119l17 85q4 24 26.5 38t46 18t48.5 4z" />
<glyph unicode="V" horiz-adv-x="1024" d="M313 1462q30 0 66 -16q19 -8 35 -183.5t16 -287.5v-422q0 -88 9.5 -187.5t21.5 -134.5q26 28 72.5 147.5t68.5 192.5q8 26 32.5 141.5t35.5 139.5q16 34 40.5 95t43.5 113t48 132.5t42 114.5q7 20 14.5 45.5t13 42.5t11.5 28q17 25 112 25q119 0 119 -41 q0 -11 -7.5 -36.5t-20.5 -63.5t-17 -50q-23 -72 -91 -241t-91 -242q-8 -27 -31.5 -119t-40.5 -153q-9 -32 -23.5 -69.5t-25.5 -62.5t-30.5 -69t-28.5 -65q-85 -188 -121 -220q-26 -22 -180 -22q-52 0 -75 8.5t-28 28.5q-1 7 -28 53t-31 82q-22 228 -29 377q-8 172 -8 415 q0 62 -13.5 240.5t-13.5 206.5q0 22 49 39.5t84 17.5z" />
<glyph unicode="W" horiz-adv-x="1562" d="M244 1479q53 0 107.5 -21.5t54.5 -40.5q0 -35 7.5 -113t8.5 -110q1 -23 8.5 -70.5t7.5 -72.5q0 -31 -8 -95t-8 -96q0 -307 12 -442q13 11 31 58.5t37 108.5t22 70t37 104t59.5 161t63.5 143t66 104q27 26 99 41t124 15q26 0 39.5 -1.5t28 -13t14.5 -34.5q0 -15 -4 -46.5 t-4 -48.5q0 -58 17 -165.5t19 -157.5q0 -16 2.5 -164.5t8.5 -226.5q41 125 108 356.5t94 318.5q12 35 21 97t24 102q8 22 37 83t37 85q17 47 148 47q8 0 19.5 -1t30.5 -3t31.5 -8t12.5 -15q0 -27 -49 -129t-54 -118q-14 -39 -27.5 -110.5t-21.5 -100.5q-44 -150 -125 -408 t-112 -344q-2 -4 -26.5 -66.5t-31.5 -89.5q-6 -21 -39.5 -36t-79 -21t-76.5 -8t-52 -2q-29 0 -46.5 71.5t-29.5 200.5q-6 71 -3.5 212t-0.5 212q-9 130 -29 256q-19 -33 -42 -104t-30 -88q-28 -74 -74 -215t-69 -205q-28 -75 -86 -199.5t-82 -124.5q-23 0 -84 -2t-84 -2 q-30 0 -50.5 86t-27 163.5t-6.5 119.5q-1 51 -8.5 208t-7.5 244q0 31 8 93t8 92q0 26 -8 77t-8 76q0 37 -9.5 119.5t-9.5 118.5q0 52 10 64t50 12z" />
<glyph unicode="X" horiz-adv-x="952" d="M897 1157q-22 -25 -52 -87.5t-46 -84.5q-34 -48 -196 -288q9 -52 26 -132q3 -13 9 -45t10.5 -53.5t12.5 -48.5t17 -45q30 -61 79.5 -185.5t49.5 -156.5q0 -19 -31 -30t-57.5 -13t-50.5 -2q-14 0 -24.5 0.5t-19.5 3t-14.5 3.5t-11.5 7.5t-9 9t-8 13.5t-7 15t-8 20.5 t-9 23.5q-51 123 -70 158q-26 48 -53 194l-5 24q-37 -45 -60 -85q-31 -53 -71.5 -144t-69 -149t-44.5 -66q-31 -16 -114 -16q-29 0 -66 8t-37 27q0 13 19 67.5t30 79.5q93 201 156 303q64 106 162 230l37 48q-35 176 -68 279q-7 22 -40.5 106t-59 156t-25.5 95q0 21 21 34 t43 17t43 4q16 0 40 9t38 9q13 -1 25 -23t26.5 -65.5t15.5 -44.5q64 -160 78 -204q21 -67 35 -131l75 116q10 16 43 79t54 93q13 18 38.5 51t36.5 51t11 31q0 24 27.5 31.5t80.5 7.5q32 0 82.5 -15t50.5 -38q0 -46 -45.5 -118.5t-99.5 -133.5z" />
<glyph unicode="Y" horiz-adv-x="948" d="M969 1460q26 0 56 -15.5t30 -29.5q0 -22 -25 -97t-41 -112q-15 -36 -73 -146.5t-80 -144.5q-34 -50 -82.5 -119.5t-77.5 -111.5t-39 -59q-8 -143 -16 -201q-2 -20 -6 -74t-9 -84q-5 -38 -22.5 -96t-32 -101.5t-14.5 -50.5q0 -19 -39 -27.5t-84 -8.5q-30 0 -67.5 20.5 t-37.5 38.5q0 12 32.5 101.5t37.5 127.5q4 27 8 78.5t6 71.5q10 65 17 203q0 15 -24.5 67t-56 111t-36.5 71q-27 54 -80 247t-53 243q0 23 58.5 57.5t84.5 34.5q66 0 66 -39q0 -27 42 -187.5t58 -199.5q8 -16 28.5 -71.5t39.5 -82.5q24 28 64.5 88.5t60.5 86.5 q23 29 61 114.5t57 136.5q33 101 60 138q4 6 10.5 10t16.5 6.5t19.5 3.5t22.5 1.5t21 0.5h21.5h17.5z" />
<glyph unicode="Z" horiz-adv-x="968" d="M999 1257q-17 -49 -52.5 -101t-70 -90t-71.5 -82.5t-55 -76.5l-25 -43h6q73 0 129.5 11.5t65.5 11.5q20 0 20 -51q0 -26 -18 -86t-27 -68q-11 -9 -68.5 -19t-136.5 -10q-23 0 -100 5q-79 -122 -203 -302q-14 -20 -36.5 -51t-37 -52.5t-26.5 -41.5q87 -6 115 -6 q36 0 180 19.5t172 19.5q21 0 46 -15t25 -22q0 -26 -13.5 -85t-26.5 -75q-5 -7 -26 -14.5t-46 -7.5q-13 0 -155 -17.5t-181 -17.5q-9 0 -70 -2t-104 -2q-164 0 -186 22q-13 11 -21 52.5t-8 82.5q0 5 14 25t31.5 44t23.5 36q11 22 154 246l126 188q-150 28 -150 66 q0 36 19 108t44 72q33 0 95 -20.5t75 -22.5l45 -6q65 102 90 149q27 51 89 122.5t83 102.5q-162 -10 -215 -18q-22 -3 -126 -25t-118 -22q-25 0 -46 49.5t-21 110.5q0 10 13 24.5t28 20.5q50 19 132.5 35t129.5 20q141 12 274 12q7 0 20.5 4t30.5 9.5t25 7.5q31 0 110 -17 t79 -37q0 -14 -50 -170z" />
<glyph unicode="[" horiz-adv-x="694" d="M473 1612q36 0 74 -1t110.5 -5t118 -15.5t45.5 -29.5q0 -30 -21.5 -102.5t-41.5 -72.5q-27 0 -68 6.5t-72 6.5q-54 0 -69 -13q-10 -8 -14 -22q-12 -43 -22.5 -147.5t-12.5 -118.5q-5 -30 -25.5 -89.5t-25.5 -90.5q-10 -64 -19 -187.5t-18 -181.5q-9 -57 -22.5 -170 t-22.5 -170q-7 -41 -20.5 -105.5t-23.5 -110.5t-10 -56q0 -48 9 -48q39 0 102 11.5t65 11.5q12 0 23.5 -28t11.5 -48q0 -51 -10 -106q-6 -22 -132 -37t-245 -15q-23 0 -52.5 24t-29.5 44q0 93 39 260.5t45 202.5q10 62 29 186.5t29 186.5q9 58 14 174.5t14 173.5 q4 30 23 85.5t24 80.5q11 66 35 325q13 121 15 133q3 18 59.5 38t91.5 20z" />
<glyph unicode="\" horiz-adv-x="778" d="M391 1604q25 0 49.5 -139.5t32.5 -225.5q3 -36 10 -107.5t8 -89.5t4.5 -62.5t4 -69.5t1.5 -65t1 -91q0 -31 -4 -162t0 -162q5 -60 34 -217.5t29 -247.5q0 -46 18.5 -149.5t18.5 -112.5q0 -13 -15.5 -25t-43.5 -12q-140 0 -148 21q-9 9 -31 109t-22 138q0 89 -28.5 247.5 t-33.5 219.5q-4 25 -0.5 146.5t3.5 146.5q0 120 -23 465q-5 59 -30 197t-25 186q0 32 73 47t117 15z" />
<glyph unicode="]" horiz-adv-x="712" d="M573 1606q35 0 70 -23t35 -39q0 -85 -49 -387q-8 -51 -19.5 -174t-19.5 -174q-7 -46 -30 -137t-30 -137q-15 -89 -33.5 -267.5t-33.5 -267.5q-7 -39 -19.5 -96t-37 -130t-46.5 -91q-22 -17 -93 -20.5t-122 5.5q-22 3 -60.5 8t-65.5 8.5t-54.5 8t-42 9t-14.5 9.5 q0 42 24 117.5t56 75.5q30 0 102 -11.5t103 -11.5q26 0 45 125l20.5 164t26 201t24.5 164q6 40 26.5 129t26.5 129q9 58 24 184.5t24 185.5q2 16 7.5 47.5t8.5 50t5.5 45.5t2.5 50q0 28 -49 28q-32 0 -86.5 2.5t-77.5 2.5q-18 0 -25.5 51t-7.5 88t12.5 52t41.5 15 q48 0 164 5.5t167 5.5z" />
<glyph unicode="^" horiz-adv-x="942" d="M657 1473q29 0 54 -11q25 -10 60 -133.5t48 -195.5q9 -46 15.5 -95t13.5 -117.5t10 -95.5q4 -30 23.5 -103t19.5 -108q0 -20 -69.5 -52t-96.5 -32q-28 0 -56.5 76.5t-37.5 143.5q-6 41 -18.5 193t-26.5 198q-12 -15 -46.5 -57.5t-56.5 -72.5t-40 -61q-20 -34 -37.5 -72 t-40 -92.5t-31.5 -74.5q-18 -42 -30.5 -68.5t-30.5 -60.5t-34.5 -51t-31.5 -17q-34 0 -97 23t-63 51q0 21 15 63t38.5 95.5t26.5 62.5q63 150 125 258q49 86 158 235t147 160q37 11 90 11z" />
<glyph unicode="_" horiz-adv-x="1351" d="M1157 -18q50 0 66 -36.5t16 -107.5q0 -18 -20.5 -42.5t-61.5 -24.5q-31 0 -391 -16.5t-395 -16.5q-46 0 -110.5 12t-115.5 12q-32 0 -86 4t-73 5q-7 0 -26.5 -2t-27.5 -2q-7 0 -13.5 22t-10.5 62.5t-4 87.5q0 31 43 38q15 5 39 5q34 0 95.5 -5.5t96.5 -5.5q45 0 107 -12 t112 -12q22 0 370 17.5t390 17.5z" />
<glyph unicode="`" horiz-adv-x="456" d="M352 1618q27 0 67.5 -56.5t47.5 -88.5q3 -16 30 -79t27 -79q0 -29 -56 -61.5t-93 -32.5q-24 0 -60.5 59.5t-42.5 89.5q-4 22 -34.5 75t-30.5 79q0 29 63.5 61.5t81.5 32.5z" />
<glyph unicode="a" horiz-adv-x="952" d="M836 711q-9 -45 -37.5 -184.5t-38.5 -192.5q-6 -34 -6 -105q0 -34 18 -41q25 -8 56.5 -35.5t31.5 -43.5q0 -33 -33.5 -84.5t-52.5 -51.5q-26 0 -84 13.5t-80 27.5q-11 8 -24 22q-60 -24 -133 -42.5t-123 -18.5q-72 0 -139.5 52t-108.5 136t-41 173q0 54 24.5 165.5 t26.5 147.5q2 25 7 52.5t16.5 67t16.5 57t22 67t18 53.5q7 22 40 54.5t78.5 64t102.5 54t105 22.5q99 0 195 -49q14 19 78.5 37t98.5 18q23 0 29 -11.5t6 -39.5q0 -18 -33 -154q-12 -46 -22 -127t-14 -104zM545 365q9 43 34 186.5t33 179.5q4 17 21 146q-16 23 -45.5 39 t-52.5 16q-38 0 -93.5 -35.5t-72.5 -69.5q-53 -116 -58 -202q-2 -35 -23.5 -146t-21.5 -137q0 -55 31 -105.5t70 -50.5q28 0 81 14.5t88 31.5q0 95 9 133z" />
<glyph unicode="b" horiz-adv-x="929" d="M653 1124q88 0 158 -93t70 -228q0 -71 -6 -143.5t-22 -155t-40 -156t-63.5 -142t-89 -118t-120 -79t-153.5 -29.5q-48 0 -142 45q-17 -97 -28 -97q-56 0 -123 32.5t-67 62.5q0 51 18 165q12 73 55 295q4 19 92 426q13 59 16.5 183t8.5 147q20 99 49 182q12 35 105 35 q45 0 78.5 -10t33.5 -27q0 -40 -41 -209q-7 -27 -13 -145q27 18 49.5 29t69 20.5t105.5 9.5zM377 184q51 0 93 26.5t70 68.5t49.5 100t33.5 115.5t19.5 122t10 111.5t2.5 91q0 27 -15 63t-36 36q-29 0 -73.5 -27t-69.5 -48t-66 -58q-72 -317 -78 -355q-15 -101 -35 -202 q59 -44 95 -44z" />
<glyph unicode="c" horiz-adv-x="839" d="M537 1137q116 0 211.5 -79.5t95.5 -193.5q0 -35 -64 -55.5t-110 -20.5q-12 0 -19.5 22t-14 48t-32 47.5t-69.5 20.5q-60 -1 -101 -49.5t-72 -141.5q-4 -14 -34.5 -94t-36.5 -117q-7 -46 -8 -94t1.5 -97t2.5 -59q0 -55 25.5 -75.5t80.5 -20.5q33 0 59.5 10t41.5 21 t27.5 33.5t16.5 33.5t10.5 35t6.5 25q11 37 143 37q56 0 56 -66q0 -147 -108.5 -242.5t-252.5 -95.5q-150 0 -241 81.5t-91 230.5q0 18 -1 63t-1 73.5t3 71.5t10 80q18 105 102 295q118 273 363 273z" />
<glyph unicode="d" horiz-adv-x="999" d="M915 944q0 -30 -30 -119t-39 -143q-6 -37 -48 -209t-42 -221q0 -33 5.5 -48.5t24.5 -15.5q18 0 50.5 16.5t48.5 16.5q12 0 12 -149q0 -20 -18 -36.5t-41 -25.5q-39 -18 -136 -18q-75 0 -117 47q-117 -68 -196 -68q-65 0 -116 12.5t-86 32.5t-59.5 55t-38 69t-21 86 t-9.5 95.5t-2 106.5q0 97 45.5 252t49.5 178q22 121 124 195.5t285 74.5q45 0 143 -41q17 125 64 336q6 30 62 46t90 16q23 0 35.5 -2t23 -13t10.5 -32q0 -36 -37 -240.5t-37 -253.5zM531 233l-1 9q0 92 43.5 253.5t51.5 213.5q2 9 41 153q-22 23 -53.5 40.5t-53.5 17.5 q-78 0 -139 -38t-74 -104q-6 -36 -36.5 -170t-30.5 -180v-41.5t1 -41.5t4 -43t7 -38t11 -35t16.5 -26t23.5 -19t31 -6q61 0 158 55z" />
<glyph unicode="e" horiz-adv-x="913" d="M285 497q-6 -43 -6 -91q0 -12 -0.5 -35t-0.5 -34.5t1 -31t3.5 -29.5t7 -25t11 -22.5t17 -17.5t24.5 -14.5t32.5 -7.5t41.5 -3q79 0 112 68q67 139 101 139t101 -39.5t67 -70.5q0 -18 -41 -88t-74 -121q-15 -22 -25.5 -33.5t-38.5 -29t-77.5 -26t-120.5 -8.5 q-194 0 -280.5 100t-86.5 296q0 98 19.5 197.5t56.5 232.5q52 184 156 253.5t299 69.5q82 0 140 -36.5t87.5 -100t42 -132.5t12.5 -152q0 -36 -13 -82t-42 -85.5t-66 -39.5q-53 0 -157.5 9t-120.5 9q-51 0 -182 -19zM563 920q-39 0 -66.5 -3.5t-49 -13.5t-34.5 -21 t-26 -34.5t-20.5 -44.5t-20.5 -60l-10 -35q109 15 162 15q15 0 60.5 -5.5t59.5 -4.5q37 3 37 41q0 166 -92 166z" />
<glyph unicode="f" horiz-adv-x="694" d="M571 1264q-34 0 -60 -154q96 -4 118 -4q38 0 80.5 -17t42.5 -36q0 -32 -28 -95t-54 -63q-23 0 -197 13q-74 -372 -84 -431q-5 -29 -17.5 -168.5t-31.5 -265.5t-47 -193q-34 -80 -132 -130t-183 -50q-70 0 -70 156q0 22 35 34.5t80.5 29.5t62.5 47q19 33 36 156 t30.5 269.5t19.5 180.5q3 20 68 341q-72 -14 -105 -14q-19 0 -27 63.5t-8 115.5q0 39 184 56l3 15q34 193 97.5 275t199.5 82q52 0 94 -19t65.5 -48t35.5 -59t12 -57q0 -26 -47 -63t-74 -37q-14 0 -22 10.5t-12.5 23.5t-20.5 24t-44 12z" />
<glyph unicode="g" horiz-adv-x="958" d="M831 1194q32 0 71.5 -16t39.5 -31q0 -38 -17 -177t-34 -196q-14 -46 -41 -202t-39 -197q-22 -77 -38 -263.5t-23 -217.5q-14 -61 -71.5 -128t-127 -110t-117.5 -43q-53 0 -111.5 19t-96.5 45.5t-38 48.5q0 16 36 80.5t65 64.5q16 0 57.5 -23.5t59.5 -23.5q26 0 81.5 64.5 t63.5 101.5q4 17 7 62q-37 -32 -97 -51t-105 -19q-47 0 -86 7t-68.5 18.5t-52 32t-38 41t-26 52t-16.5 58t-9 67t-4 71.5t-1 77q0 89 22.5 187t68 194t108 172.5t151 124t187.5 47.5q56 0 133 -33q7 47 10 57q7 25 29.5 32t66.5 7zM590 424q13 47 43 200.5t41 194.5l13 56 q-60 47 -93 47q-68 0 -130 -58.5t-100.5 -142t-61.5 -168.5t-23 -145v-22.5v-30t1 -31.5t3.5 -34.5t6 -31t10 -30t15 -22.5t21 -16.5t27.5 -5.5q30 0 103 33.5t107 91.5q7 79 17 115z" />
<glyph unicode="h" horiz-adv-x="1003" d="M874 209q22 0 30.5 -42.5t8.5 -88.5q0 -25 -69.5 -57.5t-151.5 -32.5q-46 0 -80 51.5t-34 120.5q0 126 53 334q53 207 53 335v12.5v15t-1 15t-2.5 16t-4.5 13t-7.5 11.5t-11.5 7t-16 3q-62 0 -136.5 -39t-123.5 -92q-21 -222 -33 -281q-10 -51 -36.5 -154t-44 -183.5 t-17.5 -127.5q0 -22 -30.5 -35.5t-74.5 -13.5q-47 0 -83.5 10.5t-36.5 32.5q0 65 47.5 262.5t56.5 251.5q15 85 28 246t23 233q23 154 70.5 301.5t85.5 147.5q43 0 104.5 -25.5t61.5 -60.5q0 -11 -16.5 -72t-40 -147.5t-34.5 -137.5q49 41 113.5 69t124.5 28q79 0 130.5 -19 t79.5 -59t39 -92t11 -129q0 -56 -10.5 -127.5t-20.5 -115t-30 -126.5q-7 -31 -24 -92.5t-27.5 -106t-10.5 -67.5q0 -17 9 -17q7 0 39 12.5t40 12.5z" />
<glyph unicode="i" horiz-adv-x="499" d="M367 1462q116 0 116 -100q0 -81 -27 -113t-104 -32q-47 0 -86 24t-39 66q0 155 140 155zM301 1118q37 0 80 -17t43 -36q0 -13 -15.5 -99t-15.5 -124q0 -25 -13 -129.5t-24 -155.5q-6 -30 -28.5 -115.5t-41 -156t-18.5 -78.5q0 -12 10.5 -17.5t20.5 -5.5q13 0 46 27t46 27 q12 0 17.5 -1t9.5 -6t4 -16q0 -24 -11.5 -94t-23.5 -80q-77 -68 -209 -68q-56 0 -96.5 40.5t-40.5 103.5q0 71 20.5 175.5t48.5 212t31 120.5q27 132 27 270q0 46 15.5 107.5t15.5 66.5q0 21 29.5 35t72.5 14z" />
<glyph unicode="j" horiz-adv-x="507" d="M410 1450q122 0 122 -98q0 -78 -31.5 -113t-107.5 -35q-44 0 -75 24t-31 68q0 74 27.5 114t95.5 40zM319 1124q33 0 96.5 -33t63.5 -61q0 -35 -44 -198.5t-50 -213.5q-6 -48 -9.5 -143t-10.5 -143q-4 -26 -17 -132.5t-25 -180.5t-40.5 -157t-67.5 -116q-26 -23 -70 -36 t-84 -13q-60 0 -118 20t-90.5 44.5t-32.5 41.5q0 27 65.5 93.5t100.5 66.5q9 0 14 -10t7 -21.5t14.5 -21.5t35.5 -10t38 77t29 216.5t21 183.5q11 70 13 165.5t8 133.5q10 61 32 155.5t57.5 193.5t63.5 99z" />
<glyph unicode="k" horiz-adv-x="880" d="M872 956q-42 -57 -127 -144.5t-180 -168.5q20 -62 32.5 -151.5t14.5 -147.5q1 -39 7.5 -74t18.5 -56.5t26 -20.5q18 1 37 19.5t32 18.5q16 0 40 -55.5t24 -77.5q0 -35 -60 -75.5t-155 -40.5q-49 0 -87.5 44t-56 98.5t-20.5 106.5q-11 198 -40 270l-27 -17q-3 -35 -3 -62 q0 -31 -29 -121t-59 -164q-2 -6 -9.5 -27.5t-14 -37.5t-16 -34.5t-21.5 -29t-25 -10.5q-50 0 -98.5 10.5t-48.5 34.5q0 27 10 88t26 113q7 23 19 59.5t19.5 61t15.5 51t12 45t4 28.5q0 83 12 175.5t31 205t27 174.5q5 42 16.5 113t20 122.5t8.5 59.5q0 23 -2 57t-2 44 q0 13 23.5 24t64.5 11q38 0 83.5 -11t49.5 -30q6 -29 6 -95q0 -29 -5 -71.5t-10.5 -74.5t-15.5 -87.5t-14 -79.5q-22 -124 -39 -241q78 51 160.5 130.5t144.5 157.5q48 60 82 60q22 0 78.5 -38t56.5 -55q0 -31 -37 -84z" />
<glyph unicode="l" horiz-adv-x="522" d="M350 1460q33 0 74 -19t41 -48q0 -55 -10 -149t-21 -152q-4 -24 -39.5 -249t-48.5 -288q-2 -12 -11.5 -55t-13.5 -61.5t-11 -56t-10 -59.5t-6 -48.5t-3 -45.5q0 -15 20.5 -30t48.5 -19q19 -3 29.5 -5.5t25.5 -7t22 -11t7 -15.5q0 -21 -6 -72.5t-10 -68.5q-2 -8 -15 -15 t-30 -8q-37 -3 -97 5t-98 18q-55 16 -91 77.5t-36 180.5q0 28 8.5 78t18 92.5t24.5 108t21 92.5q14 65 46 270t38 234q23 118 23 280q0 20 32 33.5t78 13.5z" />
<glyph unicode="m" horiz-adv-x="1445" d="M1317 160q35 -5 35 -103q0 -14 -23.5 -30t-73.5 -29.5t-112 -13.5t-93.5 41.5t-31.5 154.5q0 81 43 302t43 309q0 129 -31 129q-91 0 -195 -110q-8 -287 -122 -663q-1 -2 -6 -21.5t-8.5 -30t-10.5 -30.5t-13.5 -32t-15.5 -25t-19.5 -19.5t-21.5 -6.5q-39 0 -96 25t-57 46 q0 24 6.5 56t13 54.5t19 59.5t16.5 51q36 118 64 276.5t28 289.5q0 24 -16 52t-37 28q-64 0 -179 -65q-9 -48 -37 -126t-36 -117q-15 -72 -50 -284.5t-54 -294.5q-6 -26 -25.5 -33.5t-60.5 -7.5q-140 0 -140 39q0 16 23.5 152.5t50.5 289.5t31 180q7 43 43.5 159.5 t36.5 127.5q0 14 -10.5 44t-10.5 46q0 24 69.5 65.5t92.5 41.5q21 0 52 -60q146 54 247 54q117 0 181 -88q80 50 137 66.5t135 16.5q50 0 88.5 -14.5t63 -42.5t40.5 -60.5t24 -77.5t10.5 -84t2.5 -89q0 -77 -22.5 -212.5t-45 -243t-22.5 -118.5q0 -5 5 -9t15.5 -6.5 t18.5 -3.5t22 -2.5t19 -2.5z" />
<glyph unicode="n" horiz-adv-x="1036" d="M834 182q0 -14 58 -31t58 -26q0 -31 -8 -70t-24 -47q-18 -9 -74.5 -16.5t-95.5 -7.5q-136 0 -136 217q0 42 31 200t31 248q0 22 21.5 102.5t21.5 112.5q0 22 -29.5 44t-46.5 22q-103 -2 -270 -138l-8 -34q-2 -13 -28.5 -273.5t-33.5 -300.5q-6 -36 -27 -100t-32 -78 q-18 -22 -86 -22q-138 0 -138 43q0 18 25 86.5t31 97.5q7 32 35 308.5t34 303.5q5 24 37.5 139.5t32.5 131.5t53 24t99 8q33 0 47 -7t14 -29l-1 -26q105 75 226 75q117 0 203 -85t86 -200q0 -39 -18.5 -118.5t-18.5 -98.5q0 -81 -17.5 -181t-34.5 -176t-17 -98z" />
<glyph unicode="o" horiz-adv-x="899" d="M559 1143q102 0 201.5 -89t99.5 -204q0 -147 -32.5 -313.5t-103.5 -319t-165 -207.5q-38 -21 -103.5 -33t-119.5 -12q-167 0 -235 77.5t-68 246.5q0 78 42 227.5t42 220.5q0 112 65 206.5t166 147t211 52.5zM553 930q-103 0 -162 -70t-59 -172q0 -51 -39 -205t-39 -188 q0 -11 -0.5 -30t-0.5 -27t1.5 -21t6.5 -18.5t13 -12t21.5 -8.5t32.5 -2q82 0 106 14q47 27 87.5 111t65 183.5t38.5 192.5t14 152q0 34 -26 67.5t-60 33.5z" />
<glyph unicode="p" horiz-adv-x="913" d="M797 952q26 -42 37.5 -62.5t21.5 -55t10 -72.5q0 -132 -51.5 -348.5t-118.5 -298.5q-33 -41 -61.5 -66.5t-52.5 -41t-60 -22.5t-66.5 -8.5t-88.5 -1.5q-30 0 -94 11q-12 -48 -23 -76q-9 -21 -26 -99.5t-34 -143t-30 -70.5q-35 -17 -94 -17q-33 0 -70 23t-37 41 q0 23 24.5 133t43.5 170q32 95 51.5 282.5t19.5 259.5q0 67 33 198t33 198q0 52 19 174.5t42 122.5q33 0 104 -23t80 -48q46 17 105 17q62 0 101.5 -7.5t71.5 -32t52.5 -51.5t57.5 -85zM512 238q48 66 89.5 242.5t41.5 275.5q0 42 -45.5 105t-87.5 63q-47 0 -119 -45 q-1 -50 -33 -169t-32 -186q0 -154 -20 -334q48 -8 65 -8q57 0 85.5 9.5t55.5 46.5z" />
<glyph unicode="q" horiz-adv-x="935" d="M756 1120q31 0 94 -27.5t63 -50.5q0 -22 -19 -60t-22 -54q-15 -80 -41 -305.5t-45 -290.5q-26 -88 -44.5 -177.5t-18.5 -125.5q0 -57 -17.5 -232t-17.5 -186q0 -35 -102 -35q-32 0 -75.5 23.5t-43.5 46.5q0 11 5.5 67.5t13.5 138t11 138.5q-75 -15 -153 -15 q-105 0 -190.5 121t-85.5 291q0 19 -1 57t-1 56q0 21 2.5 41.5t8 44.5t9.5 38.5t13 43.5t12 39q19 66 36.5 114.5t49.5 109.5t68.5 100t91.5 66t120 27q18 0 39 -2.5t48.5 -8.5t43.5 -9.5t50 -12.5t41 -11q31 40 57 40zM569 389q12 41 23.5 121t26 197.5t22.5 174.5 q-117 33 -162 33q-80 0 -164 -270q-28 -95 -28 -147q0 -18 2 -50.5t2 -58.5q0 -77 34 -141t95 -64q34 0 106 35q25 109 43 170z" />
<glyph unicode="r" horiz-adv-x="667" d="M655 1112q57 0 67.5 -9t10.5 -61q0 -27 -10 -62.5t-23 -55.5q-8 -12 -30 -20.5t-57.5 -19t-57.5 -20.5q-83 -35 -141 -70q-21 -116 -21 -128q0 -41 -4.5 -83t-9 -68.5t-16 -82t-17.5 -88.5q-10 -52 -16.5 -83.5t-19 -79.5t-25 -77t-29.5 -58.5t-38.5 -43.5t-47.5 -14 t-77.5 33.5t-51.5 56.5q0 8 18.5 74t40.5 142.5t27 100.5q1 5 7 35.5t8.5 42.5t8 41.5t8 49t5.5 46t4.5 51t1.5 48.5q0 22 11.5 77.5t11.5 73.5q0 47 -68 66q-27 8 -27 47q0 32 23 93.5t43 61.5q59 0 129 -23.5t109 -78.5q47 34 122 60t131 26z" />
<glyph unicode="s" horiz-adv-x="808" d="M481 1126q236 0 301 -186q19 -52 19 -109q0 -26 -60.5 -45.5t-99.5 -17.5q-36 3 -47 72q-4 24 -10 39t-27 28t-57 13q-46 0 -101 -30.5t-55 -72.5q0 -38 5 -55.5t11.5 -23.5t28 -19t41.5 -31q100 -90 152.5 -166t70 -145.5t17.5 -171.5q0 -99 -97 -163.5t-221 -64.5 q-151 0 -250.5 80t-99.5 195q0 27 54.5 63.5t84.5 36.5q15 0 27.5 -17t25 -41t30 -48t50.5 -41t78 -17q19 0 38.5 3.5t37.5 15t18 29.5q0 43 -6.5 78t-24 66.5t-32.5 53t-49.5 51.5t-56 46t-69.5 51q-15 11 -22 16q-23 17 -36.5 37t-19 50.5t-6.5 51.5t-1 65v19q0 83 56 155 t138 111t164 39z" />
<glyph unicode="t" horiz-adv-x="712" d="M549 1158q225 -30 225 -71q0 -21 -31 -90t-45 -69q-16 0 -46 4.5t-74.5 11.5t-71.5 11q-55 -209 -60 -230q-47 -212 -53 -322q-11 -192 27 -192q25 0 40.5 14.5t21 32.5t15 32.5t23.5 14.5q24 0 72.5 -11t48.5 -28q0 -141 -79.5 -213.5t-217.5 -72.5q-52 0 -90 21t-58 56 t-29 72.5t-9 79.5q0 106 10 219q5 62 16 132.5t22.5 131.5t12.5 66q6 39 50 193q-18 -2 -43 -5t-39.5 -4.5t-20.5 -1.5q-42 0 -59 2.5t-17 13.5q0 47 13 113.5t30 73.5q36 15 189 21q16 92 16 143q0 15 -5 55t-5 55q0 19 28.5 33t59.5 14q46 0 84.5 -11t50.5 -26 q5 -6 7.5 -16.5t3.5 -26.5t1.5 -26.5t0 -27.5t-0.5 -19q0 -39 -14 -153z" />
<glyph unicode="u" horiz-adv-x="968" d="M883 821q0 -33 -49 -260q-7 -30 -31 -119t-44 -163t-20 -82q0 -21 37 -21q26 0 47.5 14.5t22.5 14.5q18 0 27.5 -10.5t9.5 -42.5q0 -33 -17 -77t-34 -54q-71 -44 -195 -44q-47 0 -91 63q-81 -69 -194 -69q-135 0 -218 78.5t-83 210.5q0 46 33 207t33 217q0 37 5.5 87 t14.5 101t17 91t16 77t8 39q4 21 50 31t94 10q79 0 79 -57q0 -15 -41 -216.5t-41 -264.5q0 -57 -23.5 -164t-23.5 -150q0 -42 16 -64t56 -22q59 0 111.5 44t88.5 104q16 70 46.5 174.5t34.5 124.5q32 156 32 245q0 46 14.5 118t14.5 77q0 21 29.5 35t72.5 14q37 0 80 -17 t43 -36q0 -13 -14 -109.5t-14 -134.5z" />
<glyph unicode="v" horiz-adv-x="903" d="M195 1149q101 0 153 -121q36 -81 51 -240q5 -75 2.5 -127.5t-8.5 -115t-6 -78.5q0 -154 10 -188q57 99 95 178q27 55 62 140t36 87q50 98 74 193q6 22 31 103.5t28 96.5q5 25 24 37t72 12q40 0 80.5 -14t40.5 -33q0 -33 -7 -71.5t-14.5 -64.5t-19.5 -64.5t-16 -51.5 q-9 -33 -47 -121t-72 -155q-12 -23 -38.5 -98t-47.5 -121q-48 -102 -168 -281q-4 -5 -11.5 -17.5t-10 -15.5t-8.5 -11t-9.5 -9.5t-10 -6t-13.5 -5t-16.5 -1.5t-22.5 -1q-213 0 -213 67q0 39 -11 172.5t-14 188.5q-3 57 3.5 184t2.5 180q-1 10 -2 41.5t-4.5 52.5t-11.5 39 q-9 20 -41.5 52.5t-32.5 46.5q0 19 25 59q26 42 44.5 62t41.5 20z" />
<glyph unicode="w" horiz-adv-x="1462" d="M1380 1126q40 0 80.5 -14t40.5 -33q0 -41 -20 -89t-46 -94.5t-32 -68.5q-10 -36 -46 -124t-69 -152q-12 -23 -38.5 -98t-47.5 -121q-3 -7 -23.5 -51t-28.5 -60.5t-25.5 -51t-34 -62.5t-35.5 -56q-3 -5 -10.5 -16t-9.5 -14t-7.5 -10.5t-8 -9.5t-8.5 -6.5t-11 -5 t-12.5 -2.5t-16 -2.5t-19.5 -0.5q-74 0 -138 19t-64 48q0 36 6 261t6 253q0 10 -3 70t-3 65q-12 -24 -122 -259t-134 -271q-23 -34 -46 -60l-22 -26q-14 -17 -14 -51q0 -47 -213 -47q-29 0 -29 110q0 34 5 117.5t3 128.5q-8 140 -8 209q0 61 18.5 179.5t18.5 178.5 q0 13 -51 21q-30 5 -56 18t-26 25q0 15 6.5 54t15.5 54q18 29 213 29q34 0 72 -50.5t39 -117.5q1 -69 -17 -194t-18 -191q0 -16 -0.5 -33.5t-1 -26.5t0.5 -23.5t3 -31.5q21 26 135.5 275t153.5 344q9 23 35.5 36t46.5 13q160 0 172 -41q20 -66 29.5 -225t9.5 -256 q0 -16 -4 -83t-5.5 -111t1.5 -70q9 16 21.5 55.5t31.5 77.5q27 55 59.5 138.5t34.5 88.5q50 98 74 193q6 25 49.5 106t46.5 94q5 25 24 37t72 12z" />
<glyph unicode="x" horiz-adv-x="870" d="M647 651q-13 -15 -117 -117q51 -130 64 -169q7 -20 20 -65t23 -74.5t16 -33.5t24.5 -4t41 2t26.5 2q23 0 23 -40q0 -26 -5 -72.5t-9 -59.5t-64 -21.5t-121 -8.5q-39 0 -83.5 65t-65.5 129q-22 66 -57 155q-10 -17 -25 -62t-29 -66q-61 -89 -92 -141q-26 -43 -46.5 -62.5 t-51.5 -19.5t-89.5 27t-58.5 53q0 23 74 139q44 69 88 145q13 22 31 71t31 68q35 53 65 88q-99 225 -119 275q-12 32 -19 86.5t-7 79.5t73.5 60.5t110.5 35.5q13 0 22.5 -37.5t17 -86t15.5 -62.5q27 -47 86 -178q19 19 27 28q33 39 119 158t90 123q2 3 20.5 26t32 36.5 t21.5 13.5q32 0 100 -32t68 -58q0 -11 -6.5 -34t-18.5 -36q-5 -6 -108.5 -146.5t-137.5 -179.5z" />
<glyph unicode="y" horiz-adv-x="909" d="M715 1124q37 0 103.5 -27.5t66.5 -47.5q0 -54 -47 -193q-10 -30 -24 -148t-27 -251t-17 -160q-6 -43 -31.5 -151.5t-27.5 -131.5q0 -4 -2.5 -37.5t-4.5 -52t-8.5 -54.5t-15.5 -71q-21 -79 -95 -173.5t-143 -94.5q-155 0 -243 23q-49 13 -88 47.5t-39 56.5q0 26 31 85.5 t53 59.5q19 0 52.5 -19t45.5 -22q70 -18 143 -18q21 0 41.5 50t32.5 114q1 5 11 107q-116 -58 -187 -58q-75 0 -131 52t-81.5 126.5t-25.5 157.5q0 36 26 165.5t26 170.5q0 46 6 99t12.5 89.5t19.5 101.5t19 97q14 92 59 92q54 0 115 -16.5t61 -40.5q0 -7 -21.5 -91 t-43 -191.5t-21.5 -172.5q0 -40 -17 -147t-17 -150q0 -45 11.5 -91t33.5 -46q28 0 66.5 20.5t70 44.5t66.5 54q7 6 10 9q9 37 12 68q1 6 15.5 155.5t27.5 253t24 144.5q58 213 97 213z" />
<glyph unicode="z" horiz-adv-x="819" d="M215 1141q58 0 174.5 -20.5t177.5 -20.5q47 0 78 11t35 11q35 0 104.5 -25.5t69.5 -52.5q0 -108 -172 -346q-196 -263 -305 -385q-8 -9 -22.5 -24.5t-23 -25t-19 -21.5t-16 -21t-7.5 -16q20 2 100 2q28 0 64.5 -5t71.5 -12t46 -8q36 -4 79.5 -19.5t43.5 -33.5 q0 -32 -28 -97t-54 -65q-34 0 -96 6q-44 4 -80.5 14.5t-50.5 10.5q-23 0 -140.5 -12t-158.5 -13q-21 0 -68 51t-47 85q0 42 101.5 183t160.5 204q80 87 159 187.5t122 162.5l37 47q-15 -4 -62 -4q-31 1 -63 6t-87 16.5t-81 16.5q-111 22 -115 26q-14 11 -14 45 q0 22 11.5 65.5t11.5 53.5q0 23 63 23z" />
<glyph unicode="{" horiz-adv-x="684" d="M717 1608q13 0 26 -48t13 -83q0 -25 -4 -37q-4 -14 -93.5 -36.5t-101.5 -37.5q-11 -14 -19.5 -80t-15 -148.5t-8.5 -97.5q-29 -189 -104 -307q47 -107 47 -211q0 -76 -25 -167t-50.5 -175t-25.5 -143q0 -156 27 -170q10 -5 40 -14t50.5 -18.5t20.5 -22.5q0 -27 -25 -85.5 t-47 -58.5q-74 0 -151.5 25.5t-98.5 77.5q-17 42 -28 103t-11 108q0 89 25 187t50 192t25 174q0 39 -18 75q-6 12 -46 50.5t-40 58.5q0 9 20 30t45.5 44t30.5 30q36 46 64 215q5 31 15 143t24.5 197.5t38.5 126.5q19 34 155.5 68.5t194.5 34.5z" />
<glyph unicode="|" horiz-adv-x="538" d="M500 1591q26 0 26 -125q0 -96 -28 -260q-13 -74 -39 -192.5t-43 -199t-17 -99.5q0 -46 -32 -275q-32 -217 -35 -243q-4 -35 -18.5 -107t-37 -176t-34.5 -164q-7 -33 -59 -45t-105 -12q-32 0 -47 11.5t-15 45.5q14 91 53.5 276t43.5 212q3 22 8 66t12 91t17 103 q26 157 26 256q0 17 19.5 96.5t45.5 194.5t38 200q2 18 7.5 88t11 129.5t9.5 69.5q9 29 72 44t121 15z" />
<glyph unicode="}" horiz-adv-x="684" d="M369 1599q30 0 71.5 -9t86.5 -36t55 -65q12 -44 12 -128.5t-10 -143.5q-6 -35 -17.5 -98t-15.5 -87q-14 -77 -14 -100q0 -33 12.5 -58t28 -36t28 -25.5t12.5 -28.5q0 -12 -12.5 -24t-32.5 -26.5t-40.5 -35t-39.5 -58t-28 -85.5q-8 -50 -12 -152.5t-11 -148.5 q-10 -67 -27 -135.5t-45 -150t-71 -143.5t-94 -85q-2 -1 -54.5 -26t-88 -38.5t-52.5 -13.5q-20 0 -37.5 62t-17.5 92q0 21 31.5 41t73 38.5t53.5 28.5q23 21 62.5 152t47.5 186q7 50 11 134.5t8 140.5t28 125.5t70 123.5q-27 29 -27 142q0 69 34 212.5t34 198.5 q0 28 -11.5 44t-27.5 18t-45.5 2t-36.5 2q-29 6 -29 86q0 64 9 92q6 16 129 16z" />
<glyph unicode="~" horiz-adv-x="1040" d="M403 973q52 0 97.5 -20.5t77 -49.5t59 -57.5t56.5 -49t57 -20.5q17 0 33 24t27 53t27 53t33 24q40 0 97 -19.5t57 -50.5q0 -38 -10 -77t-32.5 -79t-56 -70.5t-85.5 -49.5t-115 -19q-55 0 -105.5 20.5t-85.5 49.5t-64 57.5t-53.5 49t-41.5 20.5q-26 0 -45 -21.5t-28.5 -47 t-23 -47t-28.5 -21.5q-33 0 -100.5 18t-67.5 41q0 26 22 92q37 100 114.5 148.5t184.5 48.5z" />
<glyph unicode="&#xa1;" horiz-adv-x="497" d="M328 909q-29 0 -48.5 2.5t-41.5 10.5t-33.5 26t-11.5 47q0 69 40.5 104.5t110.5 35.5q52 0 80.5 -18.5t28.5 -67.5q0 -62 -32 -101t-93 -39zM158 -328q-37 0 -101.5 24.5t-64.5 43.5q0 26 18 84t21 76t4 51t4 51q9 58 40 174t40 186q23 178 31 308q1 9 1.5 35t2.5 38 q4 21 59.5 35.5t89.5 14.5q44 0 60 -12.5t16 -41.5q0 -183 -37 -415q-9 -54 -40.5 -160.5t-39.5 -163.5q-1 -8 -1.5 -65t-6.5 -95q-7 -44 -37 -112q-24 -56 -59 -56z" />
<glyph unicode="&#xa2;" horiz-adv-x="839" d="M362 735q-4 -14 -34.5 -94t-36.5 -117q-7 -46 -8 -94t1.5 -97t2.5 -59q0 -55 25.5 -75.5t80.5 -20.5q33 0 59.5 10t41.5 21t27.5 33.5t16.5 33.5t10.5 35t6.5 25q11 37 143 37q56 0 56 -66q0 -129 -86.5 -220t-211.5 -112q-5 -96 -20 -180q-5 -25 -16.5 -35t-40.5 -10 q-11 0 -29 1.5t-49.5 5.5t-52.5 15t-21 27q0 67 18 195q-87 33 -135.5 106.5t-48.5 180.5q0 18 -1 63t-1 73.5t3 71.5t10 80q18 105 102 295q92 214 259 259l11 38q3 14 23 135q4 26 64.5 45t99.5 19q15 0 35 -10t20 -21q0 -64 -33 -215q82 -32 136.5 -99.5t54.5 -150.5 q0 -35 -64 -55.5t-110 -20.5q-12 0 -19.5 22t-14 48t-32 47.5t-69.5 20.5q-60 -1 -101 -49.5t-72 -141.5z" />
<glyph unicode="&#xa3;" horiz-adv-x="925" d="M868 1386q37 -28 69.5 -95t33.5 -122q0 -50 -31 -67q-20 -11 -80.5 -12.5t-91.5 12.5q-2 1 -4 25t-10 53t-25 41q-44 28 -96 28q-96 0 -134 -39.5t-38 -132.5q0 -65 15 -145q60 -8 128 -26t90 -34q19 -14 19 -47q0 -25 -12.5 -83t-24.5 -58q-19 0 -41.5 4.5t-60.5 14 t-55 13.5q9 -57 9 -116q0 -63 -6 -94q-9 -50 -65.5 -149t-59.5 -115q22 -4 78 -38t68 -34q13 0 56 31.5t60 31.5q25 0 74 -49t49 -75q0 -27 -46.5 -63.5t-111.5 -62.5t-112 -26q-39 0 -127.5 45.5t-112.5 48.5q-27 -4 -77.5 -36.5t-73.5 -32.5q-34 0 -72.5 40t-38.5 68 q0 18 84 109.5t88 103.5q4 11 62.5 117t58.5 135q0 75 -15 162q-50 -8 -73 -8q-98 0 -98 39q0 41 13 106.5t38 65.5q40 0 81 3q-9 60 -9 124q0 118 32 200.5t92.5 128t135.5 65t174 19.5q37 0 94 -20.5t100 -53.5z" />
<glyph unicode="&#xa5;" horiz-adv-x="1148" d="M1051 1206q-15 -36 -73.5 -146t-80.5 -145l-68 -98q125 -18 125 -47q0 -37 -26 -106.5t-53 -69.5q-12 0 -82.5 10t-94.5 12q-9 -125 -9 -128q126 14 190 14q28 0 28 -47q0 -37 -17 -103.5t-42 -66.5q-85 0 -179 -9l-1 -10q-5 -38 -22.5 -96t-32.5 -101.5t-15 -50.5 q0 -19 -39 -27.5t-84 -8.5q-30 0 -67 20.5t-37 38.5q0 12 31.5 99t37.5 125q-72 5 -145.5 19.5t-73.5 37.5q0 37 26.5 106.5t53.5 69.5q9 0 37 -4t65.5 -9.5t58.5 -7.5q4 42 8 125q-114 -12 -173 -12q-29 0 -29 47q0 37 17.5 103.5t42.5 66.5l59 1q-33 63 -33 64 q-27 54 -80 247t-53 243q0 23 59 57.5t85 34.5q65 0 65 -39q0 -27 42 -187.5t58 -199.5q8 -16 28.5 -71.5t39.5 -82.5q24 28 64.5 88.5t60.5 86.5q23 29 62 115.5t57 135.5q34 104 59 138q4 6 10.5 10t16.5 6.5t19.5 3.5t22.5 1.5t21 0.5h21.5h17.5q26 0 56 -15.5t30 -29.5 q0 -22 -24.5 -97.5t-40.5 -111.5z" />
<glyph unicode="&#xa6;" horiz-adv-x="552" d="M393 1604q30 0 83.5 -22.5t53.5 -47.5q0 -13 -4.5 -39.5t-5.5 -32.5q-10 -69 -18.5 -210t-18.5 -210q-8 -61 -35.5 -162.5t-54.5 -111.5q-19 -8 -51 -8q-139 0 -139 37q0 23 26 125.5t29 121.5q6 33 6 103q-1 88 13 219t28 193q4 17 11 27t22 13.5t23.5 4t31.5 0.5z M250 616q49 0 102.5 -18.5t53.5 -48.5q0 -52 -44 -198.5t-51 -190.5q-6 -35 -28.5 -186.5t-38.5 -231.5q-8 -43 -97 -43q-24 0 -37 1t-38.5 5.5t-38.5 18t-13 34.5q0 23 11.5 92.5t29.5 165.5t25 142q9 61 44 180.5t44 175.5q9 62 28 82t48 20z" />
<glyph unicode="&#xa7;" horiz-adv-x="1001" d="M492 1133q0 -27 23.5 -52t61.5 -47.5t83.5 -48.5t91 -60.5t83.5 -76t61.5 -103.5t23.5 -135q0 -136 -41.5 -212.5t-131.5 -147.5q27 -54 27 -121q0 -59 -17 -118.5t-52.5 -115t-84.5 -98.5t-118 -68.5t-148 -25.5q-36 0 -96 20.5t-112 57.5t-52 74q0 30 46.5 77.5 t76.5 47.5q23 0 83 -32t77 -32q62 0 116 61t54 127q0 41 -17.5 67.5t-49 40t-64 21.5t-74.5 18.5t-70 24.5q-80 41 -132 105.5t-52 146.5q0 160 58 251t181 144q-61 63 -61 167q0 393 398 393q41 0 105.5 -19.5t120.5 -58t56 -80.5q0 -32 -59 -75.5t-92 -43.5 q-11 0 -26.5 10t-31.5 22t-47 22t-69 10q-129 0 -129 -137zM502 416q49 -12 93 -32q36 37 52 55.5t31.5 56t15.5 82.5q0 50 -13.5 88t-40.5 65t-54 44.5t-68 36.5q-12 -6 -36 -16.5t-34 -15.5t-29.5 -15t-28 -16.5t-22.5 -18t-20.5 -21.5t-15 -25.5t-12 -32t-6.5 -38 t-3 -46.5q0 -33 26 -62.5t66 -48.5t61 -27t38 -13z" />
<glyph unicode="&#xa8;" horiz-adv-x="673" d="M324 1485q41 -1 63.5 -25t22.5 -65q0 -57 -33 -101.5t-88 -44.5q-109 0 -109 99q0 137 144 137zM643 1477q27 0 43 -2t33.5 -9t26 -23t8.5 -42q0 -59 -26 -104.5t-79 -45.5q-24 0 -36.5 0.5t-32 4.5t-29 11.5t-17.5 22.5t-8 37q0 60 30 105t87 45z" />
<glyph unicode="&#xa9;" horiz-adv-x="1476" d="M924 1473q135 0 253 -80.5t184 -200t66 -240.5q0 -146 -24 -305t-74 -276q-84 -201 -237 -299.5t-410 -98.5q-304 0 -437.5 130.5t-133.5 424.5q0 387 127 605q79 133 148 193.5t181 103.5q114 43 357 43zM881 1266q-95 0 -150.5 -5.5t-93.5 -23.5q-146 -70 -217 -223 q-48 -104 -69 -236t-21 -250q0 -87 15.5 -148t43.5 -99.5t75.5 -60.5t102 -30t133.5 -8q178 0 276.5 68.5t153.5 212.5q34 86 55 216t21 236q0 83 -44 164t-120 134t-161 53zM821 1161q65 0 124 -24.5t98.5 -75.5t39.5 -117q0 -33 -56.5 -54.5t-113.5 -21.5q-6 0 -14 14 t-17 30t-31 30t-52 14q-40 0 -72.5 -39.5t-50 -95t-26.5 -106t-9 -82.5q0 -38 10 -71.5t37.5 -60t67.5 -26.5q25 0 44 25.5t32 51.5t24 26q17 0 40.5 -2.5t53 -8t49 -18t19.5 -29.5q0 -21 -11 -51t-35.5 -64.5t-58 -64t-83.5 -49t-107 -19.5q-113 0 -204 89.5t-91 224.5 q0 70 12 143.5t41.5 152t72.5 139.5t112.5 100.5t154.5 39.5z" />
<glyph unicode="&#xaa;" horiz-adv-x="821" d="M653 1516q23 0 88.5 -15t65.5 -28q0 -24 -16.5 -79t-16.5 -69q0 -133 -10 -201q-3 -20 -23 -101.5t-20 -98.5q0 -10 36 -49t36 -44q0 -29 -42.5 -73.5t-70.5 -44.5q-42 0 -119 61q-95 -43 -178 -43q-111 0 -161 69t-50 185q0 68 10 134t35 132t62.5 115t97 80t133.5 31 q37 0 104 -23q4 4 11.5 20t15 29t12.5 13zM487 1288q-32 0 -57 -34.5t-37 -85t-18 -94.5t-6 -75q0 -79 49 -79q28 0 68.5 12.5t52.5 30.5q41 153 41 294q-18 16 -36.5 23.5t-56.5 7.5z" />
<glyph unicode="&#xab;" horiz-adv-x="1028" d="M379 166q-9 0 -17 2t-13.5 3.5t-13 7.5t-10.5 8.5t-10.5 11.5t-9 11t-9.5 13.5t-9 12.5q-8 12 -46 60.5t-55 78.5q-7 14 -39.5 60t-56.5 87t-24 60q0 13 8 31.5t23 40t27.5 37t31 37.5t22.5 28q214 250 293 250q23 0 92.5 -29.5t69.5 -46.5q0 -19 -30.5 -54t-82.5 -82 l-51 -46q-36 -36 -54 -55t-45 -53t-42 -65q13 -40 63.5 -108.5t93.5 -128t43 -88.5q0 -24 -60.5 -54t-88.5 -30zM741 172q-20 0 -55 51.5t-47 81.5q-14 33 -108.5 139t-94.5 131q0 24 60 86t140.5 133t92.5 83q3 3 25 28.5t36.5 41t35 31t32.5 15.5q34 0 96 -31.5t62 -60.5 q0 -23 -40 -74.5t-67 -74.5q-20 -18 -65 -53t-79.5 -66t-55.5 -60q14 -24 58 -70t64 -81q4 -8 28.5 -49t42.5 -75t18 -46q0 -31 -69.5 -55.5t-109.5 -24.5z" />
<glyph unicode="&#xac;" horiz-adv-x="1312" d="M942 883q30 0 64 -1.5t94.5 -6t98.5 -17.5t38 -33q0 -93 -48.5 -312.5t-80.5 -219.5q-195 0 -195 51q0 15 33 130.5t33 162.5q0 25 -31 25q-44 0 -132 -9.5t-132 -9.5q-64 0 -190 6t-189 6q-31 0 -92 -8t-92 -8q-39 0 -39 35q0 38 19.5 103.5t54.5 74.5q79 22 170 22 q66 0 196 -5t195 -5q38 0 112.5 9.5t112.5 9.5z" />
<glyph unicode="&#xad;" horiz-adv-x="849" d="M543 752q49 0 143 -16t94 -42q0 -37 -26.5 -106.5t-53.5 -69.5q-12 0 -92 11.5t-100 11.5q-81 0 -202.5 -13.5t-182.5 -13.5q-29 0 -29 47q0 37 17.5 103.5t42.5 66.5q81 0 194.5 10.5t194.5 10.5z" />
<glyph unicode="&#xae;" horiz-adv-x="1472" d="M920 1489q82 0 160 -32.5t139 -87.5t107.5 -124t71.5 -145.5t25 -147.5q0 -146 -24 -305t-74 -276q-84 -201 -237 -299.5t-410 -98.5q-304 0 -438 130.5t-134 424.5q0 155 32.5 325.5t94.5 299.5q59 123 120.5 192.5t162.5 108.5q23 8 49.5 14.5t59.5 10.5t58 6t65.5 3 t59 1h61h51.5zM877 1282q-186 0 -244 -12q-25 -5 -41 -13q-13 -6 -25.5 -14.5t-22.5 -16.5t-21 -21t-17.5 -21t-17 -25.5l-15 -25t-15 -28.5t-14 -28.5t-14.5 -31.5t-14 -31q-80 -175 -90 -486q-3 -87 11.5 -149t42.5 -100t77 -60t104.5 -29.5t134.5 -7.5q178 0 276.5 68.5 t153.5 212.5q34 86 55 216t21 236q0 62 -26.5 127.5t-69.5 118.5t-104 87t-125 34zM805 1186q106 0 189 -72t83 -176q0 -96 -58.5 -166t-152.5 -104q7 -18 39.5 -87t54 -124.5t21.5 -83.5q0 -25 -58.5 -55.5t-88.5 -30.5q-22 0 -51 55t-57.5 122.5t-43.5 82.5 q-9 -22 -21 -93t-24.5 -124.5t-26.5 -53.5q-28 0 -62.5 3t-74 17t-39.5 36q0 19 23 115.5t26 117.5q2 16 10.5 88t18 145.5t21.5 152.5t24.5 134.5t22.5 65.5q35 35 225 35zM748 1001q-21 -65 -21 -188q37 0 67 6.5t55 29.5t25 60q0 55 -25 73.5t-101 18.5z" />
<glyph unicode="&#xaf;" horiz-adv-x="663" d="M492 1473q46 0 147.5 -33.5t101.5 -65.5q0 -20 -29 -72.5t-46 -52.5q-36 0 -107.5 18.5t-107.5 18.5q-37 0 -111 -16.5t-111 -16.5q-18 0 -32.5 50.5t-14.5 74.5q0 40 115 67.5t195 27.5z" />
<glyph unicode="&#xb0;" horiz-adv-x="845" d="M553 1552q64 0 117 -11.5t98.5 -37t71.5 -72.5t26 -112q0 -104 -30.5 -181t-85.5 -121t-123.5 -64.5t-151.5 -20.5q-56 0 -103 10t-89 32t-66 64.5t-24 102.5q0 116 38.5 207.5t121.5 147.5t200 56zM539 1372q-70 0 -110 -61t-40 -135q0 -60 123 -60q61 0 106.5 45 t45.5 113q0 58 -30.5 78t-94.5 20z" />
<glyph unicode="&#xb1;" horiz-adv-x="1042" d="M963 821q30 -16 30 -51q0 -13 -2.5 -32.5t-9 -46t-21.5 -44.5t-35 -18q-52 0 -103.5 7t-111.5 19.5t-91 16.5q-1 -13 -4.5 -69.5t-5.5 -80.5t-9.5 -68t-19.5 -81q-4 -12 -8.5 -19.5t-7 -11.5t-10 -6t-10.5 -2.5t-15 0t-17 0.5q-19 0 -40.5 1t-49.5 4.5t-46 10.5t-18 17 q0 21 12 80.5t13 68.5q5 38 12 152q-95 -11 -124 -11q-108 0 -138 11q-24 9 -24 26q0 24 4.5 61.5t20 77t37.5 39.5q23 0 67 -1t67 -1q27 0 124 9q62 229 104 301q18 31 26 37t39 6q18 0 80.5 -21.5t62.5 -36.5t-18 -90q-8 -33 -18 -65t-25 -73.5t-20 -55.5 q90 -10 181.5 -27.5t121.5 -32.5zM846 289q21 0 34 -14t13 -29q0 -65 -10 -109q-4 -18 -20.5 -32t-45 -21.5t-55 -12.5t-66 -7t-60.5 -2.5t-56 -0.5q-116 0 -338 31q-75 10 -129 36t-54 50q0 35 16 101.5t40 66.5q29 0 84 -20t75 -23q211 -31 334 -31q47 0 109 8.5t129 8.5z " />
<glyph unicode="&#xb2;" horiz-adv-x="710" d="M506 1485q237 0 237 -217q0 -67 -22 -123t-56 -92.5t-78 -74.5t-85.5 -68t-81.5 -73t-62 -89q96 0 202 -24t106 -65q0 -16 -21.5 -71.5t-32.5 -55.5q-46 0 -140 18.5t-144 18.5q-24 0 -72 -13t-72 -13q-21 0 -44 38.5t-23 61.5q0 43 50.5 148.5t113.5 175.5 q17 18 64.5 52.5t89 64t75 71.5t33.5 80q0 68 -82 68q-26 0 -50.5 -13t-39 -29t-30 -29t-26.5 -13q-25 0 -63.5 36.5t-38.5 61.5q0 8 10.5 26.5t34.5 43t56.5 46t83.5 37t108 15.5z" />
<glyph unicode="&#xb3;" horiz-adv-x="700" d="M461 1475q264 0 264 -211q0 -69 -23 -113.5t-79 -87.5q55 -80 55 -150q0 -368 -354 -368q-82 0 -143.5 47.5t-61.5 128.5q0 19 50 51.5t93 32.5q16 0 23 -11.5t8 -24.5t13 -24.5t38 -11.5q68 0 100.5 35.5t32.5 110.5q0 43 -23 65.5t-50.5 24.5t-50.5 3.5t-23 8.5 q0 15 14 113q2 11 30.5 20t60.5 16.5t58.5 32.5t26.5 66q0 20 -6 32.5t-19 18t-25.5 7t-33.5 1.5q-44 0 -102 -30.5t-76 -30.5q-15 0 -31 60.5t-16 82.5q0 31 86 68t164 37z" />
<glyph unicode="&#xb4;" horiz-adv-x="446" d="M442 1630q33 0 69 -40t36 -74q0 -32 -114.5 -162.5t-139.5 -130.5q-30 0 -74.5 35t-44.5 65q0 26 55.5 101t121.5 140.5t91 65.5z" />
<glyph unicode="&#xb6;" horiz-adv-x="1310" d="M1176 1458q135 0 135 -45q0 -23 -18.5 -108t-20.5 -99q-7 -48 -11.5 -146.5t-11.5 -146.5q-16 -100 -64 -323t-65 -336q-4 -24 -18.5 -146.5t-28 -231.5t-16.5 -114q-12 -28 -86 -28h-6q-127 -1 -127 47v6q29 319 61 516q16 100 62 307t61 305q6 44 10 132.5t10 132.5 q5 25 5 28q0 19 -5.5 27.5t-13 10t-27.5 1.5q-39 0 -80 -3l-6 -28q-20 -118 -47 -347t-45 -337q-10 -63 -49 -194.5t-49 -194.5q-6 -35 -9 -127t-18 -156t-55 -106q-35 -35 -168 -35q-49 0 -49 27q0 30 25.5 89t29.5 83q7 40 10 118.5t9 115.5q10 63 49 197.5t49 197.5l7 45 q-58 0 -101.5 2t-88 7t-76 14t-61.5 22t-49.5 32.5t-34 45t-21.5 59.5t-7 76q0 270 104 457q13 24 36.5 43.5t48.5 32.5t63.5 22.5t67.5 15t76.5 9t74.5 5t77 3t70 2.5q42 2 123 7t146.5 8t122.5 3z" />
<glyph unicode="&#xb7;" horiz-adv-x="419" d="M254 754q49 -1 74.5 -28t25.5 -75q0 -83 -36 -121t-109 -38q-29 0 -47 2t-37.5 10t-29 25.5t-9.5 45.5q0 80 44 129.5t124 49.5z" />
<glyph unicode="&#xb8;" horiz-adv-x="593" d="M324 20q10 0 15 -14t5 -26q0 -22 -24.5 -60t-24.5 -41q0 -2 11.5 -8.5t28.5 -18.5t33.5 -27.5t28 -40.5t11.5 -54q0 -120 -71.5 -176t-232.5 -56q-20 0 -52.5 7.5t-66.5 20t-58.5 33.5t-24.5 44q0 21 58 64.5t81 43.5q7 0 50 -17.5t77 -17.5q14 0 23.5 14t9.5 29 q0 19 -37 37.5t-74 32.5t-37 21q0 48 50 126t94 78q22 0 63.5 3t63.5 3z" />
<glyph unicode="&#xb9;" horiz-adv-x="704" d="M553 1487q27 0 57.5 -48.5t30.5 -78.5q-2 -15 -19.5 -83t-43.5 -164.5t-39 -149.5q-29 -126 -29 -234q13 -7 50 -15.5t54 -23.5q0 -81 -10 -129q-11 -8 -45 -8q-24 0 -70 6t-53 6q-1 0 -33 -0.5t-59 -0.5t-62.5 1.5t-63 6t-40.5 12.5q1 10 3.5 34.5t4 34t5 24.5t8.5 25 q8 11 27 16.5t31.5 6.5t49.5 2q9 48 21 139.5t18 126.5q3 22 28 102t25 101q0 6 -8 6q-4 0 -60.5 -24.5t-70.5 -24.5q-11 0 -36 54.5t-25 74.5q0 16 47 48.5t80 49.5q10 5 48.5 28t65 37.5t60 28t53.5 13.5z" />
<glyph unicode="&#xba;" horiz-adv-x="790" d="M498 1487q154 0 226.5 -73.5t72.5 -199.5q0 -79 -25.5 -173t-82.5 -179t-132 -106q-77 -21 -168 -21q-88 0 -133 23q-44 22 -65 96.5t-21 140.5q0 48 10 108t35 128.5t61 124.5t94 93.5t128 37.5zM496 1303q-31 0 -57.5 -40t-41 -96.5t-22.5 -107t-8 -80.5 q0 -39 15.5 -49t57.5 -10q46 0 68 10q42 21 69 114t27 158q0 54 -26.5 77.5t-81.5 23.5z" />
<glyph unicode="&#xbb;" horiz-adv-x="1040" d="M668 983q9 0 17 -2t13.5 -3.5t13 -7.5t10.5 -8.5t10.5 -11.5t9 -11t9.5 -13.5t9 -12.5q7 -10 45 -59.5t55 -79.5q7 -14 39.5 -60t57 -87t24.5 -60q0 -13 -8 -31.5t-23.5 -39.5t-28 -37.5t-30.5 -38t-23 -27.5q-214 -250 -293 -250q-23 0 -92 29.5t-69 46.5q0 19 30.5 54 t81.5 81l52 47q39 39 55 55.5t43.5 51t42.5 65.5q-13 40 -64 108.5t-94 128.5t-43 89q0 24 61 54t89 30zM293 977q20 0 55 -51.5t47 -81.5q14 -33 108.5 -139.5t94.5 -131.5q0 -24 -60 -85.5t-140.5 -132.5t-92.5 -83q-3 -3 -25 -28.5t-36.5 -41t-35 -31t-32.5 -15.5 q-34 0 -96 31.5t-62 60.5q0 23 40 74.5t67 74.5q3 3 88 71t113 107q-14 24 -58.5 70.5t-64.5 81.5q-4 8 -28.5 49t-42 75t-17.5 46q0 31 69 55.5t109 24.5z" />
<glyph unicode="&#xbc;" horiz-adv-x="1832" d="M559 553q-24 0 -70 6t-53 6q-1 0 -33 -0.5t-59 -0.5t-62.5 1.5t-63 6t-40.5 12.5q1 10 3.5 34.5t4 34t5 24.5t8.5 25q8 11 27 16.5t31.5 6.5t49.5 2q9 48 21 139.5t18 126.5q3 22 28 102t25 101q0 6 -8 6q-4 0 -60.5 -24.5t-70.5 -24.5q-11 0 -36 54.5t-25 74.5 q0 16 47 48.5t80 49.5q10 5 48.5 28t65 37.5t60 28t53.5 13.5q27 0 57.5 -48.5t30.5 -78.5q-2 -15 -19.5 -83t-43.5 -164.5t-39 -149.5q-29 -126 -29 -234q13 -7 50 -15.5t54 -23.5q0 -81 -10 -129q-11 -8 -45 -8zM1362 1438q0 -29 -52.5 -176.5t-72.5 -180.5 q-125 -214 -371 -653q-8 -14 -32.5 -52.5t-40 -68.5t-21.5 -57q-9 -40 -59 -141t-76 -132q-19 -22 -34.5 -30t-41.5 -8t-75.5 33.5t-49.5 56.5q0 7 51 122t58 144q6 26 28 68.5t60.5 108t40.5 69.5q47 88 173.5 300t188.5 337q17 34 41 100t31 82q2 5 8.5 24.5t13 34 t11.5 21.5q23 35 164 35q57 0 57 -37zM1653 403q33 0 33 -139q0 -25 -70 -45q-28 -9 -62 -14q-44 -163 -45 -178q-2 -37 -118 -37q-70 0 -70 24q0 18 10 70l26 113q-66 0 -181 6t-123 18t-8 68q0 46 4 71q4 24 49 141t55 171q14 80 61 205q10 26 105 26q25 0 54.5 -10.5 t29.5 -30.5q0 -25 -19.5 -88t-23.5 -86q-8 -51 -47 -158t-45 -143q39 -6 120 -6l5 43q3 22 17 93t17 101q2 16 16 22.5t54 6.5q36 0 75.5 -14.5t39.5 -38.5q0 -18 -23 -160l-4 -38q54 7 68 7z" />
<glyph unicode="&#xbd;" horiz-adv-x="1773" d="M553 1487q27 0 57.5 -48.5t30.5 -78.5q-2 -15 -19.5 -83t-43.5 -164.5t-39 -149.5q-29 -126 -29 -234q13 -7 50 -15.5t54 -23.5q0 -81 -10 -129q-11 -8 -45 -8q-24 0 -70 6t-53 6q-1 0 -33 -0.5t-59 -0.5t-62.5 1.5t-63 6t-40.5 12.5q1 10 3.5 34.5t4 34t5 24.5t8.5 25 q8 11 27 16.5t31.5 6.5t49.5 2q9 48 21 139.5t18 126.5q3 22 28 102t25 101q0 6 -8 6q-4 0 -60.5 -24.5t-70.5 -24.5q-11 0 -36 54.5t-25 74.5q0 16 47 48.5t80 49.5q10 5 48.5 28t65 37.5t60 28t53.5 13.5zM1305 1475q57 0 57 -37q0 -29 -52.5 -176.5t-72.5 -180.5 q-125 -214 -371 -653q-8 -14 -32.5 -52.5t-40 -68.5t-21.5 -57q-9 -40 -59 -141t-76 -132q-19 -22 -34.5 -30t-41.5 -8t-75.5 33.5t-49.5 56.5q0 7 51 122t58 144q6 26 28 68.5t60.5 108t40.5 69.5q47 88 173.5 300t188.5 337q17 34 41 100t31 82q2 5 8.5 24.5t13 34 t11.5 21.5q23 35 164 35zM1440 922q237 0 237 -217q0 -79 -30 -142t-78 -106.5t-98.5 -81.5t-101.5 -87.5t-77 -103.5q57 0 124.5 -8.5t125 -30t57.5 -49.5q0 -16 -21 -71.5t-32 -55.5q-46 0 -140 18.5t-144 18.5q-24 0 -72 -13t-72 -13q-21 0 -44 38.5t-23 61.5 q0 43 50 148t113 175q17 18 64.5 52.5t89 64.5t75.5 72t34 80q0 67 -82 67q-26 0 -50.5 -13t-39 -29t-30 -29t-26.5 -13q-25 0 -63.5 37t-38.5 62q0 8 10.5 26.5t34.5 43t56.5 46t83.5 37t108 15.5z" />
<glyph unicode="&#xbe;" horiz-adv-x="1820" d="M678 913q0 -368 -354 -368q-82 0 -143.5 47.5t-61.5 128.5q0 19 50 51.5t93 32.5q16 0 23 -11.5t8 -24.5t13 -24.5t38 -11.5q68 0 100.5 35.5t32.5 110.5q0 43 -23 65.5t-50.5 24.5t-50.5 3.5t-23 8.5q0 15 14 113q2 11 30.5 20t60.5 16.5t58.5 32.5t26.5 66 q0 20 -6 32.5t-19 18t-25.5 7t-33.5 1.5q-44 0 -102 -30.5t-76 -30.5q-15 0 -31 60.5t-16 82.5q0 31 86 68t164 37q264 0 264 -211q0 -69 -23 -113.5t-79 -87.5q55 -80 55 -150zM1358 1438q0 -29 -52.5 -176.5t-72.5 -180.5q-125 -214 -371 -653q-8 -14 -32.5 -52.5 t-40 -68.5t-21.5 -57q-9 -40 -59 -141t-76 -132q-19 -22 -34.5 -30t-41.5 -8t-75.5 33.5t-49.5 56.5q0 7 51 122t58 144q6 26 28 68.5t60.5 108t40.5 69.5q47 88 173.5 300t188.5 337q17 34 41 100t31 82q2 5 8.5 24.5t13 34t11.5 21.5q23 35 163 35q58 0 58 -37zM1671 403 q33 0 33 -139q0 -25 -70 -45q-29 -10 -61 -14q-44 -163 -45 -178q-2 -37 -119 -37q-70 0 -70 24q0 13 11 70l25 113q-66 0 -181 6t-123 18t-8 68q0 46 4 71q4 24 49 141t55 171q13 75 62 205q10 26 104 26q25 0 54.5 -10.5t29.5 -30.5q0 -25 -19.5 -88t-23.5 -86 q-8 -51 -47 -158t-45 -143q39 -6 120 -6l5 43q3 23 17.5 93.5t17.5 100.5q2 16 16 22.5t54 6.5q36 0 75 -14.5t39 -38.5t-22 -160l-5 -38q54 7 68 7z" />
<glyph unicode="&#xbf;" horiz-adv-x="753" d="M471 899q-84 0 -84 107q0 75 39.5 104t120.5 29q44 0 65 -18.5t21 -61.5q0 -77 -43 -118.5t-119 -41.5zM283 -360q-152 0 -229 81t-77 232q0 83 11.5 146t36.5 111.5t49 80t65 74.5q9 10 48 49t54.5 57t41 60t43.5 90q22 61 32 114q6 33 187 33q25 0 33 -12.5t8 -36.5 q0 -32 -17 -99t-41 -112q-14 -27 -33 -56t-33.5 -50t-42 -54.5t-39 -47t-45 -51.5t-40.5 -46q-94 -105 -94 -217q0 -59 26.5 -97.5t83.5 -38.5q69 0 135.5 23t85.5 23q23 0 44.5 -63.5t21.5 -92.5q0 -19 -4.5 -25.5t-24.5 -17.5q-45 -25 -136.5 -41t-149.5 -16z" />
<glyph unicode="&#xc0;" horiz-adv-x="993" d="M530 1569q-23 0 -59.5 59.5t-42.5 89.5q-4 22 -35 75t-31 79q0 29 63.5 61.5t82.5 32.5q27 0 67.5 -56.5t47.5 -88.5q3 -16 30 -79t27 -79q0 -29 -56.5 -61.5t-93.5 -32.5zM856 487q0 -62 13.5 -240t13.5 -206q0 -22 -49 -39.5t-84 -17.5q-30 0 -66 16q-26 10 -45 311 q-51 3 -105 8.5t-127.5 15.5t-110.5 14l-77 -210q-7 -20 -14.5 -45.5t-13 -42.5t-11.5 -28q-17 -25 -112 -25q-119 0 -119 41q0 11 7.5 36.5t20.5 62.5t17 50q23 72 91 241.5t91 242.5q8 27 31.5 119t40.5 153q9 32 23.5 69.5t25.5 62.5t30.5 69t28.5 65q85 188 121 220 q26 22 180 22q52 0 75 -8.5t28 -28.5q1 -7 28 -53t31 -82q22 -228 29 -377q8 -172 8 -416zM393 594l-15 -34q45 -5 139.5 -18t115.5 -16v367q0 88 -9.5 187t-21.5 134q-26 -28 -72.5 -147.5t-68.5 -192.5q-8 -26 -32.5 -141t-35.5 -139z" />
<glyph unicode="&#xc1;" horiz-adv-x="993" d="M629 1571q-30 0 -74.5 35t-44.5 65q0 26 55.5 101t121.5 140.5t91 65.5q33 0 69 -40t36 -74q0 -32 -114.5 -162.5t-139.5 -130.5zM848 903q8 -172 8 -416q0 -62 13.5 -240t13.5 -206q0 -22 -49 -39.5t-84 -17.5q-30 0 -66 16q-26 10 -45 311q-51 3 -105 8.5t-127.5 15.5 t-110.5 14l-77 -210q-7 -20 -14.5 -45.5t-13 -42.5t-11.5 -28q-17 -25 -112 -25q-119 0 -119 41q0 11 7.5 36.5t20.5 62.5t17 50q23 72 91 241.5t91 242.5q8 27 31.5 119t40.5 153q9 32 23.5 69.5t25.5 62.5t30.5 69t28.5 65q85 188 121 220q26 22 180 22q52 0 75 -8.5 t28 -28.5q1 -7 28 -53t31 -82q22 -228 29 -377zM393 594l-15 -34q45 -5 139.5 -18t115.5 -16v367q0 88 -9.5 187t-21.5 134q-26 -28 -72.5 -147.5t-68.5 -192.5q-8 -26 -32.5 -141t-35.5 -139z" />
<glyph unicode="&#xc2;" horiz-adv-x="993" d="M461 1573q-33 0 -92.5 27t-59.5 55q0 17 46 67.5t105.5 107t69.5 68.5q1 1 7.5 8.5t8.5 9.5t8.5 8t10 8.5t10 6t12.5 4.5t13 1q28 0 76.5 -11t56.5 -26q4 -7 10.5 -21.5t10.5 -21.5q1 -2 12 -21.5t16 -29t16 -29.5t16.5 -33.5t12.5 -30t10 -29t3 -22.5q0 -23 -50 -53.5 t-75 -30.5q-16 0 -35.5 28t-39 68t-24.5 48q-13 -8 -49 -47.5t-67.5 -74t-38.5 -34.5zM856 487q0 -62 13.5 -240t13.5 -206q0 -22 -49 -39.5t-84 -17.5q-30 0 -66 16q-26 10 -45 311q-51 3 -105 8.5t-127.5 15.5t-110.5 14l-77 -210q-7 -20 -14.5 -45.5t-13 -42.5t-11.5 -28 q-17 -25 -112 -25q-119 0 -119 41q0 11 7.5 36.5t20.5 62.5t17 50q23 72 91 241.5t91 242.5q8 27 31.5 119t40.5 153q9 32 23.5 69.5t25.5 62.5t30.5 69t28.5 65q85 188 121 220q26 22 180 22q52 0 75 -8.5t28 -28.5q1 -7 28 -53t31 -82q22 -228 29 -377q8 -172 8 -416z M393 594l-15 -34q45 -5 139.5 -18t115.5 -16v367q0 88 -9.5 187t-21.5 134q-26 -28 -72.5 -147.5t-68.5 -192.5q-8 -26 -32.5 -141t-35.5 -139z" />
<glyph unicode="&#xc3;" horiz-adv-x="993" d="M424 1597q-28 0 -80.5 18t-52.5 40q0 24 27.5 73t48.5 70q34 35 63.5 49.5t73.5 14.5q25 0 96.5 -40t106.5 -40q11 0 45.5 47t48.5 47q20 0 69.5 -33t49.5 -51q0 -45 -78 -122t-140 -77q-38 0 -79.5 20t-75 40t-51.5 20q-8 0 -18.5 -19t-24 -38t-29.5 -19zM848 903 q8 -172 8 -416q0 -62 13.5 -240t13.5 -206q0 -22 -49 -39.5t-84 -17.5q-30 0 -66 16q-26 10 -45 311q-51 3 -105 8.5t-127.5 15.5t-110.5 14l-77 -210q-7 -20 -14.5 -45.5t-13 -42.5t-11.5 -28q-17 -25 -112 -25q-119 0 -119 41q0 11 7.5 36.5t20.5 62.5t17 50 q23 72 91 241.5t91 242.5q8 27 31.5 119t40.5 153q9 32 23.5 69.5t25.5 62.5t30.5 69t28.5 65q85 188 121 220q26 22 180 22q52 0 75 -8.5t28 -28.5q1 -7 28 -53t31 -82q22 -228 29 -377zM393 594l-15 -34q45 -5 139.5 -18t115.5 -16v367q0 88 -9.5 187t-21.5 134 q-26 -28 -72.5 -147.5t-68.5 -192.5q-8 -26 -32.5 -141t-35.5 -139z" />
<glyph unicode="&#xc4;" horiz-adv-x="993" d="M422 1618q-109 0 -109 98q0 137 144 137q41 -1 63.5 -25t22.5 -65q0 -57 -33 -101t-88 -44zM782 1620q-24 0 -36.5 0.5t-32 4.5t-29 11.5t-17.5 22.5t-8 37q0 60 30 104.5t87 44.5q27 0 43 -2t33.5 -9t26 -23t8.5 -42q0 -58 -26 -103.5t-79 -45.5zM848 903q8 -172 8 -416 q0 -62 13.5 -240t13.5 -206q0 -22 -49 -39.5t-84 -17.5q-30 0 -66 16q-26 10 -45 311q-51 3 -105 8.5t-127.5 15.5t-110.5 14l-77 -210q-7 -20 -14.5 -45.5t-13 -42.5t-11.5 -28q-17 -25 -112 -25q-119 0 -119 41q0 11 7.5 36.5t20.5 62.5t17 50q23 72 91 241.5t91 242.5 q8 27 31.5 119t40.5 153q9 32 23.5 69.5t25.5 62.5t30.5 69t28.5 65q85 188 121 220q26 22 180 22q52 0 75 -8.5t28 -28.5q1 -7 28 -53t31 -82q22 -228 29 -377zM393 594l-15 -34q45 -5 139.5 -18t115.5 -16v367q0 88 -9.5 187t-21.5 134q-26 -28 -72.5 -147.5t-68.5 -192.5 q-8 -26 -32.5 -141t-35.5 -139z" />
<glyph unicode="&#xc5;" horiz-adv-x="993" d="M578 1550q-72 0 -114 36t-42 106q0 93 55 166t144 73q167 0 167 -143q0 -105 -54 -171.5t-156 -66.5zM606 1788q-16 0 -27.5 -15.5t-11.5 -33.5q0 -13 6.5 -28t18.5 -15q25 0 38 16.5t13 42.5q0 33 -37 33zM856 487q0 -62 13.5 -240t13.5 -206q0 -22 -49 -39.5t-84 -17.5 q-30 0 -66 16q-26 10 -45 311q-51 3 -105 8.5t-127.5 15.5t-110.5 14l-77 -210q-7 -20 -14.5 -45.5t-13 -42.5t-11.5 -28q-17 -25 -112 -25q-119 0 -119 41q0 11 7.5 36.5t20.5 62.5t17 50q23 72 91 241.5t91 242.5q8 27 31.5 119t40.5 153q9 32 23.5 69.5t25.5 62.5 t30.5 69t28.5 65q85 188 121 220q26 22 180 22q52 0 75 -8.5t28 -28.5q1 -7 28 -53t31 -82q22 -228 29 -377q8 -172 8 -416zM393 594l-15 -34q45 -5 139.5 -18t115.5 -16v367q0 88 -9.5 187t-21.5 134q-26 -28 -72.5 -147.5t-68.5 -192.5q-8 -26 -32.5 -141t-35.5 -139z" />
<glyph unicode="&#xc6;" horiz-adv-x="1306" d="M926 1147q-21 -105 -21 -252q0 -37 -2 -56q66 -8 176 -8q27 0 82 1t82 1q15 0 30 -10t15 -24q0 -31 -17.5 -93.5t-37.5 -66.5q-78 -16 -207 -16q-86 0 -163 10q-8 -31 -22.5 -84t-26 -96.5t-19.5 -81.5q-5 -26 -10.5 -77.5t-10.5 -76.5q27 -6 78 -6q25 0 78 2t82 2 q55 0 117.5 -21t62.5 -40q0 -17 -23.5 -92.5t-31.5 -75.5q-7 0 -58.5 10t-74.5 10q-5 0 -36.5 -0.5t-62.5 -0.5t-74.5 0.5t-80.5 1.5t-71 3t-55.5 6t-25.5 9l-17.5 17.5t-25 29t-8.5 22.5q0 122 24 275q-30 4 -49 4q-33 0 -71 -3t-84 -8t-71 -7q-32 -126 -50 -175 q-25 -72 -66 -141.5t-63 -69.5q-25 0 -95.5 25t-70.5 45q0 23 17.5 65t41.5 92t54 145.5t49 207.5q14 74 66.5 213.5t58.5 157.5q89 279 194 489q17 32 193 37q80 4 182 4q5 0 102 -10t191 -10q37 0 109.5 15t109.5 15q23 0 39 -59t16 -92q0 -38 -105 -64t-177 -26 q-20 0 -75 2t-75 2q-4 -8 -6 -17t-4.5 -27t-5.5 -32zM344 569q37 0 100 7.5t101 7.5q35 0 72 -3q22 87 31.5 125.5t20.5 108.5t11 127q0 26 5 65t11 70.5t16.5 82.5t14.5 75q-75 0 -145 -17q-13 -26 -27 -59.5t-28.5 -76.5t-23.5 -71.5t-23.5 -77.5t-18.5 -61 q-15 -49 -58 -150.5t-59 -152.5z" />
<glyph unicode="&#xc7;" horiz-adv-x="929" d="M674 1473q116 0 203.5 -98t87.5 -226q0 -27 -2 -33q-7 -26 -70.5 -49t-97.5 -23q-17 0 -26.5 22.5t-16 54.5t-17 64t-37.5 54.5t-69 22.5q-61 0 -96 -20.5t-62 -76.5q-38 -81 -85.5 -259.5t-61.5 -254.5q-11 -58 -11 -209q0 -60 13 -129.5t41 -97.5q25 -25 116 -25 q23 0 41.5 5t31.5 11t24 19.5t17 24t13 31t10 33t9 38.5t10 41q4 17 48 25t77 8q80 0 80 -76q0 -96 -45 -192t-121 -138q-53 -30 -135 -38q-5 -13 -16 -30t-19 -28.5t-8 -15.5q0 -1 28 -18t56 -52t28 -80q0 -120 -71 -175.5t-232 -55.5q-29 0 -74 11.5t-86.5 37t-41.5 55.5 q0 21 58 65t81 44q7 0 50 -17.5t77 -17.5q14 0 23.5 14t9.5 29q0 19 -37 37.5t-74 32t-37 20.5q0 26 18.5 69t45.5 79q-44 8 -76 24q-48 24 -82 78t-49 119.5t-21 116.5t-6 94q0 206 14 270q14 63 37.5 159.5t68.5 244.5t77 200q35 57 81.5 94.5t100.5 55.5t101.5 24.5 t105.5 6.5z" />
<glyph unicode="&#xc8;" horiz-adv-x="792" d="M557 1569q-23 0 -59.5 59.5t-42.5 89.5q-4 22 -35 75t-31 79q0 29 63.5 61.5t82.5 32.5q26 0 66.5 -56.5t47.5 -88.5q3 -16 30.5 -79t27.5 -79q0 -29 -56.5 -61.5t-93.5 -32.5zM809 1444q4 -1 9.5 -2.5t9 -2t8 -2t7 -2.5t6 -2.5t5.5 -3t4.5 -3.5t3.5 -4.5t1.5 -5.5 t0.5 -7q0 -35 -21.5 -99.5t-45.5 -64.5h-93q-165 0 -253 -18q-31 -123 -37 -162q-5 -30 -4 -68.5t-5 -70.5l-7 -35q74 8 112 8q37 0 101.5 -4t101.5 -4q39 0 39 -168q0 -17 -21 -30t-45 -13q-38 0 -104.5 5t-104.5 5q-70 0 -126 -8q-24 -107 -32 -166q-24 -187 -24 -321 q0 -11 31 -11q46 0 131 22.5t131 22.5q23 0 45 -61.5t22 -95.5q0 -11 -20 -26.5t-45 -22.5q-67 -21 -174.5 -34.5t-145.5 -13.5q-107 0 -176 5q-28 2 -28 145q0 196 34 412q1 7 33.5 155.5t48.5 245.5q6 34 6 81.5t7 84.5q64 321 98 328q18 5 102 10q163 14 254 14 q107 0 160 -12z" />
<glyph unicode="&#xc9;" horiz-adv-x="792" d="M655 1571q-30 0 -74 34.5t-44 65.5q0 26 55.5 101t121.5 140.5t91 65.5q33 0 68.5 -40t35.5 -74q0 -32 -114.5 -162.5t-139.5 -130.5zM809 1444q4 -1 9.5 -2.5t9 -2t8 -2t7 -2.5t6 -2.5t5.5 -3t4.5 -3.5t3.5 -4.5t1.5 -5.5t0.5 -7q0 -35 -21.5 -99.5t-45.5 -64.5h-93 q-165 0 -253 -18q-31 -123 -37 -162q-5 -30 -4 -68.5t-5 -70.5l-7 -35q74 8 112 8q37 0 101.5 -4t101.5 -4q39 0 39 -168q0 -17 -21 -30t-45 -13q-38 0 -104.5 5t-104.5 5q-70 0 -126 -8q-24 -107 -32 -166q-24 -187 -24 -321q0 -11 31 -11q46 0 131 22.5t131 22.5 q23 0 45 -61.5t22 -95.5q0 -11 -20 -26.5t-45 -22.5q-67 -21 -174.5 -34.5t-145.5 -13.5q-107 0 -176 5q-28 2 -28 145q0 196 34 412q1 7 33.5 155.5t48.5 245.5q6 34 6 81.5t7 84.5q64 321 98 328q18 5 102 10q163 14 254 14q107 0 160 -12z" />
<glyph unicode="&#xca;" horiz-adv-x="792" d="M487 1573q-33 0 -92 27t-59 55q0 17 46 67.5t105.5 107t69.5 68.5q1 1 7.5 8.5t8.5 9.5t8.5 8t10 8.5t10 6t12.5 4.5t13 1q28 0 76.5 -11t56.5 -26q4 -7 10 -21.5t10 -21.5q1 -2 12 -21.5t16 -29t16 -29.5t16.5 -33.5t12.5 -30t10 -29t3 -22.5q0 -23 -50 -53.5t-75 -30.5 q-16 0 -35.5 28.5t-38.5 68t-24 47.5q-13 -8 -49 -47.5t-68 -74t-39 -34.5zM809 1444q4 -1 9.5 -2.5t9 -2t8 -2t7 -2.5t6 -2.5t5.5 -3t4.5 -3.5t3.5 -4.5t1.5 -5.5t0.5 -7q0 -35 -21.5 -99.5t-45.5 -64.5h-93q-165 0 -253 -18q-31 -123 -37 -162q-5 -30 -4 -68.5t-5 -70.5 l-7 -35q74 8 112 8q37 0 101.5 -4t101.5 -4q39 0 39 -168q0 -17 -21 -30t-45 -13q-38 0 -104.5 5t-104.5 5q-70 0 -126 -8q-24 -107 -32 -166q-24 -187 -24 -321q0 -11 31 -11q46 0 131 22.5t131 22.5q23 0 45 -61.5t22 -95.5q0 -11 -20 -26.5t-45 -22.5 q-67 -21 -174.5 -34.5t-145.5 -13.5q-107 0 -176 5q-28 2 -28 145q0 196 34 412q1 7 33.5 155.5t48.5 245.5q6 34 6 81.5t7 84.5q64 321 98 328q18 5 102 10q163 14 254 14q107 0 160 -12z" />
<glyph unicode="&#xcb;" horiz-adv-x="792" d="M449 1618q-109 0 -109 98q0 137 143 137q41 -1 63.5 -25t22.5 -65q0 -57 -32.5 -101t-87.5 -44zM803 1845q27 0 43 -2t33.5 -9t25.5 -23t8 -42q0 -59 -25.5 -104t-78.5 -45q-24 0 -36.5 0.5t-32 4.5t-29 11.5t-17.5 22.5t-8 37q0 60 30 104.5t87 44.5zM809 1444 q4 -1 9.5 -2.5t9 -2t8 -2t7 -2.5t6 -2.5t5.5 -3t4.5 -3.5t3.5 -4.5t1.5 -5.5t0.5 -7q0 -35 -21.5 -99.5t-45.5 -64.5h-93q-165 0 -253 -18q-31 -123 -37 -162q-5 -30 -4 -68.5t-5 -70.5l-7 -35q74 8 112 8q37 0 101.5 -4t101.5 -4q39 0 39 -168q0 -17 -21 -30t-45 -13 q-38 0 -104.5 5t-104.5 5q-70 0 -126 -8q-24 -107 -32 -166q-24 -187 -24 -321q0 -11 31 -11q46 0 131 22.5t131 22.5q23 0 45 -61.5t22 -95.5q0 -11 -20 -26.5t-45 -22.5q-67 -21 -174.5 -34.5t-145.5 -13.5q-107 0 -176 5q-28 2 -28 145q0 196 34 412q1 7 33.5 155.5 t48.5 245.5q6 34 6 81.5t7 84.5q64 321 98 328q18 5 102 10q163 14 254 14q107 0 160 -12z" />
<glyph unicode="&#xcc;" horiz-adv-x="499" d="M354 1982q31 0 68 -65.5t59.5 -138.5t22.5 -105t-60.5 -61t-97.5 -29q-33 0 -84 126.5t-51 176.5q0 30 55.5 63t87.5 33zM465 1466q39 0 39 -18q0 -132 -25 -246q-5 -27 -36 -140t-37 -151q-18 -113 -36.5 -323.5t-31.5 -306.5q-7 -49 -24 -120t-23 -104 q-3 -13 -10 -23.5t-15.5 -17t-22.5 -11t-23.5 -7t-26.5 -3.5t-24.5 -1h-23.5h-18q-64 0 -64 35q0 49 24 150.5t28 129.5q14 100 32 316.5t37 330.5q6 38 35 134.5t35 134.5q2 10 6.5 59.5t11 90.5t13.5 48q43 43 180 43z" />
<glyph unicode="&#xcd;" horiz-adv-x="499" d="M553 1980q32 0 78.5 -29.5t46.5 -60.5q0 -25 -44 -100.5t-97.5 -142t-75.5 -66.5q-30 0 -79.5 34t-49.5 60q0 27 42.5 101.5t96.5 139t82 64.5zM465 1466q39 0 39 -18q0 -132 -25 -246q-5 -27 -36 -140t-37 -151q-18 -113 -36.5 -323.5t-31.5 -306.5q-7 -49 -24 -120 t-23 -104q-3 -13 -10 -23.5t-15.5 -17t-22.5 -11t-23.5 -7t-26.5 -3.5t-24.5 -1h-23.5h-18q-64 0 -64 35q0 49 24 150.5t28 129.5q14 100 32 316.5t37 330.5q6 38 35 134.5t35 134.5q2 10 6.5 59.5t11 90.5t13.5 48q43 43 180 43z" />
<glyph unicode="&#xce;" horiz-adv-x="499" d="M451 1948h32q32 0 49 -10t27 -44q7 -24 30 -81t39.5 -106.5t16.5 -76.5q0 -29 -42 -48t-77 -19q-14 0 -27.5 16t-22 34.5t-20.5 49t-18 43.5q-16 -17 -51.5 -60.5t-57.5 -65t-38 -21.5q-22 0 -67.5 38.5t-45.5 59.5q0 11 40 60.5t92.5 109.5t56.5 65q16 19 24.5 28 t25.5 18.5t34 9.5zM465 1466q39 0 39 -18q0 -132 -25 -246q-5 -27 -36 -140t-37 -151q-18 -113 -36.5 -323.5t-31.5 -306.5q-7 -49 -24 -120t-23 -104q-3 -13 -10 -23.5t-15.5 -17t-22.5 -11t-23.5 -7t-26.5 -3.5t-24.5 -1h-23.5h-18q-64 0 -64 35q0 49 24 150.5t28 129.5 q14 100 32 316.5t37 330.5q6 38 35 134.5t35 134.5q2 10 6.5 59.5t11 90.5t13.5 48q43 43 180 43z" />
<glyph unicode="&#xcf;" horiz-adv-x="499" d="M322 1853q81 0 81 -88q0 -60 -28.5 -101.5t-85.5 -41.5q-101 0 -101 92q0 64 35 101.5t99 37.5zM571 1847q53 -2 80 -19t27 -65q0 -58 -27.5 -102.5t-81.5 -44.5q-55 0 -86.5 17t-31.5 67q0 59 32 103t88 44zM465 1466q39 0 39 -18q0 -132 -25 -246q-5 -27 -36 -140 t-37 -151q-18 -113 -36.5 -323.5t-31.5 -306.5q-7 -49 -24 -120t-23 -104q-3 -13 -10 -23.5t-15.5 -17t-22.5 -11t-23.5 -7t-26.5 -3.5t-24.5 -1h-23.5h-18q-64 0 -64 35q0 49 24 150.5t28 129.5q14 100 32 316.5t37 330.5q6 38 35 134.5t35 134.5q2 10 6.5 59.5t11 90.5 t13.5 48q43 43 180 43z" />
<glyph unicode="&#xd0;" horiz-adv-x="960" d="M463 1475q126 0 225.5 -41t158.5 -108t89.5 -145.5t30.5 -160.5q0 -35 -14.5 -139t-14.5 -144q0 -75 -28.5 -223.5t-78.5 -263.5q-33 -77 -69.5 -127t-75.5 -81.5t-97 -47t-117 -20.5t-153 -5q-17 0 -32 0.5t-28.5 2.5t-23 3t-21 4.5t-17.5 5t-17 6t-14.5 6t-15 7 t-13.5 6.5q-34 16 -57 39t-23 47q0 13 8 61.5t13 69.5q79 333 96 430q-40 -4 -61 -4q-22 0 -22 47q0 37 13 103.5t32 66.5q25 0 63 2q10 124 18 181q52 353 102 385q36 23 65.5 30t78.5 7zM709 731q0 29 16 134t16 141q0 104 -70 180t-182 76q-5 -24 -22 -94.5t-23 -110.5 q-10 -61 -16 -166q37 0 107.5 -16t70.5 -42q0 -37 -19.5 -106.5t-40.5 -69.5q-9 0 -68 11t-75 12q-14 -89 -38.5 -203.5t-40 -189.5t-15.5 -105q0 -10 62 -10q120 0 173 37.5t93 146.5q35 93 53.5 203.5t18.5 171.5z" />
<glyph unicode="&#xd1;" horiz-adv-x="1155" d="M954 1876q20 0 69.5 -33t49.5 -51q0 -45 -77.5 -122t-139.5 -77q-38 0 -79.5 20t-75.5 40t-52 20q-8 0 -18 -19t-23.5 -38t-29.5 -19q-28 0 -81 18t-53 40q0 24 27.5 73t48.5 70q34 35 63.5 49.5t73.5 14.5q25 0 96.5 -40t106.5 -40q11 0 45.5 47t48.5 47zM453 1458 q29 0 66 -38t59 -89q10 -26 32 -114.5t31 -141.5q10 -62 31 -254q5 -35 34.5 -135t41.5 -170q2 -15 6.5 -43.5t6.5 -43t6 -34t8.5 -31.5t10.5 -20q5 12 10.5 38t11.5 69t10.5 73.5t11 85.5t8.5 72q6 47 25 205t32 243q1 8 14 80t13 101q0 15 -6.5 41t-6.5 39q0 25 69 45 t105 20q15 0 25 -21t14 -54t5 -54t1 -39q0 -70 -20 -203q-10 -70 -27.5 -222.5t-33.5 -246.5q-2 -8 -20.5 -117t-39.5 -224.5t-37 -182.5q-14 -60 -28 -75q-12 -11 -27 -11q-22 0 -78.5 10t-75.5 11q-49 1 -111.5 135t-88.5 295q-14 80 -43.5 200t-32.5 144q-1 6 -3.5 36 t-5 57t-6.5 59t-9 54.5t-11 30.5q-26 -85 -57 -268q-15 -91 -33 -298t-39 -316q-28 -125 -49 -146q-22 -22 -121 -22q-94 0 -94 32q0 7 21 73.5t24 84.5q20 107 40 315.5t38 309.5q29 164 57 278q3 16 19 116.5t32 175.5t29 77q52 8 156 8z" />
<glyph unicode="&#xd2;" d="M596 1978q27 0 67.5 -56.5t47.5 -88.5q3 -16 30 -79t27 -79q0 -29 -56.5 -61.5t-93.5 -32.5q-23 0 -59.5 60t-42.5 90q-4 22 -34.5 74.5t-30.5 78.5q0 29 63.5 61.5t81.5 32.5zM688 1477q76 0 135 -25t96 -66t60.5 -98t33 -115.5t9.5 -123.5q0 -170 -47 -424 q-43 -246 -104.5 -383.5t-182.5 -210.5q-95 -56 -301 -56q-172 0 -253 81.5t-81 252.5q0 71 13 143.5t34.5 160t30.5 139.5q4 28 11.5 112t17.5 129q27 111 68.5 196t104 151.5t152 101.5t203.5 35zM670 1268q-57 0 -104 -21.5t-77.5 -54t-55 -81t-38 -93.5t-24.5 -100 q-7 -34 -11.5 -99.5t-7.5 -87.5q-6 -42 -41 -172t-35 -211q0 -68 28 -115t91 -47h25.5h29t26.5 0.5t29 2t26 4t27.5 6.5t23.5 10q107 54 172 438q43 260 43 369q0 252 -127 252z" />
<glyph unicode="&#xd3;" d="M866 1991q33 0 69 -40.5t36 -74.5q0 -32 -114.5 -162.5t-139.5 -130.5q-30 0 -74.5 35t-44.5 65q0 26 55.5 101.5t121.5 141t91 65.5zM688 1477q76 0 135 -25t96 -66t60.5 -98t33 -115.5t9.5 -123.5q0 -170 -47 -424q-43 -246 -104.5 -383.5t-182.5 -210.5 q-95 -56 -301 -56q-172 0 -253 81.5t-81 252.5q0 71 13 143.5t34.5 160t30.5 139.5q4 28 11.5 112t17.5 129q27 111 68.5 196t104 151.5t152 101.5t203.5 35zM670 1268q-57 0 -104 -21.5t-77.5 -54t-55 -81t-38 -93.5t-24.5 -100q-7 -34 -11.5 -99.5t-7.5 -87.5 q-6 -42 -41 -172t-35 -211q0 -68 28 -115t91 -47h25.5h29t26.5 0.5t29 2t26 4t27.5 6.5t23.5 10q107 54 172 438q43 260 43 369q0 252 -127 252z" />
<glyph unicode="&#xd4;" d="M688 1956q28 0 76.5 -11t56.5 -26q4 -7 10.5 -21.5t10.5 -21.5q1 -2 12 -21.5t16 -29t16 -29.5t16.5 -33.5t12.5 -30t10 -29t3 -22.5q0 -23 -50 -53.5t-75 -30.5q-16 0 -35.5 28.5t-38.5 68t-24 47.5q-13 -8 -49 -47.5t-68 -74t-39 -34.5q-33 0 -92.5 27t-59.5 55 q0 17 46 67.5t105.5 107.5t69.5 69q0 1 6.5 7.5t7.5 8t7 7.5t8.5 7.5t8.5 5.5t10 5l10 2.5t12 1.5zM688 1477q76 0 135 -25t96 -66t60.5 -98t33 -115.5t9.5 -123.5q0 -170 -47 -424q-43 -246 -104.5 -383.5t-182.5 -210.5q-95 -56 -301 -56q-172 0 -253 81.5t-81 252.5 q0 71 13 143.5t34.5 160t30.5 139.5q4 28 11.5 112t17.5 129q27 111 68.5 196t104 151.5t152 101.5t203.5 35zM670 1268q-57 0 -104 -21.5t-77.5 -54t-55 -81t-38 -93.5t-24.5 -100q-7 -34 -11.5 -99.5t-7.5 -87.5q-6 -42 -41 -172t-35 -211q0 -68 28 -115t91 -47h25.5h29 t26.5 0.5t29 2t26 4t27.5 6.5t23.5 10q107 54 172 438q43 260 43 369q0 252 -127 252z" />
<glyph unicode="&#xd5;" horiz-adv-x="1034" d="M889 1888q20 0 69.5 -33t49.5 -51q0 -45 -77.5 -121.5t-139.5 -76.5q-38 0 -79.5 20t-75.5 40t-52 20q-8 0 -18.5 -19t-24 -38t-29.5 -19q-28 0 -80.5 17.5t-52.5 39.5q0 24 27.5 73t48.5 70q34 35 63.5 49.5t73.5 14.5q25 0 96.5 -40t106.5 -40q11 0 45.5 47t48.5 47z M711 1470q46 0 98.5 -26.5t96.5 -68.5t73 -102t29 -120q0 -43 -4 -88t-12 -104.5t-11 -88.5q-3 -32 -5 -108.5t-9 -118.5q-27 -167 -95 -341.5t-137 -225.5q-73 -54 -144 -76t-171 -22q-44 0 -96 10q-59 12 -103 52.5t-69 94t-40 128.5t-19.5 143t-4.5 151q0 43 17.5 143.5 t48.5 223.5t83 244.5t111 183.5q68 72 151.5 94t211.5 22zM647 1255q-98 0 -143 -45q-44 -43 -91.5 -193.5t-73.5 -282t-26 -167.5q0 -87 11.5 -209t37.5 -143q31 -25 80 -25q45 0 95 20.5t77 53.5q26 33 72 177t55 202q5 37 7.5 110t7.5 109q3 19 10.5 66t11.5 81t4 66 q0 40 -5.5 69.5t-19.5 56t-41.5 40.5t-68.5 14z" />
<glyph unicode="&#xd6;" d="M545 1866q41 -1 63.5 -25t22.5 -65q0 -57 -33 -101.5t-88 -44.5q-109 0 -109 99q0 137 144 137zM864 1858q27 0 43 -2t33.5 -9t26 -23t8.5 -42q0 -59 -26 -104.5t-79 -45.5q-24 0 -36 0.5t-31.5 4.5t-29.5 11.5t-17.5 22.5t-7.5 37q0 61 29.5 105.5t86.5 44.5zM688 1477 q76 0 135 -25t96 -66t60.5 -98t33 -115.5t9.5 -123.5q0 -170 -47 -424q-43 -246 -104.5 -383.5t-182.5 -210.5q-95 -56 -301 -56q-172 0 -253 81.5t-81 252.5q0 71 13 143.5t34.5 160t30.5 139.5q4 28 11.5 112t17.5 129q27 111 68.5 196t104 151.5t152 101.5t203.5 35z M670 1268q-57 0 -104 -21.5t-77.5 -54t-55 -81t-38 -93.5t-24.5 -100q-7 -34 -11.5 -99.5t-7.5 -87.5q-6 -42 -41 -172t-35 -211q0 -68 28 -115t91 -47h25.5h29t26.5 0.5t29 2t26 4t27.5 6.5t23.5 10q107 54 172 438q43 260 43 369q0 252 -127 252z" />
<glyph unicode="&#xd7;" horiz-adv-x="1052" d="M690 704q60 -94 76 -122q10 -18 52.5 -79t67.5 -110t25 -86q0 -30 -63 -50.5t-113 -20.5q-9 0 -25.5 17.5t-35 46t-35 55t-32 53t-19.5 32.5l-68 104q-97 -91 -147 -145q-9 -9 -42 -54.5t-62 -80.5t-40 -35q-38 0 -100.5 26.5t-62.5 57.5q0 52 47 125.5t86 112.5 q35 33 206 189q-28 58 -43 100q-12 33 -87.5 146.5t-75.5 148.5q0 29 50 44t91 15q54 0 68 -14q84 -84 124 -187q12 -34 40 -90q62 67 98 119q23 34 54 73t76 82.5t70 43.5t97.5 -35t72.5 -56q0 -14 -32.5 -57t-75 -92t-49.5 -59q-63 -90 -193 -218z" />
<glyph unicode="&#xd8;" horiz-adv-x="1034" d="M1027 1622q1 -14 -111 -234q106 -111 106 -339q0 -170 -47 -424q-43 -246 -104.5 -383.5t-182.5 -210.5q-87 -52 -271 -55q-2 -6 -7.5 -23t-9 -27.5t-10 -28.5t-11 -30t-10.5 -27t-11.5 -25t-11 -19.5t-11 -14t-10.5 -4.5q-59 -3 -120.5 10.5t-62.5 39.5q0 9 62 181 q-151 68 -151 301q0 71 13 143.5t34.5 160t30.5 139.5q4 28 11.5 112t17.5 129q27 111 68.5 196t104 151.5t152 101.5t203.5 35l29 -1q78 159 102 169q15 7 46 13t49 7q112 4 113 -43zM352 731q-6 -42 -41 -172t-35 -211q0 -52 15 -89q10 39 13 63q6 36 23.5 90.5t32 92 t43 106t34.5 83.5q71 181 178 553l6 17q-47 -8 -85 -33t-64 -57.5t-46.5 -77.5t-32.5 -86.5t-22 -91.5q-7 -34 -11.5 -99.5t-7.5 -87.5zM754 647q43 260 43 369q0 30 -3 68q-64 -222 -144 -430q-6 -15 -44.5 -108t-59 -153.5t-27.5 -109.5q-7 -43 -24 -95q53 3 87 21 q107 54 172 438z" />
<glyph unicode="&#xd9;" d="M627 1927q26 0 66.5 -56.5t47.5 -88.5q3 -16 30.5 -79t27.5 -79q0 -29 -56.5 -61.5t-93.5 -32.5q-23 0 -59.5 59.5t-42.5 89.5q-4 22 -35 75t-31 79q0 29 63.5 61.5t82.5 32.5zM961 1483h26q86 0 86 -33q0 -17 -11.5 -75.5t-28 -139t-23.5 -131.5q-5 -36 -6.5 -108.5 t-6.5 -108.5q-11 -71 -19 -122.5t-23 -130.5t-29.5 -137.5t-36.5 -131.5t-45 -125t-55 -105.5t-66.5 -86.5t-78.5 -54t-93 -21q-45 0 -72 0.5t-71 3t-71.5 7.5t-65 14.5t-60.5 23.5t-49 35t-40.5 48.5t-24 64.5t-9.5 82q0 28 11.5 94t11.5 94q0 180 24 316q15 91 76 354 q3 15 15.5 60.5t19 79t6.5 61.5q0 12 -2 38t-2 40q0 20 73 48.5t109 28.5q53 0 53 -123q0 -30 -6.5 -65.5t-18.5 -80.5t-16 -67q-9 -41 -28.5 -128.5t-33.5 -155t-24 -129.5q-18 -118 -18 -254q0 -40 -11.5 -91t-11.5 -71q0 -22 3 -39t11.5 -29t16 -20.5t24 -14t27 -8.5 t34.5 -4.5t37.5 -1.5h43.5h6.5h5.5q48 0 101 130t87 275.5t56 284.5q5 35 7 117t7 117q7 52 18 111t23 119l17 85q4 24 26.5 38t46 18t48.5 4z" />
<glyph unicode="&#xda;" d="M897 1939q33 0 68.5 -40t35.5 -74q0 -32 -114 -162.5t-139 -130.5q-30 0 -74.5 35t-44.5 65q0 26 55.5 101t121.5 140.5t91 65.5zM961 1483h26q86 0 86 -33q0 -17 -11.5 -75.5t-28 -139t-23.5 -131.5q-5 -36 -6.5 -108.5t-6.5 -108.5q-11 -71 -19 -122.5t-23 -130.5 t-29.5 -137.5t-36.5 -131.5t-45 -125t-55 -105.5t-66.5 -86.5t-78.5 -54t-93 -21q-45 0 -72 0.5t-71 3t-71.5 7.5t-65 14.5t-60.5 23.5t-49 35t-40.5 48.5t-24 64.5t-9.5 82q0 28 11.5 94t11.5 94q0 180 24 316q15 91 76 354q3 15 15.5 60.5t19 79t6.5 61.5q0 12 -2 38 t-2 40q0 20 73 48.5t109 28.5q53 0 53 -123q0 -30 -6.5 -65.5t-18.5 -80.5t-16 -67q-9 -41 -28.5 -128.5t-33.5 -155t-24 -129.5q-18 -118 -18 -254q0 -40 -11.5 -91t-11.5 -71q0 -22 3 -39t11.5 -29t16 -20.5t24 -14t27 -8.5t34.5 -4.5t37.5 -1.5h43.5h6.5h5.5 q48 0 101 130t87 275.5t56 284.5q5 35 7 117t7 117q7 52 18 111t23 119l17 85q4 24 26.5 38t46 18t48.5 4z" />
<glyph unicode="&#xdb;" d="M719 1905q28 0 76.5 -11t56.5 -26q4 -7 10 -21.5t10 -21.5q1 -2 12 -21.5t16 -29t16 -29.5t16.5 -33.5t12.5 -30t10 -29t3 -22.5q0 -23 -49.5 -53.5t-74.5 -30.5q-16 0 -35.5 28t-39 68t-24.5 48q-13 -8 -49 -47.5t-67.5 -74t-38.5 -34.5q-33 0 -92.5 27t-59.5 55 q0 17 46 67.5t105.5 107.5t69.5 69q0 1 6.5 7.5t7.5 8t7 7.5t8.5 7.5t8.5 5.5t10 5l10 2.5t12 1.5zM961 1483h26q86 0 86 -33q0 -17 -11.5 -75.5t-28 -139t-23.5 -131.5q-5 -36 -6.5 -108.5t-6.5 -108.5q-11 -71 -19 -122.5t-23 -130.5t-29.5 -137.5t-36.5 -131.5t-45 -125 t-55 -105.5t-66.5 -86.5t-78.5 -54t-93 -21q-45 0 -72 0.5t-71 3t-71.5 7.5t-65 14.5t-60.5 23.5t-49 35t-40.5 48.5t-24 64.5t-9.5 82q0 28 11.5 94t11.5 94q0 180 24 316q15 91 76 354q3 15 15.5 60.5t19 79t6.5 61.5q0 12 -2 38t-2 40q0 20 73 48.5t109 28.5 q53 0 53 -123q0 -30 -6.5 -65.5t-18.5 -80.5t-16 -67q-9 -41 -28.5 -128.5t-33.5 -155t-24 -129.5q-18 -118 -18 -254q0 -40 -11.5 -91t-11.5 -71q0 -22 3 -39t11.5 -29t16 -20.5t24 -14t27 -8.5t34.5 -4.5t37.5 -1.5h43.5h6.5h5.5q48 0 101 130t87 275.5t56 284.5 q5 35 7 117t7 117q7 52 18 111t23 119l17 85q4 24 26.5 38t46 18t48.5 4z" />
<glyph unicode="&#xdc;" d="M575 1815q41 -1 64 -25.5t23 -65.5q0 -57 -33 -101t-88 -44q-109 0 -109 98q0 138 143 138zM895 1806q22 0 35 -1t29 -5t25 -11.5t15.5 -22t6.5 -35.5q0 -59 -26 -104.5t-79 -45.5q-24 0 -36.5 0.5t-32 4.5t-29 11.5t-17.5 22.5t-8 37q0 60 30 104.5t87 44.5zM961 1483 h26q86 0 86 -33q0 -17 -11.5 -75.5t-28 -139t-23.5 -131.5q-5 -36 -6.5 -108.5t-6.5 -108.5q-11 -71 -19 -122.5t-23 -130.5t-29.5 -137.5t-36.5 -131.5t-45 -125t-55 -105.5t-66.5 -86.5t-78.5 -54t-93 -21q-45 0 -72 0.5t-71 3t-71.5 7.5t-65 14.5t-60.5 23.5t-49 35 t-40.5 48.5t-24 64.5t-9.5 82q0 28 11.5 94t11.5 94q0 180 24 316q15 91 76 354q3 15 15.5 60.5t19 79t6.5 61.5q0 12 -2 38t-2 40q0 20 73 48.5t109 28.5q53 0 53 -123q0 -30 -6.5 -65.5t-18.5 -80.5t-16 -67q-9 -41 -28.5 -128.5t-33.5 -155t-24 -129.5q-18 -118 -18 -254 q0 -40 -11.5 -91t-11.5 -71q0 -22 3 -39t11.5 -29t16 -20.5t24 -14t27 -8.5t34.5 -4.5t37.5 -1.5h43.5h6.5h5.5q48 0 101 130t87 275.5t56 284.5q5 35 7 117t7 117q7 52 18 111t23 119l17 85q4 24 26.5 38t46 18t48.5 4z" />
<glyph unicode="&#xdd;" horiz-adv-x="948" d="M809 1917q33 0 68.5 -40t35.5 -75q0 -32 -114.5 -162.5t-139.5 -130.5q-30 0 -74 35t-44 66q0 26 55.5 101t121.5 140.5t91 65.5zM969 1460q26 0 56 -15.5t30 -29.5q0 -22 -25 -97t-41 -112q-15 -36 -73 -146.5t-80 -144.5q-34 -50 -82.5 -119.5t-77.5 -111.5t-39 -59 q-8 -143 -16 -201q-2 -20 -6 -74t-9 -84q-5 -38 -22.5 -96t-32 -101.5t-14.5 -50.5q0 -19 -39 -27.5t-84 -8.5q-30 0 -67.5 20.5t-37.5 38.5q0 12 32.5 101.5t37.5 127.5q4 27 8 78.5t6 71.5q10 65 17 203q0 15 -24.5 67t-56 111t-36.5 71q-27 54 -80 247t-53 243 q0 23 58.5 57.5t84.5 34.5q66 0 66 -39q0 -27 42 -187.5t58 -199.5q8 -16 28.5 -71.5t39.5 -82.5q24 28 64.5 88.5t60.5 86.5q23 29 61 114.5t57 136.5q33 101 60 138q4 6 10.5 10t16.5 6.5t19.5 3.5t22.5 1.5t21 0.5h21.5h17.5z" />
<glyph unicode="&#xde;" horiz-adv-x="854" d="M684 1098q137 -62 137 -244q0 -349 -237 -446q-71 -29 -248 -29h-28q-6 -50 -15 -100q-9 -58 -31 -150t-39 -109q-14 -16 -69.5 -26t-96.5 -10q-37 0 -37 43q0 22 24.5 126.5t31.5 147.5q4 30 12 89t13 94.5t14.5 86t21.5 93.5q19 75 31 205t16 159q6 40 35 139t29 144 q0 19 -6 44.5t-6 35.5q0 25 72.5 45t109.5 20q19 0 33 -51t14 -78q0 -59 -31 -177q177 -20 250 -52zM494 594q52 23 79 80.5t27 138.5q0 25 -7 44.5t-16.5 32t-28.5 22t-32 14.5t-40 8.5t-39 4t-41 2.5q-1 -9 -5 -48.5t-5 -52.5t-5.5 -46.5t-7.5 -53.5t-8.5 -48t-12.5 -53 l-12 -48q9 -1 31.5 -3t35 -2.5t30 -1t31.5 2t26 7.5z" />
<glyph unicode="&#xdf;" horiz-adv-x="997" d="M651 1464q49 0 95 -9.5t88.5 -31t74.5 -53t51 -78.5t19 -104q0 -163 -42 -265.5t-138 -183.5q47 -35 67.5 -118.5t20.5 -163.5q0 -71 -13.5 -138t-42 -128.5t-70.5 -107.5t-103 -73.5t-134 -27.5q-79 0 -126.5 27.5t-47.5 78.5q0 25 48 89.5t71 64.5q13 0 36 -28t34 -28 q123 0 123 246q0 45 -15.5 105.5t-44.5 78.5q-54 0 -65 21.5t-11 110.5q0 33 7.5 48.5t35.5 28.5q91 44 140 121.5t49 206.5q0 52 -45.5 78t-100.5 26q-27 0 -69 -15t-60 -32q-26 -23 -45 -65t-24 -78q-12 -73 -23.5 -250.5t-25.5 -255.5q-11 -58 -46 -152.5t-45 -158.5 q-4 -28 -7.5 -77.5t-6.5 -84t-6 -39.5q-10 -14 -66 -33.5t-77 -19.5q-84 0 -84 35q6 35 13 104.5t13 104.5q10 63 46 175.5t46 174.5q5 30 22.5 240t37.5 315q18 104 117 209q108 110 329 110z" />
<glyph unicode="&#xe0;" horiz-adv-x="952" d="M528 1221q-23 0 -59.5 59.5t-42.5 89.5q-4 22 -35 75t-31 79q0 29 63.5 61.5t82.5 32.5q27 0 67.5 -56.5t47.5 -88.5q3 -16 30 -79t27 -79q0 -29 -56.5 -61.5t-93.5 -32.5zM836 711q-9 -45 -37.5 -184.5t-38.5 -192.5q-6 -34 -6 -105q0 -34 18 -41q25 -8 56.5 -35.5 t31.5 -43.5q0 -33 -33.5 -84.5t-52.5 -51.5q-26 0 -84 13.5t-80 27.5q-11 8 -24 22q-60 -24 -133 -42.5t-123 -18.5q-72 0 -139.5 52t-108.5 136t-41 173q0 54 24.5 165.5t26.5 147.5q2 25 7 52.5t16.5 67t16.5 57t22 67t18 53.5q7 22 40 54.5t78.5 64t102.5 54t105 22.5 q99 0 195 -49q14 19 78.5 37t98.5 18q23 0 29 -11.5t6 -39.5q0 -18 -33 -154q-12 -46 -22 -127t-14 -104zM545 365q9 43 34 186.5t33 179.5q4 17 21 146q-16 23 -45.5 39t-52.5 16q-38 0 -93.5 -35.5t-72.5 -69.5q-53 -116 -58 -202q-2 -35 -23.5 -146t-21.5 -137 q0 -55 31 -105.5t70 -50.5q28 0 81 14.5t88 31.5q0 95 9 133z" />
<glyph unicode="&#xe1;" horiz-adv-x="952" d="M627 1223q-30 0 -74.5 35t-44.5 65q0 26 55.5 101t121.5 140.5t91 65.5q33 0 69 -40t36 -74q0 -32 -114.5 -162.5t-139.5 -130.5zM836 711q-9 -45 -37.5 -184.5t-38.5 -192.5q-6 -34 -6 -105q0 -34 18 -41q25 -8 56.5 -35.5t31.5 -43.5q0 -33 -33.5 -84.5t-52.5 -51.5 q-26 0 -84 13.5t-80 27.5q-11 8 -24 22q-60 -24 -133 -42.5t-123 -18.5q-72 0 -139.5 52t-108.5 136t-41 173q0 54 24.5 165.5t26.5 147.5q2 25 7 52.5t16.5 67t16.5 57t22 67t18 53.5q7 22 40 54.5t78.5 64t102.5 54t105 22.5q99 0 195 -49q14 19 78.5 37t98.5 18 q23 0 29 -11.5t6 -39.5q0 -18 -33 -154q-12 -46 -22 -127t-14 -104zM545 365q9 43 34 186.5t33 179.5q4 17 21 146q-16 23 -45.5 39t-52.5 16q-38 0 -93.5 -35.5t-72.5 -69.5q-53 -116 -58 -202q-2 -35 -23.5 -146t-21.5 -137q0 -55 31 -105.5t70 -50.5q28 0 81 14.5 t88 31.5q0 95 9 133z" />
<glyph unicode="&#xe2;" horiz-adv-x="952" d="M459 1225q-33 0 -92.5 27t-59.5 55q0 17 46 67.5t105.5 107t69.5 68.5q0 1 6.5 7.5t7.5 8t7 7.5t8.5 7.5t8.5 5.5t10 5l10 2.5t12 1.5q29 0 77 -10.5t56 -25.5q4 -7 10.5 -21.5t10.5 -21.5q1 -2 12 -21.5t16 -29t16 -29.5t16.5 -33.5t12.5 -30t10 -29t3 -22.5 q0 -23 -50 -53.5t-75 -30.5q-16 0 -35.5 28t-39 67.5t-24.5 47.5q-13 -8 -49 -47.5t-67.5 -73.5t-38.5 -34zM836 711q-9 -45 -37.5 -184.5t-38.5 -192.5q-6 -34 -6 -105q0 -34 18 -41q25 -8 56.5 -35.5t31.5 -43.5q0 -33 -33.5 -84.5t-52.5 -51.5q-26 0 -84 13.5t-80 27.5 q-11 8 -24 22q-60 -24 -133 -42.5t-123 -18.5q-72 0 -139.5 52t-108.5 136t-41 173q0 54 24.5 165.5t26.5 147.5q2 25 7 52.5t16.5 67t16.5 57t22 67t18 53.5q7 22 40 54.5t78.5 64t102.5 54t105 22.5q99 0 195 -49q14 19 78.5 37t98.5 18q23 0 29 -11.5t6 -39.5 q0 -18 -33 -154q-12 -46 -22 -127t-14 -104zM545 365q9 43 34 186.5t33 179.5q4 17 21 146q-16 23 -45.5 39t-52.5 16q-38 0 -93.5 -35.5t-72.5 -69.5q-53 -116 -58 -202q-2 -35 -23.5 -146t-21.5 -137q0 -55 31 -105.5t70 -50.5q28 0 81 14.5t88 31.5q0 95 9 133z" />
<glyph unicode="&#xe3;" horiz-adv-x="952" d="M422 1249q-28 0 -80.5 18t-52.5 40q0 24 27.5 73t48.5 70q33 35 62.5 49t74.5 14q25 0 96.5 -39.5t106.5 -39.5q11 0 45.5 47t48.5 47q20 0 69.5 -33t49.5 -51q0 -45 -78 -122t-140 -77q-38 0 -79.5 20t-75 40t-51.5 20q-8 0 -18.5 -19t-24 -38t-29.5 -19zM870 1147 q23 0 29 -11.5t6 -39.5q0 -18 -33 -154q-12 -46 -22 -127t-14 -104q-9 -45 -37.5 -184.5t-38.5 -192.5q-6 -34 -6 -105q0 -34 18 -41q25 -8 56.5 -35.5t31.5 -43.5q0 -33 -33.5 -84.5t-52.5 -51.5q-26 0 -84 13.5t-80 27.5q-11 8 -24 22q-60 -24 -133 -42.5t-123 -18.5 q-72 0 -139.5 52t-108.5 136t-41 173q0 54 24.5 165.5t26.5 147.5q2 25 7 52.5t16.5 67t16.5 57t22 67t18 53.5q7 22 40 54.5t78.5 64t102.5 54t105 22.5q99 0 195 -49q14 19 78.5 37t98.5 18zM545 365q9 43 34 186.5t33 179.5q4 17 21 146q-16 23 -45.5 39t-52.5 16 q-38 0 -93.5 -35.5t-72.5 -69.5q-53 -116 -58 -202q-2 -35 -23.5 -146t-21.5 -137q0 -55 31 -105.5t70 -50.5q28 0 81 14.5t88 31.5q0 95 9 133z" />
<glyph unicode="&#xe4;" horiz-adv-x="952" d="M420 1270q-109 0 -109 98q0 137 144 137q41 -1 63.5 -25t22.5 -65q0 -57 -33 -101t-88 -44zM780 1272q-24 0 -36.5 0.5t-32 4.5t-29 11.5t-17.5 22.5t-8 37q0 60 30 104.5t87 44.5q27 0 43 -2t33.5 -9t26 -23t8.5 -42q0 -58 -26 -103.5t-79 -45.5zM836 711 q-9 -45 -37.5 -184.5t-38.5 -192.5q-6 -34 -6 -105q0 -34 18 -41q25 -8 56.5 -35.5t31.5 -43.5q0 -33 -33.5 -84.5t-52.5 -51.5q-26 0 -84 13.5t-80 27.5q-11 8 -24 22q-60 -24 -133 -42.5t-123 -18.5q-72 0 -139.5 52t-108.5 136t-41 173q0 54 24.5 165.5t26.5 147.5 q2 25 7 52.5t16.5 67t16.5 57t22 67t18 53.5q7 22 40 54.5t78.5 64t102.5 54t105 22.5q99 0 195 -49q14 19 78.5 37t98.5 18q23 0 29 -11.5t6 -39.5q0 -18 -33 -154q-12 -46 -22 -127t-14 -104zM545 365q9 43 34 186.5t33 179.5q4 17 21 146q-16 23 -45.5 39t-52.5 16 q-38 0 -93.5 -35.5t-72.5 -69.5q-53 -116 -58 -202q-2 -35 -23.5 -146t-21.5 -137q0 -55 31 -105.5t70 -50.5q28 0 81 14.5t88 31.5q0 95 9 133z" />
<glyph unicode="&#xe5;" horiz-adv-x="952" d="M575 1202q-72 0 -113.5 35.5t-41.5 105.5q0 93 54.5 166.5t143.5 73.5q168 0 168 -143q0 -105 -54.5 -171.5t-156.5 -66.5zM604 1440q-16 0 -27.5 -15.5t-11.5 -33.5q0 -13 6.5 -28t18.5 -15q25 0 38 16.5t13 42.5q0 33 -37 33zM836 711q-9 -45 -37.5 -184.5 t-38.5 -192.5q-6 -34 -6 -105q0 -34 18 -41q25 -8 56.5 -35.5t31.5 -43.5q0 -33 -33.5 -84.5t-52.5 -51.5q-26 0 -84 13.5t-80 27.5q-11 8 -24 22q-60 -24 -133 -42.5t-123 -18.5q-72 0 -139.5 52t-108.5 136t-41 173q0 54 24.5 165.5t26.5 147.5q2 25 7 52.5t16.5 67 t16.5 57t22 67t18 53.5q7 22 40 54.5t78.5 64t102.5 54t105 22.5q99 0 195 -49q14 19 78.5 37t98.5 18q23 0 29 -11.5t6 -39.5q0 -18 -33 -154q-12 -46 -22 -127t-14 -104zM545 365q9 43 34 186.5t33 179.5q4 17 21 146q-16 23 -45.5 39t-52.5 16q-38 0 -93.5 -35.5 t-72.5 -69.5q-53 -116 -58 -202q-2 -35 -23.5 -146t-21.5 -137q0 -55 31 -105.5t70 -50.5q28 0 81 14.5t88 31.5q0 95 9 133z" />
<glyph unicode="&#xe6;" horiz-adv-x="1320" d="M1180 520q-31 -15 -175 -36.5t-270 -36.5q-2 -28 -2 -44q0 -91 43 -158t121 -67q32 0 55 27t33 59t24 59t31 27q34 0 95 -30.5t61 -59.5q0 -53 -21 -103.5t-60.5 -93t-102.5 -68.5t-140 -26q-159 0 -260 109l-10 11q-53 -44 -158.5 -81t-173.5 -37q-37 0 -72 6t-73 22.5 t-66 42t-46.5 70t-18.5 101.5q0 94 32.5 167.5t83 119t124.5 77.5t143.5 46.5t154.5 23.5q6 31 19 83v9q0 57 -32 120t-81 63q-23 0 -48.5 -24.5t-44 -53.5t-43.5 -53.5t-48 -24.5q-28 0 -86.5 28t-58.5 50q0 44 33 96t77 92q62 58 121.5 79.5t134.5 21.5q146 0 224 -125 q118 118 309 118q284 0 284 -348q0 -35 -5 -70t-16.5 -73.5t-34.5 -69t-56 -45.5zM989 918q-161 0 -217 -249q112 10 293 46q6 37 6 71q0 132 -82 132zM297 182q29 0 102 38t119 72q-8 50 -8 89v45q-40 -6 -67.5 -10.5t-65.5 -14t-63.5 -21.5t-50 -29t-36.5 -41t-12 -54 q0 -36 22 -55t60 -19z" />
<glyph unicode="&#xe7;" horiz-adv-x="839" d="M362 735q-4 -14 -34.5 -94t-36.5 -117q-7 -46 -8 -94t1.5 -97t2.5 -59q0 -55 25.5 -75.5t80.5 -20.5q33 0 59.5 10t41.5 21t27.5 33.5t16.5 33.5t10.5 35t6.5 25q11 37 143 37q56 0 56 -66q0 -126 -81.5 -215.5t-201.5 -114.5q-6 -12 -16.5 -28t-17.5 -26.5t-7 -14.5 q0 -2 11.5 -8.5t28 -18.5t33.5 -28t28.5 -41t11.5 -54q0 -120 -71 -175.5t-232 -55.5q-29 0 -74.5 11.5t-87 37t-41.5 55.5q0 21 58 65t81 44q7 0 50 -17.5t77 -17.5q14 0 23.5 14t9.5 29q0 19 -37 37.5t-74 32t-37 20.5q0 27 20 71.5t48 80.5q-92 32 -143.5 106t-51.5 185 q0 18 -1 63t-1 73.5t3 71.5t10 80q18 105 102 295q118 273 363 273q116 0 211.5 -79.5t95.5 -193.5q0 -35 -64 -55.5t-110 -20.5q-12 0 -19.5 22t-14 48t-32 47.5t-69.5 20.5q-60 -1 -101 -49.5t-72 -141.5z" />
<glyph unicode="&#xe8;" horiz-adv-x="913" d="M506 1221q-24 0 -60.5 59.5t-42.5 89.5q-4 22 -34.5 75t-30.5 79q0 29 63.5 61.5t81.5 32.5q27 0 67.5 -56.5t47.5 -88.5q3 -16 30 -79t27 -79q0 -29 -56 -61.5t-93 -32.5zM285 497q-6 -43 -6 -91q0 -12 -0.5 -35t-0.5 -34.5t1 -31t3.5 -29.5t7 -25t11 -22.5t17 -17.5 t24.5 -14.5t32.5 -7.5t41.5 -3q79 0 112 68q67 139 101 139t101 -39.5t67 -70.5q0 -18 -41 -88t-74 -121q-15 -22 -25.5 -33.5t-38.5 -29t-77.5 -26t-120.5 -8.5q-194 0 -280.5 100t-86.5 296q0 98 19.5 197.5t56.5 232.5q52 184 156 253.5t299 69.5q82 0 140 -36.5 t87.5 -100t42 -132.5t12.5 -152q0 -36 -13 -82t-42 -85.5t-66 -39.5q-53 0 -157.5 9t-120.5 9q-51 0 -182 -19zM563 920q-39 0 -66.5 -3.5t-49 -13.5t-34.5 -21t-26 -34.5t-20.5 -44.5t-20.5 -60l-10 -35q109 15 162 15q15 0 60.5 -5.5t59.5 -4.5q37 3 37 41q0 166 -92 166z " />
<glyph unicode="&#xe9;" horiz-adv-x="913" d="M604 1223q-30 0 -74.5 35t-44.5 65q0 26 56 101t122 140.5t91 65.5q33 0 68.5 -40t35.5 -74q0 -32 -114.5 -162.5t-139.5 -130.5zM285 497q-6 -43 -6 -91q0 -12 -0.5 -35t-0.5 -34.5t1 -31t3.5 -29.5t7 -25t11 -22.5t17 -17.5t24.5 -14.5t32.5 -7.5t41.5 -3q79 0 112 68 q67 139 101 139t101 -39.5t67 -70.5q0 -18 -41 -88t-74 -121q-15 -22 -25.5 -33.5t-38.5 -29t-77.5 -26t-120.5 -8.5q-194 0 -280.5 100t-86.5 296q0 98 19.5 197.5t56.5 232.5q52 184 156 253.5t299 69.5q82 0 140 -36.5t87.5 -100t42 -132.5t12.5 -152q0 -36 -13 -82 t-42 -85.5t-66 -39.5q-53 0 -157.5 9t-120.5 9q-51 0 -182 -19zM563 920q-39 0 -66.5 -3.5t-49 -13.5t-34.5 -21t-26 -34.5t-20.5 -44.5t-20.5 -60l-10 -35q109 15 162 15q15 0 60.5 -5.5t59.5 -4.5q37 3 37 41q0 166 -92 166z" />
<glyph unicode="&#xea;" horiz-adv-x="913" d="M436 1225q-33 0 -92 27t-59 55q0 17 46 67.5t105.5 107t69.5 68.5q1 1 7.5 8.5t8.5 9.5l8 8t10 8t10 5.5t12 4.5t13 1q29 0 77.5 -10.5t56.5 -25.5q4 -7 10 -21.5t10 -21.5q1 -2 12 -21.5t16 -29t16 -29.5t16.5 -33.5t12.5 -30t10 -29t3 -22.5q0 -23 -50 -53.5t-75 -30.5 q-16 0 -35.5 28t-38.5 67.5t-24 47.5q-13 -8 -49 -47.5t-68 -73.5t-39 -34zM285 497q-6 -43 -6 -91q0 -12 -0.5 -35t-0.5 -34.5t1 -31t3.5 -29.5t7 -25t11 -22.5t17 -17.5t24.5 -14.5t32.5 -7.5t41.5 -3q79 0 112 68q67 139 101 139t101 -39.5t67 -70.5q0 -18 -41 -88 t-74 -121q-15 -22 -25.5 -33.5t-38.5 -29t-77.5 -26t-120.5 -8.5q-194 0 -280.5 100t-86.5 296q0 98 19.5 197.5t56.5 232.5q52 184 156 253.5t299 69.5q82 0 140 -36.5t87.5 -100t42 -132.5t12.5 -152q0 -36 -13 -82t-42 -85.5t-66 -39.5q-53 0 -157.5 9t-120.5 9 q-51 0 -182 -19zM563 920q-39 0 -66.5 -3.5t-49 -13.5t-34.5 -21t-26 -34.5t-20.5 -44.5t-20.5 -60l-10 -35q109 15 162 15q15 0 60.5 -5.5t59.5 -4.5q37 3 37 41q0 166 -92 166z" />
<glyph unicode="&#xeb;" horiz-adv-x="913" d="M397 1270q-108 0 -108 98q0 137 143 137q41 -1 63.5 -25t22.5 -65q0 -57 -33 -101t-88 -44zM758 1272q-24 0 -36.5 0.5t-32 4.5t-29 11.5t-17.5 22.5t-8 37q0 60 30 104.5t87 44.5q27 0 43 -2t33.5 -9t25.5 -23t8 -42q0 -59 -25.5 -104t-78.5 -45zM285 497q-6 -43 -6 -91 q0 -12 -0.5 -35t-0.5 -34.5t1 -31t3.5 -29.5t7 -25t11 -22.5t17 -17.5t24.5 -14.5t32.5 -7.5t41.5 -3q79 0 112 68q67 139 101 139t101 -39.5t67 -70.5q0 -18 -41 -88t-74 -121q-15 -22 -25.5 -33.5t-38.5 -29t-77.5 -26t-120.5 -8.5q-194 0 -280.5 100t-86.5 296 q0 98 19.5 197.5t56.5 232.5q52 184 156 253.5t299 69.5q82 0 140 -36.5t87.5 -100t42 -132.5t12.5 -152q0 -36 -13 -82t-42 -85.5t-66 -39.5q-53 0 -157.5 9t-120.5 9q-51 0 -182 -19zM563 920q-39 0 -66.5 -3.5t-49 -13.5t-34.5 -21t-26 -34.5t-20.5 -44.5t-20.5 -60 l-10 -35q109 15 162 15q15 0 60.5 -5.5t59.5 -4.5q37 3 37 41q0 166 -92 166z" />
<glyph unicode="&#xec;" horiz-adv-x="499" d="M274 1634q31 0 68 -65.5t59.5 -138.5t22.5 -105t-60.5 -61t-97.5 -29q-33 0 -84 126.5t-51 176.5q0 30 55.5 63t87.5 33zM301 1118q37 0 80 -17t43 -36q0 -13 -15.5 -99t-15.5 -124q0 -25 -13 -129.5t-24 -155.5q-6 -30 -28.5 -115.5t-41 -156t-18.5 -78.5 q0 -12 10.5 -17.5t20.5 -5.5q13 0 46 27t46 27q12 0 17.5 -1t9.5 -6t4 -16q0 -24 -11.5 -94t-23.5 -80q-77 -68 -209 -68q-56 0 -96.5 40.5t-40.5 103.5q0 71 20.5 175.5t48.5 212t31 120.5q27 132 27 270q0 46 15.5 107.5t15.5 66.5q0 21 29.5 35t72.5 14z" />
<glyph unicode="&#xed;" horiz-adv-x="499" d="M473 1632q32 0 78.5 -29.5t46.5 -60.5q0 -25 -44 -100.5t-97.5 -142t-75.5 -66.5q-30 0 -79.5 34t-49.5 60q0 27 42.5 101.5t96.5 139t82 64.5zM301 1118q37 0 80 -17t43 -36q0 -13 -15.5 -99t-15.5 -124q0 -25 -13 -129.5t-24 -155.5q-6 -30 -28.5 -115.5t-41 -156 t-18.5 -78.5q0 -12 10.5 -17.5t20.5 -5.5q13 0 46 27t46 27q12 0 17.5 -1t9.5 -6t4 -16q0 -24 -11.5 -94t-23.5 -80q-77 -68 -209 -68q-56 0 -96.5 40.5t-40.5 103.5q0 71 20.5 175.5t48.5 212t31 120.5q27 132 27 270q0 46 15.5 107.5t15.5 66.5q0 21 29.5 35t72.5 14z" />
<glyph unicode="&#xee;" horiz-adv-x="499" d="M371 1599h32q32 0 49 -9.5t27 -43.5q7 -24 30 -81t39.5 -106.5t16.5 -76.5q0 -29 -42 -48.5t-77 -19.5q-14 0 -27.5 16t-22 35t-20.5 49.5t-18 43.5q-17 -18 -51.5 -61t-57 -65t-38.5 -22q-22 0 -67.5 39t-45.5 60q0 11 40 60.5t92.5 109.5t56.5 65q15 18 24.5 27 t26 18.5t33.5 9.5zM301 1118q37 0 80 -17t43 -36q0 -13 -15.5 -99t-15.5 -124q0 -25 -13 -129.5t-24 -155.5q-6 -30 -28.5 -115.5t-41 -156t-18.5 -78.5q0 -12 10.5 -17.5t20.5 -5.5q13 0 46 27t46 27q12 0 17.5 -1t9.5 -6t4 -16q0 -24 -11.5 -94t-23.5 -80 q-77 -68 -209 -68q-56 0 -96.5 40.5t-40.5 103.5q0 71 20.5 175.5t48.5 212t31 120.5q27 132 27 270q0 46 15.5 107.5t15.5 66.5q0 21 29.5 35t72.5 14z" />
<glyph unicode="&#xef;" horiz-adv-x="499" d="M242 1505q82 0 82 -88q0 -60 -29 -101.5t-86 -41.5q-100 0 -100 92q0 64 35 101.5t98 37.5zM492 1499q53 -2 79.5 -19t26.5 -65q0 -58 -27.5 -102.5t-81.5 -44.5q-55 0 -86.5 17t-31.5 67q0 59 32 103t89 44zM301 1118q37 0 80 -17t43 -36q0 -13 -15.5 -99t-15.5 -124 q0 -25 -13 -129.5t-24 -155.5q-6 -30 -28.5 -115.5t-41 -156t-18.5 -78.5q0 -12 10.5 -17.5t20.5 -5.5q13 0 46 27t46 27q12 0 17.5 -1t9.5 -6t4 -16q0 -24 -11.5 -94t-23.5 -80q-77 -68 -209 -68q-56 0 -96.5 40.5t-40.5 103.5q0 71 20.5 175.5t48.5 212t31 120.5 q27 132 27 270q0 46 15.5 107.5t15.5 66.5q0 21 29.5 35t72.5 14z" />
<glyph unicode="&#xf0;" horiz-adv-x="927" d="M674 1395q45 -34 79 -77.5t54.5 -97t33 -100.5t17.5 -112t6.5 -106t1.5 -105q0 -53 -20.5 -164.5t-20.5 -153.5q0 -73 -13.5 -141t-47.5 -135.5t-86.5 -117.5t-136 -81t-189.5 -31q-152 0 -231.5 86t-79.5 240q0 155 54.5 350.5t111.5 245.5q19 17 43 46.5t43.5 49.5 t51.5 41t82 32t120 11q46 0 82 -10q-26 107 -80 149q-10 8 -27 17q-21 -32 -26 -49q-11 -33 -48 -33q-31 0 -85 23t-54 36q0 26 34 89q-128 41 -128 65q0 34 22 103t44 69q49 0 167 -40q2 9 6 26t6 25t6 17.5t9 14.5q21 16 49 16t75.5 -23t47.5 -40q0 -62 -14 -112 q33 -18 41 -23zM604 451q0 68 18.5 188.5t18.5 153.5q0 27 -30.5 53t-78.5 26q-31 0 -54 -7t-40 -23t-27 -29t-25.5 -40.5t-25.5 -41.5q-37 -54 -66.5 -205t-29.5 -233q0 -48 19.5 -80.5t64.5 -32.5q117 0 186.5 73.5t69.5 197.5z" />
<glyph unicode="&#xf1;" horiz-adv-x="1036" d="M424 1249q-28 0 -80.5 18t-52.5 40q0 24 27.5 73t48.5 70q33 35 62.5 49t74.5 14q25 0 96.5 -39.5t106.5 -39.5q11 0 45.5 47t48.5 47q20 0 69.5 -33t49.5 -51q0 -45 -78 -122t-140 -77q-38 0 -79.5 20t-75 40t-51.5 20q-8 0 -18.5 -19t-24 -38t-29.5 -19zM834 182 q0 -14 58 -31t58 -26q0 -31 -8 -70t-24 -47q-18 -9 -74.5 -16.5t-95.5 -7.5q-136 0 -136 217q0 42 31 200t31 248q0 22 21.5 102.5t21.5 112.5q0 22 -29.5 44t-46.5 22q-103 -2 -270 -138l-8 -34q-2 -13 -28.5 -273.5t-33.5 -300.5q-6 -36 -27 -100t-32 -78q-18 -22 -86 -22 q-138 0 -138 43q0 18 25 86.5t31 97.5q7 32 35 308.5t34 303.5q5 24 37.5 139.5t32.5 131.5t53 24t99 8q33 0 47 -7t14 -29l-1 -26q105 75 226 75q117 0 203 -85t86 -200q0 -39 -18.5 -118.5t-18.5 -98.5q0 -81 -17.5 -181t-34.5 -176t-17 -98z" />
<glyph unicode="&#xf2;" horiz-adv-x="899" d="M492 1618q26 0 66.5 -56.5t47.5 -88.5q3 -16 30.5 -79t27.5 -79q0 -29 -56.5 -61.5t-93.5 -32.5q-23 0 -59.5 59.5t-42.5 89.5q-4 22 -35 75t-31 79q0 29 63.5 61.5t82.5 32.5zM559 1143q102 0 201.5 -89t99.5 -204q0 -147 -32.5 -313.5t-103.5 -319t-165 -207.5 q-38 -21 -103.5 -33t-119.5 -12q-167 0 -235 77.5t-68 246.5q0 78 42 227.5t42 220.5q0 112 65 206.5t166 147t211 52.5zM553 930q-103 0 -162 -70t-59 -172q0 -51 -39 -205t-39 -188q0 -11 -0.5 -30t-0.5 -27t1.5 -21t6.5 -18.5t13 -12t21.5 -8.5t32.5 -2q82 0 106 14 q47 27 87.5 111t65 183.5t38.5 192.5t14 152q0 34 -26 67.5t-60 33.5z" />
<glyph unicode="&#xf3;" horiz-adv-x="899" d="M762 1630q33 0 68.5 -40t35.5 -74q0 -32 -114.5 -162.5t-139.5 -130.5q-30 0 -74 34.5t-44 65.5q0 26 55.5 101t121.5 140.5t91 65.5zM559 1143q102 0 201.5 -89t99.5 -204q0 -147 -32.5 -313.5t-103.5 -319t-165 -207.5q-38 -21 -103.5 -33t-119.5 -12q-167 0 -235 77.5 t-68 246.5q0 78 42 227.5t42 220.5q0 112 65 206.5t166 147t211 52.5zM553 930q-103 0 -162 -70t-59 -172q0 -51 -39 -205t-39 -188q0 -11 -0.5 -30t-0.5 -27t1.5 -21t6.5 -18.5t13 -12t21.5 -8.5t32.5 -2q82 0 106 14q47 27 87.5 111t65 183.5t38.5 192.5t14 152 q0 34 -26 67.5t-60 33.5z" />
<glyph unicode="&#xf4;" horiz-adv-x="899" d="M584 1595q29 0 77 -10.5t56 -25.5q4 -7 10 -21.5t10 -21.5q1 -2 12 -21.5t16 -29t16 -29.5t16.5 -33.5t12.5 -30t10 -29t3 -22.5q0 -23 -50 -53.5t-75 -30.5q-16 0 -35.5 28t-38.5 67.5t-24 47.5q-13 -8 -49 -47.5t-68 -73.5t-39 -34q-33 0 -92 27t-59 55q0 17 46 67.5 t105.5 107t69.5 68.5q0 1 6.5 7.5t7.5 8t7 7.5t8.5 7.5t8.5 5.5t10 5l10 2.5t12 1.5zM559 1143q102 0 201.5 -89t99.5 -204q0 -147 -32.5 -313.5t-103.5 -319t-165 -207.5q-38 -21 -103.5 -33t-119.5 -12q-167 0 -235 77.5t-68 246.5q0 78 42 227.5t42 220.5q0 112 65 206.5 t166 147t211 52.5zM553 930q-103 0 -162 -70t-59 -172q0 -51 -39 -205t-39 -188q0 -11 -0.5 -30t-0.5 -27t1.5 -21t6.5 -18.5t13 -12t21.5 -8.5t32.5 -2q82 0 106 14q47 27 87.5 111t65 183.5t38.5 192.5t14 152q0 34 -26 67.5t-60 33.5z" />
<glyph unicode="&#xf5;" horiz-adv-x="899" d="M784 1528q20 0 69.5 -33t49.5 -51q0 -45 -77.5 -122t-139.5 -77q-38 0 -79.5 20t-75.5 40t-52 20q-8 0 -18 -19t-23.5 -38t-29.5 -19q-28 0 -81 18t-53 40q0 24 27.5 73t48.5 70q33 35 62.5 49t74.5 14q25 0 96.5 -39.5t106.5 -39.5q11 0 45.5 47t48.5 47zM559 1143 q102 0 201.5 -89t99.5 -204q0 -147 -32.5 -313.5t-103.5 -319t-165 -207.5q-38 -21 -103.5 -33t-119.5 -12q-167 0 -235 77.5t-68 246.5q0 78 42 227.5t42 220.5q0 112 65 206.5t166 147t211 52.5zM553 930q-103 0 -162 -70t-59 -172q0 -51 -39 -205t-39 -188 q0 -11 -0.5 -30t-0.5 -27t1.5 -21t6.5 -18.5t13 -12t21.5 -8.5t32.5 -2q82 0 106 14q47 27 87.5 111t65 183.5t38.5 192.5t14 152q0 34 -26 67.5t-60 33.5z" />
<glyph unicode="&#xf6;" horiz-adv-x="899" d="M440 1505q41 -1 63.5 -25t22.5 -65q0 -57 -32.5 -101t-87.5 -44q-109 0 -109 98q0 137 143 137zM760 1497q27 0 43 -2t33.5 -9t25.5 -23t8 -42q0 -59 -25.5 -104t-78.5 -45q-24 0 -36.5 0.5t-32 4.5t-29 11.5t-17.5 22.5t-8 37q0 60 30 104.5t87 44.5zM559 1143 q102 0 201.5 -89t99.5 -204q0 -147 -32.5 -313.5t-103.5 -319t-165 -207.5q-38 -21 -103.5 -33t-119.5 -12q-167 0 -235 77.5t-68 246.5q0 78 42 227.5t42 220.5q0 112 65 206.5t166 147t211 52.5zM553 930q-103 0 -162 -70t-59 -172q0 -51 -39 -205t-39 -188 q0 -11 -0.5 -30t-0.5 -27t1.5 -21t6.5 -18.5t13 -12t21.5 -8.5t32.5 -2q82 0 106 14q47 27 87.5 111t65 183.5t38.5 192.5t14 152q0 34 -26 67.5t-60 33.5z" />
<glyph unicode="&#xf7;" horiz-adv-x="954" d="M569 1217q49 -1 75 -28t26 -75q0 -83 -36.5 -121.5t-109.5 -38.5q-22 0 -37.5 1t-33 6t-28 13.5t-17.5 24.5t-7 39q0 80 44 129.5t124 49.5zM147 903q30 0 85 -20t75 -23q211 -31 334 -31q47 0 109 8.5t129 8.5q21 0 34 -14t13 -29q0 -61 -11 -109q-4 -18 -20.5 -32 t-45 -21.5t-55 -12.5t-66 -7t-60.5 -2.5t-56 -0.5q-116 0 -338 31q-75 10 -128.5 36t-53.5 50q0 35 15.5 101.5t39.5 66.5zM442 532q50 0 83.5 -21.5t33.5 -70.5q0 -174 -156 -174q-96 0 -96 99q0 167 135 167z" />
<glyph unicode="&#xf8;" horiz-adv-x="899" d="M744 1069q116 -95 116 -219q0 -147 -32.5 -313.5t-103.5 -319t-165 -207.5q-38 -21 -103.5 -33t-119.5 -12l-36 1q-2 -5 -6.5 -16t-6.5 -16q-1 -2 -5.5 -14t-8 -20t-9 -21.5t-11 -23t-12 -18.5t-13.5 -14t-13 -5q-41 0 -91 13t-50 42q0 30 58 142q-99 70 -99 274 q0 78 42 227.5t42 220.5q0 112 65 206.5t166 147t211 52.5l26 -2q41 77 46 82q27 24 65 24q25 0 54.5 -38t29.5 -64q-2 -8 -36 -76zM436 848l33 67q-66 -26 -101.5 -87.5t-35.5 -139.5q0 -50 -38.5 -201t-39.5 -187q12 28 46.5 106t51.5 122q18 49 39.5 158.5t44.5 161.5z M434 190q47 27 87.5 111t65 183.5t38.5 192.5t14 152q0 11 -3 21l-28 -64q-24 -60 -49 -168t-41 -153q-35 -97 -123 -287q24 3 39 12z" />
<glyph unicode="&#xf9;" horiz-adv-x="968" d="M526 1221q-23 0 -59.5 59.5t-42.5 89.5q-4 22 -35 75t-31 79q0 29 63.5 61.5t82.5 32.5q26 0 66.5 -56.5t47.5 -88.5q3 -16 30.5 -79t27.5 -79q0 -29 -56.5 -61.5t-93.5 -32.5zM883 821q0 -33 -49 -260q-7 -30 -31 -119t-44 -163t-20 -82q0 -21 37 -21q26 0 47.5 14.5 t22.5 14.5q18 0 27.5 -10.5t9.5 -42.5q0 -33 -17 -77t-34 -54q-71 -44 -195 -44q-47 0 -91 63q-81 -69 -194 -69q-135 0 -218 78.5t-83 210.5q0 46 33 207t33 217q0 37 5.5 87t14.5 101t17 91t16 77t8 39q4 21 50 31t94 10q79 0 79 -57q0 -15 -41 -216.5t-41 -264.5 q0 -57 -23.5 -164t-23.5 -150q0 -42 16 -64t56 -22q59 0 111.5 44t88.5 104q16 70 46.5 174.5t34.5 124.5q32 156 32 245q0 46 14.5 118t14.5 77q0 21 29.5 35t72.5 14q37 0 80 -17t43 -36q0 -13 -14 -109.5t-14 -134.5z" />
<glyph unicode="&#xfa;" horiz-adv-x="968" d="M625 1223q-30 0 -74.5 35t-44.5 65q0 26 55.5 101t121.5 140.5t91 65.5q33 0 69 -40t36 -74q0 -32 -114.5 -162.5t-139.5 -130.5zM883 821q0 -33 -49 -260q-7 -30 -31 -119t-44 -163t-20 -82q0 -21 37 -21q26 0 47.5 14.5t22.5 14.5q18 0 27.5 -10.5t9.5 -42.5 q0 -33 -17 -77t-34 -54q-71 -44 -195 -44q-47 0 -91 63q-81 -69 -194 -69q-135 0 -218 78.5t-83 210.5q0 46 33 207t33 217q0 37 5.5 87t14.5 101t17 91t16 77t8 39q4 21 50 31t94 10q79 0 79 -57q0 -15 -41 -216.5t-41 -264.5q0 -57 -23.5 -164t-23.5 -150q0 -42 16 -64 t56 -22q59 0 111.5 44t88.5 104q16 70 46.5 174.5t34.5 124.5q32 156 32 245q0 46 14.5 118t14.5 77q0 21 29.5 35t72.5 14q37 0 80 -17t43 -36q0 -13 -14 -109.5t-14 -134.5z" />
<glyph unicode="&#xfb;" horiz-adv-x="968" d="M457 1225q-33 0 -92.5 27t-59.5 55q0 17 46 67.5t105.5 107t69.5 68.5q0 1 6.5 7.5t7.5 8t7 7.5t8.5 7.5t8.5 5.5t10 5l10 2.5t12 1.5q29 0 77 -10.5t56 -25.5q4 -7 10.5 -21.5t10.5 -21.5q1 -2 12 -21.5t16 -29t16 -29.5t16.5 -33.5t12.5 -30t10 -29t3 -22.5 q0 -23 -50 -53.5t-75 -30.5q-16 0 -35.5 28t-39 67.5t-24.5 47.5q-13 -8 -49 -47.5t-67.5 -73.5t-38.5 -34zM883 821q0 -33 -49 -260q-7 -30 -31 -119t-44 -163t-20 -82q0 -21 37 -21q26 0 47.5 14.5t22.5 14.5q18 0 27.5 -10.5t9.5 -42.5q0 -33 -17 -77t-34 -54 q-71 -44 -195 -44q-47 0 -91 63q-81 -69 -194 -69q-135 0 -218 78.5t-83 210.5q0 46 33 207t33 217q0 37 5.5 87t14.5 101t17 91t16 77t8 39q4 21 50 31t94 10q79 0 79 -57q0 -15 -41 -216.5t-41 -264.5q0 -57 -23.5 -164t-23.5 -150q0 -42 16 -64t56 -22q59 0 111.5 44 t88.5 104q16 70 46.5 174.5t34.5 124.5q32 156 32 245q0 46 14.5 118t14.5 77q0 21 29.5 35t72.5 14q37 0 80 -17t43 -36q0 -13 -14 -109.5t-14 -134.5z" />
<glyph unicode="&#xfc;" horiz-adv-x="968" d="M418 1270q-109 0 -109 98q0 137 144 137q41 -1 63.5 -25t22.5 -65q0 -57 -33 -101t-88 -44zM778 1272q-24 0 -36.5 0.5t-32 4.5t-29 11.5t-17.5 22.5t-8 37q0 60 30 104.5t87 44.5q27 0 43 -2t33.5 -9t26 -23t8.5 -42q0 -58 -26 -103.5t-79 -45.5zM883 821 q0 -33 -49 -260q-7 -30 -31 -119t-44 -163t-20 -82q0 -21 37 -21q26 0 47.5 14.5t22.5 14.5q18 0 27.5 -10.5t9.5 -42.5q0 -33 -17 -77t-34 -54q-71 -44 -195 -44q-47 0 -91 63q-81 -69 -194 -69q-135 0 -218 78.5t-83 210.5q0 46 33 207t33 217q0 37 5.5 87t14.5 101t17 91 t16 77t8 39q4 21 50 31t94 10q79 0 79 -57q0 -15 -41 -216.5t-41 -264.5q0 -57 -23.5 -164t-23.5 -150q0 -42 16 -64t56 -22q59 0 111.5 44t88.5 104q16 70 46.5 174.5t34.5 124.5q32 156 32 245q0 46 14.5 118t14.5 77q0 21 29.5 35t72.5 14q37 0 80 -17t43 -36 q0 -13 -14 -109.5t-14 -134.5z" />
<glyph unicode="&#xfd;" horiz-adv-x="909" d="M592 1223q-30 0 -74.5 35t-44.5 65q0 26 55.5 101t121.5 140.5t91 65.5q33 0 69 -40t36 -74q0 -32 -114.5 -162.5t-139.5 -130.5zM715 1124q37 0 103.5 -27.5t66.5 -47.5q0 -54 -47 -193q-10 -30 -24 -148t-27 -251t-17 -160q-6 -43 -31.5 -151.5t-27.5 -131.5 q0 -4 -2.5 -37.5t-4.5 -52t-8.5 -54.5t-15.5 -71q-21 -79 -95 -173.5t-143 -94.5q-155 0 -243 23q-49 13 -88 47.5t-39 56.5q0 26 31 85.5t53 59.5q19 0 52.5 -19t45.5 -22q70 -18 143 -18q21 0 41.5 50t32.5 114q1 5 11 107q-116 -58 -187 -58q-75 0 -131 52t-81.5 126.5 t-25.5 157.5q0 36 26 165.5t26 170.5q0 46 6 99t12.5 89.5t19.5 101.5t19 97q14 92 59 92q54 0 115 -16.5t61 -40.5q0 -7 -21.5 -91t-43 -191.5t-21.5 -172.5q0 -40 -17 -147t-17 -150q0 -45 11.5 -91t33.5 -46q28 0 66.5 20.5t70 44.5t66.5 54q7 6 10 9q9 37 12 68 q1 6 15.5 155.5t27.5 253t24 144.5q58 213 97 213z" />
<glyph unicode="&#xfe;" horiz-adv-x="901" d="M600 1130q58 0 103 -30.5t71 -75.5t42.5 -105.5t22 -113t5.5 -105.5t-9 -126t-32.5 -166t-57.5 -174t-90.5 -146.5t-124.5 -87.5q-72 -23 -229 -23q-43 0 -64 2l-8 -51q-3 -21 -5.5 -91.5t-10.5 -110.5q-1 -3 -2 -11.5t-2 -11.5t-2.5 -9t-3 -8.5t-4 -6.5t-5.5 -5.5 t-7.5 -2.5t-10.5 -1q-184 0 -184 51q0 130 21 272.5t60.5 333t53.5 273.5q9 56 38 165.5t38 164.5q9 60 21 174.5t14 132.5q11 112 24 158q7 24 72.5 51t95.5 27q37 0 52.5 -9t15.5 -43q0 -35 -37 -300q59 9 139 9zM446 197q42 8 77 72t55.5 149t31.5 161.5t11 123.5 q0 208 -103 208q-37 0 -88 -7q-9 -50 -36 -151t-36 -153q-11 -64 -82 -413q10 1 73.5 2.5t96.5 7.5z" />
<glyph unicode="&#xff;" horiz-adv-x="909" d="M385 1270q-109 0 -109 98q0 137 144 137q41 -1 63.5 -25t22.5 -65q0 -57 -33 -101t-88 -44zM745 1272q-24 0 -36 0.5t-31.5 4.5t-29.5 11.5t-17.5 22.5t-7.5 37q0 60 29.5 104.5t86.5 44.5q27 0 43 -2t33.5 -9t26 -23t8.5 -42q0 -58 -26 -103.5t-79 -45.5zM715 1124 q37 0 103.5 -27.5t66.5 -47.5q0 -54 -47 -193q-10 -30 -24 -148t-27 -251t-17 -160q-6 -43 -31.5 -151.5t-27.5 -131.5q0 -4 -2.5 -37.5t-4.5 -52t-8.5 -54.5t-15.5 -71q-21 -79 -95 -173.5t-143 -94.5q-155 0 -243 23q-49 13 -88 47.5t-39 56.5q0 26 31 85.5t53 59.5 q19 0 52.5 -19t45.5 -22q70 -18 143 -18q21 0 41.5 50t32.5 114q1 5 11 107q-116 -58 -187 -58q-75 0 -131 52t-81.5 126.5t-25.5 157.5q0 36 26 165.5t26 170.5q0 46 6 99t12.5 89.5t19.5 101.5t19 97q14 92 59 92q54 0 115 -16.5t61 -40.5q0 -7 -21.5 -91t-43 -191.5 t-21.5 -172.5q0 -40 -17 -147t-17 -150q0 -45 11.5 -91t33.5 -46q28 0 66.5 20.5t70 44.5t66.5 54q7 6 10 9q9 37 12 68q1 6 15.5 155.5t27.5 253t24 144.5q58 213 97 213z" />
<glyph unicode="&#x100;" horiz-adv-x="993" d="M381 1618q-18 0 -32.5 50.5t-14.5 74.5q0 40 114.5 67t194.5 27q46 0 148 -33t102 -65q0 -20 -29.5 -72.5t-46.5 -52.5q-36 0 -107.5 18.5t-107.5 18.5q-37 0 -110.5 -16.5t-110.5 -16.5zM848 903q8 -172 8 -416q0 -62 13.5 -240t13.5 -206q0 -22 -49 -39.5t-84 -17.5 q-30 0 -66 16q-26 10 -45 311q-51 3 -105 8.5t-127.5 15.5t-110.5 14l-77 -210q-7 -20 -14.5 -45.5t-13 -42.5t-11.5 -28q-17 -25 -112 -25q-119 0 -119 41q0 11 7.5 36.5t20.5 62.5t17 50q23 72 91 241.5t91 242.5q8 27 31.5 119t40.5 153q9 32 23.5 69.5t25.5 62.5 t30.5 69t28.5 65q85 188 121 220q26 22 180 22q52 0 75 -8.5t28 -28.5q1 -7 28 -53t31 -82q22 -228 29 -377zM393 594l-15 -34q45 -5 139.5 -18t115.5 -16v367q0 88 -9.5 187t-21.5 134q-26 -28 -72.5 -147.5t-68.5 -192.5q-8 -26 -32.5 -141t-35.5 -139z" />
<glyph unicode="&#x101;" horiz-adv-x="952" d="M379 1270q-18 0 -32.5 50.5t-14.5 74.5q0 40 114.5 67t194.5 27q46 0 148 -33t102 -65q0 -20 -29.5 -72.5t-46.5 -52.5q-36 0 -107.5 18.5t-107.5 18.5q-37 0 -110.5 -16.5t-110.5 -16.5zM836 711q-9 -45 -37.5 -184.5t-38.5 -192.5q-6 -34 -6 -105q0 -34 18 -41 q25 -8 56.5 -35.5t31.5 -43.5q0 -33 -33.5 -84.5t-52.5 -51.5q-26 0 -84 13.5t-80 27.5q-11 8 -24 22q-60 -24 -133 -42.5t-123 -18.5q-72 0 -139.5 52t-108.5 136t-41 173q0 54 24.5 165.5t26.5 147.5q2 25 7 52.5t16.5 67t16.5 57t22 67t18 53.5q7 22 40 54.5t78.5 64 t102.5 54t105 22.5q99 0 195 -49q14 19 78.5 37t98.5 18q23 0 29 -11.5t6 -39.5q0 -18 -33 -154q-12 -46 -22 -127t-14 -104zM545 365q9 43 34 186.5t33 179.5q4 17 21 146q-16 23 -45.5 39t-52.5 16q-38 0 -93.5 -35.5t-72.5 -69.5q-53 -116 -58 -202q-2 -35 -23.5 -146 t-21.5 -137q0 -55 31 -105.5t70 -50.5q28 0 81 14.5t88 31.5q0 95 9 133z" />
<glyph unicode="&#x102;" horiz-adv-x="993" d="M580 1571q-68 0 -131.5 61t-63.5 131q0 16 2.5 32.5t7 40t6.5 32.5q4 24 38 33.5t67 9.5q24 0 49 -11.5t25 -27.5q0 -2 -5.5 -21t-5.5 -34q0 -74 33 -74q31 0 48 13.5t34 43.5q12 20 21.5 54t11.5 36q23 27 59 27q24 0 65.5 -14.5t41.5 -34.5q0 -74 -29.5 -142.5 t-85.5 -111.5q-33 -27 -78 -35t-110 -8zM848 903q8 -172 8 -416q0 -62 13.5 -240t13.5 -206q0 -22 -49 -39.5t-84 -17.5q-30 0 -66 16q-26 10 -45 311q-51 3 -105 8.5t-127.5 15.5t-110.5 14l-77 -210q-7 -20 -14.5 -45.5t-13 -42.5t-11.5 -28q-17 -25 -112 -25 q-119 0 -119 41q0 11 7.5 36.5t20.5 62.5t17 50q23 72 91 241.5t91 242.5q8 27 31.5 119t40.5 153q9 32 23.5 69.5t25.5 62.5t30.5 69t28.5 65q85 188 121 220q26 22 180 22q52 0 75 -8.5t28 -28.5q1 -7 28 -53t31 -82q22 -228 29 -377zM393 594l-15 -34q45 -5 139.5 -18 t115.5 -16v367q0 88 -9.5 187t-21.5 134q-26 -28 -72.5 -147.5t-68.5 -192.5q-8 -26 -32.5 -141t-35.5 -139z" />
<glyph unicode="&#x103;" horiz-adv-x="952" d="M578 1223q-68 0 -131.5 61t-63.5 131q0 16 2.5 32.5t7 40t6.5 32.5q4 24 38 33.5t67 9.5q24 0 49 -11.5t25 -27.5q0 -2 -5.5 -21.5t-5.5 -34.5q0 -73 33 -73q31 0 48 13.5t34 43.5q12 20 21.5 54t11.5 36q23 27 59 27q24 0 65.5 -14.5t41.5 -34.5q0 -74 -29.5 -142.5 t-85.5 -111.5q-33 -27 -78 -35t-110 -8zM836 711q-9 -45 -37.5 -184.5t-38.5 -192.5q-6 -34 -6 -105q0 -34 18 -41q25 -8 56.5 -35.5t31.5 -43.5q0 -33 -33.5 -84.5t-52.5 -51.5q-26 0 -84 13.5t-80 27.5q-11 8 -24 22q-60 -24 -133 -42.5t-123 -18.5q-72 0 -139.5 52 t-108.5 136t-41 173q0 54 24.5 165.5t26.5 147.5q2 25 7 52.5t16.5 67t16.5 57t22 67t18 53.5q7 22 40 54.5t78.5 64t102.5 54t105 22.5q99 0 195 -49q14 19 78.5 37t98.5 18q23 0 29 -11.5t6 -39.5q0 -18 -33 -154q-12 -46 -22 -127t-14 -104zM545 365q9 43 34 186.5 t33 179.5q4 17 21 146q-16 23 -45.5 39t-52.5 16q-38 0 -93.5 -35.5t-72.5 -69.5q-53 -116 -58 -202q-2 -35 -23.5 -146t-21.5 -137q0 -55 31 -105.5t70 -50.5q28 0 81 14.5t88 31.5q0 95 9 133z" />
<glyph unicode="&#x104;" horiz-adv-x="993" d="M865 17q-21 -21 -76.5 -53t-97.5 -56.5t-42 -34.5q0 -27 25 -27q13 0 36.5 6.5t34.5 6.5q19 0 45.5 -44.5t26.5 -72.5q0 -27 -68.5 -48.5t-109.5 -21.5q-84 0 -140.5 42.5t-56.5 107.5q0 57 16.5 97t42 65t79.5 65q40 30 79 46q-11 85 -20 216q-51 3 -105 8.5 t-127.5 15.5t-110.5 14l-77 -210q-7 -20 -14.5 -45.5t-13 -42.5t-11.5 -28q-17 -25 -112 -25q-119 0 -119 41q0 11 7.5 36.5t20.5 62.5t17 50q23 72 91 241.5t91 242.5q8 27 31.5 119t40.5 153q9 32 23.5 69.5t25.5 62.5t30.5 69t28.5 65q85 188 121 220q26 22 180 22 q52 0 75 -8.5t28 -28.5q1 -7 28 -53t31 -82q22 -228 29 -377q8 -172 8 -416q0 -62 13.5 -240t13.5 -206q0 -13 -18 -24zM393 594l-15 -34q45 -5 139.5 -18t115.5 -16v367q0 88 -9.5 187t-21.5 134q-26 -28 -72.5 -147.5t-68.5 -192.5q-8 -26 -32.5 -141t-35.5 -139z" />
<glyph unicode="&#x105;" horiz-adv-x="952" d="M836 711q-9 -45 -37.5 -184.5t-38.5 -192.5q-6 -34 -6 -105q0 -34 18 -41q25 -8 56.5 -35.5t31.5 -43.5q0 -42 -45 -101q41 -17 41 -26q0 -21 -58 -57.5t-115.5 -68.5t-57.5 -44q0 -27 24 -27q13 0 37 6t35 6q19 0 45.5 -44t26.5 -72q0 -27 -69 -48.5t-110 -21.5 q-84 0 -140 42t-56 107q0 57 16.5 97t42 65.5t78.5 65.5q21 17 49 31q-13 10 -18 17q-60 -24 -133 -42.5t-123 -18.5q-72 0 -139.5 52t-108.5 136t-41 173q0 54 24.5 165.5t26.5 147.5q2 25 7 52.5t16.5 67t16.5 57t22 67t18 53.5q7 22 40 54.5t78.5 64t102.5 54t105 22.5 q99 0 195 -49q14 19 78.5 37t98.5 18q23 0 29 -11.5t6 -39.5q0 -18 -33 -154q-12 -46 -22 -127t-14 -104zM266 342q0 -55 31 -105.5t70 -50.5q28 0 81 14.5t88 31.5q0 95 9 133q9 43 34 186.5t33 179.5q4 17 21 146q-16 23 -45.5 39t-52.5 16q-38 0 -93.5 -35.5t-72.5 -69.5 q-53 -116 -58 -202q-2 -35 -23.5 -146t-21.5 -137z" />
<glyph unicode="&#x106;" horiz-adv-x="929" d="M864 1978q33 0 69 -40t36 -74q0 -32 -114.5 -162.5t-139.5 -130.5q-30 0 -74.5 35t-44.5 65q0 26 55.5 101t121.5 140.5t91 65.5zM674 1473q116 0 203.5 -98t87.5 -226q0 -27 -2 -33q-7 -26 -70.5 -49t-97.5 -23q-17 0 -26.5 22.5t-16 54.5t-17 64t-37.5 54.5t-69 22.5 q-61 0 -96 -20.5t-62 -76.5q-38 -81 -85.5 -259.5t-61.5 -254.5q-11 -58 -11 -209q0 -60 13 -129.5t41 -97.5q25 -25 116 -25q23 0 41.5 5t31.5 11t24 19.5t17 24t13 31t10 33t9 38.5t10 41q4 17 48 25t77 8q80 0 80 -76q0 -96 -45 -192t-121 -138q-77 -43 -252 -43 q-113 0 -180 33q-48 24 -82 78t-49 119.5t-21 116.5t-6 94q0 206 14 270q14 63 37.5 159.5t68.5 244.5t77 200q35 57 81.5 94.5t100.5 55.5t101.5 24.5t105.5 6.5z" />
<glyph unicode="&#x107;" horiz-adv-x="839" d="M760 1630q33 0 68.5 -40t35.5 -74q0 -32 -114.5 -162.5t-139.5 -130.5q-30 0 -74 34.5t-44 65.5q0 26 55.5 101t121.5 140.5t91 65.5zM537 1137q116 0 211.5 -79.5t95.5 -193.5q0 -35 -64 -55.5t-110 -20.5q-12 0 -19.5 22t-14 48t-32 47.5t-69.5 20.5q-60 -1 -101 -49.5 t-72 -141.5q-4 -14 -34.5 -94t-36.5 -117q-7 -46 -8 -94t1.5 -97t2.5 -59q0 -55 25.5 -75.5t80.5 -20.5q33 0 59.5 10t41.5 21t27.5 33.5t16.5 33.5t10.5 35t6.5 25q11 37 143 37q56 0 56 -66q0 -147 -108.5 -242.5t-252.5 -95.5q-150 0 -241 81.5t-91 230.5q0 18 -1 63 t-1 73.5t3 71.5t10 80q18 105 102 295q118 273 363 273z" />
<glyph unicode="&#x108;" horiz-adv-x="929" d="M686 1944q28 0 76.5 -11t56.5 -26q4 -7 10.5 -21.5t10.5 -21.5q1 -2 12 -21.5t16 -29t16 -29.5t16.5 -33.5t12.5 -30t10 -29t3 -22.5q0 -23 -50 -53.5t-75 -30.5q-16 0 -35.5 28t-39 68t-24.5 48q-13 -8 -49 -47.5t-67.5 -74t-38.5 -34.5q-33 0 -92.5 27t-59.5 55 q0 17 46 67.5t105.5 107t69.5 68.5q1 1 7.5 8.5t8.5 9.5t8.5 8t10 8.5t10 6t12.5 4.5t13 1zM674 1473q116 0 203.5 -98t87.5 -226q0 -27 -2 -33q-7 -26 -70.5 -49t-97.5 -23q-17 0 -26.5 22.5t-16 54.5t-17 64t-37.5 54.5t-69 22.5q-61 0 -96 -20.5t-62 -76.5 q-38 -81 -85.5 -259.5t-61.5 -254.5q-11 -58 -11 -209q0 -60 13 -129.5t41 -97.5q25 -25 116 -25q23 0 41.5 5t31.5 11t24 19.5t17 24t13 31t10 33t9 38.5t10 41q4 17 48 25t77 8q80 0 80 -76q0 -96 -45 -192t-121 -138q-77 -43 -252 -43q-113 0 -180 33q-48 24 -82 78 t-49 119.5t-21 116.5t-6 94q0 206 14 270q14 63 37.5 159.5t68.5 244.5t77 200q35 57 81.5 94.5t100.5 55.5t101.5 24.5t105.5 6.5z" />
<glyph unicode="&#x109;" horiz-adv-x="839" d="M582 1595q29 0 77 -10.5t56 -25.5q4 -7 10 -21.5t10 -21.5q1 -2 12 -21.5t16 -29t16 -29.5t16.5 -33.5t12.5 -30t10 -29t3 -22.5q0 -23 -50 -53.5t-75 -30.5q-16 0 -35.5 28t-38.5 67.5t-24 47.5q-13 -8 -49 -47.5t-68 -73.5t-39 -34q-33 0 -92 27t-59 55q0 17 46 67.5 t105.5 107t69.5 68.5q0 1 6.5 7.5t7.5 8t7 7.5t8.5 7.5t8.5 5.5t10 5l10 2.5t12 1.5zM537 1137q116 0 211.5 -79.5t95.5 -193.5q0 -35 -64 -55.5t-110 -20.5q-12 0 -19.5 22t-14 48t-32 47.5t-69.5 20.5q-60 -1 -101 -49.5t-72 -141.5q-4 -14 -34.5 -94t-36.5 -117 q-7 -46 -8 -94t1.5 -97t2.5 -59q0 -55 25.5 -75.5t80.5 -20.5q33 0 59.5 10t41.5 21t27.5 33.5t16.5 33.5t10.5 35t6.5 25q11 37 143 37q56 0 56 -66q0 -147 -108.5 -242.5t-252.5 -95.5q-150 0 -241 81.5t-91 230.5q0 18 -1 63t-1 73.5t3 71.5t10 80q18 105 102 295 q118 273 363 273z" />
<glyph unicode="&#x10a;" horiz-adv-x="929" d="M702 1853q43 0 73 -19t30 -60q0 -177 -154 -177q-102 0 -102 93q0 163 153 163zM674 1473q116 0 203.5 -98t87.5 -226q0 -27 -2 -33q-7 -26 -70.5 -49t-97.5 -23q-17 0 -26.5 22.5t-16 54.5t-17 64t-37.5 54.5t-69 22.5q-61 0 -96 -20.5t-62 -76.5q-38 -81 -85.5 -259.5 t-61.5 -254.5q-11 -58 -11 -209q0 -60 13 -129.5t41 -97.5q25 -25 116 -25q23 0 41.5 5t31.5 11t24 19.5t17 24t13 31t10 33t9 38.5t10 41q4 17 48 25t77 8q80 0 80 -76q0 -96 -45 -192t-121 -138q-77 -43 -252 -43q-113 0 -180 33q-48 24 -82 78t-49 119.5t-21 116.5t-6 94 q0 206 14 270q14 63 37.5 159.5t68.5 244.5t77 200q35 57 81.5 94.5t100.5 55.5t101.5 24.5t105.5 6.5z" />
<glyph unicode="&#x10b;" horiz-adv-x="839" d="M598 1505q43 0 72.5 -19.5t29.5 -60.5q0 -176 -153 -176q-103 0 -103 92q0 79 38.5 121.5t115.5 42.5zM537 1137q116 0 211.5 -79.5t95.5 -193.5q0 -35 -64 -55.5t-110 -20.5q-12 0 -19.5 22t-14 48t-32 47.5t-69.5 20.5q-60 -1 -101 -49.5t-72 -141.5q-4 -14 -34.5 -94 t-36.5 -117q-7 -46 -8 -94t1.5 -97t2.5 -59q0 -55 25.5 -75.5t80.5 -20.5q33 0 59.5 10t41.5 21t27.5 33.5t16.5 33.5t10.5 35t6.5 25q11 37 143 37q56 0 56 -66q0 -147 -108.5 -242.5t-252.5 -95.5q-150 0 -241 81.5t-91 230.5q0 18 -1 63t-1 73.5t3 71.5t10 80 q18 105 102 295q118 273 363 273z" />
<glyph unicode="&#x10c;" horiz-adv-x="929" d="M907 1933q15 0 56 -51t41 -67q0 -13 -23 -35.5t-58.5 -50t-43.5 -35.5q-33 -32 -107 -78.5t-104 -46.5q-28 0 -58 24t-72 77l-42 52q-19 22 -48.5 64t-29.5 57q0 29 49.5 54.5t81.5 25.5q18 0 73 -66.5t60 -66.5q17 0 68 34t67 52q51 57 90 57zM674 1473q116 0 203.5 -98 t87.5 -226q0 -27 -2 -33q-7 -26 -70.5 -49t-97.5 -23q-17 0 -26.5 22.5t-16 54.5t-17 64t-37.5 54.5t-69 22.5q-61 0 -96 -20.5t-62 -76.5q-38 -81 -85.5 -259.5t-61.5 -254.5q-11 -58 -11 -209q0 -60 13 -129.5t41 -97.5q25 -25 116 -25q23 0 41.5 5t31.5 11t24 19.5t17 24 t13 31t10 33t9 38.5t10 41q4 17 48 25t77 8q80 0 80 -76q0 -96 -45 -192t-121 -138q-77 -43 -252 -43q-113 0 -180 33q-48 24 -82 78t-49 119.5t-21 116.5t-6 94q0 206 14 270q14 63 37.5 159.5t68.5 244.5t77 200q35 57 81.5 94.5t100.5 55.5t101.5 24.5t105.5 6.5z" />
<glyph unicode="&#x10d;" horiz-adv-x="839" d="M803 1585q14 0 55 -51.5t41 -67.5q0 -13 -23 -35t-58.5 -49.5t-43.5 -35.5q-33 -32 -107 -78.5t-104 -46.5q-28 0 -58 24t-72 77l-42 52q-19 22 -48.5 64t-29.5 57q0 29 49.5 54.5t81.5 25.5q18 0 73.5 -66.5t60.5 -66.5q17 0 68 34t67 52q51 57 90 57zM537 1137 q116 0 211.5 -79.5t95.5 -193.5q0 -35 -64 -55.5t-110 -20.5q-12 0 -19.5 22t-14 48t-32 47.5t-69.5 20.5q-60 -1 -101 -49.5t-72 -141.5q-4 -14 -34.5 -94t-36.5 -117q-7 -46 -8 -94t1.5 -97t2.5 -59q0 -55 25.5 -75.5t80.5 -20.5q33 0 59.5 10t41.5 21t27.5 33.5 t16.5 33.5t10.5 35t6.5 25q11 37 143 37q56 0 56 -66q0 -147 -108.5 -242.5t-252.5 -95.5q-150 0 -241 81.5t-91 230.5q0 18 -1 63t-1 73.5t3 71.5t10 80q18 105 102 295q118 273 363 273z" />
<glyph unicode="&#x10e;" horiz-adv-x="974" d="M815 1933q14 0 55 -51t41 -67q0 -13 -23 -35.5t-58.5 -50t-43.5 -35.5q-33 -32 -107 -78.5t-104 -46.5q-28 0 -58 24t-72 77l-42 52q-19 21 -48 63.5t-29 57.5q0 29 49.5 54.5t81.5 25.5q18 0 73 -66.5t60 -66.5q17 0 68 34t67 52q51 57 90 57zM438 1475q126 0 225.5 -41 t158.5 -108t89.5 -145.5t30.5 -160.5q0 -35 -14.5 -139t-14.5 -144q0 -76 -28 -224t-78 -263q-33 -77 -69.5 -127t-75.5 -81.5t-97 -47t-117 -20.5t-153 -5q-17 0 -32 0.5t-28.5 2.5t-23 3t-21 4.5t-17.5 5t-17 6t-14.5 6t-15 7t-13.5 6.5q-34 16 -57 39t-23 47q0 13 7.5 62 t12.5 69q6 27 27 112t30.5 126t23 108t22.5 123q10 61 20 182.5t17 174.5q52 353 102 385q36 23 65 30t78 7zM465 1262q-5 -24 -22 -94.5t-23 -110.5q-10 -59 -20 -177t-17 -169q-14 -95 -39 -215.5t-42 -201.5t-17 -112q0 -10 61 -10q120 0 173 37.5t93 146.5 q35 93 53.5 203.5t18.5 171.5q0 29 16.5 134t16.5 141q0 104 -70 180t-182 76z" />
<glyph unicode="&#x10f;" horiz-adv-x="999" d="M1143 1581q34 0 57.5 -6t34 -15t14.5 -16.5t4 -15.5q0 -42 -14 -129q-3 -18 -13.5 -55.5t-27 -81.5t-39.5 -76.5t-45 -32.5q-30 0 -68 36t-38 66q0 23 20 80.5t23 75.5q3 16 4.5 40t2 40t5 34.5t12.5 29.5t25 18.5t43 7.5zM920 1485q23 0 35.5 -2t23 -13t10.5 -32 q0 -36 -37 -240.5t-37 -253.5q0 -30 -30 -119t-39 -143q-6 -37 -48 -209t-42 -221q0 -33 5.5 -48.5t24.5 -15.5q18 0 50.5 16.5t48.5 16.5q12 0 12 -149q0 -20 -18 -36.5t-41 -25.5q-39 -18 -136 -18q-75 0 -117 47q-117 -68 -196 -68q-65 0 -116 12.5t-86 32.5t-59.5 55 t-38 69t-21 86t-9.5 95.5t-2 106.5q0 97 45.5 252t49.5 178q22 121 124 195.5t285 74.5q45 0 143 -41q17 125 64 336q6 30 62 46t90 16zM531 233l-1 9q0 92 43.5 253.5t51.5 213.5q2 9 41 153q-22 23 -53.5 40.5t-53.5 17.5q-78 0 -139 -38t-74 -104q-6 -36 -36.5 -170 t-30.5 -180v-41.5t1 -41.5t4 -43t7 -38t11 -35t16.5 -26t23.5 -19t31 -6q61 0 158 55z" />
<glyph unicode="&#x110;" horiz-adv-x="960" d="M463 1475q126 0 225.5 -41t158.5 -108t89.5 -145.5t30.5 -160.5q0 -35 -14.5 -139t-14.5 -144q0 -75 -28.5 -223.5t-78.5 -263.5q-33 -77 -69.5 -127t-75.5 -81.5t-97 -47t-117 -20.5t-153 -5q-17 0 -32 0.5t-28.5 2.5t-23 3t-21 4.5t-17.5 5t-17 6t-14.5 6t-15 7 t-13.5 6.5q-34 16 -57 39t-23 47q0 13 8 61.5t13 69.5q79 333 96 430q-40 -4 -61 -4q-22 0 -22 47q0 37 13 103.5t32 66.5q25 0 63 2q10 124 18 181q52 353 102 385q36 23 65.5 30t78.5 7zM709 731q0 29 16 134t16 141q0 104 -70 180t-182 76q-5 -24 -22 -94.5t-23 -110.5 q-10 -61 -16 -166q37 0 107.5 -16t70.5 -42q0 -37 -19.5 -106.5t-40.5 -69.5q-9 0 -68 11t-75 12q-14 -89 -38.5 -203.5t-40 -189.5t-15.5 -105q0 -10 62 -10q120 0 173 37.5t93 146.5q35 93 53.5 203.5t18.5 171.5z" />
<glyph unicode="&#x111;" horiz-adv-x="999" d="M981 1363l43 -5q6 -1 20 -2t20.5 -1.5t16.5 -3t14.5 -6t8.5 -10.5t4 -16q0 -33 -19.5 -91.5t-37.5 -58.5q-47 0 -103 7q-33 -184 -33 -232q0 -30 -30 -119t-39 -143q-6 -37 -48 -209t-42 -221q0 -33 5.5 -48.5t24.5 -15.5q18 0 50.5 16.5t48.5 16.5q12 0 12 -149 q0 -20 -18 -36.5t-41 -25.5q-39 -18 -136 -18q-75 0 -117 47q-117 -68 -196 -68q-65 0 -116 12.5t-86 32.5t-59.5 55t-38 69t-21 86t-9.5 95.5t-2 106.5q0 97 45.5 252t49.5 178q22 121 124 195.5t285 74.5q45 0 143 -41q6 40 19 113q-13 0 -58 -4t-57 -4q-30 0 -39.5 8 t-9.5 23q0 20 8.5 69.5t20.5 65.5t68 23t94 7h10q7 32 8 35q6 30 62 46t90 16q23 0 35.5 -2t23 -13t10.5 -32q0 -22 -8 -75zM530 233v9q0 92 43.5 253t51.5 213q2 12 41 154q-22 23 -53.5 40t-53.5 17q-78 0 -139 -37.5t-74 -103.5q-6 -36 -36.5 -170t-30.5 -180v-41.5 t1 -41.5t4 -43t7 -38t11 -35t16.5 -26t23.5 -19t31 -6q60 0 157 55z" />
<glyph unicode="&#x112;" horiz-adv-x="792" d="M408 1618q-18 0 -33 50.5t-15 74.5q0 40 115 67t195 27q46 0 148 -33t102 -65q0 -20 -29.5 -72.5t-46.5 -52.5q-36 0 -107.5 18.5t-107.5 18.5q-37 0 -110.5 -16.5t-110.5 -16.5zM809 1444q4 -1 9.5 -2.5t9 -2t8 -2t7 -2.5t6 -2.5t5.5 -3t4.5 -3.5t3.5 -4.5t1.5 -5.5 t0.5 -7q0 -35 -21.5 -99.5t-45.5 -64.5h-93q-165 0 -253 -18q-31 -123 -37 -162q-5 -30 -4 -68.5t-5 -70.5l-7 -35q74 8 112 8q37 0 101.5 -4t101.5 -4q39 0 39 -168q0 -17 -21 -30t-45 -13q-38 0 -104.5 5t-104.5 5q-70 0 -126 -8q-24 -107 -32 -166q-24 -187 -24 -321 q0 -11 31 -11q46 0 131 22.5t131 22.5q23 0 45 -61.5t22 -95.5q0 -11 -20 -26.5t-45 -22.5q-67 -21 -174.5 -34.5t-145.5 -13.5q-107 0 -176 5q-28 2 -28 145q0 196 34 412q1 7 33.5 155.5t48.5 245.5q6 34 6 81.5t7 84.5q64 321 98 328q18 5 102 10q163 14 254 14 q107 0 160 -12z" />
<glyph unicode="&#x113;" horiz-adv-x="913" d="M356 1270q-18 0 -32.5 50.5t-14.5 74.5q0 40 114.5 67t194.5 27q46 0 148 -33t102 -65q0 -20 -29 -72.5t-46 -52.5q-36 0 -107.5 18.5t-107.5 18.5q-37 0 -111 -16.5t-111 -16.5zM584 1126q82 0 140 -36.5t87.5 -100t42 -132.5t12.5 -152q0 -36 -13 -82t-42 -85.5 t-66 -39.5q-53 0 -157.5 9t-120.5 9q-51 0 -182 -19q-6 -43 -6 -91q0 -12 -0.5 -35t-0.5 -34.5t1 -31t3.5 -29.5t7 -25t11 -22.5t17 -17.5t24.5 -14.5t32.5 -7.5t41.5 -3q79 0 112 68q67 139 101 139t101 -39.5t67 -70.5q0 -18 -41 -88t-74 -121q-15 -22 -25.5 -33.5 t-38.5 -29t-77.5 -26t-120.5 -8.5q-194 0 -280.5 100t-86.5 296q0 98 19.5 197.5t56.5 232.5q52 184 156 253.5t299 69.5zM618 713q37 3 37 41q0 166 -92 166q-39 0 -66.5 -3.5t-49 -13.5t-34.5 -21t-26 -34.5t-20.5 -44.5t-20.5 -60l-10 -35q109 15 162 15q15 0 60.5 -5.5 t59.5 -4.5z" />
<glyph unicode="&#x114;" horiz-adv-x="792" d="M606 1571q-68 0 -131 61t-63 131q0 16 2.5 32.5t7 40t6.5 32.5q4 24 37.5 33.5t66.5 9.5q24 0 49 -11.5t25 -27.5q0 -2 -5 -21t-5 -34q0 -74 33 -74q31 0 48 13.5t34 43.5q12 20 21 54t11 36q23 27 60 27q24 0 65 -14.5t41 -34.5q0 -74 -29 -143t-85 -111 q-33 -27 -78 -35t-111 -8zM809 1444q4 -1 9.5 -2.5t9 -2t8 -2t7 -2.5t6 -2.5t5.5 -3t4.5 -3.5t3.5 -4.5t1.5 -5.5t0.5 -7q0 -35 -21.5 -99.5t-45.5 -64.5h-93q-165 0 -253 -18q-31 -123 -37 -162q-5 -30 -4 -68.5t-5 -70.5l-7 -35q74 8 112 8q37 0 101.5 -4t101.5 -4 q39 0 39 -168q0 -17 -21 -30t-45 -13q-38 0 -104.5 5t-104.5 5q-70 0 -126 -8q-24 -107 -32 -166q-24 -187 -24 -321q0 -11 31 -11q46 0 131 22.5t131 22.5q23 0 45 -61.5t22 -95.5q0 -11 -20 -26.5t-45 -22.5q-67 -21 -174.5 -34.5t-145.5 -13.5q-107 0 -176 5 q-28 2 -28 145q0 196 34 412q1 7 33.5 155.5t48.5 245.5q6 34 6 81.5t7 84.5q64 321 98 328q18 5 102 10q163 14 254 14q107 0 160 -12z" />
<glyph unicode="&#x115;" horiz-adv-x="913" d="M555 1223q-68 0 -131.5 61t-63.5 131q0 16 2.5 33t7.5 39t7 33q4 24 37.5 33.5t66.5 9.5q24 0 49 -11.5t25 -27.5q0 -2 -5 -21.5t-5 -34.5q0 -73 33 -73q31 0 47.5 13.5t33.5 43.5q12 20 21.5 54t11.5 36q23 27 60 27q24 0 65 -14.5t41 -34.5q0 -74 -29.5 -142.5 t-85.5 -111.5q-33 -27 -78 -35t-110 -8zM285 497q-6 -43 -6 -91q0 -12 -0.5 -35t-0.5 -34.5t1 -31t3.5 -29.5t7 -25t11 -22.5t17 -17.5t24.5 -14.5t32.5 -7.5t41.5 -3q79 0 112 68q67 139 101 139t101 -39.5t67 -70.5q0 -18 -41 -88t-74 -121q-15 -22 -25.5 -33.5t-38.5 -29 t-77.5 -26t-120.5 -8.5q-194 0 -280.5 100t-86.5 296q0 98 19.5 197.5t56.5 232.5q52 184 156 253.5t299 69.5q82 0 140 -36.5t87.5 -100t42 -132.5t12.5 -152q0 -36 -13 -82t-42 -85.5t-66 -39.5q-53 0 -157.5 9t-120.5 9q-51 0 -182 -19zM563 920q-39 0 -66.5 -3.5 t-49 -13.5t-34.5 -21t-26 -34.5t-20.5 -44.5t-20.5 -60l-10 -35q109 15 162 15q15 0 60.5 -5.5t59.5 -4.5q37 3 37 41q0 166 -92 166z" />
<glyph unicode="&#x116;" horiz-adv-x="792" d="M592 1597q-103 0 -103 93q0 163 154 163q43 0 72.5 -19t29.5 -60q0 -177 -153 -177zM809 1444q4 -1 9.5 -2.5t9 -2t8 -2t7 -2.5t6 -2.5t5.5 -3t4.5 -3.5t3.5 -4.5t1.5 -5.5t0.5 -7q0 -35 -21.5 -99.5t-45.5 -64.5h-93q-165 0 -253 -18q-31 -123 -37 -162q-5 -30 -4 -68.5 t-5 -70.5l-7 -35q74 8 112 8q37 0 101.5 -4t101.5 -4q39 0 39 -168q0 -17 -21 -30t-45 -13q-38 0 -104.5 5t-104.5 5q-70 0 -126 -8q-24 -107 -32 -166q-24 -187 -24 -321q0 -11 31 -11q46 0 131 22.5t131 22.5q23 0 45 -61.5t22 -95.5q0 -11 -20 -26.5t-45 -22.5 q-67 -21 -174.5 -34.5t-145.5 -13.5q-107 0 -176 5q-28 2 -28 145q0 196 34 412q1 7 33.5 155.5t48.5 245.5q6 34 6 81.5t7 84.5q64 321 98 328q18 5 102 10q163 14 254 14q107 0 160 -12z" />
<glyph unicode="&#x117;" horiz-adv-x="913" d="M541 1249q-103 0 -103 92q0 79 38.5 121.5t115.5 42.5q43 0 72.5 -19.5t29.5 -60.5q0 -176 -153 -176zM285 497q-6 -43 -6 -91q0 -12 -0.5 -35t-0.5 -34.5t1 -31t3.5 -29.5t7 -25t11 -22.5t17 -17.5t24.5 -14.5t32.5 -7.5t41.5 -3q79 0 112 68q67 139 101 139t101 -39.5 t67 -70.5q0 -18 -41 -88t-74 -121q-15 -22 -25.5 -33.5t-38.5 -29t-77.5 -26t-120.5 -8.5q-194 0 -280.5 100t-86.5 296q0 98 19.5 197.5t56.5 232.5q52 184 156 253.5t299 69.5q82 0 140 -36.5t87.5 -100t42 -132.5t12.5 -152q0 -36 -13 -82t-42 -85.5t-66 -39.5 q-53 0 -157.5 9t-120.5 9q-51 0 -182 -19zM563 920q-39 0 -66.5 -3.5t-49 -13.5t-34.5 -21t-26 -34.5t-20.5 -44.5t-20.5 -60l-10 -35q109 15 162 15q15 0 60.5 -5.5t59.5 -4.5q37 3 37 41q0 166 -92 166z" />
<glyph unicode="&#x118;" horiz-adv-x="792" d="M809 1444q4 -1 9.5 -2.5t9 -2t8 -2t7 -2.5t6 -2.5t5.5 -3t4.5 -3.5t3.5 -4.5t1.5 -5.5t0.5 -7q0 -35 -21.5 -99.5t-45.5 -64.5h-93q-165 0 -253 -18q-31 -123 -37 -162q-5 -30 -4 -68.5t-5 -70.5l-7 -35q74 8 112 8q37 0 101.5 -4t101.5 -4q39 0 39 -168q0 -17 -21 -30 t-45 -13q-38 0 -104.5 5t-104.5 5q-70 0 -126 -8q-21 -94 -31 -166q-25 -195 -25 -321q0 -11 31 -11q46 0 131 22.5t131 22.5q23 0 45 -61.5t22 -95.5l-2 -8q-1 -21 -59 -57t-115 -68t-57 -43q0 -27 24 -27q13 0 37 6t35 6q19 0 45.5 -44.5t26.5 -72.5q0 -27 -68.5 -48 t-109.5 -21q-84 0 -140.5 42t-56.5 107q0 82 33 131q-94 0 -154 5q-28 2 -28 145q0 196 34 412q1 7 33.5 155.5t48.5 245.5q6 34 6 81.5t7 84.5q64 321 98 328q18 5 102 10q163 14 254 14q107 0 160 -12z" />
<glyph unicode="&#x119;" horiz-adv-x="913" d="M285 497q-6 -43 -6 -92q0 -12 -0.5 -35t-0.5 -34.5t1 -31t3.5 -29.5t7 -24.5t11 -22.5t17 -17.5t24.5 -14t32.5 -7.5t41.5 -3q79 0 112 68q67 139 101 139t101 -39.5t67 -70.5q0 -18 -41 -88t-74 -121q-14 -21 -24 -32.5t-39.5 -28.5t-72.5 -25q-15 -9 -39.5 -23 t-40.5 -23t-32.5 -19t-24.5 -17.5t-8 -12.5q0 -26 25 -26q13 0 37 6t35 6q19 0 45 -44.5t26 -72.5q0 -27 -68.5 -48t-109.5 -21q-84 0 -140 42t-56 107q0 101 57 161q-199 73 -199 370q0 98 19.5 197.5t56.5 232.5q52 184 156 253.5t299 69.5q82 0 140 -36.5t87.5 -100 t42 -132.5t12.5 -152q0 -36 -13 -82t-42 -85.5t-66 -39.5q-53 0 -157.5 9t-120.5 9q-51 0 -182 -19zM563 920q-39 0 -66.5 -3.5t-49 -13.5t-34.5 -21t-26 -34.5t-20.5 -44.5t-20.5 -60l-10 -35q109 15 162 15q15 0 60.5 -5.5t59.5 -4.5q37 3 37 41q0 166 -92 166z" />
<glyph unicode="&#x11a;" horiz-adv-x="792" d="M848 1933q14 0 55 -51t41 -67q0 -13 -23 -35.5t-58.5 -50t-43.5 -35.5q-33 -32 -107 -78.5t-104 -46.5q-28 0 -58 24t-72 77l-42 52q-19 22 -48.5 64t-29.5 57q0 29 49.5 54.5t81.5 25.5q18 0 73.5 -66.5t60.5 -66.5q17 0 68 34t67 52q51 57 90 57zM809 1444 q4 -1 9.5 -2.5t9 -2t8 -2t7 -2.5t6 -2.5t5.5 -3t4.5 -3.5t3.5 -4.5t1.5 -5.5t0.5 -7q0 -35 -21.5 -99.5t-45.5 -64.5h-93q-165 0 -253 -18q-31 -123 -37 -162q-5 -30 -4 -68.5t-5 -70.5l-7 -35q74 8 112 8q37 0 101.5 -4t101.5 -4q39 0 39 -168q0 -17 -21 -30t-45 -13 q-38 0 -104.5 5t-104.5 5q-70 0 -126 -8q-24 -107 -32 -166q-24 -187 -24 -321q0 -11 31 -11q46 0 131 22.5t131 22.5q23 0 45 -61.5t22 -95.5q0 -11 -20 -26.5t-45 -22.5q-67 -21 -174.5 -34.5t-145.5 -13.5q-107 0 -176 5q-28 2 -28 145q0 196 34 412q1 7 33.5 155.5 t48.5 245.5q6 34 6 81.5t7 84.5q64 321 98 328q18 5 102 10q163 14 254 14q107 0 160 -12z" />
<glyph unicode="&#x11b;" horiz-adv-x="913" d="M797 1585q14 0 55 -51.5t41 -67.5q0 -13 -23 -35t-58.5 -49.5t-43.5 -35.5q-33 -32 -107 -78.5t-104 -46.5q-28 0 -58 24t-72 77l-42 52q-19 22 -48.5 64t-29.5 57q0 29 49.5 54.5t81.5 25.5q18 0 73 -66.5t60 -66.5q17 0 68.5 34t67.5 52q51 57 90 57zM584 1126 q82 0 140 -36.5t87.5 -100t42 -132.5t12.5 -152q0 -36 -13 -82t-42 -85.5t-66 -39.5q-53 0 -157.5 9t-120.5 9q-51 0 -182 -19q-6 -43 -6 -91q0 -12 -0.5 -35t-0.5 -34.5t1 -31t3.5 -29.5t7 -25t11 -22.5t17 -17.5t24.5 -14.5t32.5 -7.5t41.5 -3q79 0 112 68q67 139 101 139 t101 -39.5t67 -70.5q0 -18 -41 -88t-74 -121q-15 -22 -25.5 -33.5t-38.5 -29t-77.5 -26t-120.5 -8.5q-194 0 -280.5 100t-86.5 296q0 98 19.5 197.5t56.5 232.5q52 184 156 253.5t299 69.5zM618 713q37 3 37 41q0 166 -92 166q-39 0 -66.5 -3.5t-49 -13.5t-34.5 -21 t-26 -34.5t-20.5 -44.5t-20.5 -60l-10 -35q109 15 162 15q15 0 60.5 -5.5t59.5 -4.5z" />
<glyph unicode="&#x11c;" horiz-adv-x="1038" d="M711 1944q28 0 76.5 -11t56.5 -26q4 -7 10 -21.5t10 -21.5q1 -2 12 -21.5t16 -29t16 -29.5t16.5 -33.5t12.5 -30t10 -29t3 -22.5q0 -23 -50 -53.5t-75 -30.5q-16 0 -35.5 28.5t-38.5 68t-24 47.5q-13 -8 -49 -47.5t-68 -74t-39 -34.5q-33 0 -92 27t-59 55q0 17 46 67.5 t105.5 107t69.5 68.5q1 1 7.5 8.5t8.5 9.5t8.5 8t10 8.5t10 6t12.5 4.5t13 1zM668 1473q94 0 175 -35.5t133 -106.5t52 -162q0 -55 -18 -82q-7 -10 -48.5 -25t-74.5 -15q-88 0 -88 22q0 10 7 32.5t7 41.5q0 119 -174 119q-44 0 -84.5 -27t-69 -69.5t-47.5 -81.5t-30 -74 q-7 -25 -13.5 -78t-13.5 -80q-29 -116 -43.5 -176t-30.5 -159.5t-16 -170.5q0 -84 53 -121t139 -37q60 0 118 57t93 138.5t35 153.5q-13 16 -33 16q-26 0 -95 -12.5t-95 -12.5q-17 0 -28 7t-11 18q0 53 11 119.5t36 66.5q38 0 169.5 18.5t170.5 18.5q23 0 65 -43.5t42 -58.5 q0 -100 -16.5 -195t-56 -187.5t-98.5 -161.5t-151 -111t-207 -42q-162 0 -265.5 100.5t-103.5 278.5q0 27 2 56.5t3.5 52.5t7 56.5t8 51.5t11 56.5t11.5 51.5t14 56.5t13.5 52t15.5 58t15 55.5q6 22 10 77t10 77q18 65 43.5 121t66.5 112t92 95t124 63.5t158 24.5z" />
<glyph unicode="&#x11d;" horiz-adv-x="958" d="M461 1225q-33 0 -92.5 27t-59.5 55q0 17 46 67.5t105.5 107t69.5 68.5q0 1 6.5 7.5t7.5 8t7 7.5t8.5 7.5t8.5 5.5t10 5l10 2.5t12 1.5q29 0 77 -10.5t56 -25.5q4 -7 10.5 -21.5t10.5 -21.5q1 -2 12 -21.5t16 -29t16 -29.5t16.5 -33.5t12.5 -30t10 -29t3 -22.5 q0 -23 -50 -53.5t-75 -30.5q-16 0 -35.5 28t-39 67.5t-24.5 47.5q-13 -8 -49 -47.5t-67.5 -73.5t-38.5 -34zM831 1194q32 0 71.5 -16t39.5 -31q0 -38 -17 -177t-34 -196q-14 -46 -41 -202t-39 -197q-22 -77 -38 -263.5t-23 -217.5q-14 -61 -71.5 -128t-127 -110t-117.5 -43 q-53 0 -111.5 19t-96.5 45.5t-38 48.5q0 16 36 80.5t65 64.5q16 0 57.5 -23.5t59.5 -23.5q26 0 81.5 64.5t63.5 101.5q4 17 7 62q-37 -32 -97 -51t-105 -19q-47 0 -86 7t-68.5 18.5t-52 32t-38 41t-26 52t-16.5 58t-9 67t-4 71.5t-1 77q0 89 22.5 187t68 194t108 172.5 t151 124t187.5 47.5q56 0 133 -33q7 47 10 57q7 25 29.5 32t66.5 7zM590 424q13 47 43 200.5t41 194.5l13 56q-60 47 -93 47q-68 0 -130 -58.5t-100.5 -142t-61.5 -168.5t-23 -145v-22.5v-30t1 -31.5t3.5 -34.5t6 -31t10 -30t15 -22.5t21 -16.5t27.5 -5.5q30 0 103 33.5 t107 91.5q7 79 17 115z" />
<glyph unicode="&#x11e;" horiz-adv-x="1038" d="M887 1917q24 0 65 -14.5t41 -34.5q0 -74 -29 -143t-85 -111q-33 -27 -78 -35t-111 -8q-68 0 -131 61t-63 131q0 16 2.5 32.5t7 40t6.5 32.5q4 24 37.5 33.5t66.5 9.5q24 0 49 -11.5t25 -27.5q0 -2 -5 -21t-5 -34q0 -74 33 -74q31 0 48 13.5t34 43.5q12 20 21 54t11 36 q23 27 60 27zM668 1473q94 0 175 -35.5t133 -106.5t52 -162q0 -55 -18 -82q-7 -10 -48.5 -25t-74.5 -15q-88 0 -88 22q0 10 7 32.5t7 41.5q0 119 -174 119q-44 0 -84.5 -27t-69 -69.5t-47.5 -81.5t-30 -74q-7 -25 -13.5 -78t-13.5 -80q-29 -116 -43.5 -176t-30.5 -159.5 t-16 -170.5q0 -84 53 -121t139 -37q60 0 118 57t93 138.5t35 153.5q-13 16 -33 16q-26 0 -95 -12.5t-95 -12.5q-17 0 -28 7t-11 18q0 53 11 119.5t36 66.5q38 0 169.5 18.5t170.5 18.5q23 0 65 -43.5t42 -58.5q0 -100 -16.5 -195t-56 -187.5t-98.5 -161.5t-151 -111 t-207 -42q-162 0 -265.5 100.5t-103.5 278.5q0 27 2 56.5t3.5 52.5t7 56.5t8 51.5t11 56.5t11.5 51.5t14 56.5t13.5 52t15.5 58t15 55.5q6 22 10 77t10 77q18 65 43.5 121t66.5 112t92 95t124 63.5t158 24.5z" />
<glyph unicode="&#x11f;" horiz-adv-x="958" d="M580 1223q-68 0 -131.5 61t-63.5 131q0 16 2.5 32.5t7 40t6.5 32.5q4 24 38 33.5t67 9.5q24 0 49 -11.5t25 -27.5q0 -2 -5.5 -21.5t-5.5 -34.5q0 -73 33 -73q31 0 48 13.5t34 43.5q12 20 21.5 54t11.5 36q23 27 59 27q24 0 65.5 -14.5t41.5 -34.5q0 -74 -29.5 -142.5 t-85.5 -111.5q-33 -27 -78 -35t-110 -8zM831 1194q32 0 71.5 -16t39.5 -31q0 -38 -17 -177t-34 -196q-14 -46 -41 -202t-39 -197q-22 -77 -38 -263.5t-23 -217.5q-14 -61 -71.5 -128t-127 -110t-117.5 -43q-53 0 -111.5 19t-96.5 45.5t-38 48.5q0 16 36 80.5t65 64.5 q16 0 57.5 -23.5t59.5 -23.5q26 0 81.5 64.5t63.5 101.5q4 17 7 62q-37 -32 -97 -51t-105 -19q-47 0 -86 7t-68.5 18.5t-52 32t-38 41t-26 52t-16.5 58t-9 67t-4 71.5t-1 77q0 89 22.5 187t68 194t108 172.5t151 124t187.5 47.5q56 0 133 -33q7 47 10 57q7 25 29.5 32 t66.5 7zM590 424q13 47 43 200.5t41 194.5l13 56q-60 47 -93 47q-68 0 -130 -58.5t-100.5 -142t-61.5 -168.5t-23 -145v-22.5v-30t1 -31.5t3.5 -34.5t6 -31t10 -30t15 -22.5t21 -16.5t27.5 -5.5q30 0 103 33.5t107 91.5q7 79 17 115z" />
<glyph unicode="&#x120;" horiz-adv-x="1038" d="M727 1853q43 0 72.5 -19t29.5 -60q0 -177 -153 -177q-103 0 -103 93q0 163 154 163zM668 1473q94 0 175 -35.5t133 -106.5t52 -162q0 -55 -18 -82q-7 -10 -48.5 -25t-74.5 -15q-88 0 -88 22q0 10 7 32.5t7 41.5q0 119 -174 119q-44 0 -84.5 -27t-69 -69.5t-47.5 -81.5 t-30 -74q-7 -25 -13.5 -78t-13.5 -80q-29 -116 -43.5 -176t-30.5 -159.5t-16 -170.5q0 -84 53 -121t139 -37q60 0 118 57t93 138.5t35 153.5q-13 16 -33 16q-26 0 -95 -12.5t-95 -12.5q-17 0 -28 7t-11 18q0 53 11 119.5t36 66.5q38 0 169.5 18.5t170.5 18.5q23 0 65 -43.5 t42 -58.5q0 -100 -16.5 -195t-56 -187.5t-98.5 -161.5t-151 -111t-207 -42q-162 0 -265.5 100.5t-103.5 278.5q0 27 2 56.5t3.5 52.5t7 56.5t8 51.5t11 56.5t11.5 51.5t14 56.5t13.5 52t15.5 58t15 55.5q6 22 10 77t10 77q18 65 43.5 121t66.5 112t92 95t124 63.5t158 24.5z " />
<glyph unicode="&#x121;" horiz-adv-x="958" d="M565 1249q-102 0 -102 92q0 164 153 164q43 0 73 -19.5t30 -60.5q0 -176 -154 -176zM831 1194q32 0 71.5 -16t39.5 -31q0 -38 -17 -177t-34 -196q-14 -46 -41 -202t-39 -197q-22 -77 -38 -263.5t-23 -217.5q-14 -61 -71.5 -128t-127 -110t-117.5 -43q-53 0 -111.5 19 t-96.5 45.5t-38 48.5q0 16 36 80.5t65 64.5q16 0 57.5 -23.5t59.5 -23.5q26 0 81.5 64.5t63.5 101.5q4 17 7 62q-37 -32 -97 -51t-105 -19q-47 0 -86 7t-68.5 18.5t-52 32t-38 41t-26 52t-16.5 58t-9 67t-4 71.5t-1 77q0 89 22.5 187t68 194t108 172.5t151 124t187.5 47.5 q56 0 133 -33q7 47 10 57q7 25 29.5 32t66.5 7zM590 424q13 47 43 200.5t41 194.5l13 56q-60 47 -93 47q-68 0 -130 -58.5t-100.5 -142t-61.5 -168.5t-23 -145v-22.5v-30t1 -31.5t3.5 -34.5t6 -31t10 -30t15 -22.5t21 -16.5t27.5 -5.5q30 0 103 33.5t107 91.5q7 79 17 115z " />
<glyph unicode="&#x122;" horiz-adv-x="1038" d="M668 1473q94 0 175 -35.5t133 -106.5t52 -162q0 -55 -18 -82q-7 -10 -48.5 -25t-74.5 -15q-88 0 -88 22q0 10 7 32.5t7 41.5q0 119 -174 119q-44 0 -84.5 -27t-69 -69.5t-47.5 -81.5t-30 -74q-7 -25 -13.5 -78t-13.5 -80q-29 -116 -43.5 -176t-30.5 -159.5t-16 -170.5 q0 -84 53 -121t139 -37q60 0 118 57t93 138.5t35 153.5q-13 16 -33 16q-26 0 -95 -12.5t-95 -12.5q-17 0 -28 7t-11 18q0 53 11 119.5t36 66.5q38 0 169.5 18.5t170.5 18.5q23 0 65 -43.5t42 -58.5q0 -100 -16.5 -195t-56 -187.5t-98.5 -161.5t-151 -111t-207 -42 q-162 0 -265.5 100.5t-103.5 278.5q0 27 2 56.5t3.5 52.5t7 56.5t8 51.5t11 56.5t11.5 51.5t14 56.5t13.5 52t15.5 58t15 55.5q6 22 10 77t10 77q18 65 43.5 121t66.5 112t92 95t124 63.5t158 24.5zM463 -119q20 0 30.5 -70.5t10.5 -115.5q0 -102 -59.5 -187.5t-114.5 -85.5 q-23 0 -62 47.5t-39 71.5q0 11 35 59t35 83q0 26 -4 70.5t-4 56.5q0 31 64.5 51t107.5 20z" />
<glyph unicode="&#x123;" horiz-adv-x="958" d="M512 1225q-20 0 -30.5 70.5t-10.5 115.5q0 102 59.5 187t114.5 85q23 0 61.5 -47t38.5 -71q0 -11 -34.5 -59t-34.5 -83q0 -26 4 -70.5t4 -56.5q0 -31 -64.5 -51t-107.5 -20zM831 1194q32 0 71.5 -16t39.5 -31q0 -38 -17 -177t-34 -196q-14 -46 -41 -202t-39 -197 q-22 -77 -38 -263.5t-23 -217.5q-14 -61 -71.5 -128t-127 -110t-117.5 -43q-53 0 -111.5 19t-96.5 45.5t-38 48.5q0 16 36 80.5t65 64.5q16 0 57.5 -23.5t59.5 -23.5q26 0 81.5 64.5t63.5 101.5q4 17 7 62q-37 -32 -97 -51t-105 -19q-47 0 -86 7t-68.5 18.5t-52 32t-38 41 t-26 52t-16.5 58t-9 67t-4 71.5t-1 77q0 89 22.5 187t68 194t108 172.5t151 124t187.5 47.5q56 0 133 -33q7 47 10 57q7 25 29.5 32t66.5 7zM590 424q13 47 43 200.5t41 194.5l13 56q-60 47 -93 47q-68 0 -130 -58.5t-100.5 -142t-61.5 -168.5t-23 -145v-22.5v-30t1 -31.5 t3.5 -34.5t6 -31t10 -30t15 -22.5t21 -16.5t27.5 -5.5q30 0 103 33.5t107 91.5q7 79 17 115z" />
<glyph unicode="&#x124;" horiz-adv-x="1062" d="M590 1573q-33 0 -92.5 27t-59.5 55q0 17 46 67.5t105.5 107t69.5 68.5q1 1 7.5 8.5t8.5 9.5t8.5 8t10 8.5t10 6t12.5 4.5t13 1q28 0 76.5 -11t56.5 -26q4 -7 10.5 -21.5t10.5 -21.5q1 -2 12 -21.5t16 -29t16 -29.5t16.5 -33.5t12.5 -30t10 -29t3 -22.5q0 -23 -50 -53.5 t-75 -30.5q-16 0 -35.5 28t-39 68t-24.5 48q-13 -8 -49 -47.5t-67.5 -74t-38.5 -34.5zM1034 1452q47 0 47 -92q0 -16 -21.5 -116t-50 -236.5t-40.5 -221.5q-8 -54 -19.5 -185.5t-13.5 -154.5q-5 -38 -16 -86.5t-15 -89.5q-20 -211 -24 -229q-8 -32 -19.5 -44.5t-38.5 -12.5 q-6 0 -44.5 6t-43.5 6q-25 0 -57.5 9t-32.5 28q0 12 3.5 36t4.5 29q16 112 27 215q4 35 14.5 75t14.5 75t11.5 127t11.5 133q-37 2 -129.5 13.5t-137.5 11.5q-21 0 -49.5 -6.5t-38.5 -7.5q-21 -147 -21 -232q0 -35 -5.5 -87t-12.5 -92t-14.5 -83.5t-8.5 -51.5 q-4 -24 -28 -88.5t-27 -72.5q-11 -33 -129 -33q-102 0 -102 33q0 13 31.5 91t35.5 99q35 188 35 285q0 142 47 434q7 47 22.5 196.5t28.5 217.5q5 32 39.5 81.5t61.5 49.5q35 0 98 -25.5t63 -52.5q0 -13 -16 -39t-20 -47q-14 -68 -28 -210t-17 -162q69 16 92 16 q44 0 136.5 -13t131.5 -14q12 54 34.5 148.5t34 147.5t11.5 68q0 14 6.5 59.5t13.5 55.5q8 13 71 26t93 13z" />
<glyph unicode="&#x125;" horiz-adv-x="1003" d="M293 1532q-33 0 -92.5 27t-59.5 55q0 17 46 67.5t105.5 107.5t69.5 69q0 1 6.5 7.5t7.5 8t7 7.5t8.5 7.5t8.5 5.5t10 5l10 2.5t12 1.5q28 0 76.5 -11t56.5 -26q4 -7 10.5 -21.5t10.5 -21.5q1 -2 12 -21.5t16 -29t16 -29.5t16.5 -33.5t12.5 -30t10 -29t3 -22.5 q0 -23 -50 -53.5t-75 -30.5q-16 0 -35.5 28.5t-38.5 68t-24 47.5q-13 -8 -49 -47.5t-68 -74t-39 -34.5zM874 209q22 0 30.5 -42.5t8.5 -88.5q0 -25 -69.5 -57.5t-151.5 -32.5q-46 0 -80 51.5t-34 120.5q0 126 53 334q53 207 53 335v12.5v15t-1 15t-2.5 16t-4.5 13t-7.5 11.5 t-11.5 7t-16 3q-62 0 -136.5 -39t-123.5 -92q-21 -222 -33 -281q-10 -51 -36.5 -154t-44 -183.5t-17.5 -127.5q0 -22 -30.5 -35.5t-74.5 -13.5q-47 0 -83.5 10.5t-36.5 32.5q0 65 47.5 262.5t56.5 251.5q15 85 28 246t23 233q23 154 70.5 301.5t85.5 147.5q43 0 104.5 -25.5 t61.5 -60.5q0 -11 -16.5 -72t-40 -147.5t-34.5 -137.5q49 41 113.5 69t124.5 28q79 0 130.5 -19t79.5 -59t39 -92t11 -129q0 -56 -10.5 -127.5t-20.5 -115t-30 -126.5q-7 -31 -24 -92.5t-27.5 -106t-10.5 -67.5q0 -17 9 -17q7 0 39 12.5t40 12.5z" />
<glyph unicode="&#x126;" horiz-adv-x="1062" d="M1034 1452q47 0 47 -92q0 -16 -21.5 -116t-50 -236.5t-40.5 -221.5q-8 -54 -19.5 -185.5t-13.5 -154.5q-5 -38 -16 -86.5t-15 -89.5q-20 -211 -24 -229q-8 -32 -19.5 -44.5t-38.5 -12.5q-6 0 -44.5 6t-43.5 6q-25 0 -57.5 9t-32.5 28q0 12 3.5 36t4.5 29q16 112 27 215 q4 35 14.5 75t14.5 75t11.5 127t11.5 133q-37 2 -129.5 13.5t-137.5 11.5q-21 0 -49.5 -6.5t-38.5 -7.5q-21 -147 -21 -232q0 -35 -5.5 -87t-12.5 -92t-14.5 -83.5t-8.5 -51.5q-4 -24 -28 -88.5t-27 -72.5q-11 -33 -129 -33q-102 0 -102 33q0 13 31.5 91t35.5 99 q35 188 35 285q0 142 47 434q7 47 22.5 196.5t28.5 217.5q5 32 39.5 81.5t61.5 49.5q35 0 98.5 -25.5t63.5 -52.5q0 -13 -16.5 -39t-20.5 -47l-5 -27q30 1 127.5 10t172.5 9q31 0 100 -9q6 90 20 113q8 13 71 26t93 13zM410 946q64 15 92 15q44 0 136.5 -13t131.5 -14 l36 154q-74 10 -91 10q-52 0 -100.5 -3.5t-107.5 -10.5t-83 -9q-11 -106 -14 -129z" />
<glyph unicode="&#x127;" horiz-adv-x="1003" d="M874 209q22 0 30.5 -42.5t8.5 -88.5q0 -25 -69.5 -57.5t-151.5 -32.5q-46 0 -80 51.5t-34 120.5q0 126 53 334q53 207 53 335v12.5v15t-1 15t-2.5 16t-4.5 13t-7.5 11.5t-11.5 7t-16 3q-62 0 -136.5 -39t-123.5 -92q-21 -222 -33 -281q-10 -51 -36.5 -154t-44 -183.5 t-17.5 -127.5q0 -22 -30.5 -35.5t-74.5 -13.5q-47 0 -83.5 10.5t-36.5 32.5q0 65 47.5 262.5t56.5 251.5q15 85 28 246t23 233q11 81 36 183l-9 2q-6 1 -23.5 2t-24.5 2t-17.5 4.5t-14.5 11t-4 18.5q0 33 19.5 91.5t37.5 58.5q36 0 94 -6q35 82 62 82q43 0 104.5 -25.5 t61.5 -60.5l-4 -21h10q12 0 57 4t58 4q31 0 40 -7.5t9 -22.5q0 -20 -8.5 -69.5t-20.5 -65.5t-68.5 -23.5t-93.5 -7.5l-33 1q-28 -106 -37 -149q49 41 113.5 69t124.5 28q79 0 130.5 -19t79.5 -59t39 -92t11 -129q0 -56 -10.5 -127.5t-20.5 -115t-30 -126.5q-7 -31 -24 -92.5 t-27.5 -106t-10.5 -67.5q0 -17 9 -17q7 0 39 12.5t40 12.5z" />
<glyph unicode="&#x128;" horiz-adv-x="499" d="M575 1886q23 0 69 -34.5t46 -55.5q0 -52 -74 -121t-127 -69q-31 0 -84 37.5t-59 37.5q-9 0 -47.5 -41t-54.5 -41q-25 0 -69 30.5t-44 47.5q0 45 73 121t118 76q37 0 70.5 -18.5t55.5 -37t31 -18.5q14 0 50.5 43t45.5 43zM465 1466q39 0 39 -18q0 -132 -25 -246 q-5 -27 -36 -140t-37 -151q-18 -113 -36.5 -323.5t-31.5 -306.5q-7 -49 -24 -120t-23 -104q-3 -13 -10 -23.5t-15.5 -17t-22.5 -11t-23.5 -7t-26.5 -3.5t-24.5 -1h-23.5h-18q-64 0 -64 35q0 49 24 150.5t28 129.5q14 100 32 316.5t37 330.5q6 38 35 134.5t35 134.5 q2 10 6.5 59.5t11 90.5t13.5 48q43 43 180 43z" />
<glyph unicode="&#x129;" horiz-adv-x="491" d="M539 1538q23 0 68.5 -34.5t45.5 -55.5q0 -52 -73.5 -121.5t-126.5 -69.5q-31 0 -84.5 38t-59.5 38q-9 0 -47.5 -41t-54.5 -41q-25 0 -69 30.5t-44 47.5q0 45 73 121t118 76q37 0 70.5 -18.5t55.5 -37t31 -18.5q14 0 51 43t46 43zM262 1137q29 0 98.5 -24.5t69.5 -45.5 q0 -17 -16.5 -58t-16.5 -59q0 -21 -5 -52t-13.5 -67t-15.5 -63t-16.5 -60t-10.5 -38q-13 -47 -23.5 -180.5t-15.5 -159.5q-3 -14 -8 -34.5t-9.5 -36t-9 -32.5t-4.5 -23.5t4 -8.5q7 0 44.5 5t45.5 5q12 0 19.5 -13t10 -41t3 -39.5t0.5 -41.5q0 -39 -70.5 -67t-177.5 -28 q-43 0 -68.5 51t-25.5 119q0 39 4.5 70.5t12.5 70t12 66.5q4 29 14 115.5t19.5 160t15.5 97.5q43 169 43 213q0 64 32.5 131.5t57.5 67.5z" />
<glyph unicode="&#x12a;" horiz-adv-x="499" d="M381 1829q36 0 107.5 -7t107.5 -7q45 0 45 -70q0 -40 -22.5 -86.5t-47.5 -46.5q-31 0 -95 8t-95 8q-21 0 -64 -3t-65 -3q-47 0 -47 68q0 25 23.5 77.5t45.5 53.5q100 8 107 8zM465 1466q39 0 39 -18q0 -132 -25 -246q-5 -27 -36 -140t-37 -151q-18 -113 -36.5 -323.5 t-31.5 -306.5q-7 -49 -24 -120t-23 -104q-3 -13 -10 -23.5t-15.5 -17t-22.5 -11t-23.5 -7t-26.5 -3.5t-24.5 -1h-23.5h-18q-64 0 -64 35q0 49 24 150.5t28 129.5q14 100 32 316.5t37 330.5q6 38 35 134.5t35 134.5q2 10 6.5 59.5t11 90.5t13.5 48q43 43 180 43z" />
<glyph unicode="&#x12b;" horiz-adv-x="491" d="M344 1481q36 0 107.5 -7.5t107.5 -7.5q45 0 45 -69q0 -40 -22 -86.5t-47 -46.5q-31 0 -95 8t-96 8q-22 0 -65 -3t-64 -3q-47 0 -47 67q0 25 24 78t46 54q100 8 106 8zM262 1137q29 0 98.5 -24.5t69.5 -45.5q0 -17 -16.5 -58t-16.5 -59q0 -21 -5 -52t-13.5 -67t-15.5 -63 t-16.5 -60t-10.5 -38q-13 -47 -23.5 -180.5t-15.5 -159.5q-3 -14 -8 -34.5t-9.5 -36t-9 -32.5t-4.5 -23.5t4 -8.5q7 0 44.5 5t45.5 5q12 0 19.5 -13t10 -41t3 -39.5t0.5 -41.5q0 -39 -70.5 -67t-177.5 -28q-43 0 -68.5 51t-25.5 119q0 39 4.5 70.5t12.5 70t12 66.5 q4 29 14 115.5t19.5 160t15.5 97.5q43 169 43 213q0 64 32.5 131.5t57.5 67.5z" />
<glyph unicode="&#x12e;" horiz-adv-x="499" d="M465 1466q39 0 39 -18q0 -132 -25 -246q-5 -27 -36 -140t-37 -151q-18 -113 -36.5 -323.5t-31.5 -306.5q-7 -49 -24 -120t-23 -104q-6 -27 -29 -42q-7 -6 -41.5 -31t-52.5 -45.5t-18 -40.5q0 -13 10 -13q8 0 23.5 3t23.5 3q13 0 37 -43.5t24 -58.5q0 -35 -59.5 -53.5 t-99.5 -18.5q-69 0 -115.5 35t-46.5 101q0 50 26 100q11 23 39 61t54 60q5 41 24.5 121.5t24.5 113.5q14 100 32 316.5t37 330.5q6 38 35 134.5t35 134.5q2 10 6.5 59.5t11 90.5t13.5 48q43 43 180 43z" />
<glyph unicode="&#x12f;" horiz-adv-x="491" d="M410 1505q43 0 72.5 -19.5t29.5 -60.5q0 -176 -154 -176q-102 0 -102 92q0 79 38.5 121.5t115.5 42.5zM262 1137q29 0 98.5 -24.5t69.5 -45.5q0 -17 -16.5 -58t-16.5 -59q0 -21 -5 -52t-13.5 -67t-15.5 -63t-16.5 -60t-10.5 -38q-13 -47 -23.5 -180.5t-15.5 -159.5 q-3 -14 -8 -34.5t-9.5 -36t-9 -32.5t-4.5 -23.5t4 -8.5q7 0 44.5 5t45.5 5q12 0 19.5 -13t10 -41t3 -39.5t0.5 -41.5q0 -28 -38 -52q-5 -5 -40.5 -30.5t-52 -45t-16.5 -38.5q0 -13 10 -13q8 0 23.5 3.5t23.5 3.5q13 0 37.5 -44t24.5 -59q0 -35 -59.5 -53.5t-100.5 -18.5 q-69 0 -115.5 35t-46.5 101q0 48 27 100q4 10 24 41q-43 49 -43 145q0 39 4.5 70.5t12.5 70t12 66.5q4 29 14 115.5t19.5 160t15.5 97.5q43 169 43 213q0 64 32.5 131.5t57.5 67.5z" />
<glyph unicode="&#x130;" horiz-adv-x="499" d="M446 1853q43 0 73 -19t30 -60q0 -177 -154 -177q-102 0 -102 93q0 163 153 163zM465 1466q39 0 39 -18q0 -132 -25 -246q-5 -27 -36 -140t-37 -151q-18 -113 -36.5 -323.5t-31.5 -306.5q-7 -49 -24 -120t-23 -104q-3 -13 -10 -23.5t-15.5 -17t-22.5 -11t-23.5 -7 t-26.5 -3.5t-24.5 -1h-23.5h-18q-64 0 -64 35q0 49 24 150.5t28 129.5q14 100 32 316.5t37 330.5q6 38 35 134.5t35 134.5q2 10 6.5 59.5t11 90.5t13.5 48q43 43 180 43z" />
<glyph unicode="&#x131;" horiz-adv-x="499" d="M301 1118q37 0 80 -17t43 -36q0 -13 -15.5 -99t-15.5 -124q0 -25 -13 -129.5t-24 -155.5q-6 -30 -28.5 -115.5t-41 -156t-18.5 -78.5q0 -12 10.5 -17.5t20.5 -5.5q13 0 46 27t46 27q12 0 17.5 -1t9.5 -6t4 -16q0 -24 -11.5 -94t-23.5 -80q-77 -68 -209 -68 q-56 0 -96.5 40.5t-40.5 103.5q0 71 20.5 175.5t48.5 212t31 120.5q27 132 27 270q0 46 15.5 107.5t15.5 66.5q0 21 29.5 35t72.5 14z" />
<glyph unicode="&#x132;" horiz-adv-x="1214" d="M770 1479q15 0 159.5 -29t196.5 -29q29 0 61 -50t32 -73q0 -25 -3 -60.5t-9.5 -82.5t-12 -82t-14.5 -92t-13 -80q-5 -31 -21.5 -75t-21.5 -76q-7 -41 -26 -191.5t-37 -220.5q-45 -173 -130 -265.5t-235 -92.5q-83 0 -148 69t-75 144q-4 35 -4 112q0 13 81 38.5t105 25.5 q37 0 37 -13q0 -3 -6 -23t-6 -42q0 -16 3.5 -34.5t15.5 -38t32 -19.5q35 0 65.5 56t45.5 128q14 66 32 198t25 171q3 20 21.5 80.5t29.5 117.5q27 137 27 244q0 10 -49 25t-115 30t-78 19q-15 4 -22.5 13t-9 19.5t-1.5 28.5q0 42 20 96t48 54zM465 1466q39 0 39 -18 q0 -132 -25 -246q-5 -27 -36 -140t-37 -151q-18 -113 -36.5 -323.5t-31.5 -306.5q-7 -49 -24 -120t-23 -104q-3 -13 -10 -23.5t-15.5 -17t-22.5 -11t-23.5 -7t-26.5 -3.5t-24.5 -1h-23.5h-18q-64 0 -64 35q0 49 24 150.5t28 129.5q14 100 32 316.5t37 330.5q6 38 35 134.5 t35 134.5q2 10 6.5 59.5t11 90.5t13.5 48q43 43 180 43z" />
<glyph unicode="&#x133;" horiz-adv-x="909" d="M342 1249q-109 0 -109 99q0 137 144 137q41 -1 63.5 -25t22.5 -65q0 -57 -33 -101.5t-88 -44.5zM805 1251q-24 0 -36.5 0.5t-32 4.5t-29 11.5t-17.5 22.5t-8 37q0 60 30 105t87 45q27 0 43 -2t33.5 -9t25.5 -23t8 -42q0 -59 -25.5 -104.5t-78.5 -45.5zM715 1124 q37 0 103.5 -27.5t66.5 -47.5q0 -54 -47 -193q-10 -30 -24 -148t-27 -251t-17 -160q-6 -43 -31.5 -151.5t-27.5 -131.5q0 -4 -2.5 -37.5t-4.5 -52t-8.5 -54.5t-15.5 -71q-21 -79 -95 -173.5t-143 -94.5q-155 0 -243 23q-49 13 -88 47.5t-39 56.5q0 26 31 85.5t53 59.5 q19 0 52.5 -19t45.5 -22q70 -18 143 -18q21 0 41.5 50t32.5 114q1 5 11 107q-116 -58 -187 -58q-75 0 -131 52t-81.5 126.5t-25.5 157.5q0 36 26 165.5t26 170.5q0 46 6 99t12.5 89.5t19.5 101.5t19 97q14 92 59 92q54 0 115 -16.5t61 -40.5q0 -7 -21.5 -91t-43 -191.5 t-21.5 -172.5q0 -40 -17 -147t-17 -150q0 -45 11.5 -91t33.5 -46q28 0 66.5 20.5t70 44.5t66.5 54q7 6 10 9q9 37 12 68q1 6 15.5 155.5t27.5 253t24 144.5q58 213 97 213z" />
<glyph unicode="&#x134;" horiz-adv-x="714" d="M555 1948h33q32 0 49 -10t27 -44q7 -24 30 -81t39.5 -106.5t16.5 -76.5q0 -29 -42 -48t-77 -19q-14 0 -27.5 16t-22 34.5t-20.5 49t-18 43.5q-16 -17 -51.5 -60.5t-58 -65t-38.5 -21.5q-22 0 -67 38.5t-45 59.5q0 11 39.5 60.5t92.5 110t56 64.5q16 19 24.5 28t25.5 18.5 t34 9.5zM270 1479q15 0 160 -29t197 -29q29 0 60.5 -50t31.5 -73q0 -25 -3 -59.5t-10 -84.5t-11 -79.5t-14.5 -94.5t-12.5 -79q-5 -31 -21.5 -75t-21.5 -76q-7 -39 -26.5 -190.5t-37.5 -221.5q-22 -84 -51 -146.5t-72 -111.5t-103.5 -74.5t-137.5 -25.5q-83 0 -148.5 69 t-75.5 144q-4 35 -4 112q0 13 81.5 38.5t105.5 25.5q37 0 37 -13q0 -3 -6.5 -23t-6.5 -42q0 -16 3.5 -34.5t15.5 -38t32 -19.5q35 0 65.5 56t45.5 128q14 66 32 198t25 171q3 20 22 80.5t30 117.5q26 132 26 244q0 10 -49 25t-114.5 30t-77.5 19q-15 4 -22.5 13t-9 19.5 t-1.5 28.5q0 42 19.5 96t47.5 54z" />
<glyph unicode="&#x135;" horiz-adv-x="507" d="M395 1599h33q32 0 49 -9.5t27 -43.5q7 -24 30 -81t39.5 -106.5t16.5 -76.5q0 -29 -42 -48.5t-77 -19.5q-14 0 -27.5 16t-22 35t-20.5 49.5t-18 43.5q-17 -18 -51.5 -61t-57 -65t-38.5 -22q-22 0 -67.5 39t-45.5 60q0 11 39.5 60.5t92.5 110t56 64.5q15 18 24.5 27 t26 18.5t33.5 9.5zM319 1124q33 0 96.5 -33t63.5 -61q0 -35 -44 -198.5t-50 -213.5q-6 -48 -9.5 -143t-10.5 -143q-4 -26 -17 -132.5t-25 -180.5t-40.5 -157t-67.5 -116q-26 -23 -70 -36t-84 -13q-60 0 -118 20t-90.5 44.5t-32.5 41.5q0 27 65.5 93.5t100.5 66.5q9 0 14 -10 t7 -21.5t14.5 -21.5t35.5 -10t38 77t29 216.5t21 183.5q11 70 13 165.5t8 133.5q10 61 32 155.5t57.5 193.5t63.5 99z" />
<glyph unicode="&#x136;" horiz-adv-x="1028" d="M862 203q29 0 43 -61.5t6 -88.5q-7 -22 -87 -57t-138 -35q-18 0 -37 8.5t-39.5 28t-37 60t-23.5 96.5q-5 39 -19 130.5t-24 160.5t-10 85t-11 38.5t-29.5 56t-29.5 59.5l-45 -33q-37 -83 -66 -225q-5 -26 -30.5 -178.5t-36.5 -212.5q-4 -25 -15 -33t-32 -8 q-44 0 -108 23.5t-64 50.5q0 34 37 229l36 195q2 12 48.5 181.5t46.5 190.5q0 76 18 234t18 159v117q0 28 74 55t111 27q13 0 21.5 -24.5t12 -62t4.5 -61t1 -42.5q0 -18 -14.5 -132.5t-16.5 -177.5q47 25 97.5 74t107.5 114.5t88 94.5q17 17 65.5 88.5t57.5 77.5 q21 14 102 14q35 0 79 -10t44 -33q0 -22 -77.5 -134.5t-106.5 -141.5q-19 -19 -112.5 -125t-149.5 -148l-12 -8q95 -200 100 -272q9 -114 24.5 -245.5t30.5 -131.5q9 0 49 16.5t49 16.5zM481 -119q20 0 30.5 -70.5t10.5 -115.5q0 -102 -59.5 -187.5t-114.5 -85.5 q-23 0 -61.5 47.5t-38.5 71.5q0 11 34.5 59t34.5 83q0 26 -4 70.5t-4 56.5q0 31 64.5 51t107.5 20z" />
<glyph unicode="&#x137;" horiz-adv-x="880" d="M872 956q-42 -57 -127 -144.5t-180 -168.5q20 -62 32.5 -151.5t14.5 -147.5q1 -39 7.5 -74t18.5 -56.5t26 -20.5q18 1 37 19.5t32 18.5q16 0 40 -55.5t24 -77.5q0 -35 -60 -75.5t-155 -40.5q-49 0 -87.5 44t-56 98.5t-20.5 106.5q-11 198 -40 270l-27 -17q-3 -35 -3 -62 q0 -31 -29 -121t-59 -164q-2 -6 -9.5 -27.5t-14 -37.5t-16 -34.5t-21.5 -29t-25 -10.5q-50 0 -98.5 10.5t-48.5 34.5q0 27 10 88t26 113q7 23 19 59.5t19.5 61t15.5 51t12 45t4 28.5q0 83 12 175.5t31 205t27 174.5q5 42 16.5 113t20 122.5t8.5 59.5q0 23 -2 57t-2 44 q0 13 23.5 24t64.5 11q38 0 83.5 -11t49.5 -30q6 -29 6 -95q0 -29 -5 -71.5t-10.5 -74.5t-15.5 -87.5t-14 -79.5q-22 -124 -39 -241q78 51 160.5 130.5t144.5 157.5q48 60 82 60q22 0 78.5 -38t56.5 -55q0 -31 -37 -84zM463 -57q20 0 30.5 -71t10.5 -116q0 -102 -59.5 -187 t-114.5 -85q-23 0 -62 47.5t-39 71.5q0 11 35 59t35 82q0 26 -4 70.5t-4 56.5q0 31 64.5 51.5t107.5 20.5z" />
<glyph unicode="&#x139;" horiz-adv-x="724" d="M555 1958q33 0 68.5 -40t35.5 -75q0 -32 -114 -162.5t-139 -130.5q-30 0 -74.5 35t-44.5 66q0 26 55.5 101t121.5 140.5t91 65.5zM424 1458q43 0 43 -28q0 -63 -47 -197q-6 -18 -12 -82t-14 -150.5t-15 -136.5q-8 -53 -35 -156.5t-35 -156.5q-3 -22 -12 -78t-13.5 -86.5 t-9 -75.5t-4.5 -82q0 -11 5 -16t8.5 -5.5l17.5 -2.5q37 -5 132.5 -14.5t141.5 -16.5q21 -4 31 -27t10 -49q0 -24 -4.5 -65.5t-11.5 -50.5q-11 -17 -70 -17q-67 0 -288 23q-75 7 -126 19.5t-72 25.5t-21 26q0 53 19.5 219t39.5 273q10 56 40.5 170.5t39.5 175.5 q9 58 14.5 194.5t13.5 157.5q9 22 23 77t27 85q20 47 184 47z" />
<glyph unicode="&#x13a;" horiz-adv-x="522" d="M641 1917q33 0 68.5 -40t35.5 -75q0 -32 -114 -162.5t-139 -130.5q-30 0 -74.5 35t-44.5 66q0 26 55.5 101t121.5 140.5t91 65.5zM350 1460q33 0 74 -19t41 -48q0 -55 -10 -149t-21 -152q-4 -24 -39.5 -249t-48.5 -288q-2 -12 -11.5 -55t-13.5 -61.5t-11 -56t-10 -59.5 t-6 -48.5t-3 -45.5q0 -15 20.5 -30t48.5 -19q19 -3 29.5 -5.5t25.5 -7t22 -11t7 -15.5q0 -21 -6 -72.5t-10 -68.5q-2 -8 -15 -15t-30 -8q-37 -3 -97 5t-98 18q-55 16 -91 77.5t-36 180.5q0 28 8.5 78t18 92.5t24.5 108t21 92.5q14 65 46 270t38 234q23 118 23 280 q0 20 32 33.5t78 13.5z" />
<glyph unicode="&#x13b;" horiz-adv-x="768" d="M246 1479q30 0 176 -76q12 -7 12 -64q0 -132 -31 -311q-6 -36 -32.5 -147t-32.5 -154q-8 -56 -16.5 -165.5t-14.5 -139.5q-26 -126 -33 -205q76 -8 158 -8q35 0 99 22.5t79 22.5q19 0 38.5 -59t19.5 -84q0 -40 -58 -64q-125 -51 -194 -51q-39 0 -149 6t-181 14 q-23 3 -42 39t-19 58q0 29 29.5 164t37.5 186q7 48 16.5 169t16.5 169q7 46 26.5 113.5t26.5 113.5q26 170 35 299q1 16 2 42.5t2 42.5t4 33.5t9 25.5t16 8zM373 -119q20 0 30.5 -70.5t10.5 -115.5q0 -102 -59.5 -187.5t-114.5 -85.5q-23 0 -62 47.5t-39 71.5q0 11 35 59 t35 83q0 26 -4 70.5t-4 56.5q0 31 64.5 51t107.5 20z" />
<glyph unicode="&#x13c;" horiz-adv-x="524" d="M317 1458q43 0 102.5 -31t59.5 -61q0 -8 -17.5 -58.5t-17.5 -78.5q0 -55 -34 -215q-8 -38 -17 -168.5t-24 -198.5q-3 -13 -17.5 -76t-24 -105.5t-21.5 -100.5t-18.5 -99t-6.5 -61q0 -27 18 -27q7 0 23 14.5t26 14.5q20 0 58 -47.5t38 -69.5q0 -39 -55.5 -81t-150.5 -42 q-63 0 -124 53.5t-61 114.5q0 63 11.5 148t21.5 136.5t33.5 155t27.5 121.5q18 82 27.5 196.5t20.5 168.5q26 130 26 231q0 12 3.5 27.5t6 22.5t11.5 28.5t10 24.5q26 63 65 63zM285 -119q20 0 30.5 -70.5t10.5 -115.5q0 -102 -59.5 -187.5t-114.5 -85.5q-23 0 -62 47.5 t-39 71.5q0 11 35 59t35 83q0 26 -4 70.5t-4 56.5q0 31 64.5 51t107.5 20z" />
<glyph unicode="&#x13d;" horiz-adv-x="724" d="M639 1511q34 0 57.5 -6t34.5 -15t15 -17t4 -15q0 -35 -15 -129q-3 -18 -13.5 -55.5t-27 -81.5t-39.5 -76.5t-45 -32.5q-30 0 -68 36.5t-38 66.5q0 23 20 80t23 75q3 16 4.5 40t2 40t5 34.5t12.5 29.5t25 18.5t43 7.5zM424 1458q43 0 43 -28q0 -63 -47 -197 q-6 -18 -12 -82t-14 -150.5t-15 -136.5q-8 -53 -35 -156.5t-35 -156.5q-3 -22 -12 -78t-13.5 -86.5t-9 -75.5t-4.5 -82q0 -11 5 -16t8.5 -5.5l17.5 -2.5q37 -5 132.5 -14.5t141.5 -16.5q21 -4 31 -27t10 -49q0 -24 -4.5 -65.5t-11.5 -50.5q-11 -17 -70 -17q-67 0 -288 23 q-75 7 -126 19.5t-72 25.5t-21 26q0 53 19.5 219t39.5 273q10 56 40.5 170.5t39.5 175.5q9 58 14.5 194.5t13.5 157.5q9 22 23 77t27 85q20 47 184 47z" />
<glyph unicode="&#x13e;" horiz-adv-x="522" d="M645 1571q34 0 57.5 -6t34.5 -15t15 -17t4 -15q0 -35 -15 -129q-3 -18 -13.5 -55.5t-27 -81.5t-39.5 -76.5t-45 -32.5q-30 0 -68 36t-38 66q0 23 20 80.5t23 75.5q3 16 4.5 40t2 40t5 34.5t12.5 29.5t25 18.5t43 7.5zM350 1460q33 0 74 -19t41 -48q0 -55 -10 -149 t-21 -152q-4 -24 -39.5 -249t-48.5 -288q-2 -12 -11.5 -55t-13.5 -61.5t-11 -56t-10 -59.5t-6 -48.5t-3 -45.5q0 -15 20.5 -30t48.5 -19q19 -3 29.5 -5.5t25.5 -7t22 -11t7 -15.5q0 -21 -6 -72.5t-10 -68.5q-2 -8 -15 -15t-30 -8q-37 -3 -97 5t-98 18q-55 16 -91 77.5 t-36 180.5q0 28 8.5 78t18 92.5t24.5 108t21 92.5q14 65 46 270t38 234q23 118 23 280q0 20 32 33.5t78 13.5z" />
<glyph unicode="&#x13f;" horiz-adv-x="768" d="M424 1458q43 0 43 -28q0 -63 -47 -197q-6 -18 -12 -82t-14 -150.5t-15 -136.5q-8 -53 -35 -156.5t-35 -156.5q-3 -22 -12 -78t-13.5 -86.5t-9 -75.5t-4.5 -82q0 -11 5 -16t8.5 -5.5l17.5 -2.5q37 -5 132.5 -14.5t141.5 -16.5q21 -4 31 -27t10 -49q0 -24 -4.5 -65.5 t-11.5 -50.5q-11 -17 -70 -17q-67 0 -288 23q-75 7 -126 19.5t-72 25.5t-21 26q0 53 19.5 219t39.5 273q10 56 40.5 170.5t39.5 175.5q9 58 14.5 194.5t13.5 157.5q9 22 23 77t27 85q20 47 184 47zM651 928q43 0 73 -19.5t30 -60.5q0 -176 -154 -176q-102 0 -102 92 q0 164 153 164z" />
<glyph unicode="&#x140;" horiz-adv-x="692" d="M350 1460q33 0 74 -19t41 -48q0 -55 -10 -149t-21 -152q-4 -24 -39.5 -249t-48.5 -288q-2 -12 -11.5 -55t-13.5 -61.5t-11 -56t-10 -59.5t-6 -48.5t-3 -45.5q0 -15 20.5 -30t48.5 -19q19 -3 29.5 -5.5t25.5 -7t22 -11t7 -15.5q0 -21 -6 -72.5t-10 -68.5q-2 -8 -15 -15 t-30 -8q-37 -3 -97 5t-98 18q-55 16 -91 77.5t-36 180.5q0 28 8.5 78t18 92.5t24.5 108t21 92.5q14 65 46 270t38 234q23 118 23 280q0 20 32 33.5t78 13.5zM631 866q43 0 72.5 -19.5t29.5 -60.5q0 -176 -153 -176q-103 0 -103 92q0 79 38.5 121.5t115.5 42.5z" />
<glyph unicode="&#x141;" horiz-adv-x="823" d="M631 174q21 -4 31 -27t10 -49q0 -23 -5 -65t-12 -51q-11 -17 -69 -17q-68 0 -289 23q-75 7 -126 19.5t-72 25.5t-21 26q0 93 40 369q-39 -14 -52 -14q-25 0 -25 49q0 141 18 153q9 7 105 53q4 18 14 55.5t15.5 59.5t12.5 54t11 59q7 49 11.5 130.5t7.5 143t10 78.5 q9 22 22.5 77t26.5 85q20 47 184 47q43 0 43 -28q0 -63 -47 -197q-6 -18 -12 -82t-14 -150.5t-15 -136.5q-8 -48 -13 -71l21 12q18 10 87 78.5t79 68.5q35 0 68 -50t33 -83q0 -34 -76.5 -108t-122.5 -101q-29 -17 -148 -74q-2 -12 -9.5 -59t-10.5 -67t-7.5 -57t-6.5 -66 t-2 -58q0 -4 0.5 -7t1.5 -5t1.5 -4t3 -3t3.5 -1.5t4.5 -1.5t4.5 -1t5.5 -0.5t5.5 -0.5q37 -5 133 -14.5t142 -16.5z" />
<glyph unicode="&#x142;" horiz-adv-x="583" d="M596 1108q29 0 29 -66q0 -83 -7 -105.5t-30 -35.5q-22 -14 -54.5 -28t-71.5 -28t-54 -21q-33 -207 -46 -269q-2 -12 -11.5 -55t-13.5 -61.5t-11 -56t-10 -59.5t-6 -48.5t-3 -45.5q0 -15 21 -29.5t49 -19.5q19 -3 29.5 -5.5t25.5 -7t22 -11t7 -15.5q0 -20 -6 -72t-11 -69 q-2 -8 -15 -15t-30 -8q-37 -3 -96.5 5t-97.5 18q-55 16 -91 77.5t-36 180.5q0 28 8.5 78t18 92.5t24.5 108t21 92.5l16 86q-56 -21 -70 -21q-16 0 -23 1t-14.5 12t-7.5 34q0 15 14.5 79.5t22.5 72.5q33 30 117 68q25 155 28 172q23 118 23 280q0 20 32.5 33.5t78.5 13.5 q33 0 73.5 -19t40.5 -48q0 -55 -9.5 -149.5t-20.5 -151.5l-5 -26q107 42 150 42z" />
<glyph unicode="&#x143;" horiz-adv-x="1155" d="M932 1978q33 0 68.5 -40t35.5 -74q0 -32 -114.5 -162.5t-139.5 -130.5q-30 0 -74 34.5t-44 65.5q0 26 55.5 101t121.5 140.5t91 65.5zM453 1458q29 0 66 -38t59 -89q10 -26 32 -114.5t31 -141.5q10 -62 31 -254q5 -35 34.5 -135t41.5 -170q2 -15 6.5 -43.5t6.5 -43t6 -34 t8.5 -31.5t10.5 -20q5 12 10.5 38t11.5 69t10.5 73.5t11 85.5t8.5 72q6 47 25 205t32 243q1 8 14 80t13 101q0 15 -6.5 41t-6.5 39q0 25 69 45t105 20q15 0 25 -21t14 -54t5 -54t1 -39q0 -70 -20 -203q-10 -70 -27.5 -222.5t-33.5 -246.5q-2 -8 -20.5 -117t-39.5 -224.5 t-37 -182.5q-14 -60 -28 -75q-12 -11 -27 -11q-22 0 -78.5 10t-75.5 11q-49 1 -111.5 135t-88.5 295q-14 80 -43.5 200t-32.5 144q-1 6 -3.5 36t-5 57t-6.5 59t-9 54.5t-11 30.5q-26 -85 -57 -268q-15 -91 -33 -298t-39 -316q-28 -125 -49 -146q-22 -22 -121 -22 q-94 0 -94 32q0 7 21 73.5t24 84.5q20 107 40 315.5t38 309.5q29 164 57 278q3 16 19 116.5t32 175.5t29 77q52 8 156 8z" />
<glyph unicode="&#x144;" horiz-adv-x="1036" d="M629 1223q-30 0 -74.5 35t-44.5 65q0 26 55.5 101t121.5 140.5t91 65.5q33 0 69 -40t36 -74q0 -32 -114.5 -162.5t-139.5 -130.5zM834 182q0 -14 58 -31t58 -26q0 -31 -8 -70t-24 -47q-18 -9 -74.5 -16.5t-95.5 -7.5q-136 0 -136 217q0 42 31 200t31 248q0 22 21.5 102.5 t21.5 112.5q0 22 -29.5 44t-46.5 22q-103 -2 -270 -138l-8 -34q-2 -13 -28.5 -273.5t-33.5 -300.5q-6 -36 -27 -100t-32 -78q-18 -22 -86 -22q-138 0 -138 43q0 18 25 86.5t31 97.5q7 32 35 308.5t34 303.5q5 24 37.5 139.5t32.5 131.5t53 24t99 8q33 0 47 -7t14 -29l-1 -26 q105 75 226 75q117 0 203 -85t86 -200q0 -39 -18.5 -118.5t-18.5 -98.5q0 -81 -17.5 -181t-34.5 -176t-17 -98z" />
<glyph unicode="&#x145;" horiz-adv-x="1155" d="M453 1458q29 0 66 -38t59 -89q10 -26 32 -114.5t31 -141.5q10 -62 31 -254q5 -35 34.5 -135t41.5 -170q2 -15 6.5 -43.5t6.5 -43t6 -34t8.5 -31.5t10.5 -20q5 12 10.5 38t11.5 69t10.5 73.5t11 85.5t8.5 72q6 47 25 205t32 243q1 8 14 80t13 101q0 15 -6.5 41t-6.5 39 q0 25 69 45t105 20q15 0 25 -21t14 -54t5 -54t1 -39q0 -70 -20 -203q-10 -70 -27.5 -222.5t-33.5 -246.5q-2 -8 -20.5 -117t-39.5 -224.5t-37 -182.5q-14 -60 -28 -75q-12 -11 -27 -11q-22 0 -78.5 10t-75.5 11q-49 1 -111.5 135t-88.5 295q-14 80 -43.5 200t-32.5 144 q-1 6 -3.5 36t-5 57t-6.5 59t-9 54.5t-11 30.5q-26 -85 -57 -268q-15 -91 -33 -298t-39 -316q-28 -125 -49 -146q-22 -22 -121 -22q-94 0 -94 32q0 7 21 73.5t24 84.5q20 107 40 315.5t38 309.5q29 164 57 278q3 16 19 116.5t32 175.5t29 77q52 8 156 8zM545 -119 q20 0 30.5 -70.5t10.5 -115.5q0 -102 -59.5 -187.5t-114.5 -85.5q-23 0 -62 47.5t-39 71.5q0 11 35 59t35 83q0 26 -4 70.5t-4 56.5q0 31 64.5 51t107.5 20z" />
<glyph unicode="&#x146;" horiz-adv-x="1036" d="M834 182q0 -14 58 -31t58 -26q0 -31 -8 -70t-24 -47q-18 -9 -74.5 -16.5t-95.5 -7.5q-136 0 -136 217q0 42 31 200t31 248q0 22 21.5 102.5t21.5 112.5q0 22 -29.5 44t-46.5 22q-103 -2 -270 -138l-8 -34q-2 -13 -28.5 -273.5t-33.5 -300.5q-6 -36 -27 -100t-32 -78 q-18 -22 -86 -22q-138 0 -138 43q0 18 25 86.5t31 97.5q7 32 35 308.5t34 303.5q5 24 37.5 139.5t32.5 131.5t53 24t99 8q33 0 47 -7t14 -29l-1 -26q105 75 226 75q117 0 203 -85t86 -200q0 -39 -18.5 -118.5t-18.5 -98.5q0 -81 -17.5 -181t-34.5 -176t-17 -98zM504 -37 q20 0 30.5 -70.5t10.5 -115.5q0 -102 -59.5 -187.5t-114.5 -85.5q-23 0 -62 47.5t-39 71.5q0 11 35 59t35 82q0 26 -4 70.5t-4 56.5q0 31 64.5 51.5t107.5 20.5z" />
<glyph unicode="&#x147;" horiz-adv-x="1155" d="M975 1933q14 0 55 -51t41 -67q0 -13 -23 -35.5t-58.5 -50t-43.5 -35.5q-33 -32 -107 -78.5t-104 -46.5q-28 0 -58 24t-72 77l-42 52q-19 22 -48.5 64t-29.5 57q0 29 49.5 54.5t81.5 25.5q18 0 73.5 -66.5t60.5 -66.5q17 0 68 34t67 52q51 57 90 57zM453 1458q29 0 66 -38 t59 -89q10 -26 32 -114.5t31 -141.5q10 -62 31 -254q5 -35 34.5 -135t41.5 -170q2 -15 6.5 -43.5t6.5 -43t6 -34t8.5 -31.5t10.5 -20q5 12 10.5 38t11.5 69t10.5 73.5t11 85.5t8.5 72q6 47 25 205t32 243q1 8 14 80t13 101q0 15 -6.5 41t-6.5 39q0 25 69 45t105 20 q15 0 25 -21t14 -54t5 -54t1 -39q0 -70 -20 -203q-10 -70 -27.5 -222.5t-33.5 -246.5q-2 -8 -20.5 -117t-39.5 -224.5t-37 -182.5q-14 -60 -28 -75q-12 -11 -27 -11q-22 0 -78.5 10t-75.5 11q-49 1 -111.5 135t-88.5 295q-14 80 -43.5 200t-32.5 144q-1 6 -3.5 36t-5 57 t-6.5 59t-9 54.5t-11 30.5q-26 -85 -57 -268q-15 -91 -33 -298t-39 -316q-28 -125 -49 -146q-22 -22 -121 -22q-94 0 -94 32q0 7 21 73.5t24 84.5q20 107 40 315.5t38 309.5q29 164 57 278q3 16 19 116.5t32 175.5t29 77q52 8 156 8z" />
<glyph unicode="&#x148;" horiz-adv-x="1036" d="M582 1221q-28 0 -58 24t-72 77l-42 52q-19 22 -48.5 64t-29.5 57q0 29 49.5 54.5t81.5 25.5q18 0 73 -66.5t60 -66.5q17 0 68 34t67 52q51 57 90 57q14 0 55.5 -51.5t41.5 -67.5q0 -13 -23 -35t-58.5 -49.5t-43.5 -35.5q-33 -32 -107 -78.5t-104 -46.5zM834 182 q0 -14 58 -31t58 -26q0 -31 -8 -70t-24 -47q-18 -9 -74.5 -16.5t-95.5 -7.5q-136 0 -136 217q0 42 31 200t31 248q0 22 21.5 102.5t21.5 112.5q0 22 -29.5 44t-46.5 22q-103 -2 -270 -138l-8 -34q-2 -13 -28.5 -273.5t-33.5 -300.5q-6 -36 -27 -100t-32 -78q-18 -22 -86 -22 q-138 0 -138 43q0 18 25 86.5t31 97.5q7 32 35 308.5t34 303.5q5 24 37.5 139.5t32.5 131.5t53 24t99 8q33 0 47 -7t14 -29l-1 -26q105 75 226 75q117 0 203 -85t86 -200q0 -39 -18.5 -118.5t-18.5 -98.5q0 -81 -17.5 -181t-34.5 -176t-17 -98z" />
<glyph unicode="&#x149;" horiz-adv-x="1017" d="M111 1186q-23 0 -62 47.5t-39 71.5q0 11 35 59t35 82q0 26 -4 70.5t-4 56.5q0 31 64.5 51.5t107.5 20.5q20 0 30.5 -71t10.5 -116q0 -102 -59.5 -187t-114.5 -85zM834 182q0 -14 58 -31t58 -26q0 -31 -8 -70t-24 -47q-18 -9 -74.5 -16.5t-95.5 -7.5q-136 0 -136 217 q0 42 31 200t31 248q0 22 21.5 102.5t21.5 112.5q0 22 -29.5 44t-46.5 22q-103 -2 -270 -138l-8 -34q-2 -13 -28.5 -273.5t-33.5 -300.5q-6 -36 -27 -100t-32 -78q-18 -22 -86 -22q-138 0 -138 43q0 18 25 86.5t31 97.5q7 32 35 308.5t34 303.5q5 24 37.5 139.5t32.5 131.5 t53 24t99 8q33 0 47 -7t14 -29l-1 -26q105 75 226 75q117 0 203 -85t86 -200q0 -39 -18.5 -118.5t-18.5 -98.5q0 -81 -17.5 -181t-34.5 -176t-17 -98z" />
<glyph unicode="&#x14c;" d="M731 1849q46 0 148 -33t102 -65q0 -20 -29.5 -72.5t-46.5 -52.5q-36 0 -107.5 18.5t-107.5 18.5q-37 0 -110.5 -16.5t-110.5 -16.5q-18 0 -32.5 50.5t-14.5 74.5q0 40 114.5 67t194.5 27zM688 1477q76 0 135 -25t96 -66t60.5 -98t33 -115.5t9.5 -123.5q0 -170 -47 -424 q-43 -246 -104.5 -383.5t-182.5 -210.5q-95 -56 -301 -56q-172 0 -253 81.5t-81 252.5q0 71 13 143.5t34.5 160t30.5 139.5q4 28 11.5 112t17.5 129q27 111 68.5 196t104 151.5t152 101.5t203.5 35zM670 1268q-57 0 -104 -21.5t-77.5 -54t-55 -81t-38 -93.5t-24.5 -100 q-7 -34 -11.5 -99.5t-7.5 -87.5q-6 -42 -41 -172t-35 -211q0 -68 28 -115t91 -47h25.5h29t26.5 0.5t29 2t26 4t27.5 6.5t23.5 10q107 54 172 438q43 260 43 369q0 252 -127 252z" />
<glyph unicode="&#x14d;" horiz-adv-x="899" d="M627 1489q46 0 148 -33t102 -65q0 -20 -29.5 -72.5t-46.5 -52.5q-36 0 -107.5 18.5t-107.5 18.5q-37 0 -110.5 -16.5t-110.5 -16.5q-18 0 -33 50.5t-15 74.5q0 40 115 67t195 27zM559 1143q102 0 201.5 -89t99.5 -204q0 -147 -32.5 -313.5t-103.5 -319t-165 -207.5 q-38 -21 -103.5 -33t-119.5 -12q-167 0 -235 77.5t-68 246.5q0 78 42 227.5t42 220.5q0 112 65 206.5t166 147t211 52.5zM553 930q-103 0 -162 -70t-59 -172q0 -51 -39 -205t-39 -188q0 -11 -0.5 -30t-0.5 -27t1.5 -21t6.5 -18.5t13 -12t21.5 -8.5t32.5 -2q82 0 106 14 q47 27 87.5 111t65 183.5t38.5 192.5t14 152q0 34 -26 67.5t-60 33.5z" />
<glyph unicode="&#x14e;" d="M864 1929q24 0 65.5 -14.5t41.5 -34.5q0 -74 -29.5 -142.5t-85.5 -111.5q-33 -27 -78 -35t-110 -8q-68 0 -131.5 61.5t-63.5 131.5q0 16 2.5 32.5t7 39l6.5 32.5q4 24 38 33.5t67 9.5q24 0 49 -11.5t25 -27.5q0 -2 -5.5 -21t-5.5 -34q0 -74 33 -74q31 0 48 13.5t34 43.5 q12 20 21.5 54.5t11.5 36.5q22 26 59 26zM688 1477q76 0 135 -25t96 -66t60.5 -98t33 -115.5t9.5 -123.5q0 -170 -47 -424q-43 -246 -104.5 -383.5t-182.5 -210.5q-95 -56 -301 -56q-172 0 -253 81.5t-81 252.5q0 71 13 143.5t34.5 160t30.5 139.5q4 28 11.5 112t17.5 129 q27 111 68.5 196t104 151.5t152 101.5t203.5 35zM670 1268q-57 0 -104 -21.5t-77.5 -54t-55 -81t-38 -93.5t-24.5 -100q-7 -34 -11.5 -99.5t-7.5 -87.5q-6 -42 -41 -172t-35 -211q0 -68 28 -115t91 -47h25.5h29t26.5 0.5t29 2t26 4t27.5 6.5t23.5 10q107 54 172 438 q43 260 43 369q0 252 -127 252z" />
<glyph unicode="&#x14f;" horiz-adv-x="899" d="M760 1569q24 0 65 -14.5t41 -34.5q0 -74 -29 -143t-85 -111q-33 -27 -78 -35t-111 -8q-68 0 -131 61t-63 131q0 16 2.5 32.5t7 40t6.5 32.5q4 24 37.5 33.5t66.5 9.5q24 0 49 -11.5t25 -27.5q0 -2 -5 -21.5t-5 -34.5q0 -73 33 -73q31 0 48 13.5t34 43.5q12 20 21 54 t11 36q23 27 60 27zM559 1143q102 0 201.5 -89t99.5 -204q0 -147 -32.5 -313.5t-103.5 -319t-165 -207.5q-38 -21 -103.5 -33t-119.5 -12q-167 0 -235 77.5t-68 246.5q0 78 42 227.5t42 220.5q0 112 65 206.5t166 147t211 52.5zM553 930q-103 0 -162 -70t-59 -172 q0 -51 -39 -205t-39 -188q0 -11 -0.5 -30t-0.5 -27t1.5 -21t6.5 -18.5t13 -12t21.5 -8.5t32.5 -2q82 0 106 14q47 27 87.5 111t65 183.5t38.5 192.5t14 152q0 34 -26 67.5t-60 33.5z" />
<glyph unicode="&#x150;" d="M608 1985q34 0 68.5 -10.5t34.5 -35.5q0 -37 -30 -137.5t-65 -189.5q-6 -15 -16.5 -22.5t-21 -9t-29.5 -1.5q-26 0 -74.5 15t-48.5 34q0 15 30 91.5t33 88.5l8.5 42.5l8.5 42.5t11 35t18.5 30.5t29 18.5t43.5 8zM915 1980q70 0 70 -45q0 -80 -8 -137q-2 -16 -20.5 -95 t-22.5 -83q-34 -37 -117 -37q-80 0 -80 25q0 16 18.5 92t20.5 92q1 7 4.5 45t8 68.5t8.5 36.5q11 18 50 28t68 10zM688 1477q76 0 135 -25t96 -66t60.5 -98t33 -115.5t9.5 -123.5q0 -170 -47 -424q-43 -246 -104.5 -383.5t-182.5 -210.5q-95 -56 -301 -56q-172 0 -253 81.5 t-81 252.5q0 71 13 143.5t34.5 160t30.5 139.5q4 28 11.5 112t17.5 129q27 111 68.5 196t104 151.5t152 101.5t203.5 35zM670 1268q-57 0 -104 -21.5t-77.5 -54t-55 -81t-38 -93.5t-24.5 -100q-7 -34 -11.5 -99.5t-7.5 -87.5q-6 -42 -41 -172t-35 -211q0 -68 28 -115t91 -47 h25.5h29t26.5 0.5t29 2t26 4t27.5 6.5t23.5 10q107 54 172 438q43 260 43 369q0 252 -127 252z" />
<glyph unicode="&#x151;" horiz-adv-x="899" d="M504 1624q35 0 68.5 -10t33.5 -35q0 -37 -30 -138.5t-64 -189.5q-8 -21 -23.5 -26.5t-44.5 -5.5q-26 0 -74 15t-48 34q0 15 30 91.5t33 88.5l8.5 42.5t8.5 42t11 35t18.5 30.5t29 18t43.5 8zM811 1620q70 0 70 -45q0 -73 -9 -137q-2 -16 -20.5 -95t-22.5 -83 q-34 -37 -116 -37q-80 0 -80 24q0 16 18.5 92.5t20.5 92.5q1 8 4.5 45t7.5 67.5t8 36.5q11 18 50.5 28.5t68.5 10.5zM559 1143q102 0 201.5 -89t99.5 -204q0 -147 -32.5 -313.5t-103.5 -319t-165 -207.5q-38 -21 -103.5 -33t-119.5 -12q-167 0 -235 77.5t-68 246.5 q0 78 42 227.5t42 220.5q0 112 65 206.5t166 147t211 52.5zM553 930q-103 0 -162 -70t-59 -172q0 -51 -39 -205t-39 -188q0 -11 -0.5 -30t-0.5 -27t1.5 -21t6.5 -18.5t13 -12t21.5 -8.5t32.5 -2q82 0 106 14q47 27 87.5 111t65 183.5t38.5 192.5t14 152q0 34 -26 67.5 t-60 33.5z" />
<glyph unicode="&#x152;" horiz-adv-x="1406" d="M1466 1456q25 0 25 -41q0 -47 -16 -99t-35 -67q-17 -13 -106 -18.5t-152 -5.5q-35 0 -94.5 5t-94.5 5q-4 -32 -19.5 -100.5t-19.5 -100.5q-7 -51 -11 -125q83 1 187.5 20t196.5 19q72 0 72 -30q0 -26 -14 -88t-27 -78q-6 -7 -26.5 -15t-45.5 -8q-75 0 -176.5 -17 t-173.5 -19q-4 -123 -16 -208q-24 -157 -76 -274q22 1 90 4.5t106 3.5q75 0 163.5 -21t88.5 -46q0 -24 -41.5 -96t-60.5 -72q-36 0 -97.5 11t-97.5 11q-59 0 -160 -7t-161 -7q-14 0 -37 51q-57 -28 -80 -38t-64 -21t-83 -11q-40 0 -97 11q-49 10 -88.5 45t-64 86.5 t-41.5 108.5t-25.5 121.5t-12 115t-3.5 98.5q0 43 17.5 143.5t48.5 223.5t83 244.5t111 183.5q70 74 139 95t189 21q49 0 79.5 -15t65.5 -48q21 53 39 53q62 0 178 -11t178 -11q43 0 130 9t130 9zM713 651q0 17 -1 52t-1 53q0 139 12 303q0 103 -26 153t-95 50 q-35 0 -55.5 -12t-52.5 -44q-44 -43 -91.5 -192.5t-73.5 -280t-26 -166.5q0 -88 11.5 -212.5t37.5 -145.5q31 -25 80 -25q40 0 107 43.5t98 81.5q29 47 52.5 159t23.5 183z" />
<glyph unicode="&#x153;" horiz-adv-x="1421" d="M1077 1139q164 0 240 -65.5t76 -227.5q0 -286 -93 -334q-43 -21 -186 -21q-17 0 -66 0.5t-69 0t-55.5 -1.5t-62 -4t-51.5 -8l-4 -42q-1 -16 -1 -47q0 -57 5.5 -90.5t23.5 -62t54.5 -40.5t96.5 -12q39 0 65 28t38 69q1 3 4 13t4 13.5t3.5 11.5t4.5 11t5.5 9t7 8.5t8 5.5 t10 4t12.5 1q30 0 85.5 -33.5t55.5 -60.5q0 -61 -12 -98q-31 -84 -113.5 -137.5t-179.5 -53.5q-223 0 -319 119q-121 -131 -322 -131q-152 0 -231.5 86t-79.5 240q0 156 53 386.5t104 291.5q29 34 44.5 51t47.5 42.5t63 38t81 22t111 9.5q177 0 257 -118q119 127 285 127z M1171 834q0 61 -8 76q-13 26 -61 26q-183 0 -257 -247q23 6 58.5 8.5t62.5 2.5t72.5 -1t63.5 -1q24 0 38.5 9.5t21 31t8 41t1.5 54.5zM338 170q111 0 171 65.5t75 176.5q2 40 6 83v3q0 69 19.5 169.5t19.5 129.5q0 64 -23 93.5t-86 29.5q-45 0 -74.5 -12.5t-40 -25.5 t-28.5 -46.5t-29 -49.5q-46 -66 -70 -221t-24 -282q0 -48 19.5 -80.5t64.5 -32.5z" />
<glyph unicode="&#x154;" horiz-adv-x="958" d="M659 1571q-30 0 -74 34.5t-44 65.5q0 26 55.5 101t121.5 140.5t91 65.5q33 0 68.5 -40t35.5 -74q0 -32 -114.5 -162.5t-139.5 -130.5zM788 205q18 0 40 -53.5t22 -92.5q0 -14 -36 -31.5t-100.5 -30.5t-131.5 -13q-40 0 -64 101t-35.5 229t-13.5 137q-26 91 -69 172 l-41 -4q0 -3 -0.5 -8t-0.5 -7q0 -8 -1 -28.5t-1 -32.5q0 -64 -56 -296t-89 -245q-35 -16 -115 -16q-78 0 -78 34q0 11 6.5 41.5t15.5 66t11 44.5q6 27 30 131t36 163t12 79q0 16 1 44t1 42q0 65 61.5 413t88.5 377q21 24 68 36.5t89 12.5h14q47 0 72.5 -0.5t74.5 -2.5t79 -7 t73.5 -14.5t71 -22.5t58.5 -34.5t48.5 -48t29.5 -64t12 -82.5q0 -135 -41 -257.5t-111.5 -200.5t-152.5 -87l-41 -4q5 -14 16 -50t18 -56q11 -36 22 -123t18.5 -153t13.5 -66q7 0 35 4t40 4zM428 1100q-33 -204 -42 -262q20 1 65.5 2t80.5 3.5t64 8.5q63 13 104 106.5 t41 194.5q0 27 -9.5 47t-23.5 31.5t-36 18t-42 8.5t-46 2q-120 0 -129 -31q-5 -16 -27 -129z" />
<glyph unicode="&#x155;" horiz-adv-x="667" d="M494 1223q-30 0 -74.5 35t-44.5 65q0 26 55.5 101t121.5 140.5t91 65.5q33 0 69 -40t36 -74q0 -32 -114.5 -162.5t-139.5 -130.5zM655 1112q57 0 67.5 -9t10.5 -61q0 -27 -10 -62.5t-23 -55.5q-8 -12 -30 -20.5t-57.5 -19t-57.5 -20.5q-83 -35 -141 -70 q-21 -116 -21 -128q0 -41 -4.5 -83t-9 -68.5t-16 -82t-17.5 -88.5q-10 -52 -16.5 -83.5t-19 -79.5t-25 -77t-29.5 -58.5t-38.5 -43.5t-47.5 -14t-77.5 33.5t-51.5 56.5q0 8 18.5 74t40.5 142.5t27 100.5q1 5 7 35.5t8.5 42.5t8 41.5t8 49t5.5 46t4.5 51t1.5 48.5 q0 22 11.5 77.5t11.5 73.5q0 47 -68 66q-27 8 -27 47q0 32 23 93.5t43 61.5q59 0 129 -23.5t109 -78.5q47 34 122 60t131 26z" />
<glyph unicode="&#x156;" horiz-adv-x="958" d="M788 205q18 0 40 -53.5t22 -92.5q0 -14 -36 -31.5t-100.5 -30.5t-131.5 -13q-40 0 -64 101t-35.5 229t-13.5 137q-26 91 -69 172l-41 -4q0 -3 -0.5 -8t-0.5 -7q0 -8 -1 -28.5t-1 -32.5q0 -64 -56 -296t-89 -245q-35 -16 -115 -16q-78 0 -78 34q0 11 6.5 41.5t15.5 66 t11 44.5q6 27 30 131t36 163t12 79q0 16 1 44t1 42q0 65 61.5 413t88.5 377q21 24 68 36.5t89 12.5h14q47 0 72.5 -0.5t74.5 -2.5t79 -7t73.5 -14.5t71 -22.5t58.5 -34.5t48.5 -48t29.5 -64t12 -82.5q0 -135 -41 -257.5t-111.5 -200.5t-152.5 -87l-41 -4q5 -14 16 -50 t18 -56q11 -36 22 -123t18.5 -153t13.5 -66q7 0 35 4t40 4zM428 1100q-33 -204 -42 -262q20 1 65.5 2t80.5 3.5t64 8.5q63 13 104 106.5t41 194.5q0 27 -9.5 47t-23.5 31.5t-36 18t-42 8.5t-46 2q-120 0 -129 -31q-5 -16 -27 -129zM442 -37q20 0 30.5 -70.5t10.5 -115.5 q0 -102 -59.5 -187.5t-114.5 -85.5q-23 0 -61.5 47.5t-38.5 71.5q0 11 34.5 59t34.5 82q0 26 -4 70.5t-4 56.5q0 31 64.5 51.5t107.5 20.5z" />
<glyph unicode="&#x157;" horiz-adv-x="667" d="M655 1112q57 0 67.5 -9t10.5 -61q0 -27 -10 -62.5t-23 -55.5q-8 -12 -30 -20.5t-57.5 -19t-57.5 -20.5q-83 -35 -141 -70q-21 -116 -21 -128q0 -41 -4.5 -83t-9 -68.5t-16 -82t-17.5 -88.5q-10 -52 -16.5 -83.5t-19 -79.5t-25 -77t-29.5 -58.5t-38.5 -43.5t-47.5 -14 t-77.5 33.5t-51.5 56.5q0 8 18.5 74t40.5 142.5t27 100.5q1 5 7 35.5t8.5 42.5t8 41.5t8 49t5.5 46t4.5 51t1.5 48.5q0 22 11.5 77.5t11.5 73.5q0 47 -68 66q-27 8 -27 47q0 32 23 93.5t43 61.5q59 0 129 -23.5t109 -78.5q47 34 122 60t131 26zM209 -119q20 0 30.5 -70.5 t10.5 -115.5q0 -102 -59.5 -187.5t-114.5 -85.5q-23 0 -62 47.5t-39 71.5q0 11 35 59t35 83q0 26 -4 70.5t-4 56.5q0 31 64.5 51t107.5 20z" />
<glyph unicode="&#x158;" horiz-adv-x="958" d="M612 1569q-28 0 -58 24t-72 77l-42 52q-19 22 -48.5 64t-29.5 57q0 29 50 54.5t82 25.5q18 0 73 -66.5t60 -66.5q17 0 68 34t67 52q51 57 90 57q14 0 55 -51t41 -67q0 -13 -23 -35.5t-58.5 -50t-43.5 -35.5q-33 -32 -107 -78.5t-104 -46.5zM788 205q18 0 40 -53.5 t22 -92.5q0 -14 -36 -31.5t-100.5 -30.5t-131.5 -13q-40 0 -64 101t-35.5 229t-13.5 137q-26 91 -69 172l-41 -4q0 -3 -0.5 -8t-0.5 -7q0 -8 -1 -28.5t-1 -32.5q0 -64 -56 -296t-89 -245q-35 -16 -115 -16q-78 0 -78 34q0 11 6.5 41.5t15.5 66t11 44.5q6 27 30 131t36 163 t12 79q0 16 1 44t1 42q0 65 61.5 413t88.5 377q21 24 68 36.5t89 12.5h14q47 0 72.5 -0.5t74.5 -2.5t79 -7t73.5 -14.5t71 -22.5t58.5 -34.5t48.5 -48t29.5 -64t12 -82.5q0 -135 -41 -257.5t-111.5 -200.5t-152.5 -87l-41 -4q5 -14 16 -50t18 -56q11 -36 22 -123t18.5 -153 t13.5 -66q7 0 35 4t40 4zM428 1100q-33 -204 -42 -262q20 1 65.5 2t80.5 3.5t64 8.5q63 13 104 106.5t41 194.5q0 27 -9.5 47t-23.5 31.5t-36 18t-42 8.5t-46 2q-120 0 -129 -31q-5 -16 -27 -129z" />
<glyph unicode="&#x159;" horiz-adv-x="667" d="M686 1585q14 0 55 -51.5t41 -67.5q0 -13 -23 -35t-58.5 -49.5t-43.5 -35.5q-33 -32 -107 -78.5t-104 -46.5q-28 0 -58 24t-72 77l-42 52q-19 21 -48 63.5t-29 57.5q0 29 49.5 54.5t81.5 25.5q18 0 73 -66.5t60 -66.5q17 0 68 34t67 52q51 57 90 57zM655 1112 q57 0 67.5 -9t10.5 -61q0 -27 -10 -62.5t-23 -55.5q-8 -12 -30 -20.5t-57.5 -19t-57.5 -20.5q-83 -35 -141 -70q-21 -116 -21 -128q0 -41 -4.5 -83t-9 -68.5t-16 -82t-17.5 -88.5q-10 -52 -16.5 -83.5t-19 -79.5t-25 -77t-29.5 -58.5t-38.5 -43.5t-47.5 -14t-77.5 33.5 t-51.5 56.5q0 8 18.5 74t40.5 142.5t27 100.5q1 5 7 35.5t8.5 42.5t8 41.5t8 49t5.5 46t4.5 51t1.5 48.5q0 22 11.5 77.5t11.5 73.5q0 47 -68 66q-27 8 -27 47q0 32 23 93.5t43 61.5q59 0 129 -23.5t109 -78.5q47 34 122 60t131 26z" />
<glyph unicode="&#x15a;" horiz-adv-x="884" d="M844 1978q33 0 68.5 -40t35.5 -74q0 -32 -114.5 -162.5t-139.5 -130.5q-30 0 -74.5 35t-44.5 65q0 26 56 101t122 140.5t91 65.5zM575 1487q62 0 122 -14.5t113.5 -44.5t86.5 -83t33 -122q0 -31 -69 -55.5t-109 -24.5q-7 0 -12 10.5t-10 26t-9 22.5q-26 36 -69.5 56 t-90.5 20q-102 0 -145 -53.5t-43 -159.5q0 -56 52.5 -109.5t119.5 -95.5q50 -32 77 -50t65 -50.5t56.5 -62t33 -72.5t14.5 -93q0 -78 -13.5 -153.5t-48 -151.5t-86 -132.5t-134 -92t-185.5 -35.5q-77 0 -152 32t-126.5 94.5t-51.5 139.5q0 31 12.5 98.5t24.5 84.5 q21 28 145 28q74 0 74 -20t-15.5 -79t-15.5 -85q0 -30 27 -52t58 -30t58 -8q56 0 103.5 52t71.5 125.5t24 144.5q0 109 -145 194q-115 68 -190.5 160t-75.5 203q0 207 108.5 322.5t316.5 115.5z" />
<glyph unicode="&#x15b;" horiz-adv-x="808" d="M711 1630q33 0 68.5 -40t35.5 -74q0 -32 -114.5 -162.5t-139.5 -130.5q-30 0 -74.5 35t-44.5 65q0 26 56 101t122 140.5t91 65.5zM481 1126q236 0 301 -186q19 -52 19 -109q0 -26 -60.5 -45.5t-99.5 -17.5q-36 3 -47 72q-4 24 -10 39t-27 28t-57 13q-46 0 -101 -30.5 t-55 -72.5q0 -38 5 -55.5t11.5 -23.5t28 -19t41.5 -31q100 -90 152.5 -166t70 -145.5t17.5 -171.5q0 -99 -97 -163.5t-221 -64.5q-151 0 -250.5 80t-99.5 195q0 27 54.5 63.5t84.5 36.5q15 0 27.5 -17t25 -41t30 -48t50.5 -41t78 -17q19 0 38.5 3.5t37.5 15t18 29.5 q0 43 -6.5 78t-24 66.5t-32.5 53t-49.5 51.5t-56 46t-69.5 51q-15 11 -22 16q-23 17 -36.5 37t-19 50.5t-6.5 51.5t-1 65v19q0 83 56 155t138 111t164 39z" />
<glyph unicode="&#x15c;" horiz-adv-x="884" d="M666 1944q28 0 76.5 -11t56.5 -26q4 -7 10 -21.5t10 -21.5q1 -2 12 -21.5t16 -29t16 -29.5t16.5 -33.5t12.5 -30t10 -29t3 -22.5q0 -23 -50 -53.5t-75 -30.5q-16 0 -35.5 28.5t-38.5 68t-24 47.5q-13 -8 -49 -47.5t-68 -74t-39 -34.5q-33 0 -92 27t-59 55q0 17 46 67.5 t105.5 107t69.5 68.5q1 1 7.5 8.5t8.5 9.5t8.5 8t10 8.5t10 6t12.5 4.5t13 1zM575 1487q62 0 122 -14.5t113.5 -44.5t86.5 -83t33 -122q0 -31 -69 -55.5t-109 -24.5q-7 0 -12 10.5t-10 26t-9 22.5q-26 36 -69.5 56t-90.5 20q-102 0 -145 -53.5t-43 -159.5q0 -56 52.5 -109.5 t119.5 -95.5q50 -32 77 -50t65 -50.5t56.5 -62t33 -72.5t14.5 -93q0 -78 -13.5 -153.5t-48 -151.5t-86 -132.5t-134 -92t-185.5 -35.5q-77 0 -152 32t-126.5 94.5t-51.5 139.5q0 31 12.5 98.5t24.5 84.5q21 28 145 28q74 0 74 -20t-15.5 -79t-15.5 -85q0 -30 27 -52t58 -30 t58 -8q56 0 103.5 52t71.5 125.5t24 144.5q0 109 -145 194q-115 68 -190.5 160t-75.5 203q0 207 108.5 322.5t316.5 115.5z" />
<glyph unicode="&#x15d;" horiz-adv-x="808" d="M532 1595q29 0 77.5 -10.5t56.5 -25.5q4 -7 10 -21.5t10 -21.5q1 -2 12 -21.5t16 -29t16 -29.5t16.5 -33.5t12.5 -30t10 -29t3 -22.5q0 -23 -50 -53.5t-75 -30.5q-16 0 -35.5 28t-38.5 67.5t-24 47.5q-13 -8 -49 -47.5t-68 -73.5t-39 -34q-33 0 -92 27t-59 55 q0 17 46 67.5t105.5 107t69.5 68.5q1 1 7.5 8.5t8.5 9.5l8 8t10 8t10 5.5t12 4.5t13 1zM481 1126q236 0 301 -186q19 -52 19 -109q0 -26 -60.5 -45.5t-99.5 -17.5q-36 3 -47 72q-4 24 -10 39t-27 28t-57 13q-46 0 -101 -30.5t-55 -72.5q0 -38 5 -55.5t11.5 -23.5t28 -19 t41.5 -31q100 -90 152.5 -166t70 -145.5t17.5 -171.5q0 -99 -97 -163.5t-221 -64.5q-151 0 -250.5 80t-99.5 195q0 27 54.5 63.5t84.5 36.5q15 0 27.5 -17t25 -41t30 -48t50.5 -41t78 -17q19 0 38.5 3.5t37.5 15t18 29.5q0 43 -6.5 78t-24 66.5t-32.5 53t-49.5 51.5t-56 46 t-69.5 51q-15 11 -22 16q-23 17 -36.5 37t-19 50.5t-6.5 51.5t-1 65v19q0 83 56 155t138 111t164 39z" />
<glyph unicode="&#x15e;" horiz-adv-x="884" d="M561 1278q-102 0 -145 -53.5t-43 -159.5q0 -56 52.5 -109.5t119.5 -95.5q50 -32 77 -50t65 -50.5t56.5 -62t33 -72.5t14.5 -93q0 -84 -17 -165t-53.5 -159t-103 -137.5t-155.5 -84.5q-5 -14 -16 -31.5t-19.5 -30t-8.5 -16.5q0 -1 28 -18t56 -52t28 -80q0 -120 -71 -175.5 t-232 -55.5q-29 0 -74 11.5t-86.5 37t-41.5 55.5q0 21 58 65t81 44q7 0 50 -17.5t77 -17.5q14 0 23.5 14t9.5 29q0 19 -37 37.5t-74 32t-37 20.5q0 24 17 65t42 76q-100 25 -170.5 93t-70.5 161q0 31 12.5 98.5t24.5 84.5q21 28 145 28q74 0 74 -20t-15.5 -79t-15.5 -85 q0 -30 27 -52t58 -30t58 -8q56 0 103.5 52t71.5 125.5t24 144.5q0 109 -145 194q-115 68 -190.5 160t-75.5 203q0 207 108.5 322.5t316.5 115.5q62 0 122 -14.5t113.5 -44.5t86.5 -83t33 -122q0 -31 -69 -55.5t-109 -24.5q-7 0 -12 10.5t-10 26t-9 22.5q-26 36 -69.5 56 t-90.5 20z" />
<glyph unicode="&#x15f;" horiz-adv-x="808" d="M500 920q-46 0 -101 -30.5t-55 -72.5q0 -38 5 -55.5t11.5 -23.5t28 -19t41.5 -31q100 -90 152.5 -166t70 -145.5t17.5 -171.5q0 -91 -82.5 -153.5t-196.5 -72.5q-5 -8 -13.5 -21t-13 -20t-4.5 -10q0 -1 28 -17.5t56.5 -51.5t28.5 -80q0 -120 -71 -176t-232 -56 q-28 0 -74 12t-87.5 37.5t-41.5 55.5q0 21 58 64.5t81 43.5q7 0 50 -17t77 -17q14 0 23.5 14t9.5 29q0 19 -36.5 37.5t-73.5 32t-37 20.5q0 26 19 70t47 80q-84 35 -133.5 100t-49.5 143q0 27 54.5 63.5t84.5 36.5q15 0 27.5 -17t25 -41t30 -48t50.5 -41t78 -17 q19 0 38.5 3.5t37.5 15t18 29.5q0 43 -6.5 78t-24 66.5t-32.5 53t-49.5 51.5t-56 46t-69.5 51q-15 11 -22 16q-23 17 -36.5 37t-19 50.5t-6.5 51.5t-1 65v19q0 83 56 155t138 111t164 39q236 0 301 -186q19 -52 19 -109q0 -26 -60.5 -45.5t-99.5 -17.5q-36 3 -47 72 q-4 24 -10 39t-27 28t-57 13z" />
<glyph unicode="&#x160;" horiz-adv-x="884" d="M887 1933q14 0 55 -51t41 -67q0 -13 -23 -35.5t-58.5 -50t-43.5 -35.5q-33 -32 -107 -78.5t-104 -46.5q-28 0 -58 24t-72 77l-42 52q-19 22 -48.5 64t-29.5 57q0 29 49.5 54.5t81.5 25.5q18 0 73.5 -66.5t60.5 -66.5q17 0 68 34t67 52q51 57 90 57zM575 1487 q62 0 122 -14.5t113.5 -44.5t86.5 -83t33 -122q0 -31 -69 -55.5t-109 -24.5q-7 0 -12 10.5t-10 26t-9 22.5q-26 36 -69.5 56t-90.5 20q-102 0 -145 -53.5t-43 -159.5q0 -56 52.5 -109.5t119.5 -95.5q50 -32 77 -50t65 -50.5t56.5 -62t33 -72.5t14.5 -93q0 -78 -13.5 -153.5 t-48 -151.5t-86 -132.5t-134 -92t-185.5 -35.5q-77 0 -152 32t-126.5 94.5t-51.5 139.5q0 31 12.5 98.5t24.5 84.5q21 28 145 28q74 0 74 -20t-15.5 -79t-15.5 -85q0 -30 27 -52t58 -30t58 -8q56 0 103.5 52t71.5 125.5t24 144.5q0 109 -145 194q-115 68 -190.5 160 t-75.5 203q0 207 108.5 322.5t316.5 115.5z" />
<glyph unicode="&#x161;" horiz-adv-x="808" d="M754 1585q14 0 55 -51.5t41 -67.5q0 -13 -23 -35t-58.5 -49.5t-43.5 -35.5q-33 -32 -107 -78.5t-104 -46.5q-28 0 -58 24t-72 77l-42 52q-19 22 -48.5 64t-29.5 57q0 29 49.5 54.5t81.5 25.5q18 0 73 -66.5t60 -66.5q17 0 68.5 34t67.5 52q51 57 90 57zM481 1126 q236 0 301 -186q19 -52 19 -109q0 -26 -60.5 -45.5t-99.5 -17.5q-36 3 -47 72q-4 24 -10 39t-27 28t-57 13q-46 0 -101 -30.5t-55 -72.5q0 -38 5 -55.5t11.5 -23.5t28 -19t41.5 -31q100 -90 152.5 -166t70 -145.5t17.5 -171.5q0 -99 -97 -163.5t-221 -64.5q-151 0 -250.5 80 t-99.5 195q0 27 54.5 63.5t84.5 36.5q15 0 27.5 -17t25 -41t30 -48t50.5 -41t78 -17q19 0 38.5 3.5t37.5 15t18 29.5q0 43 -6.5 78t-24 66.5t-32.5 53t-49.5 51.5t-56 46t-69.5 51q-15 11 -22 16q-23 17 -36.5 37t-19 50.5t-6.5 51.5t-1 65v19q0 83 56 155t138 111t164 39z " />
</font>
</defs>
</svg>
