<?xml version="1.0" encoding="utf-8"?>
<!-- Generator: Adobe Illustrator 16.0.4, SVG Export Plug-In . SVG Version: 6.00 Build 0)  -->
<!DOCTYPE svg PUBLIC "-//W3C//DTD SVG 1.1//EN" "http://www.w3.org/Graphics/SVG/1.1/DTD/svg11.dtd">
<svg version="1.1" id="Layer_1" xmlns="http://www.w3.org/2000/svg" xmlns:xlink="http://www.w3.org/1999/xlink" x="0px" y="0px"
	 width="24px" height="24px" viewBox="0 0 24 24" enable-background="new 0 0 24 24" xml:space="preserve">
<g>
	<path fill-rule="evenodd" clip-rule="evenodd" fill="#222222" d="M11.999,0c0,2.662,0,5.244,0,7.827
		c0,0.184-0.001,0.367,0.001,0.549c0.013,1.015,0.606,1.622,1.622,1.625c2.517,0.007,5.034,0.002,7.551,0.002
		c0.249,0,0.499,0,0.829,0c0,0.196,0,0.37,0,0.544c0,3.883,0,7.768,0,11.653c0,1.247-0.553,1.799-1.799,1.799
		C14.736,24,9.268,24,3.8,24C2.554,24,2,23.446,2,22.201C2,15.399,2,8.599,2.001,1.799c0-1.249,0.549-1.798,1.798-1.798
		C6.35,0,8.901,0,11.45,0C11.613,0,11.776,0,11.999,0z"/>
	<path fill-rule="evenodd" clip-rule="evenodd" fill="#222222" d="M21.916,7.97c-2.634,0-5.24,0-7.879,0c0-2.619,0-5.223,0-7.875
		c0.686,0.061,1.293,0.315,1.779,0.772c1.042,0.98,2.054,1.993,3.067,3.004c0.765,0.763,1.529,1.529,2.262,2.323
		C21.591,6.679,21.832,7.282,21.916,7.97z"/>
</g>
</svg>
